999
DXF file: c-2-2213818-1-b-2d.dxf
999
Pro/ENGINEER 2021072 by Parametric Technology Corporation
  0
SECTION
  2
HEADER
  9
$ACADVER
  1
AC1014
  9
$DWGCODEPAGE
  3
ANSI_1252
  9
$EXTMAX
 10
420.0
 20
297.0
 30
0.0
  9
$EXTMIN
 10
0.0
 20
0.0
 30
0.0
  9
$LIMMIN
 10
0.0
 20
0.0
  9
$LIMMAX
 10
420.0
 20
297.0
  9
$VIEWCTR
 10
210.0
 20
148.5
  9
$VIEWSIZE
 40
297.0
  9
$CLAYER
  8
0
  9
$LTSCALE
 40
23.1
  9
$CELTYPE
  6
BYLAYER
  9
$DIMSCALE
 40
1.0
  9
$DIMASZ
 40
4.5
  9
$DIMEXO
 40
1.5
  9
$DIMDLI
 40
15.96
  9
$DIMEXE
 40
3.0
  9
$DIMCEN
 40
3.78
  9
$DIMLFAC
 40
0.2
  9
$DIMBLK
  1
_CLOSED
  9
$DIMALT
 70
0
  9
$DIMALTF
 40
0.0393700787
  9
$DIMTXT
 40
3.0
  9
$DIMTOL
 70
1
  9
$DIMLIM
 70
0
  9
$DIMTFAC
 40
1.0
  9
$DIMTP
 40
0.01
  9
$DIMTM
 40
0.01
  9
$DIMGAP
 40
0.625
  9
$AUNITS
 70
0
  9
$PDMODE
 70
3
  9
$PDSIZE
 40
0.3125
  9
$HANDSEED
  5
475
  9
$TILEMODE
 70
1
  9
$MEASUREMENT
 70
1
  0
ENDSEC
  0
SECTION
  2
CLASSES
  0
ENDSEC
  0
SECTION
  2
TABLES
  0
TABLE
  2
VPORT
  5
8
100
AcDbSymbolTable
 70
2
  0
VPORT
  5
1F4
100
AcDbSymbolTableRecord
100
AcDbViewportTableRecord
  2
*ACTIVE
 70
0
 10
0.0
 20
0.0
 11
1.0
 21
1.0
 12
210.0
 22
148.5
 13
0.0
 23
0.0
 14
1.0
 24
1.0
 15
0.0
 25
0.0
 16
0.0
 26
0.0
 36
1.0
 17
0.0
 27
0.0
 37
0.0
 40
297.0
 41
1.4141414141
 42
50.0
 43
0.0
 44
0.0
 50
0.0
 51
0.0
 71
0
 72
100
 73
1
 74
1
 75
0
 76
0
 77
0
 78
0
  0
ENDTAB
  0
TABLE
  2
LTYPE
  5
5
100
AcDbSymbolTable
 70
6
  0
LTYPE
  5
14
100
AcDbSymbolTableRecord
100
AcDbLinetypeTableRecord
  2
BYBLOCK
 70
0
  3

 72
65
 73
0
 40
0.0
  0
LTYPE
  5
15
100
AcDbSymbolTableRecord
100
AcDbLinetypeTableRecord
  2
BYLAYER
 70
0
  3

 72
65
 73
0
 40
0.0
  0
LTYPE
  5
16
100
AcDbSymbolTableRecord
100
AcDbLinetypeTableRecord
  2
CONTINUOUS
 70
64
  3
Solid line
 72
65
 73
0
 40
0.0
  0
LTYPE
  5
1F5
100
AcDbSymbolTableRecord
100
AcDbLinetypeTableRecord
  2
CENTER
 70
64
  3
____ _ ____ _ ____ _ ____ _ ____ _ ____ _ ____
 72
65
 73
4
 40
0.6
 49
0.375
 74
0
 49
-0.075
 74
0
 49
0.075
 74
0
 49
-0.075
 74
0
  0
LTYPE
  5
1F6
100
AcDbSymbolTableRecord
100
AcDbLinetypeTableRecord
  2
HIDDEN
 70
64
  3
- - - - - - - - - - - - - - - - - - - -
 72
65
 73
2
 40
0.2
 49
0.1
 74
0
 49
-0.1
 74
0
  0
LTYPE
  5
1F7
100
AcDbSymbolTableRecord
100
AcDbLinetypeTableRecord
  2
PHANTOM
 70
64
  3
_____ _ _ _____ _ _ _____ _ _ _____
 72
65
 73
6
 40
0.8
 49
0.45
 74
0
 49
-0.05
 74
0
 49
0.1
 74
0
 49
-0.05
 74
0
 49
0.1
 74
0
 49
-0.05
 74
0
  0
LTYPE
  5
1F8
100
AcDbSymbolTableRecord
100
AcDbLinetypeTableRecord
  2
DOT
 70
64
  3
. . . . . . . . . . . . . . . . . . . .
 72
65
 73
2
 40
0.2
 49
0.1
 74
0
 49
-0.1
 74
0
  0
LTYPE
  5
1F9
100
AcDbSymbolTableRecord
100
AcDbLinetypeTableRecord
  2
DASHED
 70
64
  3
- - - - - - - - - - - - - - - - - - - -
 72
65
 73
2
 40
0.2
 49
0.1
 74
0
 49
-0.1
 74
0
  0
ENDTAB
  0
TABLE
  2
LAYER
  5
2
100
AcDbSymbolTable
 70
36
  0
LAYER
  5
10
100
AcDbSymbolTableRecord
100
AcDbLayerTableRecord
  2
0
 70
0
 62
7
  6
CONTINUOUS
  0
LAYER
  5
1FA
100
AcDbSymbolTableRecord
100
AcDbLayerTableRecord
  2
DEFAULT_1
 70
0
 62
7
  6
CENTER
  0
LAYER
  5
1FB
100
AcDbSymbolTableRecord
100
AcDbLayerTableRecord
  2
DEFAULT_2
 70
0
 62
8
  6
HIDDEN
  0
LAYER
  5
1FC
100
AcDbSymbolTableRecord
100
AcDbLayerTableRecord
  2
DEFAULT_3
 70
0
 62
7
  6
PHANTOM
  0
LAYER
  5
1FD
100
AcDbSymbolTableRecord
100
AcDbLayerTableRecord
  2
DRAFT_ENTITY
 70
0
 62
7
  6
CONTINUOUS
  0
LAYER
  5
1FE
100
AcDbSymbolTableRecord
100
AcDbLayerTableRecord
  2
DRAFT_GEOM
 70
0
 62
7
  6
CONTINUOUS
  0
LAYER
  5
1FF
100
AcDbSymbolTableRecord
100
AcDbLayerTableRecord
  2
DRAFT_GRP
 70
0
 62
7
  6
CONTINUOUS
  0
LAYER
  5
200
100
AcDbSymbolTableRecord
100
AcDbLayerTableRecord
  2
DRAFT_OTHER
 70
0
 62
7
  6
CONTINUOUS
  0
LAYER
  5
201
100
AcDbSymbolTableRecord
100
AcDbLayerTableRecord
  2
DTM_ALL
 70
0
 62
7
  6
CONTINUOUS
  0
LAYER
  5
202
100
AcDbSymbolTableRecord
100
AcDbLayerTableRecord
  2
DTM_AXIS
 70
0
 62
7
  6
CONTINUOUS
  0
LAYER
  5
203
100
AcDbSymbolTableRecord
100
AcDbLayerTableRecord
  2
DTM_MAJOR
 70
0
 62
7
  6
CONTINUOUS
  0
LAYER
  5
204
100
AcDbSymbolTableRecord
100
AcDbLayerTableRecord
  2
NOTE
 70
0
 62
7
  6
CONTINUOUS
  0
ENDTAB
  0
TABLE
  2
STYLE
  5
3
100
AcDbSymbolTable
 70
1
  0
STYLE
  5
11
100
AcDbSymbolTableRecord
100
AcDbTextStyleTableRecord
  2
STANDARD
 70
0
 40
0.0
 41
0.95
 50
0.0
 71
0
 42
0.2
  3
txt
  4

  0
STYLE
  5
205
100
AcDbSymbolTableRecord
100
AcDbTextStyleTableRecord
  2
TEXTSTYLE_1
 70
0
 40
0.0
 41
0.8
 50
0.0
 71
0
 42
0.2
  3
gdt
  4

  0
STYLE
  5
206
100
AcDbSymbolTableRecord
100
AcDbTextStyleTableRecord
  2
TEXTSTYLE_2
 70
0
 40
0.0
 41
0.8
 50
0.0
 71
0
 42
0.2
  3
txt
  4

  0
ENDTAB
  0
TABLE
  2
VIEW
  5
6
100
AcDbSymbolTable
 70
0
  0
ENDTAB
  0
TABLE
  2
UCS
  5
7
100
AcDbSymbolTable
 70
0
  0
ENDTAB
  0
TABLE
  2
APPID
  5
9
100
AcDbSymbolTable
 70
1
  0
APPID
  5
207
100
AcDbSymbolTableRecord
100
AcDbRegAppTableRecord
  2
ACAD
 70
0
  0
ENDTAB
  0
TABLE
  2
BLOCK_RECORD
  5
1
100
AcDbSymbolTable
 70
0
  0
BLOCK_RECORD
  5
1F
100
AcDbSymbolTableRecord
100
AcDbBlockTableRecord
  2
*MODEL_SPACE
  0
BLOCK_RECORD
  5
1B
100
AcDbSymbolTableRecord
100
AcDbBlockTableRecord
  2
*PAPER_SPACE
  0
BLOCK_RECORD
  5
208
100
AcDbSymbolTableRecord
100
AcDbBlockTableRecord
  2
_CLOSED
  0
BLOCK_RECORD
  5
209
100
AcDbSymbolTableRecord
100
AcDbBlockTableRecord
  2
TE_CONNECTIVITY_BL0
  0
ENDTAB
  0
TABLE
  2
DIMSTYLE
  5
A
100
AcDbSymbolTable
 70
1
  0
DIMSTYLE
105
20A
100
AcDbSymbolTableRecord
100
AcDbDimStyleTableRecord
  2
STANDARD
 70
0
  3

  4

  5
_CLOSED
  6
_CLOSED
  7
_CLOSED
 40
1.0
 41
4.5
 42
1.5
 43
0.38
 44
3.0
 45
0.0
 46
0.0
 47
0.01
 48
0.01
140
3.0
141
0.09
142
0.0
143
25.4
144
1.0
145
0.0
146
1.0
147
0.625
 71
1
 72
0
 73
1
 74
1
 75
0
 76
0
 77
0
 78
8
 79
2
170
0
171
1
172
0
173
0
174
0
175
0
176
0
177
0
178
0
270
2
271
2
272
2
273
2
274
2
275
0
280
0
281
0
282
0
283
1
284
8
285
0
286
0
287
3
288
0
340
11
  0
ENDTAB
  0
ENDSEC
  0
SECTION
  2
BLOCKS
  0
BLOCK
  5
20
100
AcDbEntity
  8
0
100
AcDbBlockBegin
  2
*MODEL_SPACE
 70
0
 10
0.0
 20
0.0
 30
0.0
  3
*MODEL_SPACE
  1

  0
ENDBLK
  5
21
100
AcDbEntity
  8
0
100
AcDbBlockEnd
  0
BLOCK
  5
1C
100
AcDbEntity
  8
0
100
AcDbBlockBegin
  2
*PAPER_SPACE
 70
0
 10
0.0
 20
0.0
 30
0.0
  3
*PAPER_SPACE
  1

  0
ENDBLK
  5
1D
100
AcDbEntity
  8
0
100
AcDbBlockEnd
  0
BLOCK
  5
20B
100
AcDbEntity
  8
0
100
AcDbBlockBegin
 62
2
  6
CONTINUOUS
  2
TE_CONNECTIVITY_BL0
 70
64
 10
315.0
 20
36.0
  3
TE_CONNECTIVITY_BL0
  1

  0
LINE
  5
20C
100
AcDbEntity
  8
0
100
AcDbLine
 62
2
  6
CONTINUOUS
 10
303.4442621268
 20
31.975
 11
311.2931594095
 21
31.975
  0
LINE
  5
20D
100
AcDbEntity
  8
0
100
AcDbLine
 62
2
  6
CONTINUOUS
 10
316.3319775183
 20
31.975
 11
318.4139164045
 21
31.975
  0
LINE
  5
20E
100
AcDbEntity
  8
0
100
AcDbLine
 62
2
  6
CONTINUOUS
 10
321.4865647769
 20
31.975
 11
327.8504615515
 21
31.975
  0
LINE
  5
20F
100
AcDbEntity
  8
0
100
AcDbLine
 62
2
  6
CONTINUOUS
 10
328.3338139487
 20
33.7788957044
 11
324.0176749741
 21
33.7788957044
  0
LINE
  5
210
100
AcDbEntity
  8
0
100
AcDbLine
 62
2
  6
CONTINUOUS
 10
311.2931594095
 20
34.2561326711
 11
303.4442621268
 21
34.2561326711
  0
LINE
  5
211
100
AcDbEntity
  8
0
100
AcDbLine
 62
2
  6
CONTINUOUS
 10
301.1331145522
 20
34.8594322328
 11
308.9820118349
 21
34.8594322328
  0
LINE
  5
212
100
AcDbEntity
  8
0
100
AcDbLine
 62
2
  6
CONTINUOUS
 10
316.0776474878
 20
40.0249971366
 11
315.5942950906
 21
38.2211014322
  0
LINE
  5
213
100
AcDbEntity
  8
0
100
AcDbLine
 62
2
  6
CONTINUOUS
 10
324.4045177413
 20
35.2226125659
 11
328.2576583666
 21
35.2226125659
  0
LINE
  5
214
100
AcDbEntity
  8
0
100
AcDbLine
 62
2
  6
CONTINUOUS
 10
328.6887347141
 20
36.8314113971
 11
324.8355940889
 21
36.8314113971
  0
LINE
  5
215
100
AcDbEntity
  8
0
100
AcDbLine
 62
2
  6
CONTINUOUS
 10
308.9820118349
 20
37.1405649038
 11
301.1331145522
 21
37.1405649038
  0
LINE
  5
216
100
AcDbEntity
  8
0
100
AcDbLine
 62
2
  6
CONTINUOUS
 10
304.9810251894
 20
37.7438644655
 11
312.8299224721
 21
37.7438644655
  0
LINE
  5
217
100
AcDbEntity
  8
0
100
AcDbLine
 62
2
  6
CONTINUOUS
 10
318.0056153529
 20
38.2211014322
 11
316.3319775183
 21
31.975
  0
LINE
  5
218
100
AcDbEntity
  8
0
100
AcDbLine
 62
2
  6
CONTINUOUS
 10
315.5942950906
 20
38.2211014322
 11
318.0056153529
 21
38.2211014322
  0
LINE
  5
219
100
AcDbEntity
  8
0
100
AcDbLine
 62
2
  6
CONTINUOUS
 10
320.0875542391
 20
38.2211014322
 11
322.4988745014
 21
38.2211014322
  0
LINE
  5
21A
100
AcDbEntity
  8
0
100
AcDbLine
 62
2
  6
CONTINUOUS
 10
325.2079604115
 20
38.2211014322
 11
329.5240993861
 21
38.2211014322
  0
LINE
  5
21B
100
AcDbEntity
  8
0
100
AcDbLine
 62
2
  6
CONTINUOUS
 10
330.0074517833
 20
40.0249971366
 11
323.6435550087
 21
40.0249971366
  0
LINE
  5
21C
100
AcDbEntity
  8
0
100
AcDbLine
 62
2
  6
CONTINUOUS
 10
322.9822268986
 20
40.0249971366
 11
316.0776474878
 21
40.0249971366
  0
LINE
  5
21D
100
AcDbEntity
  8
0
100
AcDbLine
 62
2
  6
CONTINUOUS
 10
312.8299224721
 20
40.0249971366
 11
304.9810251894
 21
40.0249971366
  0
LINE
  5
21E
100
AcDbEntity
  8
0
100
AcDbLine
 62
2
  6
CONTINUOUS
 10
318.4139164045
 20
31.975
 11
320.0875542391
 21
38.2211014322
  0
LINE
  5
21F
100
AcDbEntity
  8
0
100
AcDbLine
 62
2
  6
CONTINUOUS
 10
322.4988745014
 20
38.2211014322
 11
322.9822268986
 21
40.0249971366
  0
LINE
  5
220
100
AcDbEntity
  8
0
100
AcDbLine
 62
2
  6
CONTINUOUS
 10
323.6435550087
 20
40.0249971366
 11
321.4865647769
 21
31.975
  0
LINE
  5
221
100
AcDbEntity
  8
0
100
AcDbLine
 62
2
  6
CONTINUOUS
 10
324.0176749741
 20
33.7788957044
 11
324.4045177413
 21
35.2226125659
  0
LINE
  5
222
100
AcDbEntity
  8
0
100
AcDbLine
 62
2
  6
CONTINUOUS
 10
324.8355940889
 20
36.8314113971
 11
325.2079604115
 21
38.2211014322
  0
LINE
  5
223
100
AcDbEntity
  8
0
100
AcDbLine
 62
2
  6
CONTINUOUS
 10
328.2576583666
 20
35.2226125659
 11
328.6887347141
 21
36.8314113971
  0
LINE
  5
224
100
AcDbEntity
  8
0
100
AcDbLine
 62
2
  6
CONTINUOUS
 10
327.8504615515
 20
31.975
 11
328.3338139487
 21
33.7788957044
  0
LINE
  5
225
100
AcDbEntity
  8
0
100
AcDbLine
 62
2
  6
CONTINUOUS
 10
329.5240993861
 20
38.2211014322
 11
330.0074517833
 21
40.0249971366
  0
ARC
  5
226
100
AcDbEntity
  8
0
100
AcDbCircle
 62
2
  6
CONTINUOUS
 10
304.9810251894
 20
38.884430801
 40
1.1405663355
100
AcDbArc
 50
90.0
 51
270.0
  0
ARC
  5
227
100
AcDbEntity
  8
0
100
AcDbCircle
 62
2
  6
CONTINUOUS
 10
312.8299224721
 20
38.884430801
 40
1.1405663355
100
AcDbArc
 50
270.0
 51
90.0
  0
ARC
  5
228
100
AcDbEntity
  8
0
100
AcDbCircle
 62
2
  6
CONTINUOUS
 10
311.2931594095
 20
33.1155663355
 40
1.1405663355
100
AcDbArc
 50
270.0
 51
90.0
  0
ARC
  5
229
100
AcDbEntity
  8
0
100
AcDbCircle
 62
2
  6
CONTINUOUS
 10
303.4442621268
 20
33.1155663355
 40
1.1405663355
100
AcDbArc
 50
90.0
 51
270.0
  0
ARC
  5
22A
100
AcDbEntity
  8
0
100
AcDbCircle
 62
2
  6
CONTINUOUS
 10
308.9820118349
 20
35.9999985683
 40
1.1405663355
100
AcDbArc
 50
270.0
 51
90.0
  0
ARC
  5
22B
100
AcDbEntity
  8
0
100
AcDbCircle
 62
2
  6
CONTINUOUS
 10
301.1331145522
 20
35.9999985683
 40
1.1405663355
100
AcDbArc
 50
90.0
 51
270.0
  0
LWPOLYLINE
  5
22C
100
AcDbEntity
  8
0
100
AcDbPolyline
 62
2
  6
CONTINUOUS
 90
50
 70
0
 10
304.8321514087
 20
40.0152434035
 10
304.9810251894
 20
40.025
 10
312.8299224721
 20
40.025
 10
312.9787962529
 20
40.0152434035
 10
313.125122762
 20
39.9861346138
 10
313.2663983123
 20
39.9381727309
 10
313.4002056399
 20
39.8721869044
 10
313.5242552644
 20
39.7893041338
 10
313.6364246624
 20
39.6909331688
 10
313.7347945842
 20
39.5787645087
 10
313.8176818934
 20
39.4547140529
 10
313.883668365
 20
39.3209070004
 10
313.9316249522
 20
39.1796295507
 10
313.9607311046
 20
39.0333047528
 10
313.9704888077
 20
38.8844281057
 10
313.9607311046
 20
38.7355595087
 10
313.9316249522
 20
38.5892266607
 10
313.883668365
 20
38.447957261
 10
313.8176818934
 20
38.3141502086
 10
313.7347945842
 20
38.1900997527
 10
313.6364246624
 20
38.0779310926
 10
313.5242552644
 20
37.9795601276
 10
313.4002056399
 20
37.8966693071
 10
313.2663983123
 20
37.8306834805
 10
313.125122762
 20
37.7827296476
 10
312.9787962529
 20
37.7536208579
 10
304.9810251894
 20
37.7438642614
 10
304.8321514087
 20
37.7536208579
 10
304.6858248996
 20
37.7827296476
 10
304.5445493493
 20
37.8306834805
 10
304.4107420217
 20
37.8966693071
 10
304.2866923972
 20
37.9795601276
 10
304.1745229992
 20
38.0779310926
 10
304.0761530773
 20
38.1900997527
 10
303.9932657682
 20
38.3141502086
 10
303.9272792966
 20
38.447957261
 10
303.8793227094
 20
38.5892266607
 10
303.850216557
 20
38.7355595087
 10
303.8404588539
 20
38.8844281057
 10
303.850216557
 20
39.0333047528
 10
303.8793227094
 20
39.1796295507
 10
303.9272792966
 20
39.3209070004
 10
303.9932657682
 20
39.4547140529
 10
304.0761530773
 20
39.5787645087
 10
304.1745229992
 20
39.6909331688
 10
304.2866923972
 20
39.7893041338
 10
304.4107420217
 20
39.8721869044
 10
304.5445493493
 20
39.9381727309
 10
304.6858248996
 20
39.9861346138
 10
304.8321514087
 20
40.0152434035
  0
HATCH
  5
22D
100
AcDbEntity
  8
0
100
AcDbHatch
 62
2
  6
CONTINUOUS
 10
0.0
 20
0.0
 30
0.0
210
0.0
220
0.0
230
1.0
  2
SOLID
 70
1
 71
1
 91
1
 92
1
 93
49
 72
1
 10
304.8321514087
 20
40.0152434035
 11
304.9810251894
 21
40.025
 72
1
 10
304.9810251894
 20
40.025
 11
312.8299224721
 21
40.025
 72
1
 10
312.8299224721
 20
40.025
 11
312.9787962529
 21
40.0152434035
 72
1
 10
312.9787962529
 20
40.0152434035
 11
313.125122762
 21
39.9861346138
 72
1
 10
313.125122762
 20
39.9861346138
 11
313.2663983123
 21
39.9381727309
 72
1
 10
313.2663983123
 20
39.9381727309
 11
313.4002056399
 21
39.8721869044
 72
1
 10
313.4002056399
 20
39.8721869044
 11
313.5242552644
 21
39.7893041338
 72
1
 10
313.5242552644
 20
39.7893041338
 11
313.6364246624
 21
39.6909331688
 72
1
 10
313.6364246624
 20
39.6909331688
 11
313.7347945842
 21
39.5787645087
 72
1
 10
313.7347945842
 20
39.5787645087
 11
313.8176818934
 21
39.4547140529
 72
1
 10
313.8176818934
 20
39.4547140529
 11
313.883668365
 21
39.3209070004
 72
1
 10
313.883668365
 20
39.3209070004
 11
313.9316249522
 21
39.1796295507
 72
1
 10
313.9316249522
 20
39.1796295507
 11
313.9607311046
 21
39.0333047528
 72
1
 10
313.9607311046
 20
39.0333047528
 11
313.9704888077
 21
38.8844281057
 72
1
 10
313.9704888077
 20
38.8844281057
 11
313.9607311046
 21
38.7355595087
 72
1
 10
313.9607311046
 20
38.7355595087
 11
313.9316249522
 21
38.5892266607
 72
1
 10
313.9316249522
 20
38.5892266607
 11
313.883668365
 21
38.447957261
 72
1
 10
313.883668365
 20
38.447957261
 11
313.8176818934
 21
38.3141502086
 72
1
 10
313.8176818934
 20
38.3141502086
 11
313.7347945842
 21
38.1900997527
 72
1
 10
313.7347945842
 20
38.1900997527
 11
313.6364246624
 21
38.0779310926
 72
1
 10
313.6364246624
 20
38.0779310926
 11
313.5242552644
 21
37.9795601276
 72
1
 10
313.5242552644
 20
37.9795601276
 11
313.4002056399
 21
37.8966693071
 72
1
 10
313.4002056399
 20
37.8966693071
 11
313.2663983123
 21
37.8306834805
 72
1
 10
313.2663983123
 20
37.8306834805
 11
313.125122762
 21
37.7827296476
 72
1
 10
313.125122762
 20
37.7827296476
 11
312.9787962529
 21
37.7536208579
 72
1
 10
312.9787962529
 20
37.7536208579
 11
304.9810251894
 21
37.7438642614
 72
1
 10
304.9810251894
 20
37.7438642614
 11
304.8321514087
 21
37.7536208579
 72
1
 10
304.8321514087
 20
37.7536208579
 11
304.6858248996
 21
37.7827296476
 72
1
 10
304.6858248996
 20
37.7827296476
 11
304.5445493493
 21
37.8306834805
 72
1
 10
304.5445493493
 20
37.8306834805
 11
304.4107420217
 21
37.8966693071
 72
1
 10
304.4107420217
 20
37.8966693071
 11
304.2866923972
 21
37.9795601276
 72
1
 10
304.2866923972
 20
37.9795601276
 11
304.1745229992
 21
38.0779310926
 72
1
 10
304.1745229992
 20
38.0779310926
 11
304.0761530773
 21
38.1900997527
 72
1
 10
304.0761530773
 20
38.1900997527
 11
303.9932657682
 21
38.3141502086
 72
1
 10
303.9932657682
 20
38.3141502086
 11
303.9272792966
 21
38.447957261
 72
1
 10
303.9272792966
 20
38.447957261
 11
303.8793227094
 21
38.5892266607
 72
1
 10
303.8793227094
 20
38.5892266607
 11
303.850216557
 21
38.7355595087
 72
1
 10
303.850216557
 20
38.7355595087
 11
303.8404588539
 21
38.8844281057
 72
1
 10
303.8404588539
 20
38.8844281057
 11
303.850216557
 21
39.0333047528
 72
1
 10
303.850216557
 20
39.0333047528
 11
303.8793227094
 21
39.1796295507
 72
1
 10
303.8793227094
 20
39.1796295507
 11
303.9272792966
 21
39.3209070004
 72
1
 10
303.9272792966
 20
39.3209070004
 11
303.9932657682
 21
39.4547140529
 72
1
 10
303.9932657682
 20
39.4547140529
 11
304.0761530773
 21
39.5787645087
 72
1
 10
304.0761530773
 20
39.5787645087
 11
304.1745229992
 21
39.6909331688
 72
1
 10
304.1745229992
 20
39.6909331688
 11
304.2866923972
 21
39.7893041338
 72
1
 10
304.2866923972
 20
39.7893041338
 11
304.4107420217
 21
39.8721869044
 72
1
 10
304.4107420217
 20
39.8721869044
 11
304.5445493493
 21
39.9381727309
 72
1
 10
304.5445493493
 20
39.9381727309
 11
304.6858248996
 21
39.9861346138
 72
1
 10
304.6858248996
 20
39.9861346138
 11
304.8321514087
 21
40.0152434035
 97
1
330
22C
 75
0
 76
1
 98
1
 10
0.0
 20
0.0
  0
LWPOLYLINE
  5
22E
100
AcDbEntity
  8
0
100
AcDbPolyline
 62
2
  6
CONTINUOUS
 90
9
 70
0
 10
315.5942950906
 20
38.2211002917
 10
316.0776474878
 20
40.025
 10
322.9822268986
 20
40.025
 10
322.4988745014
 20
38.2211002917
 10
320.0875542391
 20
38.2211002917
 10
318.4139164045
 20
31.9750028634
 10
316.3319775183
 20
31.9750028634
 10
318.0056153529
 20
38.2211002917
 10
315.5942950906
 20
38.2211002917
  0
HATCH
  5
22F
100
AcDbEntity
  8
0
100
AcDbHatch
 62
2
  6
CONTINUOUS
 10
0.0
 20
0.0
 30
0.0
210
0.0
220
0.0
230
1.0
  2
SOLID
 70
1
 71
1
 91
1
 92
1
 93
8
 72
1
 10
315.5942950906
 20
38.2211002917
 11
316.0776474878
 21
40.025
 72
1
 10
316.0776474878
 20
40.025
 11
322.9822268986
 21
40.025
 72
1
 10
322.9822268986
 20
40.025
 11
322.4988745014
 21
38.2211002917
 72
1
 10
322.4988745014
 20
38.2211002917
 11
320.0875542391
 21
38.2211002917
 72
1
 10
320.0875542391
 20
38.2211002917
 11
318.4139164045
 21
31.9750028634
 72
1
 10
318.4139164045
 20
31.9750028634
 11
316.3319775183
 21
31.9750028634
 72
1
 10
316.3319775183
 20
31.9750028634
 11
318.0056153529
 21
38.2211002917
 72
1
 10
318.0056153529
 20
38.2211002917
 11
315.5942950906
 21
38.2211002917
 97
1
330
22E
 75
0
 76
1
 98
1
 10
0.0
 20
0.0
  0
LWPOLYLINE
  5
230
100
AcDbEntity
  8
0
100
AcDbPolyline
 62
2
  6
CONTINUOUS
 90
6
 70
0
 10
330.0074517833
 20
40.025
 10
329.5240993861
 20
38.2211002917
 10
325.2079604115
 20
38.2211002917
 10
321.4865647769
 20
31.9750028634
 10
323.6435550087
 20
40.025
 10
330.0074517833
 20
40.025
  0
HATCH
  5
231
100
AcDbEntity
  8
0
100
AcDbHatch
 62
2
  6
CONTINUOUS
 10
0.0
 20
0.0
 30
0.0
210
0.0
220
0.0
230
1.0
  2
SOLID
 70
1
 71
1
 91
1
 92
1
 93
5
 72
1
 10
330.0074517833
 20
40.025
 11
329.5240993861
 21
38.2211002917
 72
1
 10
329.5240993861
 20
38.2211002917
 11
325.2079604115
 21
38.2211002917
 72
1
 10
325.2079604115
 20
38.2211002917
 11
321.4865647769
 21
31.9750028634
 72
1
 10
321.4865647769
 20
31.9750028634
 11
323.6435550087
 21
40.025
 72
1
 10
323.6435550087
 20
40.025
 11
330.0074517833
 21
40.025
 97
1
330
230
 75
0
 76
1
 98
1
 10
0.0
 20
0.0
  0
SOLID
  5
232
100
AcDbEntity
  8
0
100
AcDbTrace
 62
2
  6
CONTINUOUS
 10
312.9787962529
 20
37.7536208579
 11
312.8299224721
 21
37.7438642614
 12
304.9810251894
 22
37.7438642614
 13
304.9810251894
 23
37.7438642614
  0
LWPOLYLINE
  5
233
100
AcDbEntity
  8
0
100
AcDbPolyline
 62
2
  6
CONTINUOUS
 90
50
 70
0
 10
300.9842407715
 20
37.1308086795
 10
301.1331145522
 20
37.140565276
 10
308.9820118349
 20
37.140565276
 10
309.1308856156
 20
37.1308086795
 10
309.2772121247
 20
37.1016998898
 10
309.418487675
 20
37.0537460569
 10
309.5522950027
 20
36.9877602304
 10
309.6763446272
 20
36.9048694098
 10
309.7885140251
 20
36.8064984448
 10
309.886883947
 20
36.6943297847
 10
309.9697712562
 20
36.5702793289
 10
310.0357577278
 20
36.4364722765
 10
310.083714315
 20
36.2952028767
 10
310.1128204673
 20
36.1488700288
 10
310.1225781704
 20
36.0000014317
 10
310.1128204673
 20
35.8511247847
 10
310.083714315
 20
35.7047999867
 10
310.0357577278
 20
35.563522537
 10
309.9697712562
 20
35.4297154846
 10
309.886883947
 20
35.3056650287
 10
309.7885140251
 20
35.1934963686
 10
309.6763446272
 20
35.0951254036
 10
309.5522950027
 20
35.0122426331
 10
309.418487675
 20
34.9462487565
 10
309.2772121247
 20
34.8982949236
 10
309.1308856156
 20
34.8691861339
 10
301.1331145522
 20
34.8594295374
 10
300.9842407715
 20
34.8691861339
 10
300.8379142624
 20
34.8982949236
 10
300.6966387121
 20
34.9462487565
 10
300.5628313844
 20
35.0122426331
 10
300.4387817599
 20
35.0951254036
 10
300.326612362
 20
35.1934963686
 10
300.2282424401
 20
35.3056650287
 10
300.1453551309
 20
35.4297154846
 10
300.0793686593
 20
35.563522537
 10
300.0314120721
 20
35.7047999867
 10
300.0023059198
 20
35.8511247847
 10
299.9925482167
 20
36.0000014317
 10
300.0023059198
 20
36.1488700288
 10
300.0314120721
 20
36.2952028767
 10
300.0793686593
 20
36.4364722765
 10
300.1453551309
 20
36.5702793289
 10
300.2282424401
 20
36.6943297847
 10
300.326612362
 20
36.8064984448
 10
300.4387817599
 20
36.9048694098
 10
300.5628313844
 20
36.9877602304
 10
300.6966387121
 20
37.0537460569
 10
300.8379142624
 20
37.1016998898
 10
300.9842407715
 20
37.1308086795
  0
HATCH
  5
234
100
AcDbEntity
  8
0
100
AcDbHatch
 62
2
  6
CONTINUOUS
 10
0.0
 20
0.0
 30
0.0
210
0.0
220
0.0
230
1.0
  2
SOLID
 70
1
 71
1
 91
1
 92
1
 93
49
 72
1
 10
300.9842407715
 20
37.1308086795
 11
301.1331145522
 21
37.140565276
 72
1
 10
301.1331145522
 20
37.140565276
 11
308.9820118349
 21
37.140565276
 72
1
 10
308.9820118349
 20
37.140565276
 11
309.1308856156
 21
37.1308086795
 72
1
 10
309.1308856156
 20
37.1308086795
 11
309.2772121247
 21
37.1016998898
 72
1
 10
309.2772121247
 20
37.1016998898
 11
309.418487675
 21
37.0537460569
 72
1
 10
309.418487675
 20
37.0537460569
 11
309.5522950027
 21
36.9877602304
 72
1
 10
309.5522950027
 20
36.9877602304
 11
309.6763446272
 21
36.9048694098
 72
1
 10
309.6763446272
 20
36.9048694098
 11
309.7885140251
 21
36.8064984448
 72
1
 10
309.7885140251
 20
36.8064984448
 11
309.886883947
 21
36.6943297847
 72
1
 10
309.886883947
 20
36.6943297847
 11
309.9697712562
 21
36.5702793289
 72
1
 10
309.9697712562
 20
36.5702793289
 11
310.0357577278
 21
36.4364722765
 72
1
 10
310.0357577278
 20
36.4364722765
 11
310.083714315
 21
36.2952028767
 72
1
 10
310.083714315
 20
36.2952028767
 11
310.1128204673
 21
36.1488700288
 72
1
 10
310.1128204673
 20
36.1488700288
 11
310.1225781704
 21
36.0000014317
 72
1
 10
310.1225781704
 20
36.0000014317
 11
310.1128204673
 21
35.8511247847
 72
1
 10
310.1128204673
 20
35.8511247847
 11
310.083714315
 21
35.7047999867
 72
1
 10
310.083714315
 20
35.7047999867
 11
310.0357577278
 21
35.563522537
 72
1
 10
310.0357577278
 20
35.563522537
 11
309.9697712562
 21
35.4297154846
 72
1
 10
309.9697712562
 20
35.4297154846
 11
309.886883947
 21
35.3056650287
 72
1
 10
309.886883947
 20
35.3056650287
 11
309.7885140251
 21
35.1934963686
 72
1
 10
309.7885140251
 20
35.1934963686
 11
309.6763446272
 21
35.0951254036
 72
1
 10
309.6763446272
 20
35.0951254036
 11
309.5522950027
 21
35.0122426331
 72
1
 10
309.5522950027
 20
35.0122426331
 11
309.418487675
 21
34.9462487565
 72
1
 10
309.418487675
 20
34.9462487565
 11
309.2772121247
 21
34.8982949236
 72
1
 10
309.2772121247
 20
34.8982949236
 11
309.1308856156
 21
34.8691861339
 72
1
 10
309.1308856156
 20
34.8691861339
 11
301.1331145522
 21
34.8594295374
 72
1
 10
301.1331145522
 20
34.8594295374
 11
300.9842407715
 21
34.8691861339
 72
1
 10
300.9842407715
 20
34.8691861339
 11
300.8379142624
 21
34.8982949236
 72
1
 10
300.8379142624
 20
34.8982949236
 11
300.6966387121
 21
34.9462487565
 72
1
 10
300.6966387121
 20
34.9462487565
 11
300.5628313844
 21
35.0122426331
 72
1
 10
300.5628313844
 20
35.0122426331
 11
300.4387817599
 21
35.0951254036
 72
1
 10
300.4387817599
 20
35.0951254036
 11
300.326612362
 21
35.1934963686
 72
1
 10
300.326612362
 20
35.1934963686
 11
300.2282424401
 21
35.3056650287
 72
1
 10
300.2282424401
 20
35.3056650287
 11
300.1453551309
 21
35.4297154846
 72
1
 10
300.1453551309
 20
35.4297154846
 11
300.0793686593
 21
35.563522537
 72
1
 10
300.0793686593
 20
35.563522537
 11
300.0314120721
 21
35.7047999867
 72
1
 10
300.0314120721
 20
35.7047999867
 11
300.0023059198
 21
35.8511247847
 72
1
 10
300.0023059198
 20
35.8511247847
 11
299.9925482167
 21
36.0000014317
 72
1
 10
299.9925482167
 20
36.0000014317
 11
300.0023059198
 21
36.1488700288
 72
1
 10
300.0023059198
 20
36.1488700288
 11
300.0314120721
 21
36.2952028767
 72
1
 10
300.0314120721
 20
36.2952028767
 11
300.0793686593
 21
36.4364722765
 72
1
 10
300.0793686593
 20
36.4364722765
 11
300.1453551309
 21
36.5702793289
 72
1
 10
300.1453551309
 20
36.5702793289
 11
300.2282424401
 21
36.6943297847
 72
1
 10
300.2282424401
 20
36.6943297847
 11
300.326612362
 21
36.8064984448
 72
1
 10
300.326612362
 20
36.8064984448
 11
300.4387817599
 21
36.9048694098
 72
1
 10
300.4387817599
 20
36.9048694098
 11
300.5628313844
 21
36.9877602304
 72
1
 10
300.5628313844
 20
36.9877602304
 11
300.6966387121
 21
37.0537460569
 72
1
 10
300.6966387121
 20
37.0537460569
 11
300.8379142624
 21
37.1016998898
 72
1
 10
300.8379142624
 20
37.1016998898
 11
300.9842407715
 21
37.1308086795
 97
1
330
233
 75
0
 76
1
 98
1
 10
0.0
 20
0.0
  0
LWPOLYLINE
  5
235
100
AcDbEntity
  8
0
100
AcDbPolyline
 62
2
  6
CONTINUOUS
 90
7
 70
0
 10
328.6887347141
 20
36.831413186
 10
328.2576583666
 20
35.2226132082
 10
324.4045177413
 20
35.2226132082
 10
321.4865647769
 20
31.9750028634
 10
325.2079604115
 20
38.2211002917
 10
324.8355940889
 20
36.831413186
 10
328.6887347141
 20
36.831413186
  0
HATCH
  5
236
100
AcDbEntity
  8
0
100
AcDbHatch
 62
2
  6
CONTINUOUS
 10
0.0
 20
0.0
 30
0.0
210
0.0
220
0.0
230
1.0
  2
SOLID
 70
1
 71
1
 91
1
 92
1
 93
6
 72
1
 10
328.6887347141
 20
36.831413186
 11
328.2576583666
 21
35.2226132082
 72
1
 10
328.2576583666
 20
35.2226132082
 11
324.4045177413
 21
35.2226132082
 72
1
 10
324.4045177413
 20
35.2226132082
 11
321.4865647769
 21
31.9750028634
 72
1
 10
321.4865647769
 20
31.9750028634
 11
325.2079604115
 21
38.2211002917
 72
1
 10
325.2079604115
 20
38.2211002917
 11
324.8355940889
 21
36.831413186
 72
1
 10
324.8355940889
 20
36.831413186
 11
328.6887347141
 21
36.831413186
 97
1
330
235
 75
0
 76
1
 98
1
 10
0.0
 20
0.0
  0
SOLID
  5
237
100
AcDbEntity
  8
0
100
AcDbTrace
 62
2
  6
CONTINUOUS
 10
309.1308856156
 20
34.8691861339
 11
308.9820118349
 21
34.8594295374
 12
301.1331145522
 22
34.8594295374
 13
301.1331145522
 23
34.8594295374
  0
LWPOLYLINE
  5
238
100
AcDbEntity
  8
0
100
AcDbPolyline
 62
2
  6
CONTINUOUS
 90
50
 70
0
 10
303.2953883461
 20
34.2463739555
 10
303.4442621268
 20
34.256130552
 10
311.2931594095
 20
34.256130552
 10
311.4420331903
 20
34.2463739555
 10
311.5883596994
 20
34.2172651658
 10
311.7296352496
 20
34.1693113329
 10
311.8634425773
 20
34.1033255064
 10
311.9874922018
 20
34.0204346859
 10
312.0996615998
 20
33.9220717708
 10
312.1980315216
 20
33.8099031107
 10
312.2809188308
 20
33.6858526549
 10
312.3469053024
 20
33.5520456025
 10
312.3948618896
 20
33.4107681527
 10
312.4239680419
 20
33.2644433548
 10
312.4337257451
 20
33.1155667077
 10
312.4239680419
 20
32.9666900607
 10
312.3948618896
 20
32.8203652627
 10
312.3469053024
 20
32.679087813
 10
312.2809188308
 20
32.5452807606
 10
312.1980315216
 20
32.4212303047
 10
312.0996615998
 20
32.3090616446
 10
311.9874922018
 20
32.2106906796
 10
311.8634425773
 20
32.1278079091
 10
311.7296352496
 20
32.0618220825
 10
311.5883596994
 20
32.0138601996
 10
311.4420331903
 20
31.98475946
 10
303.4442621268
 20
31.9750028634
 10
303.2953883461
 20
31.98475946
 10
303.149061837
 20
32.0138601996
 10
303.0077862867
 20
32.0618220825
 10
302.8739789591
 20
32.1278079091
 10
302.7499293345
 20
32.2106906796
 10
302.6377599366
 20
32.3090616446
 10
302.5393900147
 20
32.4212303047
 10
302.4565027056
 20
32.5452807606
 10
302.390516234
 20
32.679087813
 10
302.3425596467
 20
32.8203652627
 10
302.3134534944
 20
32.9666900607
 10
302.3036957913
 20
33.1155667077
 10
302.3134534944
 20
33.2644433548
 10
302.3425596467
 20
33.4107681527
 10
302.390516234
 20
33.5520456025
 10
302.4565027056
 20
33.6858526549
 10
302.5393900147
 20
33.8099031107
 10
302.6377599366
 20
33.9220717708
 10
302.7499293345
 20
34.0204346859
 10
302.8739789591
 20
34.1033255064
 10
303.0077862867
 20
34.1693113329
 10
303.149061837
 20
34.2172651658
 10
303.2953883461
 20
34.2463739555
  0
HATCH
  5
239
100
AcDbEntity
  8
0
100
AcDbHatch
 62
2
  6
CONTINUOUS
 10
0.0
 20
0.0
 30
0.0
210
0.0
220
0.0
230
1.0
  2
SOLID
 70
1
 71
1
 91
1
 92
1
 93
49
 72
1
 10
303.2953883461
 20
34.2463739555
 11
303.4442621268
 21
34.256130552
 72
1
 10
303.4442621268
 20
34.256130552
 11
311.2931594095
 21
34.256130552
 72
1
 10
311.2931594095
 20
34.256130552
 11
311.4420331903
 21
34.2463739555
 72
1
 10
311.4420331903
 20
34.2463739555
 11
311.5883596994
 21
34.2172651658
 72
1
 10
311.5883596994
 20
34.2172651658
 11
311.7296352496
 21
34.1693113329
 72
1
 10
311.7296352496
 20
34.1693113329
 11
311.8634425773
 21
34.1033255064
 72
1
 10
311.8634425773
 20
34.1033255064
 11
311.9874922018
 21
34.0204346859
 72
1
 10
311.9874922018
 20
34.0204346859
 11
312.0996615998
 21
33.9220717708
 72
1
 10
312.0996615998
 20
33.9220717708
 11
312.1980315216
 21
33.8099031107
 72
1
 10
312.1980315216
 20
33.8099031107
 11
312.2809188308
 21
33.6858526549
 72
1
 10
312.2809188308
 20
33.6858526549
 11
312.3469053024
 21
33.5520456025
 72
1
 10
312.3469053024
 20
33.5520456025
 11
312.3948618896
 21
33.4107681527
 72
1
 10
312.3948618896
 20
33.4107681527
 11
312.4239680419
 21
33.2644433548
 72
1
 10
312.4239680419
 20
33.2644433548
 11
312.4337257451
 21
33.1155667077
 72
1
 10
312.4337257451
 20
33.1155667077
 11
312.4239680419
 21
32.9666900607
 72
1
 10
312.4239680419
 20
32.9666900607
 11
312.3948618896
 21
32.8203652627
 72
1
 10
312.3948618896
 20
32.8203652627
 11
312.3469053024
 21
32.679087813
 72
1
 10
312.3469053024
 20
32.679087813
 11
312.2809188308
 21
32.5452807606
 72
1
 10
312.2809188308
 20
32.5452807606
 11
312.1980315216
 21
32.4212303047
 72
1
 10
312.1980315216
 20
32.4212303047
 11
312.0996615998
 21
32.3090616446
 72
1
 10
312.0996615998
 20
32.3090616446
 11
311.9874922018
 21
32.2106906796
 72
1
 10
311.9874922018
 20
32.2106906796
 11
311.8634425773
 21
32.1278079091
 72
1
 10
311.8634425773
 20
32.1278079091
 11
311.7296352496
 21
32.0618220825
 72
1
 10
311.7296352496
 20
32.0618220825
 11
311.5883596994
 21
32.0138601996
 72
1
 10
311.5883596994
 20
32.0138601996
 11
311.4420331903
 21
31.98475946
 72
1
 10
311.4420331903
 20
31.98475946
 11
303.4442621268
 21
31.9750028634
 72
1
 10
303.4442621268
 20
31.9750028634
 11
303.2953883461
 21
31.98475946
 72
1
 10
303.2953883461
 20
31.98475946
 11
303.149061837
 21
32.0138601996
 72
1
 10
303.149061837
 20
32.0138601996
 11
303.0077862867
 21
32.0618220825
 72
1
 10
303.0077862867
 20
32.0618220825
 11
302.8739789591
 21
32.1278079091
 72
1
 10
302.8739789591
 20
32.1278079091
 11
302.7499293345
 21
32.2106906796
 72
1
 10
302.7499293345
 20
32.2106906796
 11
302.6377599366
 21
32.3090616446
 72
1
 10
302.6377599366
 20
32.3090616446
 11
302.5393900147
 21
32.4212303047
 72
1
 10
302.5393900147
 20
32.4212303047
 11
302.4565027056
 21
32.5452807606
 72
1
 10
302.4565027056
 20
32.5452807606
 11
302.390516234
 21
32.679087813
 72
1
 10
302.390516234
 20
32.679087813
 11
302.3425596467
 21
32.8203652627
 72
1
 10
302.3425596467
 20
32.8203652627
 11
302.3134534944
 21
32.9666900607
 72
1
 10
302.3134534944
 20
32.9666900607
 11
302.3036957913
 21
33.1155667077
 72
1
 10
302.3036957913
 20
33.1155667077
 11
302.3134534944
 21
33.2644433548
 72
1
 10
302.3134534944
 20
33.2644433548
 11
302.3425596467
 21
33.4107681527
 72
1
 10
302.3425596467
 20
33.4107681527
 11
302.390516234
 21
33.5520456025
 72
1
 10
302.390516234
 20
33.5520456025
 11
302.4565027056
 21
33.6858526549
 72
1
 10
302.4565027056
 20
33.6858526549
 11
302.5393900147
 21
33.8099031107
 72
1
 10
302.5393900147
 20
33.8099031107
 11
302.6377599366
 21
33.9220717708
 72
1
 10
302.6377599366
 20
33.9220717708
 11
302.7499293345
 21
34.0204346859
 72
1
 10
302.7499293345
 20
34.0204346859
 11
302.8739789591
 21
34.1033255064
 72
1
 10
302.8739789591
 20
34.1033255064
 11
303.0077862867
 21
34.1693113329
 72
1
 10
303.0077862867
 20
34.1693113329
 11
303.149061837
 21
34.2172651658
 72
1
 10
303.149061837
 20
34.2172651658
 11
303.2953883461
 21
34.2463739555
 97
1
330
238
 75
0
 76
1
 98
1
 10
0.0
 20
0.0
  0
SOLID
  5
23A
100
AcDbEntity
  8
0
100
AcDbTrace
 62
2
  6
CONTINUOUS
 10
311.4420331903
 20
31.98475946
 11
311.2931594095
 21
31.9750028634
 12
303.4442621268
 22
31.9750028634
 13
303.4442621268
 23
31.9750028634
  0
LWPOLYLINE
  5
23B
100
AcDbEntity
  8
0
100
AcDbPolyline
 62
2
  6
CONTINUOUS
 90
6
 70
0
 10
328.3338139487
 20
33.7788945218
 10
327.8504615515
 20
31.9750028634
 10
321.4865647769
 20
31.9750028634
 10
324.4045177413
 20
35.2226132082
 10
324.0176749741
 20
33.7788945218
 10
328.3338139487
 20
33.7788945218
  0
HATCH
  5
23C
100
AcDbEntity
  8
0
100
AcDbHatch
 62
2
  6
CONTINUOUS
 10
0.0
 20
0.0
 30
0.0
210
0.0
220
0.0
230
1.0
  2
SOLID
 70
1
 71
1
 91
1
 92
1
 93
5
 72
1
 10
328.3338139487
 20
33.7788945218
 11
327.8504615515
 21
31.9750028634
 72
1
 10
327.8504615515
 20
31.9750028634
 11
321.4865647769
 21
31.9750028634
 72
1
 10
321.4865647769
 20
31.9750028634
 11
324.4045177413
 21
35.2226132082
 72
1
 10
324.4045177413
 20
35.2226132082
 11
324.0176749741
 21
33.7788945218
 72
1
 10
324.0176749741
 20
33.7788945218
 11
328.3338139487
 21
33.7788945218
 97
1
330
23B
 75
0
 76
1
 98
1
 10
0.0
 20
0.0
  0
ENDBLK
  5
23D
100
AcDbEntity
  8
0
  6
BYBLOCK
 62
0
100
AcDbBlockEnd
  0
BLOCK
  5
23E
100
AcDbEntity
  8
0
100
AcDbBlockBegin
  2
_CLOSED
 70
64
 10
0.0
 20
0.0
  3
_CLOSED
  1

  0
LINE
  5
23F
100
AcDbEntity
  8
0
  6
BYBLOCK
 62
0
100
AcDbLine
 10
0.0
 20
0.0
 11
-1.0
 21
0.1666666667
  0
LINE
  5
240
100
AcDbEntity
  8
0
  6
BYBLOCK
 62
0
100
AcDbLine
 10
-1.0
 20
0.1666666667
 11
-1.0
 21
-0.1666666667
  0
LINE
  5
241
100
AcDbEntity
  8
0
  6
BYBLOCK
 62
0
100
AcDbLine
 10
-1.0
 20
-0.1666666667
 11
0.0
 21
0.0
  0
LINE
  5
242
100
AcDbEntity
  8
0
  6
BYBLOCK
 62
0
100
AcDbLine
 10
-1.0
 20
0.0
 11
0.0
 21
0.0
  0
ENDBLK
  5
243
100
AcDbEntity
  8
0
  6
BYBLOCK
 62
0
100
AcDbBlockEnd
  0
ENDSEC
  0
SECTION
  2
ENTITIES
  0
TEXT
  5
244
100
AcDbEntity
  8
0
100
AcDbText
 62
2
  6
CONTINUOUS
 10
273.9447944556
 20
16.2331743479
  7
STANDARD
 40
1.5200002147
  1
SIZE
 41
0.95
 72
0
100
AcDbText
  0
TEXT
  5
245
100
AcDbEntity
  8
0
100
AcDbText
 62
2
  6
CONTINUOUS
 10
287.5144966041
 20
16.2331819773
  7
STANDARD
 40
1.5200002147
  1
DRAWING NO
 41
0.95
 72
0
100
AcDbText
  0
TEXT
  5
246
100
AcDbEntity
  8
0
100
AcDbText
 62
2
  6
CONTINUOUS
 10
354.2964949762
 20
16.2330905319
  7
STANDARD
 40
1.52
  1
VERSION
 41
0.95
 72
0
100
AcDbText
  0
TEXT
  5
247
100
AcDbEntity
  8
0
100
AcDbText
 62
2
  6
CONTINUOUS
 10
274.4447944556
 20
25.5657549143
  7
STANDARD
 40
1.5200002147
  1
NAME
 41
0.95
 72
0
100
AcDbText
  0
TEXT
  5
248
100
AcDbEntity
  8
0
100
AcDbText
 62
2
  6
CONTINUOUS
 10
276.2800492314
 20
10.3485471083
  7
STANDARD
 40
4.9999998868
  1
A3
 41
0.95
 72
0
100
AcDbText
  0
TEXT
  5
249
100
AcDbEntity
  8
0
100
AcDbText
 62
2
  6
CONTINUOUS
 10
297.3906714731
 20
21.1920805906
  7
TEXTSTYLE_2
 40
3.968
  1
CUSTOMER VIEW MODEL DRAWING
 41
0.8
 72
1
 11
340.2450714731
 21
21.1920805906
100
AcDbText
  0
TEXT
  5
24A
100
AcDbEntity
  8
0
100
AcDbText
 62
2
  6
CONTINUOUS
 10
347.0299084682
 20
34.4224093775
  7
TEXTSTYLE_2
 40
2.5
  1
TE Connectivity
 41
0.8
 72
0
100
AcDbText
  0
TEXT
  5
24B
100
AcDbEntity
  8
0
100
AcDbText
 62
2
  6
CONTINUOUS
 10
369.5635822821
 20
16.2739597356
  7
STANDARD
 40
1.52
  1
DATE
 41
0.95
 72
0
100
AcDbText
  0
TEXT
  5
24C
100
AcDbEntity
  8
0
100
AcDbText
 62
2
  6
CONTINUOUS
 10
174.6476862981
 20
23.8368677885
  7
TEXTSTYLE_2
 40
2.286
  1
THIS IS NOT A CONTROLLED DRAWING.
 41
0.8
 72
0
100
AcDbText
  0
TEXT
  5
24D
100
AcDbEntity
  8
0
100
AcDbText
 62
2
  6
CONTINUOUS
 10
174.6476862981
 20
20.4078677885
  7
TEXTSTYLE_2
 40
2.286
  1
THIS IS A REPRESENTATION OF THE CUSTOMER VIEW MODEL.
 41
0.8
 72
0
100
AcDbText
  0
TEXT
  5
24E
100
AcDbEntity
  8
0
100
AcDbText
 62
2
  6
CONTINUOUS
 10
174.6476862981
 20
16.9788677885
  7
TEXTSTYLE_2
 40
2.286
  1
    THIS IS NOT THE DOCUMENT OF SALE.
 41
0.8
 72
0
100
AcDbText
  0
TEXT
  5
24F
100
AcDbEntity
  8
0
100
AcDbText
 62
2
  6
CONTINUOUS
 10
174.6476862981
 20
13.5498677885
  7
TEXTSTYLE_2
 40
2.286
  1
SEE THE CUSTOMER DRAWING FOR DESIGN PURPOSES.
 41
0.8
 72
0
100
AcDbText
  0
TEXT
  5
250
100
AcDbEntity
  8
0
100
AcDbText
 62
2
  6
CONTINUOUS
 10
22.7512107444
 20
282.4829655254
  7
TEXTSTYLE_2
 40
2.5
  1
c
 41
0.8
 72
0
100
AcDbText
  0
INSERT
  5
251
100
AcDbEntity
  8
0
100
AcDbBlockReference
 62
2
  6
CONTINUOUS
  2
TE_CONNECTIVITY_BL0
 10
315.0
 20
36.0
  0
LINE
  5
252
100
AcDbEntity
  8
0
100
AcDbLine
 62
2
  6
CONTINUOUS
 10
287.2090159416
 20
18.7593422635
 11
409.2090159416
 21
18.7593422635
  0
LINE
  5
253
100
AcDbEntity
  8
0
100
AcDbLine
 62
2
  6
CONTINUOUS
 10
287.2090159416
 20
18.7593422635
 11
287.2090159416
 21
9.2342522635
  0
LINE
  5
254
100
AcDbEntity
  8
0
100
AcDbLine
 62
2
  6
CONTINUOUS
 10
287.2090159416
 20
9.2342522635
 11
409.2090159416
 21
9.2342522635
  0
LINE
  5
255
100
AcDbEntity
  8
0
100
AcDbLine
 62
2
  6
CONTINUOUS
 10
353.3340159416
 20
18.7593422635
 11
353.3340159416
 21
9.2342522635
  0
LINE
  5
256
100
AcDbEntity
  8
0
100
AcDbLine
 62
2
  6
CONTINUOUS
 10
367.9590159416
 20
18.7593422635
 11
367.9590159416
 21
9.2342522635
  0
LINE
  5
257
100
AcDbEntity
  8
0
100
AcDbLine
 62
2
  6
CONTINUOUS
 10
409.2090159416
 20
18.7593422635
 11
409.2090159416
 21
9.2342522635
  0
TEXT
  5
258
100
AcDbEntity
  8
0
100
AcDbText
 62
2
  6
CONTINUOUS
 10
303.7355159416
 20
12.4067972635
  7
TEXTSTYLE_2
 40
3.18
  1
C-2-2213818-1
 41
0.8
 72
1
 11
320.2715159416
 21
12.4067972635
100
AcDbText
  0
TEXT
  5
259
100
AcDbEntity
  8
0
100
AcDbText
 62
2
  6
CONTINUOUS
 10
359.3745159416
 20
12.4067972635
  7
TEXTSTYLE_2
 40
3.18
  1
B
 41
0.8
 72
1
 11
360.6465159416
 21
12.4067972635
100
AcDbText
  0
TEXT
  5
25A
100
AcDbEntity
  8
0
100
AcDbText
 62
2
  6
CONTINUOUS
 10
377.1360159416
 20
12.4067972635
  7
TEXTSTYLE_2
 40
3.18
  1
02-Dec-21
 41
0.8
 72
1
 11
388.5840159416
 21
12.4067972635
100
AcDbText
  0
LINE
  5
25B
100
AcDbEntity
  8
0
100
AcDbLine
 62
2
  6
CONTINUOUS
 10
17.7838797455
 20
287.0843544705
 11
132.7838797455
 21
287.0843544705
  0
LINE
  5
25C
100
AcDbEntity
  8
0
100
AcDbLine
 62
2
  6
CONTINUOUS
 10
17.7838797455
 20
287.0843544705
 11
17.7838797455
 21
272.0843544705
  0
LINE
  5
25D
100
AcDbEntity
  8
0
100
AcDbLine
 62
2
  6
CONTINUOUS
 10
17.7838797455
 20
272.0843544705
 11
132.7838797455
 21
272.0843544705
  0
LINE
  5
25E
100
AcDbEntity
  8
0
100
AcDbLine
 62
2
  6
CONTINUOUS
 10
132.7838797455
 20
287.0843544705
 11
132.7838797455
 21
272.0843544705
  0
TEXT
  5
25F
100
AcDbEntity
  8
0
100
AcDbText
 62
2
  6
CONTINUOUS
 10
17.8463797455
 20
282.0843544705
  7
TEXTSTYLE_2
 40
2.5
  1
  
 41
0.8
 72
0
100
AcDbText
  0
TEXT
  5
260
100
AcDbEntity
  8
0
100
AcDbText
 62
2
  6
CONTINUOUS
 10
21.8463797455
 20
282.0843544705
  7
TEXTSTYLE_1
 40
2.5
  1
e
 41
1.0
 72
0
100
AcDbText
  0
TEXT
  5
261
100
AcDbEntity
  8
0
100
AcDbText
 62
2
  6
CONTINUOUS
 10
26.4297130788
 20
282.0843544705
  7
TEXTSTYLE_2
 40
2.5
  1
Copyright 
 41
0.8
 72
0
100
AcDbText
  0
TEXT
  5
262
100
AcDbEntity
  8
0
100
AcDbText
 62
2
  6
CONTINUOUS
 10
46.4297130788
 20
282.0843544705
  7
TEXTSTYLE_2
 40
2.5
  1
02-Dec-21
 41
0.8
 72
0
100
AcDbText
  0
TEXT
  5
263
100
AcDbEntity
  8
0
100
AcDbText
 62
2
  6
CONTINUOUS
 10
64.4297130788
 20
282.0843544705
  7
TEXTSTYLE_2
 40
2.5
  1
 Tyco Electronics Corporation,
 41
0.8
 72
0
100
AcDbText
  0
TEXT
  5
264
100
AcDbEntity
  8
0
100
AcDbText
 62
2
  6
CONTINUOUS
 10
17.8463797455
 20
278.3343544705
  7
TEXTSTYLE_2
 40
2.5
  1
 
 41
0.8
 72
0
100
AcDbText
  0
TEXT
  5
265
100
AcDbEntity
  8
0
100
AcDbText
 62
2
  6
CONTINUOUS
 10
17.8463797455
 20
274.5843544705
  7
TEXTSTYLE_2
 40
2.5
  1
  a TE Connectivity Ltd. Company.  All Rights Reserved.
 41
0.8
 72
0
100
AcDbText
  0
LINE
  5
266
100
AcDbEntity
  8
0
100
AcDbLine
 62
7
  6
CONTINUOUS
 10
0.0
 20
0.0
 11
0.0
 21
297.0
  0
LINE
  5
267
100
AcDbEntity
  8
0
100
AcDbLine
 62
7
  6
CONTINUOUS
 10
17.7838797455
 20
9.2342568143
 11
17.7838797455
 21
287.0843544705
  0
LINE
  5
268
100
AcDbEntity
  8
0
100
AcDbLine
 62
7
  6
CONTINUOUS
 10
0.0
 20
0.0
 11
420.0
 21
0.0
  0
LINE
  5
269
100
AcDbEntity
  8
0
100
AcDbLine
 62
7
  6
CONTINUOUS
 10
409.2090201263
 20
9.2342568143
 11
17.7838797455
 21
9.2342568143
  0
LINE
  5
26A
100
AcDbEntity
  8
0
100
AcDbLine
 62
7
  6
CONTINUOUS
 10
30.4841666107
 20
9.234348367
 11
17.784490097
 21
9.234348367
  0
LINE
  5
26B
100
AcDbEntity
  8
0
100
AcDbLine
 62
7
  6
CONTINUOUS
 10
409.2090159416
 20
18.7593422635
 11
273.4388174896
 21
18.7593422635
  0
LINE
  5
26C
100
AcDbEntity
  8
DRAFT_ENTITY
100
AcDbLine
 62
7
  6
CONTINUOUS
 10
409.2091421966
 20
28.2845192655
 11
273.4386343841
 21
28.2845192655
  0
LINE
  5
26D
100
AcDbEntity
  8
0
100
AcDbLine
 62
7
  6
CONTINUOUS
 10
409.2091421966
 20
44.1593056424
 11
273.4386343841
 21
44.1593056424
  0
LINE
  5
26E
100
AcDbEntity
  8
0
100
AcDbLine
 62
7
  6
CONTINUOUS
 10
273.4386343841
 20
44.1593056424
 11
273.4386343841
 21
9.2342568143
  0
LINE
  5
26F
100
AcDbEntity
  8
0
100
AcDbLine
 62
7
  6
CONTINUOUS
 10
287.2079097655
 20
18.7593422635
 11
287.2079097655
 21
9.2342568143
  0
LINE
  5
270
100
AcDbEntity
  8
0
100
AcDbLine
 62
7
  6
CONTINUOUS
 10
353.3344447689
 20
18.7593808926
 11
353.3344447689
 21
9.2342954434
  0
LINE
  5
271
100
AcDbEntity
  8
0
100
AcDbLine
 62
7
  6
CONTINUOUS
 10
17.7838797455
 20
287.0843544705
 11
409.208898056
 21
287.0843544705
  0
LINE
  5
272
100
AcDbEntity
  8
0
100
AcDbLine
 62
7
  6
CONTINUOUS
 10
0.0
 20
297.0
 11
420.0
 21
297.0
  0
LINE
  5
273
100
AcDbEntity
  8
0
100
AcDbLine
 62
7
  6
CONTINUOUS
 10
367.9586057154
 20
9.2337890544
 11
367.9586057154
 21
18.7587829509
  0
LINE
  5
274
100
AcDbEntity
  8
0
100
AcDbLine
 62
7
  6
CONTINUOUS
 10
409.208898056
 20
287.0843544705
 11
409.2090201263
 21
9.2342568143
  0
LINE
  5
275
100
AcDbEntity
  8
0
100
AcDbLine
 62
7
  6
CONTINUOUS
 10
420.0
 20
0.0
 11
420.0
 21
297.0
  0
LINE
  5
276
100
AcDbEntity
  8
0
100
AcDbLine
 62
7
  6
CONTINUOUS
 10
279.394058976
 20
245.797599239
 11
275.4334997597
 21
241.1779159743
  0
LINE
  5
277
100
AcDbEntity
  8
0
100
AcDbLine
 62
7
  6
CONTINUOUS
 10
278.3302481916
 20
190.3914150776
 11
286.1592674408
 21
190.3914150776
  0
LINE
  5
278
100
AcDbEntity
  8
0
100
AcDbLine
 62
7
  6
CONTINUOUS
 10
291.2251034256
 20
190.3914150776
 11
299.0541226749
 21
190.3914150776
  0
LINE
  5
279
100
AcDbEntity
  8
0
100
AcDbLine
 62
7
  6
CONTINUOUS
 10
280.0533217796
 20
191.5724738507
 11
285.5796883085
 21
191.5724738507
  0
LINE
  5
27A
100
AcDbEntity
  8
0
100
AcDbLine
 62
7
  6
CONTINUOUS
 10
290.6455242933
 20
191.5724738507
 11
296.1718908221
 21
191.5724738507
  0
LINE
  5
27B
100
AcDbEntity
  8
0
100
AcDbLine
 62
7
  6
CONTINUOUS
 10
274.8045627133
 20
192.1630032373
 11
270.3814588085
 21
201.1763465064
  0
LINE
  5
27C
100
AcDbEntity
  8
0
100
AcDbLine
 62
7
  6
CONTINUOUS
 10
270.3814588085
 20
201.1763465064
 11
269.9468956689
 21
202.3513369137
  0
LINE
  5
27D
100
AcDbEntity
  8
0
100
AcDbLine
 62
7
  6
CONTINUOUS
 10
276.5321946781
 20
240.6813435708
 11
280.4927538945
 21
245.3010268355
  0
LINE
  5
27E
100
AcDbEntity
  8
0
100
AcDbLine
 62
7
  6
CONTINUOUS
 10
277.5235800361
 20
238.6611114588
 11
281.4841392524
 21
243.2807947234
  0
LINE
  5
27F
100
AcDbEntity
  8
0
100
AcDbLine
 62
7
  6
CONTINUOUS
 10
274.8045627133
 20
192.1630032373
 11
277.4608794931
 21
192.1630032373
  0
LINE
  5
280
100
AcDbEntity
  8
0
100
AcDbLine
 62
7
  6
CONTINUOUS
 10
298.1847539763
 20
192.1630032373
 11
300.8410707561
 21
192.1630032373
  0
LINE
  5
281
100
AcDbEntity
  8
0
100
AcDbLine
 62
7
  6
CONTINUOUS
 10
272.1684068897
 20
202.9479346662
 11
273.0377755883
 21
201.1763465064
  0
LINE
  5
282
100
AcDbEntity
  8
0
100
AcDbLine
 62
7
  6
CONTINUOUS
 10
277.4608794931
 20
192.1630032373
 11
278.3302481916
 21
190.3914150776
  0
LINE
  5
283
100
AcDbEntity
  8
0
100
AcDbLine
 62
7
  6
CONTINUOUS
 10
306.9720586994
 20
195.8067205128
 11
302.3565250165
 21
195.8067205128
  0
LINE
  5
284
100
AcDbEntity
  8
0
100
AcDbLine
 62
7
  6
CONTINUOUS
 10
290.3929591128
 20
195.8067205128
 11
287.8327218355
 21
195.8067205128
  0
LINE
  5
285
100
AcDbEntity
  8
0
100
AcDbLine
 62
7
  6
CONTINUOUS
 10
275.0506387425
 20
201.766875893
 11
280.0533217796
 21
191.5724738507
  0
LINE
  5
286
100
AcDbEntity
  8
0
100
AcDbLine
 62
7
  6
CONTINUOUS
 10
273.4075462224
 20
206.9577947403
 11
272.1687792417
 21
209.4821378866
  0
LINE
  5
287
100
AcDbEntity
  8
0
100
AcDbLine
 62
7
  6
CONTINUOUS
 10
270.7048727462
 20
212.4652673905
 11
269.5759252285
 21
214.7658218719
  0
LINE
  5
288
100
AcDbEntity
  8
0
100
AcDbLine
 62
7
  6
CONTINUOUS
 10
275.3335491931
 20
234.0476293734
 11
274.0630319049
 21
229.9362301034
  0
LINE
  5
289
100
AcDbEntity
  8
0
100
AcDbLine
 62
7
  6
CONTINUOUS
 10
275.1434456992
 20
232.7823414511
 11
269.5759252285
 21
214.7658218719
  0
LINE
  5
28A
100
AcDbEntity
  8
0
100
AcDbLine
 62
7
  6
CONTINUOUS
 10
276.3241376475
 20
232.7823414511
 11
276.7956379714
 21
234.3081184754
  0
LINE
  5
28B
100
AcDbEntity
  8
0
100
AcDbLine
 62
7
  6
CONTINUOUS
 10
309.3906097484
 20
245.797599239
 11
307.9850101573
 21
245.3010268355
  0
LINE
  5
28C
100
AcDbEntity
  8
0
100
AcDbLine
 62
7
  6
CONTINUOUS
 10
288.3609742946
 20
197.5161476846
 11
289.5540945792
 21
197.5161476846
  0
LINE
  5
28D
100
AcDbEntity
  8
0
100
AcDbLine
 62
7
  6
CONTINUOUS
 10
301.5176604828
 20
197.5161476846
 11
306.1331941658
 21
197.5161476846
  0
LINE
  5
28E
100
AcDbEntity
  8
0
100
AcDbLine
 62
7
  6
CONTINUOUS
 10
289.4301310419
 20
198.321545609
 11
290.3511921301
 21
198.321545609
  0
LINE
  5
28F
100
AcDbEntity
  8
0
100
AcDbLine
 62
7
  6
CONTINUOUS
 10
291.5934057112
 20
198.9472447429
 11
292.5528809879
 21
198.9472447429
  0
LINE
  5
290
100
AcDbEntity
  8
0
100
AcDbLine
 62
7
  6
CONTINUOUS
 10
291.2545131608
 20
199.2505869845
 11
292.4040223221
 21
199.2505869845
  0
LINE
  5
291
100
AcDbEntity
  8
0
100
AcDbLine
 62
7
  6
CONTINUOUS
 10
274.1028383193
 20
209.4821378866
 11
274.1548644615
 21
209.3761196946
  0
LINE
  5
292
100
AcDbEntity
  8
0
100
AcDbLine
 62
7
  6
CONTINUOUS
 10
269.9468956689
 20
202.3513369137
 11
270.5520609374
 21
204.3096542593
  0
LINE
  5
293
100
AcDbEntity
  8
0
100
AcDbLine
 62
7
  6
CONTINUOUS
 10
272.1687792417
 20
209.4821378866
 11
273.0906351255
 21
212.4652673905
  0
LINE
  5
294
100
AcDbEntity
  8
0
100
AcDbLine
 62
7
  6
CONTINUOUS
 10
274.8153228827
 20
217.1158026866
 11
276.1466864735
 21
221.4241008468
  0
LINE
  5
295
100
AcDbEntity
  8
0
100
AcDbLine
 62
7
  6
CONTINUOUS
 10
289.1076339496
 20
199.9323414579
 11
290.1032650556
 21
199.9323414579
  0
LINE
  5
296
100
AcDbEntity
  8
0
100
AcDbLine
 62
7
  6
CONTINUOUS
 10
302.0024891837
 20
199.9323414579
 11
305.761303554
 21
199.9323414579
  0
LINE
  5
297
100
AcDbEntity
  8
0
100
AcDbLine
 62
7
  6
CONTINUOUS
 10
290.4125498795
 20
200.9663287436
 11
289.4271598911
 21
200.9663287436
  0
LINE
  5
298
100
AcDbEntity
  8
0
100
AcDbLine
 62
7
  6
CONTINUOUS
 10
304.3792046863
 20
201.0904044981
 11
302.4451456086
 21
201.0904044981
  0
LINE
  5
299
100
AcDbEntity
  8
0
100
AcDbLine
 62
7
  6
CONTINUOUS
 10
291.4661400806
 20
201.1617911458
 11
284.605688733
 21
201.1617911458
  0
LINE
  5
29A
100
AcDbEntity
  8
0
100
AcDbLine
 62
7
  6
CONTINUOUS
 10
296.4179668513
 20
201.1763465064
 11
293.7616500715
 21
201.1763465064
  0
LINE
  5
29B
100
AcDbEntity
  8
0
100
AcDbLine
 62
7
  6
CONTINUOUS
 10
273.0377755883
 20
201.1763465064
 11
270.3814588085
 21
201.1763465064
  0
LINE
  5
29C
100
AcDbEntity
  8
0
100
AcDbLine
 62
7
  6
CONTINUOUS
 10
291.169207785
 20
201.766875893
 11
285.6428412561
 21
201.766875893
  0
LINE
  5
29D
100
AcDbEntity
  8
0
100
AcDbLine
 62
7
  6
CONTINUOUS
 10
280.5770052713
 20
201.766875893
 11
275.0506387425
 21
201.766875893
  0
LINE
  5
29E
100
AcDbEntity
  8
0
100
AcDbLine
 62
7
  6
CONTINUOUS
 10
279.997426139
 20
202.9479346662
 11
280.5770052713
 21
201.766875893
  0
LINE
  5
29F
100
AcDbEntity
  8
0
100
AcDbLine
 62
7
  6
CONTINUOUS
 10
286.1592674408
 20
190.3914150776
 11
285.5796883085
 21
191.5724738507
  0
LINE
  5
2A0
100
AcDbEntity
  8
0
100
AcDbLine
 62
7
  6
CONTINUOUS
 10
275.1094824142
 20
212.4652673905
 11
272.1684068897
 21
202.9479346662
  0
LINE
  5
2A1
100
AcDbEntity
  8
0
100
AcDbLine
 62
7
  6
CONTINUOUS
 10
277.6718947165
 20
218.3160514437
 11
277.3009901422
 21
217.1158026865
  0
LINE
  5
2A2
100
AcDbEntity
  8
0
100
AcDbLine
 62
7
  6
CONTINUOUS
 10
292.892281373
 20
202.9479346662
 11
285.0632621238
 21
202.9479346662
  0
LINE
  5
2A3
100
AcDbEntity
  8
0
100
AcDbLine
 62
7
  6
CONTINUOUS
 10
279.997426139
 20
202.9479346662
 11
272.1684068897
 21
202.9479346662
  0
LINE
  5
2A4
100
AcDbEntity
  8
0
100
AcDbLine
 62
7
  6
CONTINUOUS
 10
298.1838935817
 20
204.3096542593
 11
294.7299145012
 21
204.3096542593
  0
LINE
  5
2A5
100
AcDbEntity
  8
0
100
AcDbLine
 62
7
  6
CONTINUOUS
 10
272.58920968
 20
204.3096542593
 11
270.5520609374
 21
204.3096542593
  0
LINE
  5
2A6
100
AcDbEntity
  8
0
100
AcDbLine
 62
7
  6
CONTINUOUS
 10
282.0189496993
 20
206.4330141059
 11
284.605688733
 21
201.1617911458
  0
LINE
  5
2A7
100
AcDbEntity
  8
0
100
AcDbLine
 62
7
  6
CONTINUOUS
 10
285.0632621238
 20
202.9479346662
 11
285.6428412561
 21
201.766875893
  0
LINE
  5
2A8
100
AcDbEntity
  8
0
100
AcDbLine
 62
7
  6
CONTINUOUS
 10
291.2251034256
 20
190.3914150776
 11
290.6455242933
 21
191.5724738507
  0
LINE
  5
2A9
100
AcDbEntity
  8
0
100
AcDbLine
 62
7
  6
CONTINUOUS
 10
276.1466864735
 20
221.4241008468
 11
277.6718947165
 21
218.3160514437
  0
LINE
  5
2AA
100
AcDbEntity
  8
0
100
AcDbLine
 62
7
  6
CONTINUOUS
 10
279.8309308261
 20
221.4241008468
 11
278.4995672353
 21
217.1158026866
  0
LINE
  5
2AB
100
AcDbEntity
  8
0
100
AcDbLine
 62
7
  6
CONTINUOUS
 10
307.2018297352
 20
204.5938902181
 11
305.4618626535
 21
204.5938902181
  0
LINE
  5
2AC
100
AcDbEntity
  8
0
100
AcDbLine
 62
7
  6
CONTINUOUS
 10
307.1231103087
 20
206.3500612417
 11
306.0045600419
 21
206.3500612417
  0
LINE
  5
2AD
100
AcDbEntity
  8
0
100
AcDbLine
 62
7
  6
CONTINUOUS
 10
281.0891888303
 20
214.7658218719
 11
282.1568346004
 21
212.5901872897
  0
LINE
  5
2AE
100
AcDbEntity
  8
0
100
AcDbLine
 62
7
  6
CONTINUOUS
 10
289.5540945792
 20
197.5161476846
 11
290.3929591128
 21
195.8067205128
  0
LINE
  5
2AF
100
AcDbEntity
  8
0
100
AcDbLine
 62
7
  6
CONTINUOUS
 10
283.1391974361
 20
212.4652673905
 11
283.0778956886
 21
212.5901872897
  0
LINE
  5
2B0
100
AcDbEntity
  8
0
100
AcDbLine
 62
7
  6
CONTINUOUS
 10
274.4155992621
 20
237.8839856977
 11
275.3335491931
 21
234.0476293734
  0
LINE
  5
2B1
100
AcDbEntity
  8
0
100
AcDbLine
 62
7
  6
CONTINUOUS
 10
276.7956379714
 20
234.3081184754
 11
275.8211988532
 21
238.3805581012
  0
LINE
  5
2B2
100
AcDbEntity
  8
0
100
AcDbLine
 62
7
  6
CONTINUOUS
 10
277.667200912
 20
232.7886560385
 11
276.8125842112
 21
236.3603259892
  0
LINE
  5
2B3
100
AcDbEntity
  8
0
100
AcDbLine
 62
7
  6
CONTINUOUS
 10
281.0891888303
 20
214.7658218719
 11
285.3253457102
 21
228.4740432908
  0
LINE
  5
2B4
100
AcDbEntity
  8
0
100
AcDbLine
 62
7
  6
CONTINUOUS
 10
277.9454571507
 20
217.1158026865
 11
277.9544215935
 21
217.1261522481
  0
LINE
  5
2B5
100
AcDbEntity
  8
0
100
AcDbLine
 62
7
  6
CONTINUOUS
 10
306.8180686601
 20
206.9716711223
 11
306.2133832224
 21
206.9716711223
  0
LINE
  5
2B6
100
AcDbEntity
  8
0
100
AcDbLine
 62
7
  6
CONTINUOUS
 10
286.5762894274
 20
207.8440973625
 11
282.4550070012
 21
207.8440973625
  0
LINE
  5
2B7
100
AcDbEntity
  8
0
100
AcDbLine
 62
7
  6
CONTINUOUS
 10
283.5698216004
 20
212.9023360798
 11
283.8448977215
 21
212.341789559
  0
LINE
  5
2B8
100
AcDbEntity
  8
0
100
AcDbLine
 62
7
  6
CONTINUOUS
 10
289.3312409309
 20
201.1617911458
 11
289.4271598911
 21
200.9663287436
  0
LINE
  5
2B9
100
AcDbEntity
  8
0
100
AcDbLine
 62
7
  6
CONTINUOUS
 10
283.9472816411
 20
213.6719362149
 11
285.8461659037
 21
209.802414708
  0
LINE
  5
2BA
100
AcDbEntity
  8
0
100
AcDbLine
 62
7
  6
CONTINUOUS
 10
290.3166309193
 20
201.1617911458
 11
291.2545131608
 21
199.2505869845
  0
LINE
  5
2BB
100
AcDbEntity
  8
0
100
AcDbLine
 62
7
  6
CONTINUOUS
 10
296.1718908221
 20
191.5724738507
 11
291.169207785
 21
201.766875893
  0
LINE
  5
2BC
100
AcDbEntity
  8
0
100
AcDbLine
 62
7
  6
CONTINUOUS
 10
286.3629112446
 20
212.4652673905
 11
286.3016094971
 21
212.5901872897
  0
LINE
  5
2BD
100
AcDbEntity
  8
0
100
AcDbLine
 62
7
  6
CONTINUOUS
 10
282.1568346004
 20
212.5901872897
 11
286.3929914803
 21
226.2984087087
  0
LINE
  5
2BE
100
AcDbEntity
  8
0
100
AcDbLine
 62
7
  6
CONTINUOUS
 10
293.8080328985
 20
247.8335849224
 11
289.1568512
 21
232.7823414511
  0
LINE
  5
2BF
100
AcDbEntity
  8
0
100
AcDbLine
 62
7
  6
CONTINUOUS
 10
287.3932810518
 20
227.0754210594
 11
283.8591158834
 21
215.6388477613
  0
LINE
  5
2C0
100
AcDbEntity
  8
0
100
AcDbLine
 62
7
  6
CONTINUOUS
 10
282.9385016634
 20
212.4652673905
 11
279.997426139
 21
202.9479346662
  0
LINE
  5
2C1
100
AcDbEntity
  8
0
100
AcDbLine
 62
7
  6
CONTINUOUS
 10
283.0778956886
 20
212.5901872897
 11
283.743577484
 21
214.7443363698
  0
LINE
  5
2C2
100
AcDbEntity
  8
0
100
AcDbLine
 62
7
  6
CONTINUOUS
 10
280.5770052713
 20
201.766875893
 11
283.8448977215
 21
212.341789559
  0
LINE
  5
2C3
100
AcDbEntity
  8
0
100
AcDbLine
 62
7
  6
CONTINUOUS
 10
274.1028383193
 20
209.4821378866
 11
274.2262055929
 21
209.6069798946
  0
LINE
  5
2C4
100
AcDbEntity
  8
0
100
AcDbLine
 62
7
  6
CONTINUOUS
 10
300.2611424301
 20
209.4821378866
 11
298.3270833524
 21
209.4821378866
  0
LINE
  5
2C5
100
AcDbEntity
  8
0
100
AcDbLine
 62
7
  6
CONTINUOUS
 10
272.1687792417
 20
209.4821378866
 11
274.1028383193
 21
209.4821378866
  0
LINE
  5
2C6
100
AcDbEntity
  8
0
100
AcDbLine
 62
7
  6
CONTINUOUS
 10
287.181454696
 20
209.802414708
 11
285.8461659037
 21
209.802414708
  0
LINE
  5
2C7
100
AcDbEntity
  8
0
100
AcDbLine
 62
7
  6
CONTINUOUS
 10
286.2499343614
 20
213.6719362149
 11
286.4867601771
 21
213.1893356662
  0
LINE
  5
2C8
100
AcDbEntity
  8
0
100
AcDbLine
 62
7
  6
CONTINUOUS
 10
286.8420810743
 20
212.4652673905
 11
287.5552430232
 21
211.0119953016
  0
LINE
  5
2C9
100
AcDbEntity
  8
0
100
AcDbLine
 62
7
  6
CONTINUOUS
 10
286.1550248151
 20
214.7658218719
 11
287.2226705852
 21
212.5901872897
  0
LINE
  5
2CA
100
AcDbEntity
  8
0
100
AcDbLine
 62
7
  6
CONTINUOUS
 10
287.7973091306
 20
211.7953222398
 11
287.4685479902
 21
212.4652673905
  0
LINE
  5
2CB
100
AcDbEntity
  8
0
100
AcDbLine
 62
7
  6
CONTINUOUS
 10
276.7956379714
 20
234.3081184754
 11
277.5412814066
 21
232.7886560385
  0
LINE
  5
2CC
100
AcDbEntity
  8
0
100
AcDbLine
 62
7
  6
CONTINUOUS
 10
299.0541226749
 20
190.3914150776
 11
298.1847539763
 21
192.1630032373
  0
LINE
  5
2CD
100
AcDbEntity
  8
0
100
AcDbLine
 62
7
  6
CONTINUOUS
 10
293.7616500715
 20
201.1763465064
 11
292.892281373
 21
202.9479346662
  0
LINE
  5
2CE
100
AcDbEntity
  8
0
100
AcDbLine
 62
7
  6
CONTINUOUS
 10
276.8125842112
 20
236.3603259892
 11
275.8211988532
 21
238.3805581012
  0
LINE
  5
2CF
100
AcDbEntity
  8
0
100
AcDbLine
 62
7
  6
CONTINUOUS
 10
289.5540945792
 20
197.5161476846
 11
289.4301310419
 21
198.321545609
  0
LINE
  5
2D0
100
AcDbEntity
  8
0
100
AcDbLine
 62
7
  6
CONTINUOUS
 10
296.1106856189
 20
247.8335849224
 11
291.4595039204
 21
232.7823414511
  0
LINE
  5
2D1
100
AcDbEntity
  8
0
100
AcDbLine
 62
7
  6
CONTINUOUS
 10
289.6959337722
 20
227.0754210594
 11
286.1617686038
 21
215.6388477613
  0
LINE
  5
2D2
100
AcDbEntity
  8
0
100
AcDbLine
 62
7
  6
CONTINUOUS
 10
286.1550248151
 20
214.7658218719
 11
290.391181695
 21
228.4740432908
  0
LINE
  5
2D3
100
AcDbEntity
  8
0
100
AcDbLine
 62
7
  6
CONTINUOUS
 10
291.9566373723
 20
232.7823414511
 11
296.4157272675
 21
247.2119750418
  0
LINE
  5
2D4
100
AcDbEntity
  8
0
100
AcDbLine
 62
7
  6
CONTINUOUS
 10
286.3016094971
 20
212.5901872897
 11
286.6575064593
 21
213.7418713513
  0
LINE
  5
2D5
100
AcDbEntity
  8
0
100
AcDbLine
 62
7
  6
CONTINUOUS
 10
280.0533217796
 20
191.5724738507
 11
283.6306479812
 21
203.1487164332
  0
LINE
  5
2D6
100
AcDbEntity
  8
0
100
AcDbLine
 62
7
  6
CONTINUOUS
 10
287.9661801477
 20
212.341789559
 11
287.5291420741
 21
212.341789559
  0
LINE
  5
2D7
100
AcDbEntity
  8
0
100
AcDbLine
 62
7
  6
CONTINUOUS
 10
284.6000224379
 20
212.341789559
 11
283.8448977215
 21
212.341789559
  0
LINE
  5
2D8
100
AcDbEntity
  8
0
100
AcDbLine
 62
7
  6
CONTINUOUS
 10
270.7048727462
 20
212.4652673905
 11
283.1391974361
 21
212.4652673905
  0
LINE
  5
2D9
100
AcDbEntity
  8
0
100
AcDbLine
 62
7
  6
CONTINUOUS
 10
286.3629112446
 20
212.4652673905
 11
298.7972359346
 21
212.4652673905
  0
LINE
  5
2DA
100
AcDbEntity
  8
0
100
AcDbLine
 62
7
  6
CONTINUOUS
 10
282.1568346004
 20
212.5901872897
 11
283.0778956886
 21
212.5901872897
  0
LINE
  5
2DB
100
AcDbEntity
  8
0
100
AcDbLine
 62
7
  6
CONTINUOUS
 10
286.3016094971
 20
212.5901872897
 11
287.2226705852
 21
212.5901872897
  0
LINE
  5
2DC
100
AcDbEntity
  8
0
100
AcDbLine
 62
7
  6
CONTINUOUS
 10
283.9472816411
 20
213.6719362149
 11
286.2499343614
 21
213.6719362149
  0
LINE
  5
2DD
100
AcDbEntity
  8
0
100
AcDbLine
 62
7
  6
CONTINUOUS
 10
277.5235800361
 20
238.6611114588
 11
276.5321946781
 21
240.6813435708
  0
LINE
  5
2DE
100
AcDbEntity
  8
0
100
AcDbLine
 62
7
  6
CONTINUOUS
 10
294.7299145012
 20
204.3096542593
 11
294.6536540891
 21
204.4650567294
  0
LINE
  5
2DF
100
AcDbEntity
  8
0
100
AcDbLine
 62
7
  6
CONTINUOUS
 10
300.8410707561
 20
192.1630032373
 11
296.4179668513
 21
201.1763465064
  0
LINE
  5
2E0
100
AcDbEntity
  8
0
100
AcDbLine
 62
7
  6
CONTINUOUS
 10
290.1032650556
 20
199.9323414579
 11
290.3511921301
 21
198.321545609
  0
LINE
  5
2E1
100
AcDbEntity
  8
0
100
AcDbLine
 62
7
  6
CONTINUOUS
 10
285.0632621238
 20
202.9479346662
 11
288.0043376482
 21
212.4652673905
  0
LINE
  5
2E2
100
AcDbEntity
  8
0
100
AcDbLine
 62
7
  6
CONTINUOUS
 10
290.1970430547
 20
217.1158026866
 11
291.5284066455
 21
221.4241008468
  0
LINE
  5
2E3
100
AcDbEntity
  8
0
100
AcDbLine
 62
7
  6
CONTINUOUS
 10
284.0738858137
 20
213.4139438883
 11
283.1391974361
 21
212.4652673905
  0
LINE
  5
2E4
100
AcDbEntity
  8
0
100
AcDbLine
 62
7
  6
CONTINUOUS
 10
316.2540468421
 20
231.8113769249
 11
314.848447251
 21
231.3148045214
  0
LINE
  5
2E5
100
AcDbEntity
  8
0
100
AcDbLine
 62
7
  6
CONTINUOUS
 10
269.5759252285
 20
214.7658218719
 11
281.0891888303
 21
214.7658218719
  0
LINE
  5
2E6
100
AcDbEntity
  8
0
100
AcDbLine
 62
7
  6
CONTINUOUS
 10
286.1550248151
 20
214.7658218719
 11
297.6682884169
 21
214.7658218719
  0
LINE
  5
2E7
100
AcDbEntity
  8
0
100
AcDbLine
 62
7
  6
CONTINUOUS
 10
302.0161217089
 20
215.1612581887
 11
300.2761546272
 21
215.1612581887
  0
LINE
  5
2E8
100
AcDbEntity
  8
0
100
AcDbLine
 62
7
  6
CONTINUOUS
 10
283.8591158834
 20
215.6388477613
 11
286.1617686038
 21
215.6388477613
  0
LINE
  5
2E9
100
AcDbEntity
  8
0
100
AcDbLine
 62
7
  6
CONTINUOUS
 10
301.9374022824
 20
216.9174292123
 11
300.8188520156
 21
216.9174292123
  0
LINE
  5
2EA
100
AcDbEntity
  8
0
100
AcDbLine
 62
7
  6
CONTINUOUS
 10
302.001832218
 20
193.3379936447
 11
297.5787283132
 21
202.3513369137
  0
LINE
  5
2EB
100
AcDbEntity
  8
0
100
AcDbLine
 62
7
  6
CONTINUOUS
 10
286.3929914803
 20
226.2984087087
 11
285.3253457102
 21
228.4740432908
  0
LINE
  5
2EC
100
AcDbEntity
  8
0
100
AcDbLine
 62
7
  6
CONTINUOUS
 10
302.6069974866
 20
195.2963109902
 11
298.1838935817
 21
204.3096542593
  0
LINE
  5
2ED
100
AcDbEntity
  8
0
100
AcDbLine
 62
7
  6
CONTINUOUS
 10
293.0536148885
 20
218.3160514437
 11
292.6827103142
 21
217.1158026865
  0
LINE
  5
2EE
100
AcDbEntity
  8
0
100
AcDbLine
 62
7
  6
CONTINUOUS
 10
285.5796883085
 20
191.5724738507
 11
288.5430087271
 21
201.1617911458
  0
LINE
  5
2EF
100
AcDbEntity
  8
0
100
AcDbLine
 62
7
  6
CONTINUOUS
 10
308.3793959955
 20
238.3805581012
 11
304.8880011598
 21
234.3081184754
  0
LINE
  5
2F0
100
AcDbEntity
  8
0
100
AcDbLine
 62
7
  6
CONTINUOUS
 10
306.1890956459
 20
234.0476293734
 11
309.478090914
 21
237.8839856977
  0
LINE
  5
2F1
100
AcDbEntity
  8
0
100
AcDbLine
 62
7
  6
CONTINUOUS
 10
293.8812874073
 20
217.1158026866
 11
290.1970430547
 21
217.1158026866
  0
LINE
  5
2F2
100
AcDbEntity
  8
0
100
AcDbLine
 62
7
  6
CONTINUOUS
 10
278.4995672353
 20
217.1158026866
 11
274.8153228827
 21
217.1158026866
  0
LINE
  5
2F3
100
AcDbEntity
  8
0
100
AcDbLine
 62
7
  6
CONTINUOUS
 10
278.4995672353
 20
217.1261522481
 11
277.9544215935
 21
217.1261522481
  0
LINE
  5
2F4
100
AcDbEntity
  8
0
100
AcDbLine
 62
7
  6
CONTINUOUS
 10
293.3361417655
 20
217.1261522481
 11
293.8812874073
 21
217.1261522481
  0
LINE
  5
2F5
100
AcDbEntity
  8
0
100
AcDbLine
 62
7
  6
CONTINUOUS
 10
301.6323606338
 20
217.5390390929
 11
301.0276879644
 21
217.5390390929
  0
LINE
  5
2F6
100
AcDbEntity
  8
0
100
AcDbLine
 62
7
  6
CONTINUOUS
 10
277.643080946
 20
218.2228099616
 11
278.8416580391
 21
218.2228099616
  0
LINE
  5
2F7
100
AcDbEntity
  8
0
100
AcDbLine
 62
7
  6
CONTINUOUS
 10
293.024801118
 20
218.2228099616
 11
294.2233782111
 21
218.2228099616
  0
LINE
  5
2F8
100
AcDbEntity
  8
0
100
AcDbLine
 62
7
  6
CONTINUOUS
 10
291.5284066455
 20
221.4241008468
 11
293.0536148885
 21
218.3160514437
  0
LINE
  5
2F9
100
AcDbEntity
  8
0
100
AcDbLine
 62
7
  6
CONTINUOUS
 10
280.4927538945
 20
245.3010268355
 11
281.4841392524
 21
243.2807947234
  0
LINE
  5
2FA
100
AcDbEntity
  8
0
100
AcDbLine
 62
7
  6
CONTINUOUS
 10
298.3270833524
 20
209.4821378866
 11
302.4451456086
 21
201.0904044981
  0
LINE
  5
2FB
100
AcDbEntity
  8
0
100
AcDbLine
 62
7
  6
CONTINUOUS
 10
289.8573362516
 20
226.7465171984
 11
289.6959337721
 21
227.0754210594
  0
LINE
  5
2FC
100
AcDbEntity
  8
0
100
AcDbLine
 62
7
  6
CONTINUOUS
 10
295.2126509981
 20
221.4241008468
 11
293.8812874073
 21
217.1158026866
  0
LINE
  5
2FD
100
AcDbEntity
  8
0
100
AcDbLine
 62
7
  6
CONTINUOUS
 10
286.1592674408
 20
190.3914150776
 11
289.4271598911
 21
200.9663287436
  0
LINE
  5
2FE
100
AcDbEntity
  8
0
100
AcDbLine
 62
7
  6
CONTINUOUS
 10
290.1032650556
 20
199.9323414579
 11
290.4188338408
 21
200.9535233695
  0
LINE
  5
2FF
100
AcDbEntity
  8
0
100
AcDbLine
 62
7
  6
CONTINUOUS
 10
290.3511921301
 20
198.321545609
 11
290.8763963137
 21
200.0211085486
  0
LINE
  5
300
100
AcDbEntity
  8
0
100
AcDbLine
 62
7
  6
CONTINUOUS
 10
307.1804810039
 20
232.0273972614
 11
310.4694762719
 21
235.8637535856
  0
LINE
  5
301
100
AcDbEntity
  8
0
100
AcDbLine
 62
7
  6
CONTINUOUS
 10
293.3271773227
 20
217.1158026865
 11
293.3361417655
 21
217.1261522481
  0
LINE
  5
302
100
AcDbEntity
  8
0
100
AcDbLine
 62
7
  6
CONTINUOUS
 10
276.1466864735
 20
221.4241008468
 11
279.8309308261
 21
221.4241008468
  0
LINE
  5
303
100
AcDbEntity
  8
0
100
AcDbLine
 62
7
  6
CONTINUOUS
 10
291.5284066455
 20
221.4241008468
 11
295.2126509981
 21
221.4241008468
  0
LINE
  5
304
100
AcDbEntity
  8
0
100
AcDbLine
 62
7
  6
CONTINUOUS
 10
297.6682884169
 20
214.7658218719
 11
298.7972359346
 21
212.4652673905
  0
LINE
  5
305
100
AcDbEntity
  8
0
100
AcDbLine
 62
7
  6
CONTINUOUS
 10
300.2611424301
 20
209.4821378866
 11
304.3792046863
 21
201.0904044981
  0
LINE
  5
306
100
AcDbEntity
  8
0
100
AcDbLine
 62
7
  6
CONTINUOUS
 10
306.1331941658
 20
197.5161476846
 11
306.9720586994
 21
195.8067205128
  0
LINE
  5
307
100
AcDbEntity
  8
0
100
AcDbLine
 62
7
  6
CONTINUOUS
 10
297.673893564
 20
211.2454063037
 11
298.3270833524
 21
209.4821378866
  0
LINE
  5
308
100
AcDbEntity
  8
0
100
AcDbLine
 62
7
  6
CONTINUOUS
 10
294.6536540891
 20
204.4650567294
 11
296.9533820748
 21
212.4652673905
  0
LINE
  5
309
100
AcDbEntity
  8
0
100
AcDbLine
 62
7
  6
CONTINUOUS
 10
302.8746699229
 20
236.209972598
 11
301.8174041231
 21
232.7886560385
  0
LINE
  5
30A
100
AcDbEntity
  8
0
100
AcDbLine
 62
7
  6
CONTINUOUS
 10
290.3929591128
 20
195.8067205128
 11
291.394972663
 21
199.0492405611
  0
LINE
  5
30B
100
AcDbEntity
  8
0
100
AcDbLine
 62
7
  6
CONTINUOUS
 10
292.892281373
 20
202.9479346662
 11
295.8333568974
 21
212.4652673905
  0
LINE
  5
30C
100
AcDbEntity
  8
0
100
AcDbLine
 62
7
  6
CONTINUOUS
 10
303.2358088876
 20
232.7823414511
 11
297.6682884169
 21
214.7658218719
  0
LINE
  5
30D
100
AcDbEntity
  8
0
100
AcDbLine
 62
7
  6
CONTINUOUS
 10
290.6455242933
 20
191.5724738507
 11
292.7809060668
 21
198.4825782203
  0
LINE
  5
30E
100
AcDbEntity
  8
0
100
AcDbLine
 62
7
  6
CONTINUOUS
 10
293.7616500715
 20
201.1763465064
 11
294.7299145012
 21
204.3096542593
  0
LINE
  5
30F
100
AcDbEntity
  8
0
100
AcDbLine
 62
7
  6
CONTINUOUS
 10
304.7167920991
 20
236.209972598
 11
303.4946050183
 21
232.2549700818
  0
LINE
  5
310
100
AcDbEntity
  8
0
100
AcDbLine
 62
7
  6
CONTINUOUS
 10
303.7996466669
 20
231.6333602012
 11
305.0218337478
 21
235.5883627174
  0
LINE
  5
311
100
AcDbEntity
  8
0
100
AcDbLine
 62
7
  6
CONTINUOUS
 10
297.673893564
 20
211.2454063037
 11
298.050858801
 21
212.4652673905
  0
LINE
  5
312
100
AcDbEntity
  8
0
100
AcDbLine
 62
7
  6
CONTINUOUS
 10
304.8880011598
 20
234.3081184754
 11
303.0234869673
 21
228.2745427337
  0
LINE
  5
313
100
AcDbEntity
  8
0
100
AcDbLine
 62
7
  6
CONTINUOUS
 10
300.9484759387
 20
217.3368927709
 11
299.7381454016
 21
213.4202580798
  0
LINE
  5
314
100
AcDbEntity
  8
0
100
AcDbLine
 62
7
  6
CONTINUOUS
 10
304.9185783577
 20
229.9362301034
 11
306.1890956459
 21
234.0476293734
  0
LINE
  5
315
100
AcDbEntity
  8
0
100
AcDbLine
 62
7
  6
CONTINUOUS
 10
286.3929914803
 20
226.2984087087
 11
287.1531662977
 21
226.2984087087
  0
LINE
  5
316
100
AcDbEntity
  8
0
100
AcDbLine
 62
7
  6
CONTINUOUS
 10
301.6323606338
 20
217.5390390929
 11
301.9374022824
 21
216.9174292123
  0
LINE
  5
317
100
AcDbEntity
  8
0
100
AcDbLine
 62
7
  6
CONTINUOUS
 10
306.8180686601
 20
206.9716711223
 11
307.1231103087
 21
206.3500612417
  0
LINE
  5
318
100
AcDbEntity
  8
0
100
AcDbLine
 62
7
  6
CONTINUOUS
 10
297.5787283132
 20
202.3513369137
 11
298.1838935817
 21
204.3096542593
  0
LINE
  5
319
100
AcDbEntity
  8
0
100
AcDbLine
 62
7
  6
CONTINUOUS
 10
305.9099637157
 20
227.9159979914
 11
307.1804810039
 21
232.0273972614
  0
LINE
  5
31A
100
AcDbEntity
  8
0
100
AcDbLine
 62
7
  6
CONTINUOUS
 10
300.2611424301
 20
209.4821378866
 11
302.0161217089
 21
215.1612581887
  0
LINE
  5
31B
100
AcDbEntity
  8
0
100
AcDbLine
 62
7
  6
CONTINUOUS
 10
299.7381454016
 20
213.4202580798
 11
298.7972359346
 21
212.4652673905
  0
LINE
  5
31C
100
AcDbEntity
  8
0
100
AcDbLine
 62
7
  6
CONTINUOUS
 10
287.3932810518
 20
227.0754210594
 11
289.6959337722
 21
227.0754210594
  0
LINE
  5
31D
100
AcDbEntity
  8
0
100
AcDbLine
 62
7
  6
CONTINUOUS
 10
285.3253457102
 20
228.4740432908
 11
290.391181695
 21
228.4740432908
  0
LINE
  5
31E
100
AcDbEntity
  8
0
100
AcDbLine
 62
7
  6
CONTINUOUS
 10
306.1331941658
 20
197.5161476846
 11
305.761303554
 21
199.9323414579
  0
LINE
  5
31F
100
AcDbEntity
  8
0
100
AcDbLine
 62
7
  6
CONTINUOUS
 10
300.567672773
 20
199.4520202108
 11
301.6493866599
 21
202.7119916728
  0
LINE
  5
320
100
AcDbEntity
  8
0
100
AcDbLine
 62
7
  6
CONTINUOUS
 10
301.7043369229
 20
202.6000147457
 11
300.622623036
 21
199.3400432837
  0
LINE
  5
321
100
AcDbEntity
  8
0
100
AcDbLine
 62
7
  6
CONTINUOUS
 10
315.2428330892
 20
224.3943357871
 11
311.7514382534
 21
220.3218961613
  0
LINE
  5
322
100
AcDbEntity
  8
0
100
AcDbLine
 62
7
  6
CONTINUOUS
 10
310.878309419
 20
212.2680883076
 11
309.886924061
 21
214.2883204196
  0
LINE
  5
323
100
AcDbEntity
  8
0
100
AcDbLine
 62
7
  6
CONTINUOUS
 10
304.0148723253
 20
226.2543106216
 11
303.0234869673
 21
228.2745427337
  0
LINE
  5
324
100
AcDbEntity
  8
0
100
AcDbLine
 62
7
  6
CONTINUOUS
 10
302.3931194664
 20
201.1964226901
 11
301.357000713
 21
197.8435380614
  0
LINE
  5
325
100
AcDbEntity
  8
0
100
AcDbLine
 62
7
  6
CONTINUOUS
 10
299.6015843143
 20
192.1630032373
 11
299.0541226749
 21
190.3914150776
  0
LINE
  5
326
100
AcDbEntity
  8
0
100
AcDbLine
 62
7
  6
CONTINUOUS
 10
304.3792046863
 20
201.0904044981
 11
306.1341839651
 21
206.7695248003
  0
LINE
  5
327
100
AcDbEntity
  8
0
100
AcDbLine
 62
7
  6
CONTINUOUS
 10
302.001832218
 20
193.3379936447
 11
302.6069974866
 21
195.2963109902
  0
LINE
  5
328
100
AcDbEntity
  8
0
100
AcDbLine
 62
7
  6
CONTINUOUS
 10
313.0525327396
 20
220.0614070594
 11
316.3415280076
 21
223.8977633836
  0
LINE
  5
329
100
AcDbEntity
  8
0
100
AcDbLine
 62
7
  6
CONTINUOUS
 10
297.5787283132
 20
202.3513369137
 11
296.4179668513
 21
201.1763465064
  0
LINE
  5
32A
100
AcDbEntity
  8
0
100
AcDbLine
 62
7
  6
CONTINUOUS
 10
275.1434456992
 20
232.7823414511
 11
303.2358088876
 21
232.7823414511
  0
LINE
  5
32B
100
AcDbEntity
  8
0
100
AcDbLine
 62
7
  6
CONTINUOUS
 10
302.7078506956
 20
232.7886560385
 11
293.2669745422
 21
232.7886560385
  0
LINE
  5
32C
100
AcDbEntity
  8
0
100
AcDbLine
 62
7
  6
CONTINUOUS
 10
286.3590163811
 20
232.7886560385
 11
276.9181402276
 21
232.7886560385
  0
LINE
  5
32D
100
AcDbEntity
  8
0
100
AcDbLine
 62
7
  6
CONTINUOUS
 10
303.2358088876
 20
232.7823414511
 11
303.9602828031
 21
231.3060179846
  0
LINE
  5
32E
100
AcDbEntity
  8
0
100
AcDbLine
 62
7
  6
CONTINUOUS
 10
305.7723958769
 20
227.6133176708
 11
310.8237198967
 21
217.3197956706
  0
LINE
  5
32F
100
AcDbEntity
  8
0
100
AcDbLine
 62
7
  6
CONTINUOUS
 10
296.4157272675
 20
247.2119750418
 11
296.1106856189
 21
247.8335849224
  0
LINE
  5
330
100
AcDbEntity
  8
0
100
AcDbLine
 62
7
  6
CONTINUOUS
 10
304.9185783577
 20
229.9362301034
 11
305.9099637157
 21
227.9159979914
  0
LINE
  5
331
100
AcDbEntity
  8
0
100
AcDbLine
 62
7
  6
CONTINUOUS
 10
312.7734008094
 20
213.9297756773
 11
311.7820154514
 21
215.9500077893
  0
LINE
  5
332
100
AcDbEntity
  8
0
100
AcDbLine
 62
7
  6
CONTINUOUS
 10
311.7514382534
 20
220.3218961613
 11
309.886924061
 21
214.2883204196
  0
LINE
  5
333
100
AcDbEntity
  8
0
100
AcDbLine
 62
7
  6
CONTINUOUS
 10
305.761303554
 20
199.9323414579
 11
307.2018297352
 21
204.5938902181
  0
LINE
  5
334
100
AcDbEntity
  8
0
100
AcDbLine
 62
7
  6
CONTINUOUS
 10
311.7820154514
 20
215.9500077893
 11
313.0525327396
 21
220.0614070594
  0
LINE
  5
335
100
AcDbEntity
  8
0
100
AcDbLine
 62
7
  6
CONTINUOUS
 10
314.0439180976
 20
218.0411749473
 11
317.3329133656
 21
221.8775312716
  0
LINE
  5
336
100
AcDbEntity
  8
0
100
AcDbLine
 62
7
  6
CONTINUOUS
 10
302.8746699229
 20
236.209972598
 11
304.7167920991
 21
236.209972598
  0
LINE
  5
337
100
AcDbEntity
  8
0
100
AcDbLine
 62
7
  6
CONTINUOUS
 10
305.0218337478
 20
235.5883627174
 11
304.7167920991
 21
236.209972598
  0
LINE
  5
338
100
AcDbEntity
  8
0
100
AcDbLine
 62
7
  6
CONTINUOUS
 10
306.1890956459
 20
234.0476293734
 11
307.1804810039
 21
232.0273972614
  0
LINE
  5
339
100
AcDbEntity
  8
0
100
AcDbLine
 62
7
  6
CONTINUOUS
 10
314.0439180976
 20
218.0411749473
 11
313.0525327396
 21
220.0614070594
  0
LINE
  5
33A
100
AcDbEntity
  8
0
100
AcDbLine
 62
7
  6
CONTINUOUS
 10
312.3457783128
 20
213.1960997053
 11
306.9720586994
 21
195.8067205128
  0
LINE
  5
33B
100
AcDbEntity
  8
0
100
AcDbLine
 62
7
  6
CONTINUOUS
 10
312.7734008094
 20
213.9297756773
 11
314.0439180976
 21
218.0411749473
  0
LINE
  5
33C
100
AcDbEntity
  8
0
100
AcDbLine
 62
7
  6
CONTINUOUS
 10
280.4927538945
 20
245.3010268355
 11
279.394058976
 21
245.797599239
  0
LINE
  5
33D
100
AcDbEntity
  8
0
100
AcDbLine
 62
7
  6
CONTINUOUS
 10
307.9850101573
 20
245.3010268355
 11
309.0903918204
 21
240.6813435708
  0
LINE
  5
33E
100
AcDbEntity
  8
0
100
AcDbLine
 62
7
  6
CONTINUOUS
 10
309.478090914
 20
237.8839856977
 11
310.4694762719
 21
235.8637535856
  0
LINE
  5
33F
100
AcDbEntity
  8
0
100
AcDbLine
 62
7
  6
CONTINUOUS
 10
316.3415280076
 20
223.8977633836
 11
317.3329133656
 21
221.8775312716
  0
LINE
  5
340
100
AcDbEntity
  8
0
100
AcDbLine
 62
7
  6
CONTINUOUS
 10
310.4959914115
 20
241.1779159743
 11
309.3906097484
 21
245.797599239
  0
LINE
  5
341
100
AcDbEntity
  8
0
100
AcDbLine
 62
7
  6
CONTINUOUS
 10
311.4873767695
 20
239.1576838623
 11
310.3819951064
 21
243.7773671269
  0
LINE
  5
342
100
AcDbEntity
  8
0
100
AcDbLine
 62
7
  6
CONTINUOUS
 10
302.001832218
 20
193.3379936447
 11
300.8410707561
 21
192.1630032373
  0
LINE
  5
343
100
AcDbEntity
  8
0
100
AcDbLine
 62
7
  6
CONTINUOUS
 10
310.4959914115
 20
241.1779159743
 11
311.4873767695
 21
239.1576838623
  0
LINE
  5
344
100
AcDbEntity
  8
0
100
AcDbLine
 62
7
  6
CONTINUOUS
 10
317.3594285052
 20
227.1916936603
 11
318.3508138632
 21
225.1714615482
  0
LINE
  5
345
100
AcDbEntity
  8
0
100
AcDbLine
 62
7
  6
CONTINUOUS
 10
314.848447251
 20
231.3148045214
 11
315.9538289141
 21
226.6951212568
  0
LINE
  5
346
100
AcDbEntity
  8
0
100
AcDbLine
 62
7
  6
CONTINUOUS
 10
317.3594285052
 20
227.1916936603
 11
316.2540468421
 21
231.8113769249
  0
LINE
  5
347
100
AcDbEntity
  8
0
100
AcDbLine
 62
7
  6
CONTINUOUS
 10
318.3508138632
 20
225.1714615482
 11
317.2454322
 21
229.7911448129
  0
LINE
  5
348
100
AcDbEntity
  8
0
100
AcDbLine
 62
7
  6
CONTINUOUS
 10
309.3906097484
 20
245.797599239
 11
310.3819951064
 21
243.7773671269
  0
LINE
  5
349
100
AcDbEntity
  8
0
100
AcDbLine
 62
7
  6
CONTINUOUS
 10
317.2454322
 20
229.7911448129
 11
316.2540468421
 21
231.8113769249
  0
LINE
  5
34A
100
AcDbEntity
  8
0
100
AcDbLine
 62
7
  6
CONTINUOUS
 10
293.8080328985
 20
247.8335849224
 11
296.1106856189
 21
247.8335849224
  0
LINE
  5
34B
100
AcDbEntity
  8
0
100
AcDbLine
 62
7
  6
CONTINUOUS
 10
96.0001319576
 20
110.1875
 11
96.0001319576
 21
106.9375
  0
LINE
  5
34C
100
AcDbEntity
  8
0
100
AcDbLine
 62
7
  6
CONTINUOUS
 10
96.0001319576
 20
87.6875
 11
96.0001319576
 21
84.4375
  0
LINE
  5
34D
100
AcDbEntity
  8
0
100
AcDbLine
 62
7
  6
CONTINUOUS
 10
96.4662507171
 20
110.1875
 11
96.4662507171
 21
106.9375
  0
LINE
  5
34E
100
AcDbEntity
  8
0
100
AcDbLine
 62
7
  6
CONTINUOUS
 10
96.4662507171
 20
87.6875
 11
96.4662507171
 21
84.4375
  0
LINE
  5
34F
100
AcDbEntity
  8
0
100
AcDbLine
 62
7
  6
CONTINUOUS
 10
98.75
 20
110.1875
 11
98.75
 21
106.9375
  0
LINE
  5
350
100
AcDbEntity
  8
0
100
AcDbLine
 62
7
  6
CONTINUOUS
 10
98.75
 20
84.4375
 11
98.75
 21
87.6875
  0
LINE
  5
351
100
AcDbEntity
  8
0
100
AcDbLine
 62
7
  6
CONTINUOUS
 10
100.25
 20
82.0625
 11
100.25
 21
112.5625
  0
LINE
  5
352
100
AcDbEntity
  8
0
100
AcDbLine
 62
7
  6
CONTINUOUS
 10
100.5
 20
104.5625
 11
100.5
 21
90.0625
  0
LINE
  5
353
100
AcDbEntity
  8
0
100
AcDbLine
 62
7
  6
CONTINUOUS
 10
100.25
 20
82.0625
 11
130.75
 21
82.0625
  0
LINE
  5
354
100
AcDbEntity
  8
0
100
AcDbLine
 62
7
  6
CONTINUOUS
 10
101.3660254038
 20
90.0625
 11
101.3660254038
 21
104.5625
  0
LINE
  5
355
100
AcDbEntity
  8
0
100
AcDbLine
 62
7
  6
CONTINUOUS
 10
114.5
 20
84.3125
 11
116.5
 21
84.3125
  0
LINE
  5
356
100
AcDbEntity
  8
0
100
AcDbLine
 62
7
  6
CONTINUOUS
 10
103.65
 20
107.5625
 11
103.65
 21
106.3125
  0
LINE
  5
357
100
AcDbEntity
  8
0
100
AcDbLine
 62
7
  6
CONTINUOUS
 10
103.65
 20
105.3125
 11
103.65
 21
104.5625
  0
LINE
  5
358
100
AcDbEntity
  8
0
100
AcDbLine
 62
7
  6
CONTINUOUS
 10
103.65
 20
90.0625
 11
103.65
 21
89.3125
  0
LINE
  5
359
100
AcDbEntity
  8
0
100
AcDbLine
 62
7
  6
CONTINUOUS
 10
103.65
 20
88.3125
 11
103.65
 21
87.0625
  0
LINE
  5
35A
100
AcDbEntity
  8
0
100
AcDbLine
 62
7
  6
CONTINUOUS
 10
96.0001319576
 20
84.4375
 11
100.25
 21
84.4375
  0
LINE
  5
35B
100
AcDbEntity
  8
0
100
AcDbLine
 62
7
  6
CONTINUOUS
 10
130.75
 20
84.4375
 11
134.9998680424
 21
84.4375
  0
LINE
  5
35C
100
AcDbEntity
  8
0
100
AcDbLine
 62
7
  6
CONTINUOUS
 10
100.25
 20
84.8125
 11
112.75
 21
84.8125
  0
LINE
  5
35D
100
AcDbEntity
  8
0
100
AcDbLine
 62
7
  6
CONTINUOUS
 10
118.25
 20
84.8125
 11
130.75
 21
84.8125
  0
LINE
  5
35E
100
AcDbEntity
  8
0
100
AcDbLine
 62
7
  6
CONTINUOUS
 10
112.75
 20
85.5625
 11
114.5
 21
85.5625
  0
LINE
  5
35F
100
AcDbEntity
  8
0
100
AcDbLine
 62
7
  6
CONTINUOUS
 10
116.5
 20
85.5625
 11
118.25
 21
85.5625
  0
LINE
  5
360
100
AcDbEntity
  8
0
100
AcDbLine
 62
7
  6
CONTINUOUS
 10
114.5
 20
85.7125
 11
116.5
 21
85.7125
  0
LINE
  5
361
100
AcDbEntity
  8
0
100
AcDbLine
 62
7
  6
CONTINUOUS
 10
105.775
 20
87.2125
 11
105.7892577353
 21
87.0625
  0
LINE
  5
362
100
AcDbEntity
  8
0
100
AcDbLine
 62
7
  6
CONTINUOUS
 10
104.25
 20
107.4125
 11
104.25
 21
104.5625
  0
LINE
  5
363
100
AcDbEntity
  8
0
100
AcDbLine
 62
7
  6
CONTINUOUS
 10
104.25
 20
90.0625
 11
104.25
 21
87.2125
  0
LINE
  5
364
100
AcDbEntity
  8
0
100
AcDbLine
 62
7
  6
CONTINUOUS
 10
105.7892577353
 20
107.5625
 11
105.775
 21
107.4125
  0
LINE
  5
365
100
AcDbEntity
  8
0
100
AcDbLine
 62
7
  6
CONTINUOUS
 10
100.25
 20
87.0625
 11
114.5
 21
87.0625
  0
LINE
  5
366
100
AcDbEntity
  8
0
100
AcDbLine
 62
7
  6
CONTINUOUS
 10
116.5
 20
87.0625
 11
130.75
 21
87.0625
  0
LINE
  5
367
100
AcDbEntity
  8
0
100
AcDbLine
 62
7
  6
CONTINUOUS
 10
104.25
 20
87.2125
 11
114.5
 21
87.2125
  0
LINE
  5
368
100
AcDbEntity
  8
0
100
AcDbLine
 62
7
  6
CONTINUOUS
 10
116.5
 20
87.2125
 11
126.75
 21
87.2125
  0
LINE
  5
369
100
AcDbEntity
  8
0
100
AcDbLine
 62
7
  6
CONTINUOUS
 10
106.0
 20
87.0625
 11
106.0
 21
87.2125
  0
LINE
  5
36A
100
AcDbEntity
  8
0
100
AcDbLine
 62
7
  6
CONTINUOUS
 10
106.0
 20
107.4125
 11
106.0
 21
107.5625
  0
LINE
  5
36B
100
AcDbEntity
  8
0
100
AcDbLine
 62
7
  6
CONTINUOUS
 10
106.75
 20
105.5125
 11
106.75
 21
89.1125
  0
LINE
  5
36C
100
AcDbEntity
  8
0
100
AcDbLine
 62
7
  6
CONTINUOUS
 10
107.25
 20
105.0125
 11
107.25
 21
89.6125
  0
LINE
  5
36D
100
AcDbEntity
  8
0
100
AcDbLine
 62
7
  6
CONTINUOUS
 10
96.0001319576
 20
87.6875
 11
100.25
 21
87.6875
  0
LINE
  5
36E
100
AcDbEntity
  8
0
100
AcDbLine
 62
7
  6
CONTINUOUS
 10
130.75
 20
87.6875
 11
134.9998680424
 21
87.6875
  0
LINE
  5
36F
100
AcDbEntity
  8
0
100
AcDbLine
 62
7
  6
CONTINUOUS
 10
130.75
 20
88.3125
 11
127.3494226081
 21
88.3125
  0
LINE
  5
370
100
AcDbEntity
  8
0
100
AcDbLine
 62
7
  6
CONTINUOUS
 10
100.25
 20
88.3125
 11
103.65
 21
88.3125
  0
LINE
  5
371
100
AcDbEntity
  8
0
100
AcDbLine
 62
7
  6
CONTINUOUS
 10
106.75
 20
89.1125
 11
114.5
 21
89.1125
  0
LINE
  5
372
100
AcDbEntity
  8
0
100
AcDbLine
 62
7
  6
CONTINUOUS
 10
116.5
 20
89.1125
 11
124.25
 21
89.1125
  0
LINE
  5
373
100
AcDbEntity
  8
0
100
AcDbLine
 62
7
  6
CONTINUOUS
 10
108.3
 20
87.0625
 11
108.3
 21
87.2125
  0
LINE
  5
374
100
AcDbEntity
  8
0
100
AcDbLine
 62
7
  6
CONTINUOUS
 10
108.3
 20
107.4125
 11
108.3
 21
107.5625
  0
LINE
  5
375
100
AcDbEntity
  8
0
100
AcDbLine
 62
7
  6
CONTINUOUS
 10
130.75
 20
89.3125
 11
127.3494226081
 21
89.3125
  0
LINE
  5
376
100
AcDbEntity
  8
0
100
AcDbLine
 62
7
  6
CONTINUOUS
 10
100.25
 20
89.3125
 11
103.65
 21
89.3125
  0
LINE
  5
377
100
AcDbEntity
  8
0
100
AcDbLine
 62
7
  6
CONTINUOUS
 10
107.25
 20
89.6125
 11
114.5
 21
89.6125
  0
LINE
  5
378
100
AcDbEntity
  8
0
100
AcDbLine
 62
7
  6
CONTINUOUS
 10
116.5
 20
89.6125
 11
123.75
 21
89.6125
  0
LINE
  5
379
100
AcDbEntity
  8
0
100
AcDbLine
 62
7
  6
CONTINUOUS
 10
100.5
 20
90.0625
 11
104.25
 21
90.0625
  0
LINE
  5
37A
100
AcDbEntity
  8
0
100
AcDbLine
 62
7
  6
CONTINUOUS
 10
126.75
 20
90.0625
 11
130.5
 21
90.0625
  0
LINE
  5
37B
100
AcDbEntity
  8
0
100
AcDbLine
 62
7
  6
CONTINUOUS
 10
130.75
 20
90.5625
 11
130.5
 21
90.5625
  0
LINE
  5
37C
100
AcDbEntity
  8
0
100
AcDbLine
 62
7
  6
CONTINUOUS
 10
100.25
 20
90.5625
 11
100.5
 21
90.5625
  0
LINE
  5
37D
100
AcDbEntity
  8
0
100
AcDbLine
 62
7
  6
CONTINUOUS
 10
108.5107422647
 20
107.5625
 11
108.525
 21
107.4125
  0
LINE
  5
37E
100
AcDbEntity
  8
0
100
AcDbLine
 62
7
  6
CONTINUOUS
 10
110.0
 20
102.6875
 11
110.0
 21
91.9375
  0
LINE
  5
37F
100
AcDbEntity
  8
0
100
AcDbLine
 62
7
  6
CONTINUOUS
 10
108.525
 20
87.2125
 11
108.5107422647
 21
87.0625
  0
LINE
  5
380
100
AcDbEntity
  8
0
100
AcDbLine
 62
7
  6
CONTINUOUS
 10
121.0
 20
91.9375
 11
110.0
 21
91.9375
  0
LINE
  5
381
100
AcDbEntity
  8
0
100
AcDbLine
 62
7
  6
CONTINUOUS
 10
112.75
 20
112.5625
 11
112.75
 21
109.0625
  0
LINE
  5
382
100
AcDbEntity
  8
0
100
AcDbLine
 62
7
  6
CONTINUOUS
 10
112.75
 20
107.4125
 11
112.75
 21
105.5125
  0
LINE
  5
383
100
AcDbEntity
  8
0
100
AcDbLine
 62
7
  6
CONTINUOUS
 10
112.75
 20
82.0625
 11
112.75
 21
85.5625
  0
LINE
  5
384
100
AcDbEntity
  8
0
100
AcDbLine
 62
7
  6
CONTINUOUS
 10
112.75
 20
87.2125
 11
112.75
 21
89.1125
  0
LINE
  5
385
100
AcDbEntity
  8
0
100
AcDbLine
 62
7
  6
CONTINUOUS
 10
113.75
 20
87.0625
 11
113.75
 21
85.5625
  0
LINE
  5
386
100
AcDbEntity
  8
0
100
AcDbLine
 62
7
  6
CONTINUOUS
 10
113.75
 20
107.5625
 11
113.75
 21
109.0625
  0
LINE
  5
387
100
AcDbEntity
  8
0
100
AcDbLine
 62
7
  6
CONTINUOUS
 10
114.25
 20
110.3125
 11
114.25
 21
102.6875
  0
LINE
  5
388
100
AcDbEntity
  8
0
100
AcDbLine
 62
7
  6
CONTINUOUS
 10
114.5
 20
91.9375
 11
114.5
 21
84.3125
  0
LINE
  5
389
100
AcDbEntity
  8
0
100
AcDbLine
 62
7
  6
CONTINUOUS
 10
106.75
 20
89.1125
 11
107.25
 21
89.6125
  0
LINE
  5
38A
100
AcDbEntity
  8
0
100
AcDbLine
 62
7
  6
CONTINUOUS
 10
106.75
 20
105.5125
 11
107.25
 21
105.0125
  0
LINE
  5
38B
100
AcDbEntity
  8
0
100
AcDbLine
 62
7
  6
CONTINUOUS
 10
116.5
 20
91.9375
 11
116.5
 21
84.3125
  0
LINE
  5
38C
100
AcDbEntity
  8
0
100
AcDbLine
 62
7
  6
CONTINUOUS
 10
116.75
 20
110.3125
 11
116.75
 21
102.6875
  0
LINE
  5
38D
100
AcDbEntity
  8
0
100
AcDbLine
 62
7
  6
CONTINUOUS
 10
117.25
 20
87.0625
 11
117.25
 21
85.5625
  0
LINE
  5
38E
100
AcDbEntity
  8
0
100
AcDbLine
 62
7
  6
CONTINUOUS
 10
117.25
 20
107.5625
 11
117.25
 21
109.0625
  0
LINE
  5
38F
100
AcDbEntity
  8
0
100
AcDbLine
 62
7
  6
CONTINUOUS
 10
124.25
 20
105.5125
 11
123.75
 21
105.0125
  0
LINE
  5
390
100
AcDbEntity
  8
0
100
AcDbLine
 62
7
  6
CONTINUOUS
 10
124.25
 20
89.1125
 11
123.75
 21
89.6125
  0
LINE
  5
391
100
AcDbEntity
  8
0
100
AcDbLine
 62
7
  6
CONTINUOUS
 10
118.25
 20
112.5625
 11
118.25
 21
109.0625
  0
LINE
  5
392
100
AcDbEntity
  8
0
100
AcDbLine
 62
7
  6
CONTINUOUS
 10
118.25
 20
107.4125
 11
118.25
 21
105.5125
  0
LINE
  5
393
100
AcDbEntity
  8
0
100
AcDbLine
 62
7
  6
CONTINUOUS
 10
118.25
 20
82.0625
 11
118.25
 21
85.5625
  0
LINE
  5
394
100
AcDbEntity
  8
0
100
AcDbLine
 62
7
  6
CONTINUOUS
 10
118.25
 20
87.2125
 11
118.25
 21
89.1125
  0
LINE
  5
395
100
AcDbEntity
  8
0
100
AcDbLine
 62
7
  6
CONTINUOUS
 10
122.475
 20
87.2125
 11
122.4892577353
 21
87.0625
  0
LINE
  5
396
100
AcDbEntity
  8
0
100
AcDbLine
 62
7
  6
CONTINUOUS
 10
121.0
 20
102.6875
 11
121.0
 21
91.9375
  0
LINE
  5
397
100
AcDbEntity
  8
0
100
AcDbLine
 62
7
  6
CONTINUOUS
 10
122.4892577353
 20
107.5625
 11
122.475
 21
107.4125
  0
LINE
  5
398
100
AcDbEntity
  8
0
100
AcDbLine
 62
7
  6
CONTINUOUS
 10
121.0
 20
102.6875
 11
110.0
 21
102.6875
  0
LINE
  5
399
100
AcDbEntity
  8
0
100
AcDbLine
 62
7
  6
CONTINUOUS
 10
130.75
 20
104.0625
 11
130.5
 21
104.0625
  0
LINE
  5
39A
100
AcDbEntity
  8
0
100
AcDbLine
 62
7
  6
CONTINUOUS
 10
100.25
 20
104.0625
 11
100.5
 21
104.0625
  0
LINE
  5
39B
100
AcDbEntity
  8
0
100
AcDbLine
 62
7
  6
CONTINUOUS
 10
122.7
 20
87.0625
 11
122.7
 21
87.2125
  0
LINE
  5
39C
100
AcDbEntity
  8
0
100
AcDbLine
 62
7
  6
CONTINUOUS
 10
122.7
 20
107.4125
 11
122.7
 21
107.5625
  0
LINE
  5
39D
100
AcDbEntity
  8
0
100
AcDbLine
 62
7
  6
CONTINUOUS
 10
123.75
 20
89.6125
 11
123.75
 21
105.0125
  0
LINE
  5
39E
100
AcDbEntity
  8
0
100
AcDbLine
 62
7
  6
CONTINUOUS
 10
130.5
 20
104.5625
 11
126.75
 21
104.5625
  0
LINE
  5
39F
100
AcDbEntity
  8
0
100
AcDbLine
 62
7
  6
CONTINUOUS
 10
104.25
 20
104.5625
 11
100.5
 21
104.5625
  0
LINE
  5
3A0
100
AcDbEntity
  8
0
100
AcDbLine
 62
7
  6
CONTINUOUS
 10
123.75
 20
105.0125
 11
116.75
 21
105.0125
  0
LINE
  5
3A1
100
AcDbEntity
  8
0
100
AcDbLine
 62
7
  6
CONTINUOUS
 10
114.25
 20
105.0125
 11
107.25
 21
105.0125
  0
LINE
  5
3A2
100
AcDbEntity
  8
0
100
AcDbLine
 62
7
  6
CONTINUOUS
 10
130.75
 20
105.3125
 11
127.3494226081
 21
105.3125
  0
LINE
  5
3A3
100
AcDbEntity
  8
0
100
AcDbLine
 62
7
  6
CONTINUOUS
 10
100.25
 20
105.3125
 11
103.65
 21
105.3125
  0
LINE
  5
3A4
100
AcDbEntity
  8
0
100
AcDbLine
 62
7
  6
CONTINUOUS
 10
124.25
 20
105.5125
 11
116.75
 21
105.5125
  0
LINE
  5
3A5
100
AcDbEntity
  8
0
100
AcDbLine
 62
7
  6
CONTINUOUS
 10
114.25
 20
105.5125
 11
106.75
 21
105.5125
  0
LINE
  5
3A6
100
AcDbEntity
  8
0
100
AcDbLine
 62
7
  6
CONTINUOUS
 10
124.25
 20
89.1125
 11
124.25
 21
105.5125
  0
LINE
  5
3A7
100
AcDbEntity
  8
0
100
AcDbLine
 62
7
  6
CONTINUOUS
 10
125.0
 20
87.0625
 11
125.0
 21
87.2125
  0
LINE
  5
3A8
100
AcDbEntity
  8
0
100
AcDbLine
 62
7
  6
CONTINUOUS
 10
125.0
 20
107.4125
 11
125.0
 21
107.5625
  0
LINE
  5
3A9
100
AcDbEntity
  8
0
100
AcDbLine
 62
7
  6
CONTINUOUS
 10
130.75
 20
106.3125
 11
127.3494226081
 21
106.3125
  0
LINE
  5
3AA
100
AcDbEntity
  8
0
100
AcDbLine
 62
7
  6
CONTINUOUS
 10
100.25
 20
106.3125
 11
103.65
 21
106.3125
  0
LINE
  5
3AB
100
AcDbEntity
  8
0
100
AcDbLine
 62
7
  6
CONTINUOUS
 10
96.0001319576
 20
106.9375
 11
100.25
 21
106.9375
  0
LINE
  5
3AC
100
AcDbEntity
  8
0
100
AcDbLine
 62
7
  6
CONTINUOUS
 10
130.75
 20
106.9375
 11
134.9998680424
 21
106.9375
  0
LINE
  5
3AD
100
AcDbEntity
  8
0
100
AcDbLine
 62
7
  6
CONTINUOUS
 10
126.75
 20
107.4125
 11
116.75
 21
107.4125
  0
LINE
  5
3AE
100
AcDbEntity
  8
0
100
AcDbLine
 62
7
  6
CONTINUOUS
 10
114.25
 20
107.4125
 11
104.25
 21
107.4125
  0
LINE
  5
3AF
100
AcDbEntity
  8
0
100
AcDbLine
 62
7
  6
CONTINUOUS
 10
125.2107422647
 20
107.5625
 11
125.225
 21
107.4125
  0
LINE
  5
3B0
100
AcDbEntity
  8
0
100
AcDbLine
 62
7
  6
CONTINUOUS
 10
126.75
 20
87.2125
 11
126.75
 21
90.0625
  0
LINE
  5
3B1
100
AcDbEntity
  8
0
100
AcDbLine
 62
7
  6
CONTINUOUS
 10
126.75
 20
104.5625
 11
126.75
 21
107.4125
  0
LINE
  5
3B2
100
AcDbEntity
  8
0
100
AcDbLine
 62
7
  6
CONTINUOUS
 10
125.225
 20
87.2125
 11
125.2107422647
 21
87.0625
  0
LINE
  5
3B3
100
AcDbEntity
  8
0
100
AcDbLine
 62
7
  6
CONTINUOUS
 10
100.25
 20
107.5625
 11
114.25
 21
107.5625
  0
LINE
  5
3B4
100
AcDbEntity
  8
0
100
AcDbLine
 62
7
  6
CONTINUOUS
 10
116.75
 20
107.5625
 11
130.75
 21
107.5625
  0
LINE
  5
3B5
100
AcDbEntity
  8
0
100
AcDbLine
 62
7
  6
CONTINUOUS
 10
100.25
 20
108.8615381057
 11
113.75
 21
108.8615381057
  0
LINE
  5
3B6
100
AcDbEntity
  8
0
100
AcDbLine
 62
7
  6
CONTINUOUS
 10
117.25
 20
108.8615381057
 11
130.75
 21
108.8615381057
  0
LINE
  5
3B7
100
AcDbEntity
  8
0
100
AcDbLine
 62
7
  6
CONTINUOUS
 10
114.25
 20
108.9125
 11
116.75
 21
108.9125
  0
LINE
  5
3B8
100
AcDbEntity
  8
0
100
AcDbLine
 62
7
  6
CONTINUOUS
 10
112.75
 20
109.0625
 11
114.25
 21
109.0625
  0
LINE
  5
3B9
100
AcDbEntity
  8
0
100
AcDbLine
 62
7
  6
CONTINUOUS
 10
116.75
 20
109.0625
 11
118.25
 21
109.0625
  0
LINE
  5
3BA
100
AcDbEntity
  8
0
100
AcDbLine
 62
7
  6
CONTINUOUS
 10
127.3494226081
 20
105.3125
 11
127.3494226081
 21
104.5625
  0
LINE
  5
3BB
100
AcDbEntity
  8
0
100
AcDbLine
 62
7
  6
CONTINUOUS
 10
127.3494226081
 20
90.0625
 11
127.3494226081
 21
89.3125
  0
LINE
  5
3BC
100
AcDbEntity
  8
0
100
AcDbLine
 62
7
  6
CONTINUOUS
 10
127.3494226081
 20
87.0625
 11
127.3494226081
 21
88.3125
  0
LINE
  5
3BD
100
AcDbEntity
  8
0
100
AcDbLine
 62
7
  6
CONTINUOUS
 10
127.3494226081
 20
106.3125
 11
127.3494226081
 21
107.5625
  0
LINE
  5
3BE
100
AcDbEntity
  8
0
100
AcDbLine
 62
7
  6
CONTINUOUS
 10
96.0001319576
 20
110.1875
 11
100.25
 21
110.1875
  0
LINE
  5
3BF
100
AcDbEntity
  8
0
100
AcDbLine
 62
7
  6
CONTINUOUS
 10
130.75
 20
110.1875
 11
134.9998680424
 21
110.1875
  0
LINE
  5
3C0
100
AcDbEntity
  8
0
100
AcDbLine
 62
7
  6
CONTINUOUS
 10
114.25
 20
110.3125
 11
116.75
 21
110.3125
  0
LINE
  5
3C1
100
AcDbEntity
  8
0
100
AcDbLine
 62
7
  6
CONTINUOUS
 10
129.6339745962
 20
90.0625
 11
129.6339745962
 21
104.5625
  0
LINE
  5
3C2
100
AcDbEntity
  8
0
100
AcDbLine
 62
7
  6
CONTINUOUS
 10
130.5
 20
90.0625
 11
130.5
 21
104.5625
  0
LINE
  5
3C3
100
AcDbEntity
  8
0
100
AcDbLine
 62
7
  6
CONTINUOUS
 10
130.75
 20
82.0625
 11
130.75
 21
112.5625
  0
LINE
  5
3C4
100
AcDbEntity
  8
0
100
AcDbLine
 62
7
  6
CONTINUOUS
 10
100.25
 20
112.5625
 11
130.75
 21
112.5625
  0
LINE
  5
3C5
100
AcDbEntity
  8
0
100
AcDbLine
 62
7
  6
CONTINUOUS
 10
132.25
 20
110.1875
 11
132.25
 21
106.9375
  0
LINE
  5
3C6
100
AcDbEntity
  8
0
100
AcDbLine
 62
7
  6
CONTINUOUS
 10
132.25
 20
84.4375
 11
132.25
 21
87.6875
  0
LINE
  5
3C7
100
AcDbEntity
  8
0
100
AcDbLine
 62
7
  6
CONTINUOUS
 10
134.5337492829
 20
110.1875
 11
134.5337492829
 21
106.9375
  0
LINE
  5
3C8
100
AcDbEntity
  8
0
100
AcDbLine
 62
7
  6
CONTINUOUS
 10
134.5337492829
 20
87.6875
 11
134.5337492829
 21
84.4375
  0
LINE
  5
3C9
100
AcDbEntity
  8
0
100
AcDbLine
 62
7
  6
CONTINUOUS
 10
134.9998680424
 20
110.1875
 11
134.9998680424
 21
106.9375
  0
LINE
  5
3CA
100
AcDbEntity
  8
0
100
AcDbLine
 62
7
  6
CONTINUOUS
 10
134.9998680424
 20
87.6875
 11
134.9998680424
 21
84.4375
  0
LINE
  5
3CB
100
AcDbEntity
  8
0
100
AcDbLine
 62
7
  6
CONTINUOUS
 10
129.6339745962
 20
168.1125
 11
118.25
 21
168.1125
  0
LINE
  5
3CC
100
AcDbEntity
  8
0
100
AcDbLine
 62
7
  6
CONTINUOUS
 10
112.75
 20
168.1125
 11
101.3660254038
 21
168.1125
  0
LINE
  5
3CD
100
AcDbEntity
  8
0
100
AcDbLine
 62
7
  6
CONTINUOUS
 10
130.5
 20
172.1125
 11
126.75
 21
172.1125
  0
LINE
  5
3CE
100
AcDbEntity
  8
0
100
AcDbLine
 62
7
  6
CONTINUOUS
 10
104.25
 20
172.1125
 11
100.5
 21
172.1125
  0
LINE
  5
3CF
100
AcDbEntity
  8
0
100
AcDbLine
 62
7
  6
CONTINUOUS
 10
101.3660254038
 20
168.1125
 11
100.5
 21
169.6125
  0
LINE
  5
3D0
100
AcDbEntity
  8
0
100
AcDbLine
 62
7
  6
CONTINUOUS
 10
99.2163076594
 20
220.6125419967
 11
96.4662507171
 21
214.7150258522
  0
LINE
  5
3D1
100
AcDbEntity
  8
0
100
AcDbLine
 62
7
  6
CONTINUOUS
 10
97.8257123977
 20
214.0810984595
 11
100.57576934
 21
219.9786146041
  0
LINE
  5
3D2
100
AcDbEntity
  8
0
100
AcDbLine
 62
7
  6
CONTINUOUS
 10
118.25
 20
178.1125
 11
112.75
 21
178.1125
  0
LINE
  5
3D3
100
AcDbEntity
  8
0
100
AcDbLine
 62
7
  6
CONTINUOUS
 10
100.25
 20
179.1125
 11
113.75
 21
179.1125
  0
LINE
  5
3D4
100
AcDbEntity
  8
0
100
AcDbLine
 62
7
  6
CONTINUOUS
 10
117.25
 20
179.1125
 11
130.75
 21
179.1125
  0
LINE
  5
3D5
100
AcDbEntity
  8
0
100
AcDbLine
 62
7
  6
CONTINUOUS
 10
98.75
 20
205.612458006
 11
98.75
 21
200.3638203436
  0
LINE
  5
3D6
100
AcDbEntity
  8
0
100
AcDbLine
 62
7
  6
CONTINUOUS
 10
114.25
 20
180.6125
 11
116.75
 21
180.6125
  0
LINE
  5
3D7
100
AcDbEntity
  8
0
100
AcDbLine
 62
7
  6
CONTINUOUS
 10
117.25
 20
181.6125
 11
116.75
 21
181.6125
  0
LINE
  5
3D8
100
AcDbEntity
  8
0
100
AcDbLine
 62
7
  6
CONTINUOUS
 10
114.25
 20
181.6125
 11
113.75
 21
181.6125
  0
LINE
  5
3D9
100
AcDbEntity
  8
0
100
AcDbLine
 62
7
  6
CONTINUOUS
 10
100.25
 20
179.1125
 11
100.25
 21
205.945
  0
LINE
  5
3DA
100
AcDbEntity
  8
0
100
AcDbLine
 62
7
  6
CONTINUOUS
 10
100.5
 20
169.6125
 11
100.5
 21
172.1125
  0
LINE
  5
3DB
100
AcDbEntity
  8
0
100
AcDbLine
 62
7
  6
CONTINUOUS
 10
101.5
 20
203.1125
 11
101.5
 21
202.1125
  0
LINE
  5
3DC
100
AcDbEntity
  8
0
100
AcDbLine
 62
7
  6
CONTINUOUS
 10
113.75
 20
181.8625
 11
114.25
 21
181.8625
  0
LINE
  5
3DD
100
AcDbEntity
  8
0
100
AcDbLine
 62
7
  6
CONTINUOUS
 10
116.75
 20
181.8625
 11
117.25
 21
181.8625
  0
LINE
  5
3DE
100
AcDbEntity
  8
0
100
AcDbLine
 62
7
  6
CONTINUOUS
 10
114.25
 20
182.0125
 11
116.75
 21
182.0125
  0
LINE
  5
3DF
100
AcDbEntity
  8
0
100
AcDbLine
 62
7
  6
CONTINUOUS
 10
125.85
 20
182.1125
 11
121.85
 21
182.1125
  0
LINE
  5
3E0
100
AcDbEntity
  8
0
100
AcDbLine
 62
7
  6
CONTINUOUS
 10
109.15
 20
182.1125
 11
105.15
 21
182.1125
  0
LINE
  5
3E1
100
AcDbEntity
  8
0
100
AcDbLine
 62
7
  6
CONTINUOUS
 10
108.4061855391
 20
184.0474364905
 11
105.8938144609
 21
184.0474364905
  0
LINE
  5
3E2
100
AcDbEntity
  8
0
100
AcDbLine
 62
7
  6
CONTINUOUS
 10
122.5938144609
 20
184.0474364905
 11
125.1061855391
 21
184.0474364905
  0
LINE
  5
3E3
100
AcDbEntity
  8
0
100
AcDbLine
 62
7
  6
CONTINUOUS
 10
131.7836923406
 20
220.6125419967
 11
130.42423066
 21
219.9786146041
  0
LINE
  5
3E4
100
AcDbEntity
  8
0
100
AcDbLine
 62
7
  6
CONTINUOUS
 10
108.525
 20
186.2125
 11
105.775
 21
186.2125
  0
LINE
  5
3E5
100
AcDbEntity
  8
0
100
AcDbLine
 62
7
  6
CONTINUOUS
 10
122.475
 20
186.2125
 11
125.225
 21
186.2125
  0
LINE
  5
3E6
100
AcDbEntity
  8
0
100
AcDbLine
 62
7
  6
CONTINUOUS
 10
96.4662507171
 20
210.5099741478
 11
98.75
 21
205.612458006
  0
LINE
  5
3E7
100
AcDbEntity
  8
0
100
AcDbLine
 62
7
  6
CONTINUOUS
 10
106.0
 20
182.1125
 11
105.775
 21
186.2125
  0
LINE
  5
3E8
100
AcDbEntity
  8
0
100
AcDbLine
 62
7
  6
CONTINUOUS
 10
104.25
 20
179.1125
 11
104.25
 21
168.1125
  0
LINE
  5
3E9
100
AcDbEntity
  8
0
100
AcDbLine
 62
7
  6
CONTINUOUS
 10
105.15
 20
182.1125
 11
105.15
 21
187.6125
  0
LINE
  5
3EA
100
AcDbEntity
  8
0
100
AcDbLine
 62
7
  6
CONTINUOUS
 10
105.15
 20
187.6125
 11
109.15
 21
187.6125
  0
LINE
  5
3EB
100
AcDbEntity
  8
0
100
AcDbLine
 62
7
  6
CONTINUOUS
 10
121.85
 20
187.6125
 11
125.85
 21
187.6125
  0
LINE
  5
3EC
100
AcDbEntity
  8
0
100
AcDbLine
 62
7
  6
CONTINUOUS
 10
100.25
 20
205.945
 11
97.8257123977
 21
211.1439015405
  0
LINE
  5
3ED
100
AcDbEntity
  8
0
100
AcDbLine
 62
7
  6
CONTINUOUS
 10
109.15
 20
187.6125
 11
109.15
 21
182.1125
  0
LINE
  5
3EE
100
AcDbEntity
  8
0
100
AcDbLine
 62
7
  6
CONTINUOUS
 10
108.3
 20
182.1125
 11
108.525
 21
186.2125
  0
LINE
  5
3EF
100
AcDbEntity
  8
0
100
AcDbLine
 62
7
  6
CONTINUOUS
 10
111.75
 20
203.1125
 11
111.75
 21
202.1125
  0
LINE
  5
3F0
100
AcDbEntity
  8
0
100
AcDbLine
 62
7
  6
CONTINUOUS
 10
112.75
 20
168.1125
 11
112.75
 21
196.6125
  0
LINE
  5
3F1
100
AcDbEntity
  8
0
100
AcDbLine
 62
7
  6
CONTINUOUS
 10
113.75
 20
179.1125
 11
113.75
 21
181.8625
  0
LINE
  5
3F2
100
AcDbEntity
  8
0
100
AcDbLine
 62
7
  6
CONTINUOUS
 10
114.25
 20
223.1125
 11
114.25
 21
202.1125
  0
LINE
  5
3F3
100
AcDbEntity
  8
0
100
AcDbLine
 62
7
  6
CONTINUOUS
 10
114.25
 20
196.6125
 11
114.25
 21
180.6125
  0
LINE
  5
3F4
100
AcDbEntity
  8
0
100
AcDbLine
 62
7
  6
CONTINUOUS
 10
114.5
 20
228.1125
 11
114.5
 21
223.1125
  0
LINE
  5
3F5
100
AcDbEntity
  8
0
100
AcDbLine
 62
7
  6
CONTINUOUS
 10
112.75
 20
196.6125
 11
118.25
 21
196.6125
  0
LINE
  5
3F6
100
AcDbEntity
  8
0
100
AcDbLine
 62
7
  6
CONTINUOUS
 10
116.5
 20
228.1125
 11
116.5
 21
223.1125
  0
LINE
  5
3F7
100
AcDbEntity
  8
0
100
AcDbLine
 62
7
  6
CONTINUOUS
 10
116.75
 20
223.1125
 11
116.75
 21
202.1125
  0
LINE
  5
3F8
100
AcDbEntity
  8
0
100
AcDbLine
 62
7
  6
CONTINUOUS
 10
116.75
 20
196.6125
 11
116.75
 21
180.6125
  0
LINE
  5
3F9
100
AcDbEntity
  8
0
100
AcDbLine
 62
7
  6
CONTINUOUS
 10
117.25
 20
179.1125
 11
117.25
 21
181.8625
  0
LINE
  5
3FA
100
AcDbEntity
  8
0
100
AcDbLine
 62
7
  6
CONTINUOUS
 10
118.25
 20
168.1125
 11
118.25
 21
196.6125
  0
LINE
  5
3FB
100
AcDbEntity
  8
0
100
AcDbLine
 62
7
  6
CONTINUOUS
 10
119.25
 20
203.1125
 11
119.25
 21
202.1125
  0
LINE
  5
3FC
100
AcDbEntity
  8
0
100
AcDbLine
 62
7
  6
CONTINUOUS
 10
100.25
 20
202.1125
 11
130.75
 21
202.1125
  0
LINE
  5
3FD
100
AcDbEntity
  8
0
100
AcDbLine
 62
7
  6
CONTINUOUS
 10
129.5
 20
203.1125
 11
116.75
 21
203.1125
  0
LINE
  5
3FE
100
AcDbEntity
  8
0
100
AcDbLine
 62
7
  6
CONTINUOUS
 10
114.25
 20
203.1125
 11
101.5
 21
203.1125
  0
LINE
  5
3FF
100
AcDbEntity
  8
0
100
AcDbLine
 62
7
  6
CONTINUOUS
 10
122.7
 20
182.1125
 11
122.475
 21
186.2125
  0
LINE
  5
400
100
AcDbEntity
  8
0
100
AcDbLine
 62
7
  6
CONTINUOUS
 10
121.85
 20
182.1125
 11
121.85
 21
187.6125
  0
LINE
  5
401
100
AcDbEntity
  8
0
100
AcDbLine
 62
7
  6
CONTINUOUS
 10
125.85
 20
187.6125
 11
125.85
 21
182.1125
  0
LINE
  5
402
100
AcDbEntity
  8
0
100
AcDbLine
 62
7
  6
CONTINUOUS
 10
126.75
 20
168.1125
 11
126.75
 21
179.1125
  0
LINE
  5
403
100
AcDbEntity
  8
0
100
AcDbLine
 62
7
  6
CONTINUOUS
 10
125.0
 20
182.1125
 11
125.225
 21
186.2125
  0
LINE
  5
404
100
AcDbEntity
  8
0
100
AcDbLine
 62
7
  6
CONTINUOUS
 10
133.1742876023
 20
211.1439015405
 11
130.75
 21
205.945
  0
LINE
  5
405
100
AcDbEntity
  8
0
100
AcDbLine
 62
7
  6
CONTINUOUS
 10
132.25
 20
205.612458006
 11
134.5337492829
 21
210.5099741478
  0
LINE
  5
406
100
AcDbEntity
  8
0
100
AcDbLine
 62
7
  6
CONTINUOUS
 10
129.5
 20
203.1125
 11
129.5
 21
202.1125
  0
LINE
  5
407
100
AcDbEntity
  8
0
100
AcDbLine
 62
7
  6
CONTINUOUS
 10
100.57576934
 20
219.9786146041
 11
99.2163076594
 21
220.6125419967
  0
LINE
  5
408
100
AcDbEntity
  8
0
100
AcDbLine
 62
7
  6
CONTINUOUS
 10
130.5
 20
169.6125
 11
130.5
 21
172.1125
  0
LINE
  5
409
100
AcDbEntity
  8
0
100
AcDbLine
 62
7
  6
CONTINUOUS
 10
130.75
 20
205.945
 11
130.75
 21
179.1125
  0
LINE
  5
40A
100
AcDbEntity
  8
0
100
AcDbLine
 62
7
  6
CONTINUOUS
 10
132.25
 20
200.3638203436
 11
132.25
 21
205.612458006
  0
LINE
  5
40B
100
AcDbEntity
  8
0
100
AcDbLine
 62
7
  6
CONTINUOUS
 10
130.42423066
 20
219.9786146041
 11
133.1742876023
 21
214.0810984595
  0
LINE
  5
40C
100
AcDbEntity
  8
0
100
AcDbLine
 62
7
  6
CONTINUOUS
 10
114.25
 20
223.1125
 11
116.75
 21
223.1125
  0
LINE
  5
40D
100
AcDbEntity
  8
0
100
AcDbLine
 62
7
  6
CONTINUOUS
 10
134.5337492829
 20
214.7150258522
 11
131.7836923406
 21
220.6125419967
  0
LINE
  5
40E
100
AcDbEntity
  8
0
100
AcDbLine
 62
7
  6
CONTINUOUS
 10
130.5
 20
169.6125
 11
129.6339745962
 21
168.1125
  0
LINE
  5
40F
100
AcDbEntity
  8
0
100
AcDbLine
 62
7
  6
CONTINUOUS
 10
114.5
 20
228.1125
 11
116.5
 21
228.1125
  0
LINE
  5
410
100
AcDbEntity
  8
0
100
AcDbLine
 62
7
  6
CONTINUOUS
 10
222.0
 20
87.2125
 11
222.0
 21
107.4125
  0
LINE
  5
411
100
AcDbEntity
  8
0
100
AcDbLine
 62
7
  6
CONTINUOUS
 10
223.5
 20
90.0625
 11
223.5
 21
104.5625
  0
LINE
  5
412
100
AcDbEntity
  8
0
100
AcDbLine
 62
7
  6
CONTINUOUS
 10
226.0
 20
89.8125
 11
226.0
 21
104.8125
  0
LINE
  5
413
100
AcDbEntity
  8
0
100
AcDbLine
 62
7
  6
CONTINUOUS
 10
233.0
 20
112.5625
 11
233.0
 21
108.8615381057
  0
LINE
  5
414
100
AcDbEntity
  8
0
100
AcDbLine
 62
7
  6
CONTINUOUS
 10
233.0
 20
104.0625
 11
233.0
 21
90.5625
  0
LINE
  5
415
100
AcDbEntity
  8
0
100
AcDbLine
 62
7
  6
CONTINUOUS
 10
233.0
 20
84.8125
 11
233.0
 21
82.0625
  0
LINE
  5
416
100
AcDbEntity
  8
0
100
AcDbLine
 62
7
  6
CONTINUOUS
 10
234.5
 20
107.9955127019
 11
234.5
 21
107.4125
  0
LINE
  5
417
100
AcDbEntity
  8
0
100
AcDbLine
 62
7
  6
CONTINUOUS
 10
234.5
 20
87.2125
 11
234.5
 21
87.0625
  0
LINE
  5
418
100
AcDbEntity
  8
0
100
AcDbLine
 62
7
  6
CONTINUOUS
 10
235.5
 20
87.0625
 11
235.5
 21
87.2125
  0
LINE
  5
419
100
AcDbEntity
  8
0
100
AcDbLine
 62
7
  6
CONTINUOUS
 10
235.5
 20
107.4125
 11
235.5
 21
107.5625
  0
LINE
  5
41A
100
AcDbEntity
  8
0
100
AcDbLine
 62
7
  6
CONTINUOUS
 10
236.0
 20
87.0625
 11
236.0
 21
87.2125
  0
LINE
  5
41B
100
AcDbEntity
  8
0
100
AcDbLine
 62
7
  6
CONTINUOUS
 10
236.0
 20
107.4125
 11
236.0
 21
107.5625
  0
LINE
  5
41C
100
AcDbEntity
  8
0
100
AcDbLine
 62
7
  6
CONTINUOUS
 10
256.0
 20
82.0625
 11
233.0
 21
82.0625
  0
LINE
  5
41D
100
AcDbEntity
  8
0
100
AcDbLine
 62
7
  6
CONTINUOUS
 10
257.0
 20
83.3125
 11
256.0
 21
83.3125
  0
LINE
  5
41E
100
AcDbEntity
  8
0
100
AcDbLine
 62
7
  6
CONTINUOUS
 10
257.0
 20
84.3125
 11
282.0
 21
84.3125
  0
LINE
  5
41F
100
AcDbEntity
  8
0
100
AcDbLine
 62
7
  6
CONTINUOUS
 10
252.13
 20
84.4375
 11
274.5000419967
 21
84.4375
  0
LINE
  5
420
100
AcDbEntity
  8
0
100
AcDbLine
 62
7
  6
CONTINUOUS
 10
282.0
 20
85.3125
 11
274.5000419967
 21
85.3125
  0
LINE
  5
421
100
AcDbEntity
  8
0
100
AcDbLine
 62
7
  6
CONTINUOUS
 10
241.5
 20
106.3125
 11
241.5
 21
105.3125
  0
LINE
  5
422
100
AcDbEntity
  8
0
100
AcDbLine
 62
7
  6
CONTINUOUS
 10
241.5
 20
89.3125
 11
241.5
 21
88.3125
  0
LINE
  5
423
100
AcDbEntity
  8
0
100
AcDbLine
 62
7
  6
CONTINUOUS
 10
233.0
 20
84.8125
 11
234.2990381057
 21
87.0625
  0
LINE
  5
424
100
AcDbEntity
  8
0
100
AcDbLine
 62
7
  6
CONTINUOUS
 10
234.2990381057
 20
87.0625
 11
240.25
 21
87.0625
  0
LINE
  5
425
100
AcDbEntity
  8
0
100
AcDbLine
 62
7
  6
CONTINUOUS
 10
240.8340286477
 20
87.2125
 11
222.0
 21
87.2125
  0
LINE
  5
426
100
AcDbEntity
  8
0
100
AcDbLine
 62
7
  6
CONTINUOUS
 10
252.13
 20
87.6875
 11
274.5000419967
 21
87.6875
  0
LINE
  5
427
100
AcDbEntity
  8
0
100
AcDbLine
 62
7
  6
CONTINUOUS
 10
222.0
 20
90.0625
 11
226.0
 21
90.0625
  0
LINE
  5
428
100
AcDbEntity
  8
0
100
AcDbLine
 62
7
  6
CONTINUOUS
 10
233.0
 20
90.5625
 11
240.25
 21
90.5625
  0
LINE
  5
429
100
AcDbEntity
  8
0
100
AcDbLine
 62
7
  6
CONTINUOUS
 10
241.5
 20
89.2712280729
 11
226.0
 21
89.8125
  0
LINE
  5
42A
100
AcDbEntity
  8
0
100
AcDbLine
 62
7
  6
CONTINUOUS
 10
257.0
 20
92.8125
 11
256.0
 21
92.8125
  0
LINE
  5
42B
100
AcDbEntity
  8
0
100
AcDbLine
 62
7
  6
CONTINUOUS
 10
252.13
 20
84.4375
 11
252.13
 21
87.6875
  0
LINE
  5
42C
100
AcDbEntity
  8
0
100
AcDbLine
 62
7
  6
CONTINUOUS
 10
252.13
 20
106.9375
 11
252.13
 21
110.1875
  0
LINE
  5
42D
100
AcDbEntity
  8
0
100
AcDbLine
 62
7
  6
CONTINUOUS
 10
254.2513203436
 20
110.1875
 11
254.2513203436
 21
106.9375
  0
LINE
  5
42E
100
AcDbEntity
  8
0
100
AcDbLine
 62
7
  6
CONTINUOUS
 10
254.2513203436
 20
84.4375
 11
254.2513203436
 21
87.6875
  0
LINE
  5
42F
100
AcDbEntity
  8
0
100
AcDbLine
 62
7
  6
CONTINUOUS
 10
235.25
 20
107.5625
 11
233.0
 21
108.8615381057
  0
LINE
  5
430
100
AcDbEntity
  8
0
100
AcDbLine
 62
7
  6
CONTINUOUS
 10
256.0
 20
112.5625
 11
256.0
 21
110.1875
  0
LINE
  5
431
100
AcDbEntity
  8
0
100
AcDbLine
 62
7
  6
CONTINUOUS
 10
256.0
 20
106.9375
 11
256.0
 21
87.6875
  0
LINE
  5
432
100
AcDbEntity
  8
0
100
AcDbLine
 62
7
  6
CONTINUOUS
 10
256.0
 20
84.4375
 11
256.0
 21
82.0625
  0
LINE
  5
433
100
AcDbEntity
  8
0
100
AcDbLine
 62
7
  6
CONTINUOUS
 10
240.1
 20
87.2125
 11
239.8401923789
 21
87.0625
  0
LINE
  5
434
100
AcDbEntity
  8
0
100
AcDbLine
 62
7
  6
CONTINUOUS
 10
239.8401923789
 20
107.5625
 11
240.1
 21
107.4125
  0
LINE
  5
435
100
AcDbEntity
  8
0
100
AcDbLine
 62
7
  6
CONTINUOUS
 10
257.0
 20
83.3125
 11
257.0
 21
84.4375
  0
LINE
  5
436
100
AcDbEntity
  8
0
100
AcDbLine
 62
7
  6
CONTINUOUS
 10
257.0
 20
87.6875
 11
257.0
 21
92.8125
  0
LINE
  5
437
100
AcDbEntity
  8
0
100
AcDbLine
 62
7
  6
CONTINUOUS
 10
257.0
 20
105.3125
 11
257.0
 21
106.9375
  0
LINE
  5
438
100
AcDbEntity
  8
0
100
AcDbLine
 62
7
  6
CONTINUOUS
 10
257.0
 20
110.1875
 11
257.0
 21
111.3125
  0
LINE
  5
439
100
AcDbEntity
  8
0
100
AcDbLine
 62
7
  6
CONTINUOUS
 10
233.0
 20
104.0625
 11
240.25
 21
104.0625
  0
LINE
  5
43A
100
AcDbEntity
  8
0
100
AcDbLine
 62
7
  6
CONTINUOUS
 10
259.499958006
 20
110.1875
 11
259.499958006
 21
106.9375
  0
LINE
  5
43B
100
AcDbEntity
  8
0
100
AcDbLine
 62
7
  6
CONTINUOUS
 10
259.499958006
 20
84.4375
 11
259.499958006
 21
87.6875
  0
LINE
  5
43C
100
AcDbEntity
  8
0
100
AcDbLine
 62
7
  6
CONTINUOUS
 10
226.0
 20
104.8125
 11
241.5
 21
105.3537719271
  0
LINE
  5
43D
100
AcDbEntity
  8
0
100
AcDbLine
 62
7
  6
CONTINUOUS
 10
222.0
 20
104.5625
 11
226.0
 21
104.5625
  0
LINE
  5
43E
100
AcDbEntity
  8
0
100
AcDbLine
 62
7
  6
CONTINUOUS
 10
257.0
 20
105.3125
 11
256.0
 21
105.3125
  0
LINE
  5
43F
100
AcDbEntity
  8
0
100
AcDbLine
 62
7
  6
CONTINUOUS
 10
252.13
 20
106.9375
 11
274.5000419967
 21
106.9375
  0
LINE
  5
440
100
AcDbEntity
  8
0
100
AcDbLine
 62
7
  6
CONTINUOUS
 10
222.0
 20
107.4125
 11
240.8340286477
 21
107.4125
  0
LINE
  5
441
100
AcDbEntity
  8
0
100
AcDbLine
 62
7
  6
CONTINUOUS
 10
240.25
 20
107.5625
 11
235.25
 21
107.5625
  0
LINE
  5
442
100
AcDbEntity
  8
0
100
AcDbLine
 62
7
  6
CONTINUOUS
 10
264.3974741478
 20
110.1875
 11
264.3974741478
 21
106.9375
  0
LINE
  5
443
100
AcDbEntity
  8
0
100
AcDbLine
 62
7
  6
CONTINUOUS
 10
264.3974741478
 20
87.6875
 11
264.3974741478
 21
84.4375
  0
LINE
  5
444
100
AcDbEntity
  8
0
100
AcDbLine
 62
7
  6
CONTINUOUS
 10
274.5000419967
 20
109.3125
 11
277.0
 21
109.3125
  0
LINE
  5
445
100
AcDbEntity
  8
0
100
AcDbLine
 62
7
  6
CONTINUOUS
 10
252.13
 20
110.1875
 11
274.5000419967
 21
110.1875
  0
LINE
  5
446
100
AcDbEntity
  8
0
100
AcDbLine
 62
7
  6
CONTINUOUS
 10
277.0
 20
110.3125
 11
257.0
 21
110.3125
  0
LINE
  5
447
100
AcDbEntity
  8
0
100
AcDbLine
 62
7
  6
CONTINUOUS
 10
257.0
 20
111.3125
 11
256.0
 21
111.3125
  0
LINE
  5
448
100
AcDbEntity
  8
0
100
AcDbLine
 62
7
  6
CONTINUOUS
 10
256.0
 20
112.5625
 11
233.0
 21
112.5625
  0
LINE
  5
449
100
AcDbEntity
  8
0
100
AcDbLine
 62
7
  6
CONTINUOUS
 10
268.6025258522
 20
110.1875
 11
268.6025258522
 21
106.9375
  0
LINE
  5
44A
100
AcDbEntity
  8
0
100
AcDbLine
 62
7
  6
CONTINUOUS
 10
268.6025258522
 20
87.6875
 11
268.6025258522
 21
84.4375
  0
LINE
  5
44B
100
AcDbEntity
  8
0
100
AcDbLine
 62
7
  6
CONTINUOUS
 10
274.5000419967
 20
110.1875
 11
274.5000419967
 21
106.9375
  0
LINE
  5
44C
100
AcDbEntity
  8
0
100
AcDbLine
 62
7
  6
CONTINUOUS
 10
274.5000419967
 20
84.4375
 11
274.5000419967
 21
87.6875
  0
LINE
  5
44D
100
AcDbEntity
  8
0
100
AcDbLine
 62
7
  6
CONTINUOUS
 10
277.0
 20
109.3125
 11
277.0
 21
110.3125
  0
LINE
  5
44E
100
AcDbEntity
  8
0
100
AcDbLine
 62
7
  6
CONTINUOUS
 10
282.0
 20
84.3125
 11
282.0
 21
85.3125
  0
ARC
  5
44F
100
AcDbEntity
  8
0
100
AcDbCircle
 62
7
  6
CONTINUOUS
 10
100.9751319576
 20
212.6125
 40
4.975
100
AcDbArc
 50
155.0
 51
205.0
  0
ARC
  5
450
100
AcDbEntity
  8
0
100
AcDbCircle
 62
7
  6
CONTINUOUS
 10
130.0248680424
 20
212.6125
 40
4.975
100
AcDbArc
 50
335.0
 51
25.0
  0
ARC
  5
451
100
AcDbEntity
  8
0
100
AcDbCircle
 62
7
  6
CONTINUOUS
 10
100.9751319576
 20
212.6125
 40
3.475
100
AcDbArc
 50
155.0
 51
205.0
  0
ARC
  5
452
100
AcDbEntity
  8
0
100
AcDbCircle
 62
7
  6
CONTINUOUS
 10
130.0248680424
 20
212.6125
 40
3.475
100
AcDbArc
 50
335.0
 51
25.0
  0
ARC
  5
453
100
AcDbEntity
  8
0
100
AcDbCircle
 62
7
  6
CONTINUOUS
 10
101.0
 20
200.3638203436
 40
2.25
100
AcDbArc
 50
180.0
 51
250.5287793655
  0
ARC
  5
454
100
AcDbEntity
  8
0
100
AcDbCircle
 62
7
  6
CONTINUOUS
 10
130.0
 20
200.3638203436
 40
2.25
100
AcDbArc
 50
289.4712206345
 51
360.0
  0
ARC
  5
455
100
AcDbEntity
  8
0
100
AcDbCircle
 62
7
  6
CONTINUOUS
 10
240.25
 20
88.3125
 40
1.25
100
AcDbArc
 50
270.0
 51
360.0
  0
ARC
  5
456
100
AcDbEntity
  8
0
100
AcDbCircle
 62
7
  6
CONTINUOUS
 10
240.25
 20
106.3125
 40
1.25
100
AcDbArc
 50
0.0
 51
90.0
  0
ARC
  5
457
100
AcDbEntity
  8
0
100
AcDbCircle
 62
7
  6
CONTINUOUS
 10
240.25
 20
89.3125
 40
1.25
100
AcDbArc
 50
0.0
 51
90.0
  0
ARC
  5
458
100
AcDbEntity
  8
0
100
AcDbCircle
 62
7
  6
CONTINUOUS
 10
240.25
 20
105.3125
 40
1.25
100
AcDbArc
 50
270.0
 51
360.0
  0
SPLINE
  5
459
100
AcDbEntity
  8
0
100
AcDbSpline
 62
7
  6
CONTINUOUS
 70
0
 71
3
 72
14
 73
10
 74
0
 42
0.0000001
 43
0.0000001
 44
0.0000000001
 40
0.0
 40
0.0
 40
0.0
 40
0.0
 40
0.2754711278
 40
0.4067614994
 40
0.5334541031
 40
0.6556588324
 40
0.7737123051
 40
0.8882537801
 40
1.0
 40
1.0
 40
1.0
 40
1.0
 10
277.5235800361
 20
238.6611114588
 30
0.0
 10
277.3743715162
 20
238.4870713637
 30
0.0
 10
277.1755391929
 20
238.2097210299
 30
0.0
 10
276.974998035
 20
237.8129507178
 30
0.0
 10
276.8635386055
 20
237.5160925781
 30
0.0
 10
276.790068583
 20
237.218931539
 30
0.0
 10
276.7556297158
 20
236.9248279972
 30
0.0
 10
276.7608061309
 20
236.6374513496
 30
0.0
 10
276.7909437447
 20
236.4507672407
 30
0.0
 10
276.8125842112
 20
236.3603259892
 30
0.0
  0
SPLINE
  5
45A
100
AcDbEntity
  8
0
100
AcDbSpline
 62
7
  6
CONTINUOUS
 70
0
 71
3
 72
14
 73
10
 74
0
 42
0.0000001
 43
0.0000001
 44
0.0000000001
 40
0.0
 40
0.0
 40
0.0
 40
0.0
 40
0.1117462199
 40
0.2262876949
 40
0.3443411676
 40
0.4665458969
 40
0.5932385006
 40
0.7245288722
 40
1.0
 40
1.0
 40
1.0
 40
1.0
 10
315.9538289141
 20
226.6951212568
 30
0.0
 10
315.9754693806
 20
226.6046800052
 30
0.0
 10
316.0056069944
 20
226.4179958964
 30
0.0
 10
316.0107834095
 20
226.1306192487
 30
0.0
 10
315.9763445423
 20
225.8365157069
 30
0.0
 10
315.9028745198
 20
225.5393546678
 30
0.0
 10
315.7914150903
 20
225.2424965281
 30
0.0
 10
315.5908739324
 20
224.845726216
 30
0.0
 10
315.3920416091
 20
224.5683758822
 30
0.0
 10
315.2428330892
 20
224.3943357871
 30
0.0
  0
SPLINE
  5
45B
100
AcDbEntity
  8
0
100
AcDbSpline
 62
7
  6
CONTINUOUS
 70
0
 71
3
 72
14
 73
10
 74
0
 42
0.0000001
 43
0.0000001
 44
0.0000000001
 40
0.0
 40
0.0
 40
0.0
 40
0.0
 40
0.1117462199
 40
0.2262876949
 40
0.3443411676
 40
0.4665458969
 40
0.5932385006
 40
0.7245288722
 40
1.0
 40
1.0
 40
1.0
 40
1.0
 10
309.0903918204
 20
240.6813435708
 30
0.0
 10
309.112032287
 20
240.5909023193
 30
0.0
 10
309.1421699007
 20
240.4042182104
 30
0.0
 10
309.1473463158
 20
240.1168415627
 30
0.0
 10
309.1129074486
 20
239.822738021
 30
0.0
 10
309.0394374261
 20
239.5255769818
 30
0.0
 10
308.9279779967
 20
239.2287188421
 30
0.0
 10
308.7274368387
 20
238.8319485301
 30
0.0
 10
308.5286045154
 20
238.5545981963
 30
0.0
 10
308.3793959955
 20
238.3805581012
 30
0.0
  0
SPLINE
  5
45C
100
AcDbEntity
  8
0
100
AcDbSpline
 62
7
  6
CONTINUOUS
 70
0
 71
3
 72
14
 73
10
 74
0
 42
0.0000001
 43
0.0000001
 44
0.0000000001
 40
0.0
 40
0.0
 40
0.0
 40
0.0
 40
0.1310273585
 40
0.2632063224
 40
0.39479854
 40
0.5244480623
 40
0.6508147414
 40
0.7727594909
 40
1.0
 40
1.0
 40
1.0
 40
1.0
 10
310.878309419
 20
212.2680883076
 30
0.0
 10
310.9885505667
 20
212.2984178404
 30
0.0
 10
311.2066582949
 20
212.3722144121
 30
0.0
 10
311.5194149904
 20
212.5182476425
 30
0.0
 10
311.8131235136
 20
212.6974146057
 30
0.0
 10
312.080762723
 20
212.9053705811
 30
0.0
 10
312.3164313156
 20
213.1374543385
 30
0.0
 10
312.573931144
 20
213.4634977784
 30
0.0
 10
312.7148548504
 20
213.7403207087
 30
0.0
 10
312.7734008094
 20
213.9297756773
 30
0.0
  0
SPLINE
  5
45D
100
AcDbEntity
  8
0
100
AcDbSpline
 62
7
  6
CONTINUOUS
 70
0
 71
3
 72
15
 73
11
 74
0
 42
0.0000001
 43
0.0000001
 44
0.0000000001
 40
0.0
 40
0.0
 40
0.0
 40
0.0
 40
0.1726725149
 40
0.3318908656
 40
0.4763875041
 40
0.605860065
 40
0.7207630311
 40
0.8225790477
 40
0.9141475647
 40
1.0
 40
1.0
 40
1.0
 40
1.0
 10
306.1341839651
 20
206.7695248003
 30
0.0
 10
306.1451131613
 20
206.8048917251
 30
0.0
 10
306.1682629048
 20
206.8722400127
 30
0.0
 10
306.208601993
 20
206.9661813798
 30
0.0
 10
306.2528228863
 20
207.0480132259
 30
0.0
 10
306.3003626176
 20
207.116749201
 30
0.0
 10
306.3508031578
 20
207.1715885999
 30
0.0
 10
306.4037444921
 20
207.2118924429
 30
0.0
 10
306.4588479016
 20
207.236776269
 30
0.0
 10
306.49707171
 20
207.2425134347
 30
0.0
 10
306.5154765461
 20
207.2425122944
 30
0.0
  0
SPLINE
  5
45E
100
AcDbEntity
  8
0
100
AcDbSpline
 62
7
  6
CONTINUOUS
 70
0
 71
3
 72
13
 73
9
 74
0
 42
0.0000001
 43
0.0000001
 44
0.0000000001
 40
0.0
 40
0.0
 40
0.0
 40
0.0
 40
0.1118059971
 40
0.2263717468
 40
0.3444697865
 40
0.4667230242
 40
0.7244277692
 40
1.0
 40
1.0
 40
1.0
 40
1.0
 10
318.3508138632
 20
225.1714615482
 30
0.0
 10
318.3818002732
 20
225.0419611191
 30
0.0
 10
318.4249745008
 20
224.7746993055
 30
0.0
 10
318.4323412563
 20
224.3632802038
 30
0.0
 10
318.3830311163
 20
223.9422346828
 30
0.0
 10
318.2404150886
 20
223.3650940417
 30
0.0
 10
317.9191608598
 20
222.6461868487
 30
0.0
 10
317.5465252314
 20
222.1266928439
 30
0.0
 10
317.3329133656
 20
221.8775312716
 30
0.0
  0
SPLINE
  5
45F
100
AcDbEntity
  8
0
100
AcDbSpline
 62
7
  6
CONTINUOUS
 70
0
 71
3
 72
14
 73
10
 74
0
 42
0.0000001
 43
0.0000001
 44
0.0000000001
 40
0.0
 40
0.0
 40
0.0
 40
0.0
 40
0.1310273585
 40
0.2632063224
 40
0.39479854
 40
0.5244480623
 40
0.6508147414
 40
0.7727594909
 40
1.0
 40
1.0
 40
1.0
 40
1.0
 10
304.0148723253
 20
226.2543106216
 30
0.0
 10
304.125113473
 20
226.2846401545
 30
0.0
 10
304.3432212012
 20
226.3584367262
 30
0.0
 10
304.6559778967
 20
226.5044699565
 30
0.0
 10
304.9496864199
 20
226.6836369197
 30
0.0
 10
305.2173256294
 20
226.8915928952
 30
0.0
 10
305.4529942219
 20
227.1236766525
 30
0.0
 10
305.7104940503
 20
227.4497200925
 30
0.0
 10
305.8514177567
 20
227.7265430227
 30
0.0
 10
305.9099637157
 20
227.9159979914
 30
0.0
  0
SPLINE
  5
460
100
AcDbEntity
  8
0
100
AcDbSpline
 62
7
  6
CONTINUOUS
 70
0
 71
3
 72
13
 73
9
 74
0
 42
0.0000001
 43
0.0000001
 44
0.0000000001
 40
0.0
 40
0.0
 40
0.0
 40
0.0
 40
0.1118059971
 40
0.2263717468
 40
0.3444697865
 40
0.4667230242
 40
0.7244277692
 40
1.0
 40
1.0
 40
1.0
 40
1.0
 10
311.4873767695
 20
239.1576838623
 30
0.0
 10
311.5183631795
 20
239.0281834331
 30
0.0
 10
311.5615374071
 20
238.7609216195
 30
0.0
 10
311.5689041627
 20
238.3495025179
 30
0.0
 10
311.5195940226
 20
237.9284569968
 30
0.0
 10
311.3769779949
 20
237.3513163558
 30
0.0
 10
311.0557237661
 20
236.6324091627
 30
0.0
 10
310.6830881377
 20
236.1129151579
 30
0.0
 10
310.4694762719
 20
235.8637535856
 30
0.0
  0
SPLINE
  5
461
100
AcDbEntity
  8
0
100
AcDbSpline
 62
7
  6
CONTINUOUS
 70
0
 71
3
 72
11
 73
7
 74
0
 42
0.0000001
 43
0.0000001
 44
0.0000000001
 40
0.0
 40
0.0
 40
0.0
 40
0.0
 40
0.2615798718
 40
0.5148206907
 40
0.7604069291
 40
1.0
 40
1.0
 40
1.0
 40
1.0
 10
274.0630319049
 20
229.9362301034
 30
0.0
 10
274.0438029098
 20
229.8740049945
 30
0.0
 10
274.0129511129
 20
229.7492244454
 30
0.0
 10
273.9904409878
 20
229.5607295882
 30
0.0
 10
273.9930717534
 20
229.3763426787
 30
0.0
 10
274.0118196418
 20
229.2565076752
 30
0.0
 10
274.0253543187
 20
229.1984091967
 30
0.0
  0
SPLINE
  5
462
100
AcDbEntity
  8
0
100
AcDbSpline
 62
7
  6
CONTINUOUS
 70
0
 71
3
 72
13
 73
9
 74
0
 42
0.0000001
 43
0.0000001
 44
0.0000000001
 40
0.0
 40
0.0
 40
0.0
 40
0.0
 40
0.2755722308
 40
0.5332769758
 40
0.6555302135
 40
0.7736282532
 40
0.8881940029
 40
1.0
 40
1.0
 40
1.0
 40
1.0
 10
275.4334997597
 20
241.1779159743
 30
0.0
 10
275.2198878939
 20
240.928754402
 30
0.0
 10
274.8472522655
 20
240.4092603972
 30
0.0
 10
274.5259980367
 20
239.6903532042
 30
0.0
 10
274.383382009
 20
239.1132125632
 30
0.0
 10
274.334071869
 20
238.6921670421
 30
0.0
 10
274.3414386245
 20
238.2807479404
 30
0.0
 10
274.3846128521
 20
238.0134861268
 30
0.0
 10
274.4155992621
 20
237.8839856977
 30
0.0
  0
SPLINE
  5
463
100
AcDbEntity
  8
0
100
AcDbSpline
 62
7
  6
CONTINUOUS
 70
0
 71
3
 72
13
 73
9
 74
0
 42
0.0000001
 43
0.0000001
 44
0.0000000001
 40
0.0
 40
0.0
 40
0.0
 40
0.0
 40
0.3152067704
 40
0.5811200778
 40
0.6971538298
 40
0.8038752891
 40
0.9037531172
 40
1.0
 40
1.0
 40
1.0
 40
1.0
 10
291.2545131608
 20
199.2505869845
 30
0.0
 10
291.2766017103
 20
199.2055752273
 30
0.0
 10
291.3225011847
 20
199.1249483206
 30
0.0
 10
291.3944105112
 20
199.0391460651
 30
0.0
 10
291.455718725
 20
198.9909209583
 30
0.0
 10
291.500819027
 20
198.9658850675
 30
0.0
 10
291.5468526899
 20
198.9506844345
 30
0.0
 10
291.5781461706
 20
198.9472650555
 30
0.0
 10
291.5934560058
 20
198.9472657104
 30
0.0
  0
SPLINE
  5
464
100
AcDbEntity
  8
0
100
AcDbSpline
 62
7
  6
CONTINUOUS
 70
0
 71
3
 72
11
 73
7
 74
0
 42
0.0000001
 43
0.0000001
 44
0.0000000001
 40
0.0
 40
0.0
 40
0.0
 40
0.0
 40
0.2286745648
 40
0.4757051828
 40
0.7348630552
 40
1.0
 40
1.0
 40
1.0
 40
1.0
 10
283.8591158834
 20
215.6388477613
 30
0.0
 10
283.8387350791
 20
215.5728953932
 30
0.0
 10
283.803416763
 20
215.4334647813
 30
0.0
 10
283.7665801503
 20
215.2145131882
 30
0.0
 10
283.7447054652
 20
214.9825165297
 30
0.0
 10
283.7405385718
 20
214.8241655554
 30
0.0
 10
283.7410793836
 20
214.7441308928
 30
0.0
  0
SPLINE
  5
465
100
AcDbEntity
  8
0
100
AcDbSpline
 62
7
  6
CONTINUOUS
 70
0
 71
3
 72
12
 73
8
 74
0
 42
0.0000001
 43
0.0000001
 44
0.0000000001
 40
0.0
 40
0.0
 40
0.0
 40
0.0
 40
0.2783841702
 40
0.544442949
 40
0.7878468233
 40
0.8983463134
 40
1.0
 40
1.0
 40
1.0
 40
1.0
 10
283.7410793836
 20
214.7441308928
 30
0.0
 10
283.7417689163
 20
214.6420870399
 30
0.0
 10
283.7515610042
 20
214.4424504537
 30
0.0
 10
283.7911782034
 20
214.1560198164
 30
0.0
 10
283.8448106094
 20
213.9345964512
 30
0.0
 10
283.8998578528
 20
213.7768219122
 30
0.0
 10
283.9308657986
 20
213.705388204
 30
0.0
 10
283.9472816411
 20
213.6719362149
 30
0.0
  0
SPLINE
  5
466
100
AcDbEntity
  8
0
100
AcDbSpline
 62
7
  6
CONTINUOUS
 70
0
 71
3
 72
15
 73
11
 74
0
 42
0.0000001
 43
0.0000001
 44
0.0000000001
 40
0.0
 40
0.0
 40
0.0
 40
0.0
 40
0.1726724079
 40
0.3318903167
 40
0.4763866255
 40
0.6058591922
 40
0.720762433
 40
0.8225787262
 40
0.9141474364
 40
1.0
 40
1.0
 40
1.0
 40
1.0
 10
300.9484759387
 20
217.3368927709
 30
0.0
 10
300.9594051196
 20
217.3722596459
 30
0.0
 10
300.9825547719
 20
217.4396077814
 30
0.0
 10
301.0228937555
 20
217.5335489
 30
0.0
 10
301.0671144743
 20
217.6153805683
 30
0.0
 10
301.1146541035
 20
217.6841165204
 30
0.0
 10
301.1650945883
 20
217.7389560455
 30
0.0
 10
301.2180359046
 20
217.7792600961
 30
0.0
 10
301.2731393325
 20
217.8041440626
 30
0.0
 10
301.3113631634
 20
217.8098813769
 30
0.0
 10
301.3297680125
 20
217.8098802575
 30
0.0
  0
SPLINE
  5
467
100
AcDbEntity
  8
0
100
AcDbSpline
 62
7
  6
CONTINUOUS
 70
0
 71
3
 72
13
 73
9
 74
0
 42
0.0000001
 43
0.0000001
 44
0.0000000001
 40
0.0
 40
0.0
 40
0.0
 40
0.0
 40
0.2755722308
 40
0.5332769758
 40
0.6555302135
 40
0.7736282532
 40
0.8881940029
 40
1.0
 40
1.0
 40
1.0
 40
1.0
 10
309.478090914
 20
237.8839856977
 30
0.0
 10
309.6917027797
 20
238.13314727
 30
0.0
 10
310.0643384081
 20
238.6526412748
 30
0.0
 10
310.3855926369
 20
239.3715484678
 30
0.0
 10
310.5282086646
 20
239.9486891088
 30
0.0
 10
310.5775188047
 20
240.3697346299
 30
0.0
 10
310.5701520491
 20
240.7811537316
 30
0.0
 10
310.5269778215
 20
241.0484155452
 30
0.0
 10
310.4959914115
 20
241.1779159743
 30
0.0
  0
SPLINE
  5
468
100
AcDbEntity
  8
0
100
AcDbSpline
 62
7
  6
CONTINUOUS
 70
0
 71
3
 72
15
 73
11
 74
0
 42
0.0000001
 43
0.0000001
 44
0.0000000001
 40
0.0
 40
0.0
 40
0.0
 40
0.0
 40
0.1185720977
 40
0.2474162215
 40
0.3823874811
 40
0.5192457484
 40
0.6535040873
 40
0.7808318496
 40
0.8974314751
 40
1.0
 40
1.0
 40
1.0
 40
1.0
 10
286.1617686038
 20
215.6388477613
 30
0.0
 10
286.138369302
 20
215.5631275226
 30
0.0
 10
286.0988519433
 20
215.4021928481
 30
0.0
 10
286.0605988718
 20
215.1492075727
 30
0.0
 10
286.0419887979
 20
214.881767561
 30
0.0
 10
286.0436805666
 20
214.6100874572
 30
0.0
 10
286.0656791209
 20
214.344410044
 30
0.0
 10
286.1070429654
 20
214.094699084
 30
0.0
 10
286.1662070469
 20
213.8704327477
 30
0.0
 10
286.2197322955
 20
213.7334815897
 30
0.0
 10
286.2499343614
 20
213.6719362149
 30
0.0
  0
SPLINE
  5
469
100
AcDbEntity
  8
0
100
AcDbSpline
 62
7
  6
CONTINUOUS
 70
0
 71
3
 72
15
 73
11
 74
0
 42
0.0000001
 43
0.0000001
 44
0.0000000001
 40
0.0
 40
0.0
 40
0.0
 40
0.0
 40
0.1025874771
 40
0.2191562508
 40
0.3464994857
 40
0.4807546797
 40
0.6176087699
 40
0.7525966997
 40
0.8814045498
 40
1.0
 40
1.0
 40
1.0
 40
1.0
 10
301.9374022824
 20
216.9174292123
 30
0.0
 10
301.9643734228
 20
216.8624677753
 30
0.0
 10
302.012174453
 20
216.7402012296
 30
0.0
 10
302.0649805826
 20
216.5399555729
 30
0.0
 10
302.1019194035
 20
216.3170119433
 30
0.0
 10
302.1215519299
 20
216.0797939405
 30
0.0
 10
302.1230717526
 20
215.8372166795
 30
0.0
 10
302.106448688
 20
215.5984456436
 30
0.0
 10
302.072311755
 20
215.3725605964
 30
0.0
 10
302.0370180785
 20
215.2288789285
 30
0.0
 10
302.0161217089
 20
215.1612581887
 30
0.0
  0
SPLINE
  5
46A
100
AcDbEntity
  8
0
100
AcDbSpline
 62
7
  6
CONTINUOUS
 70
0
 71
3
 72
13
 73
9
 74
0
 42
0.0000001
 43
0.0000001
 44
0.0000000001
 40
0.0
 40
0.0
 40
0.0
 40
0.0
 40
0.0962507019
 40
0.1961522464
 40
0.3028782527
 40
0.4189067907
 40
0.6846894018
 40
1.0
 40
1.0
 40
1.0
 40
1.0
 10
306.5154765461
 20
207.2425122944
 30
0.0
 10
306.5291455579
 20
207.2425114475
 30
0.0
 10
306.5570864105
 20
207.2394315217
 30
0.0
 10
306.5981800727
 20
207.2258420107
 30
0.0
 10
306.6384559412
 20
207.203501875
 30
0.0
 10
306.6931603296
 20
207.1604371992
 30
0.0
 10
306.7573860188
 20
207.08386611
 30
0.0
 10
306.7983417258
 20
207.011870411
 30
0.0
 10
306.8180686601
 20
206.9716711223
 30
0.0
  0
SPLINE
  5
46B
100
AcDbEntity
  8
0
100
AcDbSpline
 62
7
  6
CONTINUOUS
 70
0
 71
3
 72
13
 73
9
 74
0
 42
0.0000001
 43
0.0000001
 44
0.0000000001
 40
0.0
 40
0.0
 40
0.0
 40
0.0
 40
0.0962507332
 40
0.1961522437
 40
0.3028782113
 40
0.4189067271
 40
0.6846894429
 40
1.0
 40
1.0
 40
1.0
 40
1.0
 10
301.3297680125
 20
217.8098802575
 30
0.0
 10
301.3434370447
 20
217.8098794262
 30
0.0
 10
301.3713779329
 20
217.8067995681
 30
0.0
 10
301.4124716828
 20
217.793210167
 30
0.0
 10
301.4527476101
 20
217.7708700482
 30
0.0
 10
301.5074521175
 20
217.7278053822
 30
0.0
 10
301.5716778974
 20
217.6512341993
 30
0.0
 10
301.612633679
 20
217.5792384233
 30
0.0
 10
301.6323606338
 20
217.5390390929
 30
0.0
  0
SPLINE
  5
46C
100
AcDbEntity
  8
0
100
AcDbSpline
 62
7
  6
CONTINUOUS
 70
0
 71
3
 72
15
 73
11
 74
0
 42
0.0000001
 43
0.0000001
 44
0.0000000001
 40
0.0
 40
0.0
 40
0.0
 40
0.0
 40
0.1025875449
 40
0.2191564566
 40
0.3464998087
 40
0.4807551411
 40
0.6176093743
 40
0.752597348
 40
0.8814048006
 40
1.0
 40
1.0
 40
1.0
 40
1.0
 10
307.1231103087
 20
206.3500612417
 30
0.0
 10
307.1500814669
 20
206.2950997683
 30
0.0
 10
307.197882524
 20
206.1728331005
 30
0.0
 10
307.2506886951
 20
205.9725872546
 30
0.0
 10
307.2876274922
 20
205.749643382
 30
0.0
 10
307.3072600016
 20
205.5124251391
 30
0.0
 10
307.308779752
 20
205.269847682
 30
0.0
 10
307.2921566111
 20
205.0310767781
 30
0.0
 10
307.2580196919
 20
204.8051920938
 30
0.0
 10
307.2227260607
 20
204.661510815
 30
0.0
 10
307.2018297352
 20
204.5938902181
 30
0.0
  0
SPLINE
  5
46D
100
AcDbEntity
  8
0
100
AcDbSpline
 62
7
  6
CONTINUOUS
 70
0
 71
3
 72
14
 73
10
 74
0
 42
0.0000001
 43
0.0000001
 44
0.0000000001
 40
0.0
 40
0.0
 40
0.0
 40
0.0
 40
0.1117462199
 40
0.2262876949
 40
0.3443411676
 40
0.4665458969
 40
0.5932385006
 40
0.7245288722
 40
1.0
 40
1.0
 40
1.0
 40
1.0
 10
275.8211988532
 20
238.3805581012
 30
0.0
 10
275.7995583867
 20
238.4709993527
 30
0.0
 10
275.769420773
 20
238.6576834616
 30
0.0
 10
275.7642443578
 20
238.9450601093
 30
0.0
 10
275.798683225
 20
239.239163651
 30
0.0
 10
275.8721532475
 20
239.5363246901
 30
0.0
 10
275.983612677
 20
239.8331828299
 30
0.0
 10
276.184153835
 20
240.2299531419
 30
0.0
 10
276.3829861582
 20
240.5073034757
 30
0.0
 10
276.5321946781
 20
240.6813435708
 30
0.0
  0
SPLINE
  5
46E
100
AcDbEntity
  8
0
100
AcDbSpline
 62
7
  6
CONTINUOUS
 70
0
 71
3
 72
14
 73
10
 74
0
 42
0.0000001
 43
0.0000001
 44
0.0000000001
 40
0.0
 40
0.0
 40
0.0
 40
0.0
 40
0.1310273585
 40
0.2632063224
 40
0.39479854
 40
0.5244480623
 40
0.6508147414
 40
0.7727594909
 40
1.0
 40
1.0
 40
1.0
 40
1.0
 10
309.886924061
 20
214.2883204196
 30
0.0
 10
309.9971652087
 20
214.3186499524
 30
0.0
 10
310.2152729369
 20
214.3924465242
 30
0.0
 10
310.5280296324
 20
214.5384797545
 30
0.0
 10
310.8217381556
 20
214.7176467177
 30
0.0
 10
311.0893773651
 20
214.9256026931
 30
0.0
 10
311.3250459576
 20
215.1576864505
 30
0.0
 10
311.582545786
 20
215.4837298905
 30
0.0
 10
311.7234694924
 20
215.7605528207
 30
0.0
 10
311.7820154514
 20
215.9500077893
 30
0.0
  0
SPLINE
  5
46F
100
AcDbEntity
  8
0
100
AcDbSpline
 62
7
  6
CONTINUOUS
 70
0
 71
3
 72
13
 73
9
 74
0
 42
0.0000001
 43
0.0000001
 44
0.0000000001
 40
0.0
 40
0.0
 40
0.0
 40
0.0
 40
0.2755722308
 40
0.5332769758
 40
0.6555302135
 40
0.7736282532
 40
0.8881940029
 40
1.0
 40
1.0
 40
1.0
 40
1.0
 10
316.3415280076
 20
223.8977633836
 30
0.0
 10
316.5551398734
 20
224.1469249559
 30
0.0
 10
316.9277755018
 20
224.6664189607
 30
0.0
 10
317.2490297306
 20
225.3853261537
 30
0.0
 10
317.3916457583
 20
225.9624667948
 30
0.0
 10
317.4409558984
 20
226.3835123159
 30
0.0
 10
317.4335891428
 20
226.7949314175
 30
0.0
 10
317.3904149152
 20
227.0621932311
 30
0.0
 10
317.3594285052
 20
227.1916936603
 30
0.0
  0
SPLINE
  5
470
100
AcDbEntity
  8
0
100
AcDbSpline
 62
7
  6
CONTINUOUS
 70
0
 71
3
 72
14
 73
10
 74
0
 42
0.0000001
 43
0.0000001
 44
0.0000000001
 40
0.0
 40
0.0
 40
0.0
 40
0.0
 40
0.1310273585
 40
0.2632063224
 40
0.39479854
 40
0.5244480623
 40
0.6508147414
 40
0.7727594909
 40
1.0
 40
1.0
 40
1.0
 40
1.0
 10
303.0234869673
 20
228.2745427337
 30
0.0
 10
303.133728115
 20
228.3048722665
 30
0.0
 10
303.3518358432
 20
228.3786688382
 30
0.0
 10
303.6645925387
 20
228.5247020685
 30
0.0
 10
303.958301062
 20
228.7038690318
 30
0.0
 10
304.2259402714
 20
228.9118250072
 30
0.0
 10
304.461608864
 20
229.1439087646
 30
0.0
 10
304.7191086923
 20
229.4699522045
 30
0.0
 10
304.8600323987
 20
229.7467751348
 30
0.0
 10
304.9185783577
 20
229.9362301034
 30
0.0
  0
ENDSEC
  0
SECTION
  2
OBJECTS
  0
DICTIONARY
  5
471
100
AcDbDictionary
  3
ACAD_GROUP
350
472
  3
ACAD_MLINESTYLE
350
473
  0
DICTIONARY
  5
472
102
{ACAD_REACTORS
330
471
102
}
100
AcDbDictionary
  0
DICTIONARY
  5
473
102
{ACAD_REACTORS
330
471
102
}
100
AcDbDictionary
  3
STANDARD
350
474
  0
MLINESTYLE
  5
474
102
{ACAD_REACTORS
330
473
102
}
100
AcDbMlineStyle
  2
STANDARD
 70
0
  3

 62
256
 51
90.0
 52
90.0
 71
2
 49
0.5
 62
256
  6
BYLAYER
 49
-0.5
 62
256
  6
BYLAYER
  0
ENDSEC
  0
EOF
