%TF.GenerationSoftware,KiCad,Pcbnew,(6.0.7)*%
%TF.CreationDate,2022-08-05T22:04:18-07:00*%
%TF.ProjectId,d70-buddy-main-board,6437302d-6275-4646-9479-2d6d61696e2d,rev?*%
%TF.SameCoordinates,Original*%
%TF.FileFunction,Copper,L1,Top*%
%TF.FilePolarity,Positive*%
%FSLAX46Y46*%
G04 Gerber Fmt 4.6, Leading zero omitted, Abs format (unit mm)*
G04 Created by KiCad (PCBNEW (6.0.7)) date 2022-08-05 22:04:18*
%MOMM*%
%LPD*%
G01*
G04 APERTURE LIST*
G04 Aperture macros list*
%AMRoundRect*
0 Rectangle with rounded corners*
0 $1 Rounding radius*
0 $2 $3 $4 $5 $6 $7 $8 $9 X,Y pos of 4 corners*
0 Add a 4 corners polygon primitive as box body*
4,1,4,$2,$3,$4,$5,$6,$7,$8,$9,$2,$3,0*
0 Add four circle primitives for the rounded corners*
1,1,$1+$1,$2,$3*
1,1,$1+$1,$4,$5*
1,1,$1+$1,$6,$7*
1,1,$1+$1,$8,$9*
0 Add four rect primitives between the rounded corners*
20,1,$1+$1,$2,$3,$4,$5,0*
20,1,$1+$1,$4,$5,$6,$7,0*
20,1,$1+$1,$6,$7,$8,$9,0*
20,1,$1+$1,$8,$9,$2,$3,0*%
G04 Aperture macros list end*
%TA.AperFunction,SMDPad,CuDef*%
%ADD10R,1.200000X0.900000*%
%TD*%
%TA.AperFunction,ComponentPad*%
%ADD11C,5.700000*%
%TD*%
%TA.AperFunction,SMDPad,CuDef*%
%ADD12RoundRect,0.250000X-0.262500X-0.450000X0.262500X-0.450000X0.262500X0.450000X-0.262500X0.450000X0*%
%TD*%
%TA.AperFunction,SMDPad,CuDef*%
%ADD13RoundRect,0.250000X0.450000X-0.262500X0.450000X0.262500X-0.450000X0.262500X-0.450000X-0.262500X0*%
%TD*%
%TA.AperFunction,SMDPad,CuDef*%
%ADD14RoundRect,0.250000X-0.450000X0.262500X-0.450000X-0.262500X0.450000X-0.262500X0.450000X0.262500X0*%
%TD*%
%TA.AperFunction,SMDPad,CuDef*%
%ADD15RoundRect,0.250000X-0.250000X-0.475000X0.250000X-0.475000X0.250000X0.475000X-0.250000X0.475000X0*%
%TD*%
%TA.AperFunction,ComponentPad*%
%ADD16R,1.700000X1.700000*%
%TD*%
%TA.AperFunction,ComponentPad*%
%ADD17O,1.700000X1.700000*%
%TD*%
%TA.AperFunction,SMDPad,CuDef*%
%ADD18R,3.500000X1.700000*%
%TD*%
%TA.AperFunction,SMDPad,CuDef*%
%ADD19R,1.700000X3.500000*%
%TD*%
%TA.AperFunction,SMDPad,CuDef*%
%ADD20R,1.560000X1.780000*%
%TD*%
%TA.AperFunction,SMDPad,CuDef*%
%ADD21R,1.520000X1.780000*%
%TD*%
%TA.AperFunction,SMDPad,CuDef*%
%ADD22R,2.800000X1.800000*%
%TD*%
%TA.AperFunction,SMDPad,CuDef*%
%ADD23R,2.500000X1.800000*%
%TD*%
%TA.AperFunction,SMDPad,CuDef*%
%ADD24R,3.000000X1.800000*%
%TD*%
%TA.AperFunction,ViaPad*%
%ADD25C,0.800000*%
%TD*%
%TA.AperFunction,Conductor*%
%ADD26C,0.250000*%
%TD*%
%TA.AperFunction,Conductor*%
%ADD27C,0.600000*%
%TD*%
G04 APERTURE END LIST*
D10*
%TO.P,D1,1,K*%
%TO.N,Net-(D1-Pad1)*%
X96000000Y-122650000D03*
%TO.P,D1,2,A*%
%TO.N,Net-(D1-Pad2)*%
X96000000Y-119350000D03*
%TD*%
D11*
%TO.P,H1,1,1*%
%TO.N,GND*%
X69500000Y-50490000D03*
%TD*%
%TO.P,H2,1,1*%
%TO.N,unconnected-(H2-Pad1)*%
X159500000Y-50510000D03*
%TD*%
%TO.P,H4,1,1*%
%TO.N,unconnected-(H4-Pad1)*%
X159500000Y-138510000D03*
%TD*%
%TO.P,H3,1,1*%
%TO.N,unconnected-(H3-Pad1)*%
X69500000Y-138490000D03*
%TD*%
D12*
%TO.P,R5,1*%
%TO.N,+3V3*%
X106021500Y-122682000D03*
%TO.P,R5,2*%
%TO.N,/Rx*%
X107846500Y-122682000D03*
%TD*%
%TO.P,R4,1*%
%TO.N,Net-(D1-Pad1)*%
X99417500Y-122682000D03*
%TO.P,R4,2*%
%TO.N,Net-(R4-Pad2)*%
X101242500Y-122682000D03*
%TD*%
D13*
%TO.P,R2,1*%
%TO.N,Net-(R2-Pad1)*%
X82550000Y-127404500D03*
%TO.P,R2,2*%
%TO.N,/Tx*%
X82550000Y-125579500D03*
%TD*%
D14*
%TO.P,R1,1*%
%TO.N,+3V3*%
X78232000Y-125579500D03*
%TO.P,R1,2*%
%TO.N,Net-(R1-Pad2)*%
X78232000Y-127404500D03*
%TD*%
D15*
%TO.P,C1,1*%
%TO.N,Net-(J1-Pad1)*%
X113550000Y-142000000D03*
%TO.P,C1,2*%
%TO.N,GND*%
X115450000Y-142000000D03*
%TD*%
D16*
%TO.P,J3,1,Pin_1*%
%TO.N,GND*%
X100500000Y-50500000D03*
D17*
%TO.P,J3,2,Pin_2*%
X100500000Y-47960000D03*
%TO.P,J3,3,Pin_3*%
%TO.N,+3V3*%
X103040000Y-50500000D03*
%TO.P,J3,4,Pin_4*%
%TO.N,unconnected-(J3-Pad4)*%
X103040000Y-47960000D03*
%TO.P,J3,5,Pin_5*%
%TO.N,/SCL1*%
X105580000Y-50500000D03*
%TO.P,J3,6,Pin_6*%
%TO.N,/LED_4*%
X105580000Y-47960000D03*
%TO.P,J3,7,Pin_7*%
%TO.N,/SDA1*%
X108120000Y-50500000D03*
%TO.P,J3,8,Pin_8*%
%TO.N,/LED_3*%
X108120000Y-47960000D03*
%TO.P,J3,9,Pin_9*%
%TO.N,/LED_2*%
X110660000Y-50500000D03*
%TO.P,J3,10,Pin_10*%
%TO.N,/BTN_4*%
X110660000Y-47960000D03*
%TO.P,J3,11,Pin_11*%
%TO.N,/LED_1*%
X113200000Y-50500000D03*
%TO.P,J3,12,Pin_12*%
%TO.N,/BTN_3*%
X113200000Y-47960000D03*
%TO.P,J3,13,Pin_13*%
%TO.N,/BTN_2*%
X115740000Y-50500000D03*
%TO.P,J3,14,Pin_14*%
%TO.N,/BTN_5*%
X115740000Y-47960000D03*
%TO.P,J3,15,Pin_15*%
%TO.N,/BTN_1*%
X118280000Y-50500000D03*
%TO.P,J3,16,Pin_16*%
%TO.N,/BTN_6*%
X118280000Y-47960000D03*
%TO.P,J3,17,Pin_17*%
%TO.N,/LED_5*%
X120820000Y-50500000D03*
%TO.P,J3,18,Pin_18*%
%TO.N,/BTN_7*%
X120820000Y-47960000D03*
%TO.P,J3,19,Pin_19*%
%TO.N,/LED_6*%
X123360000Y-50500000D03*
%TO.P,J3,20,Pin_20*%
%TO.N,/SCL2*%
X123360000Y-47960000D03*
%TO.P,J3,21,Pin_21*%
%TO.N,/LED_7*%
X125900000Y-50500000D03*
%TO.P,J3,22,Pin_22*%
%TO.N,/SDA2*%
X125900000Y-47960000D03*
%TO.P,J3,23,Pin_23*%
%TO.N,GND*%
X128440000Y-50500000D03*
%TO.P,J3,24,Pin_24*%
X128440000Y-47960000D03*
%TD*%
%TO.P,U2,1,GPIO0*%
%TO.N,/Tx*%
X149290000Y-143100000D03*
D18*
X150190000Y-143100000D03*
%TO.P,U2,2,GPIO1*%
%TO.N,/Rx*%
X150190000Y-140560000D03*
D17*
X149290000Y-140560000D03*
D18*
%TO.P,U2,3,GND*%
%TO.N,GND*%
X150190000Y-138020000D03*
D16*
X149290000Y-138020000D03*
D18*
%TO.P,U2,4,GPIO2*%
%TO.N,/LED_2*%
X150190000Y-135480000D03*
D17*
X149290000Y-135480000D03*
D18*
%TO.P,U2,5,GPIO3*%
%TO.N,/LED_1*%
X150190000Y-132940000D03*
D17*
X149290000Y-132940000D03*
D18*
%TO.P,U2,6,GPIO4*%
%TO.N,/SDA1*%
X150190000Y-130400000D03*
D17*
X149290000Y-130400000D03*
D18*
%TO.P,U2,7,GPIO5*%
%TO.N,/SCL1*%
X150190000Y-127860000D03*
D17*
X149290000Y-127860000D03*
D18*
%TO.P,U2,8,GND*%
%TO.N,GND*%
X150190000Y-125320000D03*
D16*
X149290000Y-125320000D03*
D18*
%TO.P,U2,9,GPIO6*%
%TO.N,/BTN_2*%
X150190000Y-122780000D03*
D17*
X149290000Y-122780000D03*
%TO.P,U2,10,GPIO7*%
%TO.N,/BTN_1*%
X149290000Y-120240000D03*
D18*
X150190000Y-120240000D03*
%TO.P,U2,11,GPIO8*%
%TO.N,/LED_5*%
X150190000Y-117700000D03*
D17*
X149290000Y-117700000D03*
%TO.P,U2,12,GPIO9*%
%TO.N,/LED_6*%
X149290000Y-115160000D03*
D18*
X150190000Y-115160000D03*
%TO.P,U2,13,GND*%
%TO.N,GND*%
X150190000Y-112620000D03*
D16*
X149290000Y-112620000D03*
D17*
%TO.P,U2,14,GPIO10*%
%TO.N,/LED_7*%
X149290000Y-110080000D03*
D18*
X150190000Y-110080000D03*
%TO.P,U2,15,GPIO11*%
%TO.N,unconnected-(U2-Pad15)*%
X150190000Y-107540000D03*
D17*
X149290000Y-107540000D03*
%TO.P,U2,16,GPIO12*%
%TO.N,unconnected-(U2-Pad16)*%
X149290000Y-105000000D03*
D18*
X150190000Y-105000000D03*
D17*
%TO.P,U2,17,GPIO13*%
%TO.N,unconnected-(U2-Pad17)*%
X149290000Y-102460000D03*
D18*
X150190000Y-102460000D03*
%TO.P,U2,18,GND*%
%TO.N,GND*%
X150190000Y-99920000D03*
D16*
X149290000Y-99920000D03*
D18*
%TO.P,U2,19,GPIO14*%
%TO.N,unconnected-(U2-Pad19)*%
X150190000Y-97380000D03*
D17*
X149290000Y-97380000D03*
%TO.P,U2,20,GPIO15*%
%TO.N,unconnected-(U2-Pad20)*%
X149290000Y-94840000D03*
D18*
X150190000Y-94840000D03*
D17*
%TO.P,U2,21,GPIO16*%
%TO.N,/BTN_7*%
X131510000Y-94840000D03*
D18*
X130610000Y-94840000D03*
%TO.P,U2,22,GPIO17*%
%TO.N,/BTN_6*%
X130610000Y-97380000D03*
D17*
X131510000Y-97380000D03*
D16*
%TO.P,U2,23,GND*%
%TO.N,GND*%
X131510000Y-99920000D03*
D18*
X130610000Y-99920000D03*
D17*
%TO.P,U2,24,GPIO18*%
%TO.N,/BTN_5*%
X131510000Y-102460000D03*
D18*
X130610000Y-102460000D03*
%TO.P,U2,25,GPIO19*%
%TO.N,/BTN_3*%
X130610000Y-105000000D03*
D17*
X131510000Y-105000000D03*
%TO.P,U2,26,GPIO20*%
%TO.N,/BTN_4*%
X131510000Y-107540000D03*
D18*
X130610000Y-107540000D03*
%TO.P,U2,27,GPIO21*%
%TO.N,/LED_3*%
X130610000Y-110080000D03*
D17*
X131510000Y-110080000D03*
D18*
%TO.P,U2,28,GND*%
%TO.N,GND*%
X130610000Y-112620000D03*
D16*
X131510000Y-112620000D03*
D18*
%TO.P,U2,29,GPIO22*%
%TO.N,/LED_4*%
X130610000Y-115160000D03*
D17*
X131510000Y-115160000D03*
%TO.P,U2,30,RUN*%
%TO.N,unconnected-(U2-Pad30)*%
X131510000Y-117700000D03*
D18*
X130610000Y-117700000D03*
D17*
%TO.P,U2,31,GPIO26_ADC0*%
%TO.N,/SDA2*%
X131510000Y-120240000D03*
D18*
X130610000Y-120240000D03*
%TO.P,U2,32,GPIO27_ADC1*%
%TO.N,/SCL2*%
X130610000Y-122780000D03*
D17*
X131510000Y-122780000D03*
D18*
%TO.P,U2,33,AGND*%
%TO.N,GND*%
X130610000Y-125320000D03*
D16*
X131510000Y-125320000D03*
D17*
%TO.P,U2,34,GPIO28_ADC2*%
%TO.N,unconnected-(U2-Pad34)*%
X131510000Y-127860000D03*
D18*
X130610000Y-127860000D03*
D17*
%TO.P,U2,35,ADC_VREF*%
%TO.N,unconnected-(U2-Pad35)*%
X131510000Y-130400000D03*
D18*
X130610000Y-130400000D03*
%TO.P,U2,36,3V3*%
%TO.N,+3V3*%
X130610000Y-132940000D03*
D17*
X131510000Y-132940000D03*
D18*
%TO.P,U2,37,3V3_EN*%
%TO.N,unconnected-(U2-Pad37)*%
X130610000Y-135480000D03*
D17*
X131510000Y-135480000D03*
D18*
%TO.P,U2,38,GND*%
%TO.N,GND*%
X130610000Y-138020000D03*
D16*
X131510000Y-138020000D03*
D18*
%TO.P,U2,39,VSYS*%
%TO.N,unconnected-(U2-Pad39)*%
X130610000Y-140560000D03*
D17*
X131510000Y-140560000D03*
D18*
%TO.P,U2,40,VBUS*%
%TO.N,unconnected-(U2-Pad40)*%
X130610000Y-143100000D03*
D17*
X131510000Y-143100000D03*
D19*
%TO.P,U2,41,SWCLK*%
%TO.N,unconnected-(U2-Pad41)*%
X142940000Y-94170000D03*
D17*
X142940000Y-95070000D03*
D19*
%TO.P,U2,42,GND*%
%TO.N,unconnected-(U2-Pad42)*%
X140400000Y-94170000D03*
D16*
X140400000Y-95070000D03*
D17*
%TO.P,U2,43,SWDIO*%
%TO.N,unconnected-(U2-Pad43)*%
X137860000Y-95070000D03*
D19*
X137860000Y-94170000D03*
%TD*%
D20*
%TO.P,U1,1*%
%TO.N,Net-(D1-Pad1)*%
X99855000Y-111110000D03*
%TO.P,U1,2*%
%TO.N,Net-(D1-Pad2)*%
X99855000Y-113650000D03*
%TO.P,U1,3*%
%TO.N,unconnected-(U1-Pad3)*%
X99855000Y-116190000D03*
%TO.P,U1,4*%
%TO.N,/Rx*%
X107605000Y-116190000D03*
%TO.P,U1,5*%
%TO.N,GND*%
X107605000Y-113650000D03*
D21*
%TO.P,U1,6*%
%TO.N,+3V3*%
X107605000Y-111110000D03*
%TD*%
D22*
%TO.P,J1,1,S*%
%TO.N,Net-(J1-Pad1)*%
X107450000Y-141660000D03*
%TO.P,J1,2,T*%
%TO.N,Net-(D1-Pad2)*%
X107450000Y-134760000D03*
D23*
%TO.P,J1,3,R*%
%TO.N,Net-(R4-Pad2)*%
X100650000Y-138910000D03*
D24*
%TO.P,J1,4,TN*%
%TO.N,unconnected-(J1-Pad4)*%
X100650000Y-133110000D03*
%TD*%
D22*
%TO.P,J2,1,S*%
%TO.N,GND*%
X83950000Y-141660000D03*
%TO.P,J2,2,T*%
%TO.N,Net-(R2-Pad1)*%
X83950000Y-134760000D03*
D23*
%TO.P,J2,3,R*%
%TO.N,Net-(R1-Pad2)*%
X77150000Y-138910000D03*
D24*
%TO.P,J2,4,TN*%
%TO.N,unconnected-(J2-Pad4)*%
X77150000Y-133110000D03*
%TD*%
D25*
%TO.N,GND*%
X87000000Y-142000000D03*
X109900000Y-114020000D03*
X127030000Y-137800000D03*
%TD*%
D26*
%TO.N,Net-(D1-Pad2)*%
X98000000Y-115505000D02*
X99855000Y-113650000D01*
X98000000Y-119350000D02*
X98000000Y-115505000D01*
X98750000Y-119350000D02*
X98000000Y-119350000D01*
X105724900Y-125565100D02*
X99509800Y-119350000D01*
X99509800Y-119350000D02*
X96000000Y-119350000D01*
X105724900Y-134760000D02*
X105724900Y-125565100D01*
X107450000Y-134760000D02*
X105724900Y-134760000D01*
%TO.N,Net-(D1-Pad1)*%
X96012000Y-122685600D02*
X99413900Y-122685600D01*
X99413900Y-122685600D02*
X99417500Y-122682000D01*
X95127600Y-122685600D02*
X96012000Y-122685600D01*
X98749900Y-111110000D02*
X94986000Y-114873900D01*
X94986000Y-122544000D02*
X95127600Y-122685600D01*
X99855000Y-111110000D02*
X98749900Y-111110000D01*
X94986000Y-114873900D02*
X94986000Y-122544000D01*
%TO.N,/Tx*%
X97360500Y-140390000D02*
X82550000Y-125579500D01*
X134380100Y-139195100D02*
X103304900Y-139195100D01*
X103304900Y-139195100D02*
X102110000Y-140390000D01*
X102110000Y-140390000D02*
X97360500Y-140390000D01*
X144720000Y-138530000D02*
X135045200Y-138530000D01*
X135045200Y-138530000D02*
X134380100Y-139195100D01*
X149290000Y-143100000D02*
X148114900Y-143100000D01*
X148114900Y-141924900D02*
X144720000Y-138530000D01*
X148114900Y-143100000D02*
X148114900Y-141924900D01*
%TO.N,/Rx*%
X134503100Y-131664800D02*
X116829300Y-131664800D01*
X140918300Y-138080000D02*
X134503100Y-131664800D01*
X145634900Y-138080000D02*
X140918300Y-138080000D01*
X148114900Y-140560000D02*
X145634900Y-138080000D01*
X116829300Y-131664800D02*
X107846500Y-122682000D01*
X149290000Y-140560000D02*
X148114900Y-140560000D01*
%TO.N,/LED_2*%
X110660000Y-111168000D02*
X110660000Y-50500000D01*
X126176800Y-126684800D02*
X110660000Y-111168000D01*
X146900000Y-131900000D02*
X141684800Y-126684800D01*
X146900000Y-132817000D02*
X146900000Y-131900000D01*
X149290000Y-135207000D02*
X146900000Y-132817000D01*
X149290000Y-135480000D02*
X149290000Y-135207000D01*
X141684800Y-126684800D02*
X126176800Y-126684800D01*
%TO.N,/LED_1*%
X125414800Y-124144800D02*
X113200000Y-111930000D01*
X113200000Y-111930000D02*
X113200000Y-50500000D01*
X139944800Y-124144800D02*
X125414800Y-124144800D01*
X149290000Y-132940000D02*
X148740000Y-132940000D01*
X148740000Y-132940000D02*
X139944800Y-124144800D01*
D27*
%TO.N,+3V3*%
X78232000Y-125579500D02*
X78232000Y-116008000D01*
X78232000Y-116008000D02*
X84620200Y-109619800D01*
X84620200Y-109619800D02*
X103040000Y-109619800D01*
X103040000Y-109619800D02*
X104754700Y-109619800D01*
X104754700Y-109619800D02*
X106244900Y-111110000D01*
D26*
%TO.N,Net-(R2-Pad1)*%
X82550000Y-133360000D02*
X82550000Y-127404500D01*
X83950000Y-134760000D02*
X82550000Y-133360000D01*
%TO.N,/SDA2*%
X127140000Y-51830000D02*
X127140000Y-49200000D01*
X125270000Y-53700000D02*
X127140000Y-51830000D01*
X127140000Y-49200000D02*
X125900000Y-47960000D01*
X125270000Y-115610000D02*
X125270000Y-53700000D01*
X129900000Y-120240000D02*
X125270000Y-115610000D01*
X131510000Y-120240000D02*
X129900000Y-120240000D01*
%TO.N,/SCL2*%
X124630000Y-51410000D02*
X124630000Y-49230000D01*
X123480000Y-119670000D02*
X123480000Y-52560000D01*
X123480000Y-52560000D02*
X124630000Y-51410000D01*
X126590000Y-122780000D02*
X123480000Y-119670000D01*
X131510000Y-122780000D02*
X126590000Y-122780000D01*
X124630000Y-49230000D02*
X123360000Y-47960000D01*
%TO.N,Net-(R1-Pad2)*%
X75324800Y-130311700D02*
X78232000Y-127404500D01*
X75324800Y-135859700D02*
X75324800Y-130311700D01*
X77150000Y-137684900D02*
X75324800Y-135859700D01*
X77150000Y-138910000D02*
X77150000Y-137684900D01*
%TO.N,Net-(R4-Pad2)*%
X102479900Y-123919400D02*
X101242500Y-122682000D01*
X102479900Y-135855000D02*
X102479900Y-123919400D01*
X100650000Y-137684900D02*
X102479900Y-135855000D01*
X100650000Y-138910000D02*
X100650000Y-137684900D01*
%TO.N,Net-(J1-Pad1)*%
X113210000Y-141660000D02*
X113550000Y-142000000D01*
X107450000Y-141660000D02*
X113210000Y-141660000D01*
%TO.N,/Rx*%
X107846500Y-117646600D02*
X107846500Y-122682000D01*
X107605000Y-117405100D02*
X107846500Y-117646600D01*
X107605000Y-116190000D02*
X107605000Y-117405100D01*
D27*
%TO.N,+3V3*%
X107605000Y-111110000D02*
X106244900Y-111110000D01*
X103040000Y-109619800D02*
X103040000Y-50500000D01*
X106021500Y-111333400D02*
X106021500Y-122682000D01*
X106244900Y-111110000D02*
X106021500Y-111333400D01*
X116170400Y-132940000D02*
X131510000Y-132940000D01*
X106021500Y-122791100D02*
X116170400Y-132940000D01*
X106021500Y-122682000D02*
X106021500Y-122791100D01*
%TD*%
%TA.AperFunction,Conductor*%
%TO.N,GND*%
G36*
X163933621Y-45028502D02*
G01*
X163980114Y-45082158D01*
X163991500Y-45134500D01*
X163991500Y-143865500D01*
X163971498Y-143933621D01*
X163917842Y-143980114D01*
X163865500Y-143991500D01*
X152574500Y-143991500D01*
X152506379Y-143971498D01*
X152459886Y-143917842D01*
X152448500Y-143865500D01*
X152448500Y-142201866D01*
X152441745Y-142139684D01*
X152390615Y-142003295D01*
X152317370Y-141905564D01*
X152292522Y-141839059D01*
X152307575Y-141769676D01*
X152317370Y-141754435D01*
X152325847Y-141743124D01*
X152390615Y-141656705D01*
X152441745Y-141520316D01*
X152448500Y-141458134D01*
X152448500Y-139661866D01*
X152441745Y-139599684D01*
X152390615Y-139463295D01*
X152317058Y-139365148D01*
X152292210Y-139298642D01*
X152307263Y-139229259D01*
X152317058Y-139214018D01*
X152384786Y-139123649D01*
X152393324Y-139108054D01*
X152438478Y-138987606D01*
X152442105Y-138972351D01*
X152447631Y-138921486D01*
X152448000Y-138914672D01*
X152448000Y-138498259D01*
X156136587Y-138498259D01*
X156136759Y-138501654D01*
X156136759Y-138501655D01*
X156150479Y-138772484D01*
X156154992Y-138861574D01*
X156155529Y-138864929D01*
X156155530Y-138864935D01*
X156172736Y-138972352D01*
X156212527Y-139220777D01*
X156308519Y-139571664D01*
X156402660Y-139810655D01*
X156418777Y-139851570D01*
X156441845Y-139910133D01*
X156443428Y-139913148D01*
X156609362Y-140229206D01*
X156609367Y-140229214D01*
X156610946Y-140232222D01*
X156612840Y-140235040D01*
X156612845Y-140235049D01*
X156726321Y-140403919D01*
X156813843Y-140534165D01*
X157048163Y-140812428D01*
X157138313Y-140898577D01*
X157308702Y-141061405D01*
X157308709Y-141061411D01*
X157311165Y-141063758D01*
X157599771Y-141285214D01*
X157602689Y-141286988D01*
X157907692Y-141472433D01*
X157907697Y-141472436D01*
X157910607Y-141474205D01*
X157913695Y-141475651D01*
X157913694Y-141475651D01*
X158236952Y-141627077D01*
X158236962Y-141627081D01*
X158240036Y-141628521D01*
X158243254Y-141629623D01*
X158243257Y-141629624D01*
X158580981Y-141745253D01*
X158580989Y-141745255D01*
X158584204Y-141746356D01*
X158939084Y-141826332D01*
X158992123Y-141832375D01*
X159297144Y-141867128D01*
X159297152Y-141867128D01*
X159300527Y-141867513D01*
X159303931Y-141867531D01*
X159303934Y-141867531D01*
X159502058Y-141868568D01*
X159664303Y-141869418D01*
X159667689Y-141869068D01*
X159667691Y-141869068D01*
X160022765Y-141832375D01*
X160022774Y-141832374D01*
X160026157Y-141832024D01*
X160029490Y-141831310D01*
X160029493Y-141831309D01*
X160180898Y-141798850D01*
X160381856Y-141755768D01*
X160727239Y-141641544D01*
X160730323Y-141640138D01*
X160730332Y-141640135D01*
X161055171Y-141492096D01*
X161058265Y-141490686D01*
X161200893Y-141406000D01*
X161368128Y-141306704D01*
X161368132Y-141306701D01*
X161371063Y-141304961D01*
X161661973Y-141086539D01*
X161927592Y-140837977D01*
X162164813Y-140562182D01*
X162282217Y-140391358D01*
X162368931Y-140265190D01*
X162368936Y-140265182D01*
X162370861Y-140262381D01*
X162372473Y-140259387D01*
X162372478Y-140259379D01*
X162541703Y-139945092D01*
X162543325Y-139942080D01*
X162680188Y-139605027D01*
X162684988Y-139588179D01*
X162741430Y-139390036D01*
X162779850Y-139255164D01*
X162780423Y-139251812D01*
X162840571Y-138899930D01*
X162840571Y-138899928D01*
X162841143Y-138896583D01*
X162842367Y-138876583D01*
X162862328Y-138550214D01*
X162863351Y-138533481D01*
X162863433Y-138510000D01*
X162843760Y-138146751D01*
X162784972Y-137787752D01*
X162687756Y-137437202D01*
X162685411Y-137431308D01*
X162554508Y-137102365D01*
X162553249Y-137099201D01*
X162456435Y-136916351D01*
X162384624Y-136780723D01*
X162384620Y-136780716D01*
X162383025Y-136777704D01*
X162381118Y-136774888D01*
X162381113Y-136774879D01*
X162180985Y-136479292D01*
X162179075Y-136476471D01*
X161943785Y-136199027D01*
X161679908Y-135948617D01*
X161390530Y-135728170D01*
X161387618Y-135726413D01*
X161387613Y-135726410D01*
X161081951Y-135542023D01*
X161081945Y-135542020D01*
X161079036Y-135540265D01*
X160816070Y-135418200D01*
X160752167Y-135388537D01*
X160752165Y-135388536D01*
X160749071Y-135387100D01*
X160404494Y-135270467D01*
X160395234Y-135268414D01*
X160310946Y-135249728D01*
X160049336Y-135191731D01*
X159920217Y-135177476D01*
X159691133Y-135152184D01*
X159691128Y-135152184D01*
X159687752Y-135151811D01*
X159684353Y-135151805D01*
X159684352Y-135151805D01*
X159512762Y-135151506D01*
X159323972Y-135151176D01*
X159188831Y-135165618D01*
X158965634Y-135189471D01*
X158965628Y-135189472D01*
X158962250Y-135189833D01*
X158606820Y-135267330D01*
X158261838Y-135382759D01*
X157931340Y-135534771D01*
X157619192Y-135721588D01*
X157329046Y-135941023D01*
X157064296Y-136190511D01*
X157062084Y-136193101D01*
X157062083Y-136193102D01*
X156994359Y-136272397D01*
X156828040Y-136467132D01*
X156623040Y-136767651D01*
X156621439Y-136770650D01*
X156454998Y-137082365D01*
X156451694Y-137088552D01*
X156450419Y-137091724D01*
X156450417Y-137091728D01*
X156318255Y-137420495D01*
X156316009Y-137426081D01*
X156315090Y-137429349D01*
X156315088Y-137429356D01*
X156218858Y-137771703D01*
X156217569Y-137776290D01*
X156217007Y-137779647D01*
X156217007Y-137779648D01*
X156174935Y-138031064D01*
X156157528Y-138135082D01*
X156136587Y-138498259D01*
X152448000Y-138498259D01*
X152448000Y-138292115D01*
X152443525Y-138276876D01*
X152442135Y-138275671D01*
X152434452Y-138274000D01*
X147950116Y-138274000D01*
X147934877Y-138278475D01*
X147933672Y-138279865D01*
X147932001Y-138287548D01*
X147932001Y-138914669D01*
X147932371Y-138921490D01*
X147937895Y-138972352D01*
X147941521Y-138987604D01*
X147986676Y-139108054D01*
X147995214Y-139123649D01*
X148062942Y-139214018D01*
X148087790Y-139280525D01*
X148072737Y-139349907D01*
X148062945Y-139365144D01*
X148044290Y-139390036D01*
X147987430Y-139432550D01*
X147916612Y-139437575D01*
X147854369Y-139403565D01*
X147047551Y-138596746D01*
X146138552Y-137687747D01*
X146131012Y-137679461D01*
X146126900Y-137672982D01*
X146077248Y-137626356D01*
X146074407Y-137623602D01*
X146054670Y-137603865D01*
X146051473Y-137601385D01*
X146042451Y-137593680D01*
X146016000Y-137568841D01*
X146010221Y-137563414D01*
X146003275Y-137559595D01*
X146003272Y-137559593D01*
X145992466Y-137553652D01*
X145975947Y-137542801D01*
X145975483Y-137542441D01*
X145959941Y-137530386D01*
X145952672Y-137527241D01*
X145952668Y-137527238D01*
X145919363Y-137512826D01*
X145908713Y-137507609D01*
X145869960Y-137486305D01*
X145861992Y-137484259D01*
X145850338Y-137481267D01*
X145831634Y-137474863D01*
X145820320Y-137469967D01*
X145820319Y-137469967D01*
X145813045Y-137466819D01*
X145805222Y-137465580D01*
X145805212Y-137465577D01*
X145769376Y-137459901D01*
X145757756Y-137457495D01*
X145722611Y-137448472D01*
X145722610Y-137448472D01*
X145714930Y-137446500D01*
X145694676Y-137446500D01*
X145674965Y-137444949D01*
X145662786Y-137443020D01*
X145654957Y-137441780D01*
X145647065Y-137442526D01*
X145610939Y-137445941D01*
X145599081Y-137446500D01*
X144556000Y-137446500D01*
X144487879Y-137426498D01*
X144441386Y-137372842D01*
X144430000Y-137320500D01*
X144430000Y-130630094D01*
X144450002Y-130561973D01*
X144503658Y-130515480D01*
X144573932Y-130505376D01*
X144638512Y-130534870D01*
X144645095Y-130540999D01*
X146229595Y-132125499D01*
X146263621Y-132187811D01*
X146266500Y-132214594D01*
X146266500Y-132738233D01*
X146265973Y-132749416D01*
X146264298Y-132756909D01*
X146264547Y-132764835D01*
X146264547Y-132764836D01*
X146266438Y-132824986D01*
X146266500Y-132828945D01*
X146266500Y-132856856D01*
X146266997Y-132860790D01*
X146266997Y-132860791D01*
X146267005Y-132860856D01*
X146267938Y-132872693D01*
X146269327Y-132916889D01*
X146274978Y-132936339D01*
X146278987Y-132955700D01*
X146281526Y-132975797D01*
X146284445Y-132983168D01*
X146284445Y-132983170D01*
X146297804Y-133016912D01*
X146301649Y-133028142D01*
X146313982Y-133070593D01*
X146318015Y-133077412D01*
X146318017Y-133077417D01*
X146324293Y-133088028D01*
X146332988Y-133105776D01*
X146340448Y-133124617D01*
X146345110Y-133131033D01*
X146345110Y-133131034D01*
X146366436Y-133160387D01*
X146372952Y-133170307D01*
X146395458Y-133208362D01*
X146409779Y-133222683D01*
X146422619Y-133237716D01*
X146434528Y-133254107D01*
X146440634Y-133259158D01*
X146468605Y-133282298D01*
X146477384Y-133290288D01*
X147894595Y-134707499D01*
X147928621Y-134769811D01*
X147931500Y-134796594D01*
X147931500Y-135400219D01*
X147930787Y-135413607D01*
X147927251Y-135446695D01*
X147927548Y-135451848D01*
X147927548Y-135451851D01*
X147931291Y-135516763D01*
X147931500Y-135524016D01*
X147931500Y-136378134D01*
X147938255Y-136440316D01*
X147989385Y-136576705D01*
X147994771Y-136583891D01*
X148062942Y-136674852D01*
X148087790Y-136741358D01*
X148072737Y-136810741D01*
X148062942Y-136825982D01*
X147995214Y-136916351D01*
X147986676Y-136931946D01*
X147941522Y-137052394D01*
X147937895Y-137067649D01*
X147932369Y-137118514D01*
X147932000Y-137125328D01*
X147932000Y-137747885D01*
X147936475Y-137763124D01*
X147937865Y-137764329D01*
X147945548Y-137766000D01*
X152429884Y-137766000D01*
X152445123Y-137761525D01*
X152446328Y-137760135D01*
X152447999Y-137752452D01*
X152447999Y-137125331D01*
X152447629Y-137118510D01*
X152442105Y-137067648D01*
X152438479Y-137052396D01*
X152393324Y-136931946D01*
X152384786Y-136916351D01*
X152317058Y-136825982D01*
X152292210Y-136759475D01*
X152307263Y-136690093D01*
X152317058Y-136674852D01*
X152385229Y-136583891D01*
X152390615Y-136576705D01*
X152441745Y-136440316D01*
X152448500Y-136378134D01*
X152448500Y-134581866D01*
X152441745Y-134519684D01*
X152390615Y-134383295D01*
X152317370Y-134285564D01*
X152292522Y-134219059D01*
X152307575Y-134149676D01*
X152317370Y-134134435D01*
X152390615Y-134036705D01*
X152441745Y-133900316D01*
X152448500Y-133838134D01*
X152448500Y-132041866D01*
X152441745Y-131979684D01*
X152390615Y-131843295D01*
X152317370Y-131745564D01*
X152292522Y-131679059D01*
X152307575Y-131609676D01*
X152317370Y-131594435D01*
X152385229Y-131503891D01*
X152390615Y-131496705D01*
X152441745Y-131360316D01*
X152448500Y-131298134D01*
X152448500Y-129501866D01*
X152441745Y-129439684D01*
X152390615Y-129303295D01*
X152317370Y-129205564D01*
X152292522Y-129139059D01*
X152307575Y-129069676D01*
X152317370Y-129054435D01*
X152385229Y-128963891D01*
X152390615Y-128956705D01*
X152441745Y-128820316D01*
X152448500Y-128758134D01*
X152448500Y-126961866D01*
X152441745Y-126899684D01*
X152390615Y-126763295D01*
X152319718Y-126668697D01*
X152317058Y-126665148D01*
X152292210Y-126598642D01*
X152307263Y-126529259D01*
X152317058Y-126514018D01*
X152384786Y-126423649D01*
X152393324Y-126408054D01*
X152438478Y-126287606D01*
X152442105Y-126272351D01*
X152447631Y-126221486D01*
X152448000Y-126214672D01*
X152448000Y-125592115D01*
X152443525Y-125576876D01*
X152442135Y-125575671D01*
X152434452Y-125574000D01*
X147950116Y-125574000D01*
X147934877Y-125578475D01*
X147933672Y-125579865D01*
X147932001Y-125587548D01*
X147932001Y-126214669D01*
X147932371Y-126221490D01*
X147937895Y-126272352D01*
X147941521Y-126287604D01*
X147986676Y-126408054D01*
X147995214Y-126423649D01*
X148062942Y-126514018D01*
X148087790Y-126580525D01*
X148072737Y-126649907D01*
X148062942Y-126665148D01*
X148060282Y-126668697D01*
X147989385Y-126763295D01*
X147938255Y-126899684D01*
X147931500Y-126961866D01*
X147931500Y-127780219D01*
X147930787Y-127793607D01*
X147927251Y-127826695D01*
X147927548Y-127831848D01*
X147927548Y-127831851D01*
X147931291Y-127896763D01*
X147931500Y-127904016D01*
X147931500Y-128758134D01*
X147938255Y-128820316D01*
X147989385Y-128956705D01*
X147994771Y-128963891D01*
X148062630Y-129054435D01*
X148087478Y-129120941D01*
X148072425Y-129190324D01*
X148062632Y-129205562D01*
X147989385Y-129303295D01*
X147938255Y-129439684D01*
X147931500Y-129501866D01*
X147931500Y-130320219D01*
X147930787Y-130333607D01*
X147927251Y-130366695D01*
X147927548Y-130371848D01*
X147927548Y-130371851D01*
X147931291Y-130436763D01*
X147931500Y-130444016D01*
X147931500Y-130931406D01*
X147911498Y-130999527D01*
X147857842Y-131046020D01*
X147787568Y-131056124D01*
X147722988Y-131026630D01*
X147716405Y-131020501D01*
X144140205Y-127444300D01*
X140448452Y-123752547D01*
X140440912Y-123744261D01*
X140436800Y-123737782D01*
X140387148Y-123691156D01*
X140384307Y-123688402D01*
X140364570Y-123668665D01*
X140361373Y-123666185D01*
X140352351Y-123658480D01*
X140325900Y-123633641D01*
X140320121Y-123628214D01*
X140313175Y-123624395D01*
X140313172Y-123624393D01*
X140302366Y-123618452D01*
X140285847Y-123607601D01*
X140285383Y-123607241D01*
X140269841Y-123595186D01*
X140262572Y-123592041D01*
X140262568Y-123592038D01*
X140229263Y-123577626D01*
X140218613Y-123572409D01*
X140179860Y-123551105D01*
X140160237Y-123546067D01*
X140141534Y-123539663D01*
X140130220Y-123534767D01*
X140130219Y-123534767D01*
X140122945Y-123531619D01*
X140115122Y-123530380D01*
X140115112Y-123530377D01*
X140079276Y-123524701D01*
X140067656Y-123522295D01*
X140032511Y-123513272D01*
X140032510Y-123513272D01*
X140024830Y-123511300D01*
X140004576Y-123511300D01*
X139984865Y-123509749D01*
X139972686Y-123507820D01*
X139964857Y-123506580D01*
X139956965Y-123507326D01*
X139920839Y-123510741D01*
X139908981Y-123511300D01*
X132994500Y-123511300D01*
X132926379Y-123491298D01*
X132879886Y-123437642D01*
X132868500Y-123385300D01*
X132868500Y-122877856D01*
X132869578Y-122861409D01*
X132871092Y-122849908D01*
X132871529Y-122846590D01*
X132872494Y-122807095D01*
X132873074Y-122783365D01*
X132873074Y-122783361D01*
X132873156Y-122780000D01*
X132870418Y-122746695D01*
X147927251Y-122746695D01*
X147927548Y-122751848D01*
X147927548Y-122751851D01*
X147931291Y-122816763D01*
X147931500Y-122824016D01*
X147931500Y-123678134D01*
X147938255Y-123740316D01*
X147989385Y-123876705D01*
X148027383Y-123927405D01*
X148062942Y-123974852D01*
X148087790Y-124041358D01*
X148072737Y-124110741D01*
X148062942Y-124125982D01*
X147995214Y-124216351D01*
X147986676Y-124231946D01*
X147941522Y-124352394D01*
X147937895Y-124367649D01*
X147932369Y-124418514D01*
X147932000Y-124425328D01*
X147932000Y-125047885D01*
X147936475Y-125063124D01*
X147937865Y-125064329D01*
X147945548Y-125066000D01*
X152429884Y-125066000D01*
X152445123Y-125061525D01*
X152446328Y-125060135D01*
X152447999Y-125052452D01*
X152447999Y-124425331D01*
X152447629Y-124418510D01*
X152442105Y-124367648D01*
X152438479Y-124352396D01*
X152393324Y-124231946D01*
X152384786Y-124216351D01*
X152317058Y-124125982D01*
X152292210Y-124059475D01*
X152307263Y-123990093D01*
X152317058Y-123974852D01*
X152352617Y-123927405D01*
X152390615Y-123876705D01*
X152441745Y-123740316D01*
X152448500Y-123678134D01*
X152448500Y-121881866D01*
X152441745Y-121819684D01*
X152390615Y-121683295D01*
X152317370Y-121585564D01*
X152292522Y-121519059D01*
X152307575Y-121449676D01*
X152317370Y-121434435D01*
X152385229Y-121343891D01*
X152390615Y-121336705D01*
X152441745Y-121200316D01*
X152448500Y-121138134D01*
X152448500Y-119341866D01*
X152441745Y-119279684D01*
X152390615Y-119143295D01*
X152317370Y-119045564D01*
X152292522Y-118979059D01*
X152307575Y-118909676D01*
X152317370Y-118894435D01*
X152390615Y-118796705D01*
X152441745Y-118660316D01*
X152448500Y-118598134D01*
X152448500Y-116801866D01*
X152441745Y-116739684D01*
X152390615Y-116603295D01*
X152317370Y-116505564D01*
X152292522Y-116439059D01*
X152307575Y-116369676D01*
X152317370Y-116354435D01*
X152385229Y-116263891D01*
X152390615Y-116256705D01*
X152441745Y-116120316D01*
X152448500Y-116058134D01*
X152448500Y-114261866D01*
X152441745Y-114199684D01*
X152390615Y-114063295D01*
X152317058Y-113965148D01*
X152292210Y-113898642D01*
X152307263Y-113829259D01*
X152317058Y-113814018D01*
X152384786Y-113723649D01*
X152393324Y-113708054D01*
X152438478Y-113587606D01*
X152442105Y-113572351D01*
X152447631Y-113521486D01*
X152448000Y-113514672D01*
X152448000Y-112892115D01*
X152443525Y-112876876D01*
X152442135Y-112875671D01*
X152434452Y-112874000D01*
X147950116Y-112874000D01*
X147934877Y-112878475D01*
X147933672Y-112879865D01*
X147932001Y-112887548D01*
X147932001Y-113514669D01*
X147932371Y-113521490D01*
X147937895Y-113572352D01*
X147941521Y-113587604D01*
X147986676Y-113708054D01*
X147995214Y-113723649D01*
X148062942Y-113814018D01*
X148087790Y-113880525D01*
X148072737Y-113949907D01*
X148062942Y-113965148D01*
X147989385Y-114063295D01*
X147938255Y-114199684D01*
X147931500Y-114261866D01*
X147931500Y-115080219D01*
X147930787Y-115093607D01*
X147927251Y-115126695D01*
X147927548Y-115131848D01*
X147927548Y-115131851D01*
X147931291Y-115196763D01*
X147931500Y-115204016D01*
X147931500Y-116058134D01*
X147938255Y-116120316D01*
X147989385Y-116256705D01*
X147994771Y-116263891D01*
X148062630Y-116354435D01*
X148087478Y-116420941D01*
X148072425Y-116490324D01*
X148062632Y-116505562D01*
X147989385Y-116603295D01*
X147938255Y-116739684D01*
X147931500Y-116801866D01*
X147931500Y-117620219D01*
X147930787Y-117633607D01*
X147927251Y-117666695D01*
X147927548Y-117671848D01*
X147927548Y-117671851D01*
X147931291Y-117736763D01*
X147931500Y-117744016D01*
X147931500Y-118598134D01*
X147938255Y-118660316D01*
X147989385Y-118796705D01*
X148062630Y-118894435D01*
X148087478Y-118960941D01*
X148072425Y-119030324D01*
X148062632Y-119045562D01*
X147989385Y-119143295D01*
X147938255Y-119279684D01*
X147931500Y-119341866D01*
X147931500Y-120160219D01*
X147930787Y-120173607D01*
X147927251Y-120206695D01*
X147927548Y-120211848D01*
X147927548Y-120211851D01*
X147931291Y-120276763D01*
X147931500Y-120284016D01*
X147931500Y-121138134D01*
X147938255Y-121200316D01*
X147989385Y-121336705D01*
X147994771Y-121343891D01*
X148062630Y-121434435D01*
X148087478Y-121500941D01*
X148072425Y-121570324D01*
X148062632Y-121585562D01*
X147989385Y-121683295D01*
X147938255Y-121819684D01*
X147931500Y-121881866D01*
X147931500Y-122700219D01*
X147930787Y-122713607D01*
X147927251Y-122746695D01*
X132870418Y-122746695D01*
X132868924Y-122728524D01*
X132868500Y-122718200D01*
X132868500Y-121881866D01*
X132861745Y-121819684D01*
X132810615Y-121683295D01*
X132737370Y-121585564D01*
X132712522Y-121519059D01*
X132727575Y-121449676D01*
X132737370Y-121434435D01*
X132805229Y-121343891D01*
X132810615Y-121336705D01*
X132861745Y-121200316D01*
X132868500Y-121138134D01*
X132868500Y-120337856D01*
X132869578Y-120321409D01*
X132869614Y-120321134D01*
X132871529Y-120306590D01*
X132871627Y-120302598D01*
X132873074Y-120243365D01*
X132873074Y-120243361D01*
X132873156Y-120240000D01*
X132868924Y-120188524D01*
X132868500Y-120178200D01*
X132868500Y-119341866D01*
X132861745Y-119279684D01*
X132810615Y-119143295D01*
X132737370Y-119045564D01*
X132712522Y-118979059D01*
X132727575Y-118909676D01*
X132737370Y-118894435D01*
X132810615Y-118796705D01*
X132861745Y-118660316D01*
X132868500Y-118598134D01*
X132868500Y-117797856D01*
X132869578Y-117781409D01*
X132871092Y-117769908D01*
X132871529Y-117766590D01*
X132872845Y-117712717D01*
X132873074Y-117703365D01*
X132873074Y-117703361D01*
X132873156Y-117700000D01*
X132868924Y-117648524D01*
X132868500Y-117638200D01*
X132868500Y-116801866D01*
X132861745Y-116739684D01*
X132810615Y-116603295D01*
X132737370Y-116505564D01*
X132712522Y-116439059D01*
X132727575Y-116369676D01*
X132737370Y-116354435D01*
X132805229Y-116263891D01*
X132810615Y-116256705D01*
X132861745Y-116120316D01*
X132868500Y-116058134D01*
X132868500Y-115257856D01*
X132869578Y-115241409D01*
X132871092Y-115229908D01*
X132871529Y-115226590D01*
X132872612Y-115182285D01*
X132873074Y-115163365D01*
X132873074Y-115163361D01*
X132873156Y-115160000D01*
X132868924Y-115108524D01*
X132868500Y-115098200D01*
X132868500Y-114261866D01*
X132861745Y-114199684D01*
X132810615Y-114063295D01*
X132737058Y-113965148D01*
X132712210Y-113898642D01*
X132727263Y-113829259D01*
X132737058Y-113814018D01*
X132804786Y-113723649D01*
X132813324Y-113708054D01*
X132858478Y-113587606D01*
X132862105Y-113572351D01*
X132867631Y-113521486D01*
X132868000Y-113514672D01*
X132868000Y-112892115D01*
X132863525Y-112876876D01*
X132862135Y-112875671D01*
X132854452Y-112874000D01*
X128370116Y-112874000D01*
X128354877Y-112878475D01*
X128353672Y-112879865D01*
X128352001Y-112887548D01*
X128352001Y-113514669D01*
X128352371Y-113521490D01*
X128357895Y-113572352D01*
X128361521Y-113587604D01*
X128406676Y-113708054D01*
X128415214Y-113723649D01*
X128482942Y-113814018D01*
X128507790Y-113880525D01*
X128492737Y-113949907D01*
X128482942Y-113965148D01*
X128409385Y-114063295D01*
X128358255Y-114199684D01*
X128351500Y-114261866D01*
X128351500Y-116058134D01*
X128358255Y-116120316D01*
X128409385Y-116256705D01*
X128414771Y-116263891D01*
X128482630Y-116354435D01*
X128507478Y-116420941D01*
X128492425Y-116490324D01*
X128482632Y-116505562D01*
X128409385Y-116603295D01*
X128358255Y-116739684D01*
X128351500Y-116801866D01*
X128351500Y-117491406D01*
X128331498Y-117559527D01*
X128277842Y-117606020D01*
X128207568Y-117616124D01*
X128142988Y-117586630D01*
X128136405Y-117580501D01*
X127061470Y-116505565D01*
X125940405Y-115384500D01*
X125906379Y-115322188D01*
X125903500Y-115295405D01*
X125903500Y-110978134D01*
X128351500Y-110978134D01*
X128358255Y-111040316D01*
X128409385Y-111176705D01*
X128435681Y-111211791D01*
X128482942Y-111274852D01*
X128507790Y-111341358D01*
X128492737Y-111410741D01*
X128482942Y-111425982D01*
X128415214Y-111516351D01*
X128406676Y-111531946D01*
X128361522Y-111652394D01*
X128357895Y-111667649D01*
X128352369Y-111718514D01*
X128352000Y-111725328D01*
X128352000Y-112347885D01*
X128356475Y-112363124D01*
X128357865Y-112364329D01*
X128365548Y-112366000D01*
X132849884Y-112366000D01*
X132865123Y-112361525D01*
X132866328Y-112360135D01*
X132867999Y-112352452D01*
X132867999Y-111725331D01*
X132867629Y-111718510D01*
X132862105Y-111667648D01*
X132858479Y-111652396D01*
X132813324Y-111531946D01*
X132804786Y-111516351D01*
X132737058Y-111425982D01*
X132712210Y-111359475D01*
X132727263Y-111290093D01*
X132737058Y-111274852D01*
X132784319Y-111211791D01*
X132810615Y-111176705D01*
X132861745Y-111040316D01*
X132868500Y-110978134D01*
X132868500Y-110177856D01*
X132869578Y-110161409D01*
X132871092Y-110149908D01*
X132871529Y-110146590D01*
X132873156Y-110080000D01*
X132870418Y-110046695D01*
X147927251Y-110046695D01*
X147927548Y-110051848D01*
X147927548Y-110051851D01*
X147931291Y-110116763D01*
X147931500Y-110124016D01*
X147931500Y-110978134D01*
X147938255Y-111040316D01*
X147989385Y-111176705D01*
X148015681Y-111211791D01*
X148062942Y-111274852D01*
X148087790Y-111341358D01*
X148072737Y-111410741D01*
X148062942Y-111425982D01*
X147995214Y-111516351D01*
X147986676Y-111531946D01*
X147941522Y-111652394D01*
X147937895Y-111667649D01*
X147932369Y-111718514D01*
X147932000Y-111725328D01*
X147932000Y-112347885D01*
X147936475Y-112363124D01*
X147937865Y-112364329D01*
X147945548Y-112366000D01*
X152429884Y-112366000D01*
X152445123Y-112361525D01*
X152446328Y-112360135D01*
X152447999Y-112352452D01*
X152447999Y-111725331D01*
X152447629Y-111718510D01*
X152442105Y-111667648D01*
X152438479Y-111652396D01*
X152393324Y-111531946D01*
X152384786Y-111516351D01*
X152317058Y-111425982D01*
X152292210Y-111359475D01*
X152307263Y-111290093D01*
X152317058Y-111274852D01*
X152364319Y-111211791D01*
X152390615Y-111176705D01*
X152441745Y-111040316D01*
X152448500Y-110978134D01*
X152448500Y-109181866D01*
X152441745Y-109119684D01*
X152390615Y-108983295D01*
X152317370Y-108885564D01*
X152292522Y-108819059D01*
X152307575Y-108749676D01*
X152317370Y-108734435D01*
X152385229Y-108643891D01*
X152390615Y-108636705D01*
X152441745Y-108500316D01*
X152448500Y-108438134D01*
X152448500Y-106641866D01*
X152441745Y-106579684D01*
X152390615Y-106443295D01*
X152317370Y-106345564D01*
X152292522Y-106279059D01*
X152307575Y-106209676D01*
X152317370Y-106194435D01*
X152385229Y-106103891D01*
X152390615Y-106096705D01*
X152441745Y-105960316D01*
X152448500Y-105898134D01*
X152448500Y-104101866D01*
X152441745Y-104039684D01*
X152390615Y-103903295D01*
X152317370Y-103805564D01*
X152292522Y-103739059D01*
X152307575Y-103669676D01*
X152317370Y-103654435D01*
X152385229Y-103563891D01*
X152390615Y-103556705D01*
X152441745Y-103420316D01*
X152448500Y-103358134D01*
X152448500Y-101561866D01*
X152441745Y-101499684D01*
X152390615Y-101363295D01*
X152317058Y-101265148D01*
X152292210Y-101198642D01*
X152307263Y-101129259D01*
X152317058Y-101114018D01*
X152384786Y-101023649D01*
X152393324Y-101008054D01*
X152438478Y-100887606D01*
X152442105Y-100872351D01*
X152447631Y-100821486D01*
X152448000Y-100814672D01*
X152448000Y-100192115D01*
X152443525Y-100176876D01*
X152442135Y-100175671D01*
X152434452Y-100174000D01*
X147950116Y-100174000D01*
X147934877Y-100178475D01*
X147933672Y-100179865D01*
X147932001Y-100187548D01*
X147932001Y-100814669D01*
X147932371Y-100821490D01*
X147937895Y-100872352D01*
X147941521Y-100887604D01*
X147986676Y-101008054D01*
X147995214Y-101023649D01*
X148062942Y-101114018D01*
X148087790Y-101180525D01*
X148072737Y-101249907D01*
X148062942Y-101265148D01*
X147989385Y-101363295D01*
X147938255Y-101499684D01*
X147931500Y-101561866D01*
X147931500Y-102380219D01*
X147930787Y-102393607D01*
X147927251Y-102426695D01*
X147927548Y-102431848D01*
X147927548Y-102431851D01*
X147931291Y-102496763D01*
X147931500Y-102504016D01*
X147931500Y-103358134D01*
X147938255Y-103420316D01*
X147989385Y-103556705D01*
X147994771Y-103563891D01*
X148062630Y-103654435D01*
X148087478Y-103720941D01*
X148072425Y-103790324D01*
X148062632Y-103805562D01*
X147989385Y-103903295D01*
X147938255Y-104039684D01*
X147931500Y-104101866D01*
X147931500Y-104920219D01*
X147930787Y-104933607D01*
X147927251Y-104966695D01*
X147927548Y-104971848D01*
X147927548Y-104971851D01*
X147931291Y-105036763D01*
X147931500Y-105044016D01*
X147931500Y-105898134D01*
X147938255Y-105960316D01*
X147989385Y-106096705D01*
X147994771Y-106103891D01*
X148062630Y-106194435D01*
X148087478Y-106260941D01*
X148072425Y-106330324D01*
X148062632Y-106345562D01*
X147989385Y-106443295D01*
X147938255Y-106579684D01*
X147931500Y-106641866D01*
X147931500Y-107460219D01*
X147930787Y-107473607D01*
X147927251Y-107506695D01*
X147927548Y-107511848D01*
X147927548Y-107511851D01*
X147931291Y-107576763D01*
X147931500Y-107584016D01*
X147931500Y-108438134D01*
X147938255Y-108500316D01*
X147989385Y-108636705D01*
X147994771Y-108643891D01*
X148062630Y-108734435D01*
X148087478Y-108800941D01*
X148072425Y-108870324D01*
X148062632Y-108885562D01*
X147989385Y-108983295D01*
X147938255Y-109119684D01*
X147931500Y-109181866D01*
X147931500Y-110000219D01*
X147930787Y-110013607D01*
X147927251Y-110046695D01*
X132870418Y-110046695D01*
X132868924Y-110028524D01*
X132868500Y-110018200D01*
X132868500Y-109181866D01*
X132861745Y-109119684D01*
X132810615Y-108983295D01*
X132737370Y-108885564D01*
X132712522Y-108819059D01*
X132727575Y-108749676D01*
X132737370Y-108734435D01*
X132805229Y-108643891D01*
X132810615Y-108636705D01*
X132861745Y-108500316D01*
X132868500Y-108438134D01*
X132868500Y-107637856D01*
X132869578Y-107621409D01*
X132871092Y-107609908D01*
X132871529Y-107606590D01*
X132873156Y-107540000D01*
X132868924Y-107488524D01*
X132868500Y-107478200D01*
X132868500Y-106641866D01*
X132861745Y-106579684D01*
X132810615Y-106443295D01*
X132737370Y-106345564D01*
X132712522Y-106279059D01*
X132727575Y-106209676D01*
X132737370Y-106194435D01*
X132805229Y-106103891D01*
X132810615Y-106096705D01*
X132861745Y-105960316D01*
X132868500Y-105898134D01*
X132868500Y-105097856D01*
X132869578Y-105081409D01*
X132871092Y-105069908D01*
X132871529Y-105066590D01*
X132873156Y-105000000D01*
X132868924Y-104948524D01*
X132868500Y-104938200D01*
X132868500Y-104101866D01*
X132861745Y-104039684D01*
X132810615Y-103903295D01*
X132737370Y-103805564D01*
X132712522Y-103739059D01*
X132727575Y-103669676D01*
X132737370Y-103654435D01*
X132805229Y-103563891D01*
X132810615Y-103556705D01*
X132861745Y-103420316D01*
X132868500Y-103358134D01*
X132868500Y-102557856D01*
X132869578Y-102541409D01*
X132871092Y-102529908D01*
X132871529Y-102526590D01*
X132873156Y-102460000D01*
X132868924Y-102408524D01*
X132868500Y-102398200D01*
X132868500Y-101561866D01*
X132861745Y-101499684D01*
X132810615Y-101363295D01*
X132737058Y-101265148D01*
X132712210Y-101198642D01*
X132727263Y-101129259D01*
X132737058Y-101114018D01*
X132804786Y-101023649D01*
X132813324Y-101008054D01*
X132858478Y-100887606D01*
X132862105Y-100872351D01*
X132867631Y-100821486D01*
X132868000Y-100814672D01*
X132868000Y-100192115D01*
X132863525Y-100176876D01*
X132862135Y-100175671D01*
X132854452Y-100174000D01*
X128370116Y-100174000D01*
X128354877Y-100178475D01*
X128353672Y-100179865D01*
X128352001Y-100187548D01*
X128352001Y-100814669D01*
X128352371Y-100821490D01*
X128357895Y-100872352D01*
X128361521Y-100887604D01*
X128406676Y-101008054D01*
X128415214Y-101023649D01*
X128482942Y-101114018D01*
X128507790Y-101180525D01*
X128492737Y-101249907D01*
X128482942Y-101265148D01*
X128409385Y-101363295D01*
X128358255Y-101499684D01*
X128351500Y-101561866D01*
X128351500Y-103358134D01*
X128358255Y-103420316D01*
X128409385Y-103556705D01*
X128414771Y-103563891D01*
X128482630Y-103654435D01*
X128507478Y-103720941D01*
X128492425Y-103790324D01*
X128482632Y-103805562D01*
X128409385Y-103903295D01*
X128358255Y-104039684D01*
X128351500Y-104101866D01*
X128351500Y-105898134D01*
X128358255Y-105960316D01*
X128409385Y-106096705D01*
X128414771Y-106103891D01*
X128482630Y-106194435D01*
X128507478Y-106260941D01*
X128492425Y-106330324D01*
X128482632Y-106345562D01*
X128409385Y-106443295D01*
X128358255Y-106579684D01*
X128351500Y-106641866D01*
X128351500Y-108438134D01*
X128358255Y-108500316D01*
X128409385Y-108636705D01*
X128414771Y-108643891D01*
X128482630Y-108734435D01*
X128507478Y-108800941D01*
X128492425Y-108870324D01*
X128482632Y-108885562D01*
X128409385Y-108983295D01*
X128358255Y-109119684D01*
X128351500Y-109181866D01*
X128351500Y-110978134D01*
X125903500Y-110978134D01*
X125903500Y-98278134D01*
X128351500Y-98278134D01*
X128358255Y-98340316D01*
X128409385Y-98476705D01*
X128414771Y-98483891D01*
X128482942Y-98574852D01*
X128507790Y-98641358D01*
X128492737Y-98710741D01*
X128482942Y-98725982D01*
X128415214Y-98816351D01*
X128406676Y-98831946D01*
X128361522Y-98952394D01*
X128357895Y-98967649D01*
X128352369Y-99018514D01*
X128352000Y-99025328D01*
X128352000Y-99647885D01*
X128356475Y-99663124D01*
X128357865Y-99664329D01*
X128365548Y-99666000D01*
X132849884Y-99666000D01*
X132865123Y-99661525D01*
X132866328Y-99660135D01*
X132867999Y-99652452D01*
X132867999Y-99025331D01*
X132867629Y-99018510D01*
X132862105Y-98967648D01*
X132858479Y-98952396D01*
X132813324Y-98831946D01*
X132804786Y-98816351D01*
X132737058Y-98725982D01*
X132712210Y-98659475D01*
X132727263Y-98590093D01*
X132737058Y-98574852D01*
X132805229Y-98483891D01*
X132810615Y-98476705D01*
X132861745Y-98340316D01*
X132868500Y-98278134D01*
X132868500Y-97477856D01*
X132869578Y-97461409D01*
X132871092Y-97449908D01*
X132871529Y-97446590D01*
X132873156Y-97380000D01*
X132870418Y-97346695D01*
X147927251Y-97346695D01*
X147927548Y-97351848D01*
X147927548Y-97351851D01*
X147931291Y-97416763D01*
X147931500Y-97424016D01*
X147931500Y-98278134D01*
X147938255Y-98340316D01*
X147989385Y-98476705D01*
X147994771Y-98483891D01*
X148062942Y-98574852D01*
X148087790Y-98641358D01*
X148072737Y-98710741D01*
X148062942Y-98725982D01*
X147995214Y-98816351D01*
X147986676Y-98831946D01*
X147941522Y-98952394D01*
X147937895Y-98967649D01*
X147932369Y-99018514D01*
X147932000Y-99025328D01*
X147932000Y-99647885D01*
X147936475Y-99663124D01*
X147937865Y-99664329D01*
X147945548Y-99666000D01*
X152429884Y-99666000D01*
X152445123Y-99661525D01*
X152446328Y-99660135D01*
X152447999Y-99652452D01*
X152447999Y-99025331D01*
X152447629Y-99018510D01*
X152442105Y-98967648D01*
X152438479Y-98952396D01*
X152393324Y-98831946D01*
X152384786Y-98816351D01*
X152317058Y-98725982D01*
X152292210Y-98659475D01*
X152307263Y-98590093D01*
X152317058Y-98574852D01*
X152385229Y-98483891D01*
X152390615Y-98476705D01*
X152441745Y-98340316D01*
X152448500Y-98278134D01*
X152448500Y-96481866D01*
X152441745Y-96419684D01*
X152390615Y-96283295D01*
X152317370Y-96185564D01*
X152292522Y-96119059D01*
X152307575Y-96049676D01*
X152317370Y-96034435D01*
X152385229Y-95943891D01*
X152390615Y-95936705D01*
X152441745Y-95800316D01*
X152448500Y-95738134D01*
X152448500Y-93941866D01*
X152441745Y-93879684D01*
X152390615Y-93743295D01*
X152303261Y-93626739D01*
X152186705Y-93539385D01*
X152050316Y-93488255D01*
X151988134Y-93481500D01*
X149304985Y-93481500D01*
X149303446Y-93481491D01*
X149200081Y-93480228D01*
X149200079Y-93480228D01*
X149194911Y-93480165D01*
X149189797Y-93480948D01*
X149186289Y-93481193D01*
X149177496Y-93481500D01*
X148391866Y-93481500D01*
X148329684Y-93488255D01*
X148193295Y-93539385D01*
X148076739Y-93626739D01*
X147989385Y-93743295D01*
X147938255Y-93879684D01*
X147931500Y-93941866D01*
X147931500Y-94760219D01*
X147930787Y-94773607D01*
X147927251Y-94806695D01*
X147927548Y-94811848D01*
X147927548Y-94811851D01*
X147931291Y-94876763D01*
X147931500Y-94884016D01*
X147931500Y-95738134D01*
X147938255Y-95800316D01*
X147989385Y-95936705D01*
X147994771Y-95943891D01*
X148062630Y-96034435D01*
X148087478Y-96100941D01*
X148072425Y-96170324D01*
X148062632Y-96185562D01*
X147989385Y-96283295D01*
X147938255Y-96419684D01*
X147931500Y-96481866D01*
X147931500Y-97300219D01*
X147930787Y-97313607D01*
X147927251Y-97346695D01*
X132870418Y-97346695D01*
X132868924Y-97328524D01*
X132868500Y-97318200D01*
X132868500Y-96481866D01*
X132861745Y-96419684D01*
X132810615Y-96283295D01*
X132737370Y-96185564D01*
X132712522Y-96119059D01*
X132727575Y-96049676D01*
X132737370Y-96034435D01*
X132805229Y-95943891D01*
X132810615Y-95936705D01*
X132861745Y-95800316D01*
X132868500Y-95738134D01*
X132868500Y-95036695D01*
X136497251Y-95036695D01*
X136497548Y-95041848D01*
X136497548Y-95041851D01*
X136501291Y-95106763D01*
X136501500Y-95114016D01*
X136501500Y-95968134D01*
X136508255Y-96030316D01*
X136559385Y-96166705D01*
X136646739Y-96283261D01*
X136763295Y-96370615D01*
X136899684Y-96421745D01*
X136961866Y-96428500D01*
X137830826Y-96428500D01*
X137835443Y-96428585D01*
X137916673Y-96431564D01*
X137916677Y-96431564D01*
X137921837Y-96431753D01*
X137926957Y-96431097D01*
X137926959Y-96431097D01*
X137939261Y-96429521D01*
X137955271Y-96428500D01*
X138758134Y-96428500D01*
X138820316Y-96421745D01*
X138956705Y-96370615D01*
X139054436Y-96297370D01*
X139120941Y-96272522D01*
X139190324Y-96287575D01*
X139205562Y-96297368D01*
X139303295Y-96370615D01*
X139439684Y-96421745D01*
X139501866Y-96428500D01*
X141298134Y-96428500D01*
X141360316Y-96421745D01*
X141496705Y-96370615D01*
X141594436Y-96297370D01*
X141660941Y-96272522D01*
X141730324Y-96287575D01*
X141745562Y-96297368D01*
X141843295Y-96370615D01*
X141979684Y-96421745D01*
X142041866Y-96428500D01*
X142910826Y-96428500D01*
X142915443Y-96428585D01*
X142996673Y-96431564D01*
X142996677Y-96431564D01*
X143001837Y-96431753D01*
X143006957Y-96431097D01*
X143006959Y-96431097D01*
X143019261Y-96429521D01*
X143035271Y-96428500D01*
X143838134Y-96428500D01*
X143900316Y-96421745D01*
X144036705Y-96370615D01*
X144153261Y-96283261D01*
X144240615Y-96166705D01*
X144291745Y-96030316D01*
X144298500Y-95968134D01*
X144298500Y-95167856D01*
X144299578Y-95151409D01*
X144301092Y-95139908D01*
X144301529Y-95136590D01*
X144303156Y-95070000D01*
X144298924Y-95018524D01*
X144298500Y-95008200D01*
X144298500Y-92371866D01*
X144291745Y-92309684D01*
X144240615Y-92173295D01*
X144153261Y-92056739D01*
X144036705Y-91969385D01*
X143900316Y-91918255D01*
X143838134Y-91911500D01*
X142041866Y-91911500D01*
X141979684Y-91918255D01*
X141843295Y-91969385D01*
X141745565Y-92042630D01*
X141679059Y-92067478D01*
X141609676Y-92052425D01*
X141594435Y-92042630D01*
X141496705Y-91969385D01*
X141360316Y-91918255D01*
X141298134Y-91911500D01*
X139501866Y-91911500D01*
X139439684Y-91918255D01*
X139303295Y-91969385D01*
X139205565Y-92042630D01*
X139139059Y-92067478D01*
X139069676Y-92052425D01*
X139054435Y-92042630D01*
X138956705Y-91969385D01*
X138820316Y-91918255D01*
X138758134Y-91911500D01*
X136961866Y-91911500D01*
X136899684Y-91918255D01*
X136763295Y-91969385D01*
X136646739Y-92056739D01*
X136559385Y-92173295D01*
X136508255Y-92309684D01*
X136501500Y-92371866D01*
X136501500Y-94990219D01*
X136500787Y-95003607D01*
X136497251Y-95036695D01*
X132868500Y-95036695D01*
X132868500Y-94937856D01*
X132869578Y-94921409D01*
X132871092Y-94909908D01*
X132871529Y-94906590D01*
X132873156Y-94840000D01*
X132868924Y-94788524D01*
X132868500Y-94778200D01*
X132868500Y-93941866D01*
X132861745Y-93879684D01*
X132810615Y-93743295D01*
X132723261Y-93626739D01*
X132606705Y-93539385D01*
X132470316Y-93488255D01*
X132408134Y-93481500D01*
X131524985Y-93481500D01*
X131523446Y-93481491D01*
X131420081Y-93480228D01*
X131420079Y-93480228D01*
X131414911Y-93480165D01*
X131409797Y-93480948D01*
X131406289Y-93481193D01*
X131397496Y-93481500D01*
X128811866Y-93481500D01*
X128749684Y-93488255D01*
X128613295Y-93539385D01*
X128496739Y-93626739D01*
X128409385Y-93743295D01*
X128358255Y-93879684D01*
X128351500Y-93941866D01*
X128351500Y-95738134D01*
X128358255Y-95800316D01*
X128409385Y-95936705D01*
X128414771Y-95943891D01*
X128482630Y-96034435D01*
X128507478Y-96100941D01*
X128492425Y-96170324D01*
X128482632Y-96185562D01*
X128409385Y-96283295D01*
X128358255Y-96419684D01*
X128351500Y-96481866D01*
X128351500Y-98278134D01*
X125903500Y-98278134D01*
X125903500Y-54014594D01*
X125923502Y-53946473D01*
X125940405Y-53925499D01*
X127532247Y-52333657D01*
X127540537Y-52326113D01*
X127547018Y-52322000D01*
X127593659Y-52272332D01*
X127596413Y-52269491D01*
X127616134Y-52249770D01*
X127618612Y-52246575D01*
X127626318Y-52237553D01*
X127651158Y-52211101D01*
X127656586Y-52205321D01*
X127666346Y-52187568D01*
X127677199Y-52171045D01*
X127684753Y-52161306D01*
X127689613Y-52155041D01*
X127707176Y-52114457D01*
X127712383Y-52103827D01*
X127733695Y-52065060D01*
X127735666Y-52057383D01*
X127735668Y-52057378D01*
X127738732Y-52045442D01*
X127745138Y-52026730D01*
X127750034Y-52015417D01*
X127753181Y-52008145D01*
X127760097Y-51964481D01*
X127762504Y-51952860D01*
X127771528Y-51917711D01*
X127771528Y-51917710D01*
X127773500Y-51910030D01*
X127773500Y-51889769D01*
X127775052Y-51870053D01*
X127776183Y-51862914D01*
X127806598Y-51798762D01*
X127866868Y-51761238D01*
X127937857Y-51762255D01*
X127945579Y-51764920D01*
X128054996Y-51806702D01*
X128064899Y-51809579D01*
X128168250Y-51830606D01*
X128182299Y-51829410D01*
X128186000Y-51819065D01*
X128186000Y-51818517D01*
X128694000Y-51818517D01*
X128698064Y-51832359D01*
X128711478Y-51834393D01*
X128718184Y-51833534D01*
X128728262Y-51831392D01*
X128932255Y-51770191D01*
X128941842Y-51766433D01*
X129133095Y-51672739D01*
X129141945Y-51667464D01*
X129315328Y-51543792D01*
X129323200Y-51537139D01*
X129474052Y-51386812D01*
X129480730Y-51378965D01*
X129605003Y-51206020D01*
X129610313Y-51197183D01*
X129704670Y-51006267D01*
X129708469Y-50996672D01*
X129770377Y-50792910D01*
X129772555Y-50782837D01*
X129773986Y-50771962D01*
X129771775Y-50757778D01*
X129758617Y-50754000D01*
X128712115Y-50754000D01*
X128696876Y-50758475D01*
X128695671Y-50759865D01*
X128694000Y-50767548D01*
X128694000Y-51818517D01*
X128186000Y-51818517D01*
X128186000Y-50498259D01*
X156136587Y-50498259D01*
X156136759Y-50501654D01*
X156136759Y-50501655D01*
X156137274Y-50511820D01*
X156154992Y-50861574D01*
X156155529Y-50864929D01*
X156155530Y-50864935D01*
X156162370Y-50907639D01*
X156212527Y-51220777D01*
X156308519Y-51571664D01*
X156407083Y-51821885D01*
X156418181Y-51850057D01*
X156441845Y-51910133D01*
X156443428Y-51913148D01*
X156609362Y-52229206D01*
X156609367Y-52229214D01*
X156610946Y-52232222D01*
X156612840Y-52235040D01*
X156612845Y-52235049D01*
X156782754Y-52487899D01*
X156813843Y-52534165D01*
X157048163Y-52812428D01*
X157074899Y-52837977D01*
X157308702Y-53061405D01*
X157308709Y-53061411D01*
X157311165Y-53063758D01*
X157599771Y-53285214D01*
X157703070Y-53348021D01*
X157907692Y-53472433D01*
X157907697Y-53472436D01*
X157910607Y-53474205D01*
X157913695Y-53475651D01*
X157913694Y-53475651D01*
X158236952Y-53627077D01*
X158236962Y-53627081D01*
X158240036Y-53628521D01*
X158243254Y-53629623D01*
X158243257Y-53629624D01*
X158580981Y-53745253D01*
X158580989Y-53745255D01*
X158584204Y-53746356D01*
X158939084Y-53826332D01*
X158992123Y-53832375D01*
X159297144Y-53867128D01*
X159297152Y-53867128D01*
X159300527Y-53867513D01*
X159303931Y-53867531D01*
X159303934Y-53867531D01*
X159502058Y-53868568D01*
X159664303Y-53869418D01*
X159667689Y-53869068D01*
X159667691Y-53869068D01*
X160022765Y-53832375D01*
X160022774Y-53832374D01*
X160026157Y-53832024D01*
X160029490Y-53831310D01*
X160029493Y-53831309D01*
X160151806Y-53805087D01*
X160381856Y-53755768D01*
X160727239Y-53641544D01*
X160730323Y-53640138D01*
X160730332Y-53640135D01*
X161055171Y-53492096D01*
X161058265Y-53490686D01*
X161240923Y-53382232D01*
X161368128Y-53306704D01*
X161368132Y-53306701D01*
X161371063Y-53304961D01*
X161661973Y-53086539D01*
X161927592Y-52837977D01*
X162164813Y-52562182D01*
X162293749Y-52374580D01*
X162368931Y-52265190D01*
X162368936Y-52265182D01*
X162370861Y-52262381D01*
X162372473Y-52259387D01*
X162372478Y-52259379D01*
X162534422Y-51958614D01*
X162543325Y-51942080D01*
X162680188Y-51605027D01*
X162686866Y-51581586D01*
X162727003Y-51440684D01*
X162779850Y-51255164D01*
X162803874Y-51114616D01*
X162840571Y-50899930D01*
X162840571Y-50899928D01*
X162841143Y-50896583D01*
X162842578Y-50873133D01*
X162863241Y-50535278D01*
X162863351Y-50533481D01*
X162863433Y-50510000D01*
X162843760Y-50146751D01*
X162784972Y-49787752D01*
X162687756Y-49437202D01*
X162683331Y-49426081D01*
X162554508Y-49102365D01*
X162553249Y-49099201D01*
X162500861Y-49000258D01*
X162384624Y-48780723D01*
X162384620Y-48780716D01*
X162383025Y-48777704D01*
X162381118Y-48774888D01*
X162381113Y-48774879D01*
X162180985Y-48479292D01*
X162179075Y-48476471D01*
X161943785Y-48199027D01*
X161691903Y-47960000D01*
X161682375Y-47950958D01*
X161682374Y-47950957D01*
X161679908Y-47948617D01*
X161390530Y-47728170D01*
X161387618Y-47726413D01*
X161387613Y-47726410D01*
X161081951Y-47542023D01*
X161081945Y-47542020D01*
X161079036Y-47540265D01*
X160749071Y-47387100D01*
X160404494Y-47270467D01*
X160395234Y-47268414D01*
X160299028Y-47247086D01*
X160049336Y-47191731D01*
X159862041Y-47171053D01*
X159691133Y-47152184D01*
X159691128Y-47152184D01*
X159687752Y-47151811D01*
X159684353Y-47151805D01*
X159684352Y-47151805D01*
X159512762Y-47151506D01*
X159323972Y-47151176D01*
X159188831Y-47165618D01*
X158965634Y-47189471D01*
X158965628Y-47189472D01*
X158962250Y-47189833D01*
X158606820Y-47267330D01*
X158261838Y-47382759D01*
X157931340Y-47534771D01*
X157619192Y-47721588D01*
X157329046Y-47941023D01*
X157064296Y-48190511D01*
X157062084Y-48193101D01*
X157062083Y-48193102D01*
X157032306Y-48227966D01*
X156828040Y-48467132D01*
X156623040Y-48767651D01*
X156580772Y-48846812D01*
X156458059Y-49076632D01*
X156451694Y-49088552D01*
X156450419Y-49091724D01*
X156450417Y-49091728D01*
X156339438Y-49367800D01*
X156316009Y-49426081D01*
X156315090Y-49429349D01*
X156315088Y-49429356D01*
X156218990Y-49771233D01*
X156217569Y-49776290D01*
X156217007Y-49779647D01*
X156217007Y-49779648D01*
X156161429Y-50111773D01*
X156157528Y-50135082D01*
X156136587Y-50498259D01*
X128186000Y-50498259D01*
X128186000Y-50227885D01*
X128694000Y-50227885D01*
X128698475Y-50243124D01*
X128699865Y-50244329D01*
X128707548Y-50246000D01*
X129758344Y-50246000D01*
X129771875Y-50242027D01*
X129773180Y-50232947D01*
X129731214Y-50065875D01*
X129727894Y-50056124D01*
X129642972Y-49860814D01*
X129638105Y-49851739D01*
X129522426Y-49672926D01*
X129516136Y-49664757D01*
X129372806Y-49507240D01*
X129365273Y-49500215D01*
X129198139Y-49368222D01*
X129189552Y-49362517D01*
X129152116Y-49341851D01*
X129102146Y-49291419D01*
X129087374Y-49221976D01*
X129112490Y-49155571D01*
X129139842Y-49128964D01*
X129315327Y-49003792D01*
X129323200Y-48997139D01*
X129474052Y-48846812D01*
X129480730Y-48838965D01*
X129605003Y-48666020D01*
X129610313Y-48657183D01*
X129704670Y-48466267D01*
X129708469Y-48456672D01*
X129770377Y-48252910D01*
X129772555Y-48242837D01*
X129773986Y-48231962D01*
X129771775Y-48217778D01*
X129758617Y-48214000D01*
X128712115Y-48214000D01*
X128696876Y-48218475D01*
X128695671Y-48219865D01*
X128694000Y-48227548D01*
X128694000Y-50227885D01*
X128186000Y-50227885D01*
X128186000Y-47687885D01*
X128694000Y-47687885D01*
X128698475Y-47703124D01*
X128699865Y-47704329D01*
X128707548Y-47706000D01*
X129758344Y-47706000D01*
X129771875Y-47702027D01*
X129773180Y-47692947D01*
X129731214Y-47525875D01*
X129727894Y-47516124D01*
X129642972Y-47320814D01*
X129638105Y-47311739D01*
X129522426Y-47132926D01*
X129516136Y-47124757D01*
X129372806Y-46967240D01*
X129365273Y-46960215D01*
X129198139Y-46828222D01*
X129189552Y-46822517D01*
X129003117Y-46719599D01*
X128993705Y-46715369D01*
X128792959Y-46644280D01*
X128782988Y-46641646D01*
X128711837Y-46628972D01*
X128698540Y-46630432D01*
X128694000Y-46644989D01*
X128694000Y-47687885D01*
X128186000Y-47687885D01*
X128186000Y-46643102D01*
X128182082Y-46629758D01*
X128167806Y-46627771D01*
X128129324Y-46633660D01*
X128119288Y-46636051D01*
X127916868Y-46702212D01*
X127907359Y-46706209D01*
X127718463Y-46804542D01*
X127709738Y-46810036D01*
X127539433Y-46937905D01*
X127531726Y-46944748D01*
X127384590Y-47098717D01*
X127378109Y-47106722D01*
X127273498Y-47260074D01*
X127218587Y-47305076D01*
X127148062Y-47313247D01*
X127084315Y-47281993D01*
X127063618Y-47257509D01*
X126982822Y-47132617D01*
X126982820Y-47132614D01*
X126980014Y-47128277D01*
X126829670Y-46963051D01*
X126825619Y-46959852D01*
X126825615Y-46959848D01*
X126658414Y-46827800D01*
X126658410Y-46827798D01*
X126654359Y-46824598D01*
X126618028Y-46804542D01*
X126602136Y-46795769D01*
X126458789Y-46716638D01*
X126453920Y-46714914D01*
X126453916Y-46714912D01*
X126253087Y-46643795D01*
X126253083Y-46643794D01*
X126248212Y-46642069D01*
X126243119Y-46641162D01*
X126243116Y-46641161D01*
X126033373Y-46603800D01*
X126033367Y-46603799D01*
X126028284Y-46602894D01*
X125954452Y-46601992D01*
X125810081Y-46600228D01*
X125810079Y-46600228D01*
X125804911Y-46600165D01*
X125584091Y-46633955D01*
X125371756Y-46703357D01*
X125173607Y-46806507D01*
X125169474Y-46809610D01*
X125169471Y-46809612D01*
X125145247Y-46827800D01*
X124994965Y-46940635D01*
X124840629Y-47102138D01*
X124733201Y-47259621D01*
X124678293Y-47304621D01*
X124607768Y-47312792D01*
X124544021Y-47281538D01*
X124523324Y-47257054D01*
X124442822Y-47132617D01*
X124442820Y-47132614D01*
X124440014Y-47128277D01*
X124289670Y-46963051D01*
X124285619Y-46959852D01*
X124285615Y-46959848D01*
X124118414Y-46827800D01*
X124118410Y-46827798D01*
X124114359Y-46824598D01*
X124078028Y-46804542D01*
X124062136Y-46795769D01*
X123918789Y-46716638D01*
X123913920Y-46714914D01*
X123913916Y-46714912D01*
X123713087Y-46643795D01*
X123713083Y-46643794D01*
X123708212Y-46642069D01*
X123703119Y-46641162D01*
X123703116Y-46641161D01*
X123493373Y-46603800D01*
X123493367Y-46603799D01*
X123488284Y-46602894D01*
X123414452Y-46601992D01*
X123270081Y-46600228D01*
X123270079Y-46600228D01*
X123264911Y-46600165D01*
X123044091Y-46633955D01*
X122831756Y-46703357D01*
X122633607Y-46806507D01*
X122629474Y-46809610D01*
X122629471Y-46809612D01*
X122605247Y-46827800D01*
X122454965Y-46940635D01*
X122300629Y-47102138D01*
X122193201Y-47259621D01*
X122138293Y-47304621D01*
X122067768Y-47312792D01*
X122004021Y-47281538D01*
X121983324Y-47257054D01*
X121902822Y-47132617D01*
X121902820Y-47132614D01*
X121900014Y-47128277D01*
X121749670Y-46963051D01*
X121745619Y-46959852D01*
X121745615Y-46959848D01*
X121578414Y-46827800D01*
X121578410Y-46827798D01*
X121574359Y-46824598D01*
X121538028Y-46804542D01*
X121522136Y-46795769D01*
X121378789Y-46716638D01*
X121373920Y-46714914D01*
X121373916Y-46714912D01*
X121173087Y-46643795D01*
X121173083Y-46643794D01*
X121168212Y-46642069D01*
X121163119Y-46641162D01*
X121163116Y-46641161D01*
X120953373Y-46603800D01*
X120953367Y-46603799D01*
X120948284Y-46602894D01*
X120874452Y-46601992D01*
X120730081Y-46600228D01*
X120730079Y-46600228D01*
X120724911Y-46600165D01*
X120504091Y-46633955D01*
X120291756Y-46703357D01*
X120093607Y-46806507D01*
X120089474Y-46809610D01*
X120089471Y-46809612D01*
X120065247Y-46827800D01*
X119914965Y-46940635D01*
X119760629Y-47102138D01*
X119653201Y-47259621D01*
X119598293Y-47304621D01*
X119527768Y-47312792D01*
X119464021Y-47281538D01*
X119443324Y-47257054D01*
X119362822Y-47132617D01*
X119362820Y-47132614D01*
X119360014Y-47128277D01*
X119209670Y-46963051D01*
X119205619Y-46959852D01*
X119205615Y-46959848D01*
X119038414Y-46827800D01*
X119038410Y-46827798D01*
X119034359Y-46824598D01*
X118998028Y-46804542D01*
X118982136Y-46795769D01*
X118838789Y-46716638D01*
X118833920Y-46714914D01*
X118833916Y-46714912D01*
X118633087Y-46643795D01*
X118633083Y-46643794D01*
X118628212Y-46642069D01*
X118623119Y-46641162D01*
X118623116Y-46641161D01*
X118413373Y-46603800D01*
X118413367Y-46603799D01*
X118408284Y-46602894D01*
X118334452Y-46601992D01*
X118190081Y-46600228D01*
X118190079Y-46600228D01*
X118184911Y-46600165D01*
X117964091Y-46633955D01*
X117751756Y-46703357D01*
X117553607Y-46806507D01*
X117549474Y-46809610D01*
X117549471Y-46809612D01*
X117525247Y-46827800D01*
X117374965Y-46940635D01*
X117220629Y-47102138D01*
X117113201Y-47259621D01*
X117058293Y-47304621D01*
X116987768Y-47312792D01*
X116924021Y-47281538D01*
X116903324Y-47257054D01*
X116822822Y-47132617D01*
X116822820Y-47132614D01*
X116820014Y-47128277D01*
X116669670Y-46963051D01*
X116665619Y-46959852D01*
X116665615Y-46959848D01*
X116498414Y-46827800D01*
X116498410Y-46827798D01*
X116494359Y-46824598D01*
X116458028Y-46804542D01*
X116442136Y-46795769D01*
X116298789Y-46716638D01*
X116293920Y-46714914D01*
X116293916Y-46714912D01*
X116093087Y-46643795D01*
X116093083Y-46643794D01*
X116088212Y-46642069D01*
X116083119Y-46641162D01*
X116083116Y-46641161D01*
X115873373Y-46603800D01*
X115873367Y-46603799D01*
X115868284Y-46602894D01*
X115794452Y-46601992D01*
X115650081Y-46600228D01*
X115650079Y-46600228D01*
X115644911Y-46600165D01*
X115424091Y-46633955D01*
X115211756Y-46703357D01*
X115013607Y-46806507D01*
X115009474Y-46809610D01*
X115009471Y-46809612D01*
X114985247Y-46827800D01*
X114834965Y-46940635D01*
X114680629Y-47102138D01*
X114573201Y-47259621D01*
X114518293Y-47304621D01*
X114447768Y-47312792D01*
X114384021Y-47281538D01*
X114363324Y-47257054D01*
X114282822Y-47132617D01*
X114282820Y-47132614D01*
X114280014Y-47128277D01*
X114129670Y-46963051D01*
X114125619Y-46959852D01*
X114125615Y-46959848D01*
X113958414Y-46827800D01*
X113958410Y-46827798D01*
X113954359Y-46824598D01*
X113918028Y-46804542D01*
X113902136Y-46795769D01*
X113758789Y-46716638D01*
X113753920Y-46714914D01*
X113753916Y-46714912D01*
X113553087Y-46643795D01*
X113553083Y-46643794D01*
X113548212Y-46642069D01*
X113543119Y-46641162D01*
X113543116Y-46641161D01*
X113333373Y-46603800D01*
X113333367Y-46603799D01*
X113328284Y-46602894D01*
X113254452Y-46601992D01*
X113110081Y-46600228D01*
X113110079Y-46600228D01*
X113104911Y-46600165D01*
X112884091Y-46633955D01*
X112671756Y-46703357D01*
X112473607Y-46806507D01*
X112469474Y-46809610D01*
X112469471Y-46809612D01*
X112445247Y-46827800D01*
X112294965Y-46940635D01*
X112140629Y-47102138D01*
X112033201Y-47259621D01*
X111978293Y-47304621D01*
X111907768Y-47312792D01*
X111844021Y-47281538D01*
X111823324Y-47257054D01*
X111742822Y-47132617D01*
X111742820Y-47132614D01*
X111740014Y-47128277D01*
X111589670Y-46963051D01*
X111585619Y-46959852D01*
X111585615Y-46959848D01*
X111418414Y-46827800D01*
X111418410Y-46827798D01*
X111414359Y-46824598D01*
X111378028Y-46804542D01*
X111362136Y-46795769D01*
X111218789Y-46716638D01*
X111213920Y-46714914D01*
X111213916Y-46714912D01*
X111013087Y-46643795D01*
X111013083Y-46643794D01*
X111008212Y-46642069D01*
X111003119Y-46641162D01*
X111003116Y-46641161D01*
X110793373Y-46603800D01*
X110793367Y-46603799D01*
X110788284Y-46602894D01*
X110714452Y-46601992D01*
X110570081Y-46600228D01*
X110570079Y-46600228D01*
X110564911Y-46600165D01*
X110344091Y-46633955D01*
X110131756Y-46703357D01*
X109933607Y-46806507D01*
X109929474Y-46809610D01*
X109929471Y-46809612D01*
X109905247Y-46827800D01*
X109754965Y-46940635D01*
X109600629Y-47102138D01*
X109493201Y-47259621D01*
X109438293Y-47304621D01*
X109367768Y-47312792D01*
X109304021Y-47281538D01*
X109283324Y-47257054D01*
X109202822Y-47132617D01*
X109202820Y-47132614D01*
X109200014Y-47128277D01*
X109049670Y-46963051D01*
X109045619Y-46959852D01*
X109045615Y-46959848D01*
X108878414Y-46827800D01*
X108878410Y-46827798D01*
X108874359Y-46824598D01*
X108838028Y-46804542D01*
X108822136Y-46795769D01*
X108678789Y-46716638D01*
X108673920Y-46714914D01*
X108673916Y-46714912D01*
X108473087Y-46643795D01*
X108473083Y-46643794D01*
X108468212Y-46642069D01*
X108463119Y-46641162D01*
X108463116Y-46641161D01*
X108253373Y-46603800D01*
X108253367Y-46603799D01*
X108248284Y-46602894D01*
X108174452Y-46601992D01*
X108030081Y-46600228D01*
X108030079Y-46600228D01*
X108024911Y-46600165D01*
X107804091Y-46633955D01*
X107591756Y-46703357D01*
X107393607Y-46806507D01*
X107389474Y-46809610D01*
X107389471Y-46809612D01*
X107365247Y-46827800D01*
X107214965Y-46940635D01*
X107060629Y-47102138D01*
X106953201Y-47259621D01*
X106898293Y-47304621D01*
X106827768Y-47312792D01*
X106764021Y-47281538D01*
X106743324Y-47257054D01*
X106662822Y-47132617D01*
X106662820Y-47132614D01*
X106660014Y-47128277D01*
X106509670Y-46963051D01*
X106505619Y-46959852D01*
X106505615Y-46959848D01*
X106338414Y-46827800D01*
X106338410Y-46827798D01*
X106334359Y-46824598D01*
X106298028Y-46804542D01*
X106282136Y-46795769D01*
X106138789Y-46716638D01*
X106133920Y-46714914D01*
X106133916Y-46714912D01*
X105933087Y-46643795D01*
X105933083Y-46643794D01*
X105928212Y-46642069D01*
X105923119Y-46641162D01*
X105923116Y-46641161D01*
X105713373Y-46603800D01*
X105713367Y-46603799D01*
X105708284Y-46602894D01*
X105634452Y-46601992D01*
X105490081Y-46600228D01*
X105490079Y-46600228D01*
X105484911Y-46600165D01*
X105264091Y-46633955D01*
X105051756Y-46703357D01*
X104853607Y-46806507D01*
X104849474Y-46809610D01*
X104849471Y-46809612D01*
X104825247Y-46827800D01*
X104674965Y-46940635D01*
X104520629Y-47102138D01*
X104413201Y-47259621D01*
X104358293Y-47304621D01*
X104287768Y-47312792D01*
X104224021Y-47281538D01*
X104203324Y-47257054D01*
X104122822Y-47132617D01*
X104122820Y-47132614D01*
X104120014Y-47128277D01*
X103969670Y-46963051D01*
X103965619Y-46959852D01*
X103965615Y-46959848D01*
X103798414Y-46827800D01*
X103798410Y-46827798D01*
X103794359Y-46824598D01*
X103758028Y-46804542D01*
X103742136Y-46795769D01*
X103598789Y-46716638D01*
X103593920Y-46714914D01*
X103593916Y-46714912D01*
X103393087Y-46643795D01*
X103393083Y-46643794D01*
X103388212Y-46642069D01*
X103383119Y-46641162D01*
X103383116Y-46641161D01*
X103173373Y-46603800D01*
X103173367Y-46603799D01*
X103168284Y-46602894D01*
X103094452Y-46601992D01*
X102950081Y-46600228D01*
X102950079Y-46600228D01*
X102944911Y-46600165D01*
X102724091Y-46633955D01*
X102511756Y-46703357D01*
X102313607Y-46806507D01*
X102309474Y-46809610D01*
X102309471Y-46809612D01*
X102285247Y-46827800D01*
X102134965Y-46940635D01*
X101980629Y-47102138D01*
X101977720Y-47106403D01*
X101977714Y-47106411D01*
X101947173Y-47151182D01*
X101873204Y-47259618D01*
X101872898Y-47260066D01*
X101817987Y-47305069D01*
X101747462Y-47313240D01*
X101683715Y-47281986D01*
X101663018Y-47257502D01*
X101582426Y-47132926D01*
X101576136Y-47124757D01*
X101432806Y-46967240D01*
X101425273Y-46960215D01*
X101258139Y-46828222D01*
X101249552Y-46822517D01*
X101063117Y-46719599D01*
X101053705Y-46715369D01*
X100852959Y-46644280D01*
X100842988Y-46641646D01*
X100771837Y-46628972D01*
X100758540Y-46630432D01*
X100754000Y-46644989D01*
X100754000Y-51839884D01*
X100758475Y-51855123D01*
X100759865Y-51856328D01*
X100767548Y-51857999D01*
X101394669Y-51857999D01*
X101401490Y-51857629D01*
X101452352Y-51852105D01*
X101467604Y-51848479D01*
X101588054Y-51803324D01*
X101603649Y-51794786D01*
X101705724Y-51718285D01*
X101718285Y-51705724D01*
X101794786Y-51603649D01*
X101803324Y-51588054D01*
X101844225Y-51478952D01*
X101886867Y-51422188D01*
X101953428Y-51397488D01*
X102022777Y-51412696D01*
X102057444Y-51440684D01*
X102082865Y-51470031D01*
X102082869Y-51470035D01*
X102086250Y-51473938D01*
X102090225Y-51477238D01*
X102090228Y-51477241D01*
X102185985Y-51556740D01*
X102225620Y-51615643D01*
X102231500Y-51653684D01*
X102231500Y-108685300D01*
X102211498Y-108753421D01*
X102157842Y-108799914D01*
X102105500Y-108811300D01*
X84629414Y-108811300D01*
X84628094Y-108811293D01*
X84627019Y-108811282D01*
X84537979Y-108810349D01*
X84495603Y-108819511D01*
X84483037Y-108821569D01*
X84439945Y-108826403D01*
X84433294Y-108828719D01*
X84433290Y-108828720D01*
X84408270Y-108837433D01*
X84393457Y-108841596D01*
X84360690Y-108848681D01*
X84321387Y-108867008D01*
X84309611Y-108871790D01*
X84268648Y-108886055D01*
X84262673Y-108889789D01*
X84262670Y-108889790D01*
X84240205Y-108903827D01*
X84226688Y-108911166D01*
X84202686Y-108922359D01*
X84196298Y-108925338D01*
X84190733Y-108929655D01*
X84190731Y-108929656D01*
X84162047Y-108951906D01*
X84151588Y-108959202D01*
X84120796Y-108978442D01*
X84120793Y-108978444D01*
X84114824Y-108982174D01*
X84109829Y-108987134D01*
X84109828Y-108987135D01*
X84086021Y-109010776D01*
X84085396Y-109011361D01*
X84084730Y-109011878D01*
X84058740Y-109037868D01*
X83986118Y-109109985D01*
X83985460Y-109111022D01*
X83984357Y-109112251D01*
X77666842Y-115429766D01*
X77665905Y-115430694D01*
X77618503Y-115477114D01*
X77601493Y-115493771D01*
X77578002Y-115530221D01*
X77570583Y-115540546D01*
X77543524Y-115574443D01*
X77540459Y-115580784D01*
X77540458Y-115580785D01*
X77528928Y-115604637D01*
X77521399Y-115618054D01*
X77503235Y-115646238D01*
X77500827Y-115652855D01*
X77500824Y-115652860D01*
X77488408Y-115686973D01*
X77483447Y-115698716D01*
X77467646Y-115731403D01*
X77467644Y-115731408D01*
X77464579Y-115737749D01*
X77462996Y-115744607D01*
X77462995Y-115744609D01*
X77457035Y-115770426D01*
X77452668Y-115785169D01*
X77441197Y-115816685D01*
X77440314Y-115823675D01*
X77440312Y-115823683D01*
X77435762Y-115859701D01*
X77433526Y-115872253D01*
X77423776Y-115914485D01*
X77423751Y-115921531D01*
X77423751Y-115921534D01*
X77423634Y-115955056D01*
X77423605Y-115955938D01*
X77423500Y-115956769D01*
X77423500Y-115993419D01*
X77423499Y-115993859D01*
X77423202Y-116079077D01*
X77423143Y-116095870D01*
X77423411Y-116097070D01*
X77423500Y-116098707D01*
X77423500Y-124576631D01*
X77403498Y-124644752D01*
X77363807Y-124683772D01*
X77307652Y-124718522D01*
X77182695Y-124843697D01*
X77178855Y-124849927D01*
X77178854Y-124849928D01*
X77145339Y-124904300D01*
X77089885Y-124994262D01*
X77087581Y-125001209D01*
X77043402Y-125134406D01*
X77034203Y-125162139D01*
X77033503Y-125168975D01*
X77033502Y-125168978D01*
X77032315Y-125180565D01*
X77023500Y-125266600D01*
X77023500Y-125892400D01*
X77023837Y-125895646D01*
X77023837Y-125895650D01*
X77027298Y-125929000D01*
X77034474Y-125998166D01*
X77090450Y-126165946D01*
X77183522Y-126316348D01*
X77188704Y-126321521D01*
X77270109Y-126402784D01*
X77304188Y-126465066D01*
X77299185Y-126535886D01*
X77270264Y-126580975D01*
X77252628Y-126598642D01*
X77182695Y-126668697D01*
X77178855Y-126674927D01*
X77178854Y-126674928D01*
X77124384Y-126763295D01*
X77089885Y-126819262D01*
X77063436Y-126899005D01*
X77042586Y-126961866D01*
X77034203Y-126987139D01*
X77023500Y-127091600D01*
X77023500Y-127664906D01*
X77003498Y-127733027D01*
X76986595Y-127754001D01*
X74932547Y-129808048D01*
X74924261Y-129815588D01*
X74917782Y-129819700D01*
X74912357Y-129825477D01*
X74871157Y-129869351D01*
X74868402Y-129872193D01*
X74848665Y-129891930D01*
X74846185Y-129895127D01*
X74838482Y-129904147D01*
X74808214Y-129936379D01*
X74804395Y-129943325D01*
X74804393Y-129943328D01*
X74798452Y-129954134D01*
X74787601Y-129970653D01*
X74775186Y-129986659D01*
X74772041Y-129993928D01*
X74772038Y-129993932D01*
X74757626Y-130027237D01*
X74752409Y-130037887D01*
X74731105Y-130076640D01*
X74729134Y-130084315D01*
X74729134Y-130084316D01*
X74726067Y-130096262D01*
X74719663Y-130114966D01*
X74711619Y-130133555D01*
X74710380Y-130141378D01*
X74710377Y-130141388D01*
X74704701Y-130177224D01*
X74702295Y-130188844D01*
X74691300Y-130231670D01*
X74691300Y-130251924D01*
X74689749Y-130271634D01*
X74686580Y-130291643D01*
X74687326Y-130299535D01*
X74690741Y-130335661D01*
X74691300Y-130347519D01*
X74691300Y-135780933D01*
X74690773Y-135792116D01*
X74689098Y-135799609D01*
X74689347Y-135807535D01*
X74689347Y-135807536D01*
X74691238Y-135867686D01*
X74691300Y-135871645D01*
X74691300Y-135899556D01*
X74691797Y-135903490D01*
X74691797Y-135903491D01*
X74691805Y-135903556D01*
X74692738Y-135915393D01*
X74694127Y-135959589D01*
X74699778Y-135979039D01*
X74703787Y-135998400D01*
X74706326Y-136018497D01*
X74709245Y-136025868D01*
X74709245Y-136025870D01*
X74722604Y-136059612D01*
X74726449Y-136070842D01*
X74738782Y-136113293D01*
X74742815Y-136120112D01*
X74742817Y-136120117D01*
X74749093Y-136130728D01*
X74757788Y-136148476D01*
X74765248Y-136167317D01*
X74769910Y-136173733D01*
X74769910Y-136173734D01*
X74791236Y-136203087D01*
X74797752Y-136213007D01*
X74809625Y-136233082D01*
X74820258Y-136251062D01*
X74834579Y-136265383D01*
X74847419Y-136280416D01*
X74859328Y-136296807D01*
X74865434Y-136301858D01*
X74893405Y-136324998D01*
X74902184Y-136332988D01*
X75863492Y-137294296D01*
X75897518Y-137356608D01*
X75892453Y-137427423D01*
X75849906Y-137484259D01*
X75803544Y-137505973D01*
X75797531Y-137507403D01*
X75789684Y-137508255D01*
X75782295Y-137511025D01*
X75782291Y-137511026D01*
X75681320Y-137548879D01*
X75653295Y-137559385D01*
X75536739Y-137646739D01*
X75449385Y-137763295D01*
X75398255Y-137899684D01*
X75391500Y-137961866D01*
X75391500Y-139858134D01*
X75398255Y-139920316D01*
X75449385Y-140056705D01*
X75536739Y-140173261D01*
X75653295Y-140260615D01*
X75789684Y-140311745D01*
X75851866Y-140318500D01*
X78448134Y-140318500D01*
X78510316Y-140311745D01*
X78646705Y-140260615D01*
X78763261Y-140173261D01*
X78850615Y-140056705D01*
X78901745Y-139920316D01*
X78908500Y-139858134D01*
X78908500Y-137961866D01*
X78901745Y-137899684D01*
X78850615Y-137763295D01*
X78763261Y-137646739D01*
X78646705Y-137559385D01*
X78510316Y-137508255D01*
X78448134Y-137501500D01*
X77848078Y-137501500D01*
X77779957Y-137481498D01*
X77736900Y-137430788D01*
X77736020Y-137431308D01*
X77732988Y-137426181D01*
X77732987Y-137426179D01*
X77725705Y-137413866D01*
X77717008Y-137396113D01*
X77712472Y-137384658D01*
X77709552Y-137377283D01*
X77683563Y-137341512D01*
X77677047Y-137331592D01*
X77668138Y-137316528D01*
X77654542Y-137293538D01*
X77640221Y-137279217D01*
X77627380Y-137264183D01*
X77620131Y-137254206D01*
X77615472Y-137247793D01*
X77581395Y-137219602D01*
X77572616Y-137211612D01*
X75995205Y-135634200D01*
X75961179Y-135571888D01*
X75958300Y-135545105D01*
X75958300Y-134644500D01*
X75978302Y-134576379D01*
X76031958Y-134529886D01*
X76084300Y-134518500D01*
X78698134Y-134518500D01*
X78760316Y-134511745D01*
X78896705Y-134460615D01*
X79013261Y-134373261D01*
X79100615Y-134256705D01*
X79151745Y-134120316D01*
X79158500Y-134058134D01*
X79158500Y-132161866D01*
X79151745Y-132099684D01*
X79100615Y-131963295D01*
X79013261Y-131846739D01*
X78896705Y-131759385D01*
X78760316Y-131708255D01*
X78698134Y-131701500D01*
X76084300Y-131701500D01*
X76016179Y-131681498D01*
X75969686Y-131627842D01*
X75958300Y-131575500D01*
X75958300Y-130626294D01*
X75978302Y-130558173D01*
X75995205Y-130537199D01*
X78069999Y-128462405D01*
X78132311Y-128428379D01*
X78159094Y-128425500D01*
X78732400Y-128425500D01*
X78735646Y-128425163D01*
X78735650Y-128425163D01*
X78831308Y-128415238D01*
X78831312Y-128415237D01*
X78838166Y-128414526D01*
X78844702Y-128412345D01*
X78844704Y-128412345D01*
X78976806Y-128368272D01*
X79005946Y-128358550D01*
X79156348Y-128265478D01*
X79281305Y-128140303D01*
X79374115Y-127989738D01*
X79417147Y-127860000D01*
X79427632Y-127828389D01*
X79427632Y-127828387D01*
X79429797Y-127821861D01*
X79431164Y-127808524D01*
X79440172Y-127720598D01*
X79440500Y-127717400D01*
X79440500Y-127091600D01*
X79429526Y-126985834D01*
X79420397Y-126958469D01*
X79375868Y-126825002D01*
X79373550Y-126818054D01*
X79280478Y-126667652D01*
X79193891Y-126581216D01*
X79159812Y-126518934D01*
X79164815Y-126448114D01*
X79193736Y-126403025D01*
X79276134Y-126320483D01*
X79281305Y-126315303D01*
X79298379Y-126287604D01*
X79370275Y-126170968D01*
X79370276Y-126170966D01*
X79374115Y-126164738D01*
X79400564Y-126084995D01*
X79427632Y-126003389D01*
X79427632Y-126003387D01*
X79429797Y-125996861D01*
X79440500Y-125892400D01*
X79440500Y-125266600D01*
X79435344Y-125216908D01*
X79430238Y-125167692D01*
X79430237Y-125167688D01*
X79429526Y-125160834D01*
X79424038Y-125144383D01*
X79375868Y-125000002D01*
X79373550Y-124993054D01*
X79280478Y-124842652D01*
X79155303Y-124717695D01*
X79149075Y-124713856D01*
X79149070Y-124713852D01*
X79100383Y-124683841D01*
X79052890Y-124631069D01*
X79040500Y-124576582D01*
X79040500Y-116395082D01*
X79060502Y-116326961D01*
X79077405Y-116305987D01*
X84918187Y-110465205D01*
X84980499Y-110431179D01*
X85007282Y-110428300D01*
X98226264Y-110428300D01*
X98294385Y-110448302D01*
X98340878Y-110501958D01*
X98350982Y-110572232D01*
X98321488Y-110636812D01*
X98317039Y-110641443D01*
X98312793Y-110644528D01*
X98307740Y-110650636D01*
X98284612Y-110678593D01*
X98276622Y-110687373D01*
X94593747Y-114370248D01*
X94585461Y-114377788D01*
X94578982Y-114381900D01*
X94573557Y-114387677D01*
X94532357Y-114431551D01*
X94529602Y-114434393D01*
X94509865Y-114454130D01*
X94507385Y-114457327D01*
X94499682Y-114466347D01*
X94469414Y-114498579D01*
X94465595Y-114505525D01*
X94465593Y-114505528D01*
X94459652Y-114516334D01*
X94448801Y-114532853D01*
X94436386Y-114548859D01*
X94433241Y-114556128D01*
X94433238Y-114556132D01*
X94418826Y-114589437D01*
X94413609Y-114600087D01*
X94392305Y-114638840D01*
X94390334Y-114646515D01*
X94390334Y-114646516D01*
X94387267Y-114658462D01*
X94380863Y-114677166D01*
X94372819Y-114695755D01*
X94371580Y-114703578D01*
X94371577Y-114703588D01*
X94365901Y-114739424D01*
X94363495Y-114751044D01*
X94352500Y-114793870D01*
X94352500Y-114814124D01*
X94350949Y-114833834D01*
X94347780Y-114853843D01*
X94348526Y-114861735D01*
X94351941Y-114897861D01*
X94352500Y-114909719D01*
X94352500Y-122465233D01*
X94351973Y-122476416D01*
X94350298Y-122483909D01*
X94350547Y-122491835D01*
X94350547Y-122491836D01*
X94352438Y-122551986D01*
X94352500Y-122555945D01*
X94352500Y-122583856D01*
X94352997Y-122587790D01*
X94352997Y-122587791D01*
X94353005Y-122587856D01*
X94353938Y-122599693D01*
X94355327Y-122643889D01*
X94360978Y-122663339D01*
X94364987Y-122682700D01*
X94367526Y-122702797D01*
X94370445Y-122710168D01*
X94370445Y-122710170D01*
X94383804Y-122743912D01*
X94387649Y-122755142D01*
X94399982Y-122797593D01*
X94404015Y-122804412D01*
X94404017Y-122804417D01*
X94410293Y-122815028D01*
X94418988Y-122832776D01*
X94426448Y-122851617D01*
X94431110Y-122858033D01*
X94431110Y-122858034D01*
X94452436Y-122887387D01*
X94458952Y-122897307D01*
X94481458Y-122935362D01*
X94495779Y-122949683D01*
X94508619Y-122964716D01*
X94520528Y-122981107D01*
X94526634Y-122986158D01*
X94554605Y-123009298D01*
X94563384Y-123017288D01*
X94623943Y-123077847D01*
X94631487Y-123086137D01*
X94635600Y-123092618D01*
X94641377Y-123098043D01*
X94685267Y-123139258D01*
X94688109Y-123142013D01*
X94707831Y-123161735D01*
X94710955Y-123164158D01*
X94710959Y-123164162D01*
X94711024Y-123164212D01*
X94720045Y-123171917D01*
X94752279Y-123202186D01*
X94759227Y-123206005D01*
X94759229Y-123206007D01*
X94770032Y-123211946D01*
X94786559Y-123222802D01*
X94796298Y-123230357D01*
X94796300Y-123230358D01*
X94802560Y-123235214D01*
X94843140Y-123252774D01*
X94853782Y-123257988D01*
X94891414Y-123278676D01*
X94941471Y-123329021D01*
X94943051Y-123332486D01*
X94946235Y-123338302D01*
X94949385Y-123346705D01*
X94954765Y-123353884D01*
X94954767Y-123353887D01*
X95008515Y-123425602D01*
X95036739Y-123463261D01*
X95153295Y-123550615D01*
X95289684Y-123601745D01*
X95351866Y-123608500D01*
X96648134Y-123608500D01*
X96710316Y-123601745D01*
X96846705Y-123550615D01*
X96963261Y-123463261D01*
X96973951Y-123448998D01*
X97033505Y-123369535D01*
X97090364Y-123327020D01*
X97134331Y-123319100D01*
X98327004Y-123319100D01*
X98395125Y-123339102D01*
X98441618Y-123392758D01*
X98446527Y-123405223D01*
X98449289Y-123413500D01*
X98463450Y-123455946D01*
X98467301Y-123462170D01*
X98467302Y-123462171D01*
X98510278Y-123531619D01*
X98556522Y-123606348D01*
X98681697Y-123731305D01*
X98687927Y-123735145D01*
X98687928Y-123735146D01*
X98825090Y-123819694D01*
X98832262Y-123824115D01*
X98902947Y-123847560D01*
X98993611Y-123877632D01*
X98993613Y-123877632D01*
X99000139Y-123879797D01*
X99006975Y-123880497D01*
X99006978Y-123880498D01*
X99040096Y-123883891D01*
X99104600Y-123890500D01*
X99730400Y-123890500D01*
X99733646Y-123890163D01*
X99733650Y-123890163D01*
X99829308Y-123880238D01*
X99829312Y-123880237D01*
X99836166Y-123879526D01*
X99842702Y-123877345D01*
X99842704Y-123877345D01*
X99974806Y-123833272D01*
X100003946Y-123823550D01*
X100154348Y-123730478D01*
X100240784Y-123643891D01*
X100303066Y-123609812D01*
X100373886Y-123614815D01*
X100418975Y-123643736D01*
X100450010Y-123674717D01*
X100506697Y-123731305D01*
X100512927Y-123735145D01*
X100512928Y-123735146D01*
X100650090Y-123819694D01*
X100657262Y-123824115D01*
X100727947Y-123847560D01*
X100818611Y-123877632D01*
X100818613Y-123877632D01*
X100825139Y-123879797D01*
X100831975Y-123880497D01*
X100831978Y-123880498D01*
X100865096Y-123883891D01*
X100929600Y-123890500D01*
X101502905Y-123890500D01*
X101571026Y-123910502D01*
X101592000Y-123927405D01*
X101809495Y-124144900D01*
X101843521Y-124207212D01*
X101846400Y-124233995D01*
X101846400Y-131575500D01*
X101826398Y-131643621D01*
X101772742Y-131690114D01*
X101720400Y-131701500D01*
X99101866Y-131701500D01*
X99039684Y-131708255D01*
X98903295Y-131759385D01*
X98786739Y-131846739D01*
X98699385Y-131963295D01*
X98648255Y-132099684D01*
X98641500Y-132161866D01*
X98641500Y-134058134D01*
X98648255Y-134120316D01*
X98699385Y-134256705D01*
X98786739Y-134373261D01*
X98903295Y-134460615D01*
X99039684Y-134511745D01*
X99101866Y-134518500D01*
X101720400Y-134518500D01*
X101788521Y-134538502D01*
X101835014Y-134592158D01*
X101846400Y-134644500D01*
X101846400Y-135540405D01*
X101826398Y-135608526D01*
X101809495Y-135629500D01*
X100257747Y-137181248D01*
X100249461Y-137188788D01*
X100242982Y-137192900D01*
X100237557Y-137198677D01*
X100196357Y-137242551D01*
X100193602Y-137245393D01*
X100173865Y-137265130D01*
X100171385Y-137268327D01*
X100163682Y-137277347D01*
X100133414Y-137309579D01*
X100129595Y-137316525D01*
X100129593Y-137316528D01*
X100123652Y-137327334D01*
X100112801Y-137343853D01*
X100100386Y-137359859D01*
X100097241Y-137367128D01*
X100097238Y-137367132D01*
X100082826Y-137400437D01*
X100077609Y-137411087D01*
X100063803Y-137436201D01*
X100013460Y-137486259D01*
X99953389Y-137501500D01*
X99351866Y-137501500D01*
X99289684Y-137508255D01*
X99153295Y-137559385D01*
X99036739Y-137646739D01*
X98949385Y-137763295D01*
X98898255Y-137899684D01*
X98891500Y-137961866D01*
X98891500Y-139630500D01*
X98871498Y-139698621D01*
X98817842Y-139745114D01*
X98765500Y-139756500D01*
X97675094Y-139756500D01*
X97606973Y-139736498D01*
X97585999Y-139719595D01*
X83795405Y-125929000D01*
X83761379Y-125866688D01*
X83758500Y-125839905D01*
X83758500Y-125266600D01*
X83753344Y-125216908D01*
X83748238Y-125167692D01*
X83748237Y-125167688D01*
X83747526Y-125160834D01*
X83742038Y-125144383D01*
X83693868Y-125000002D01*
X83691550Y-124993054D01*
X83598478Y-124842652D01*
X83473303Y-124717695D01*
X83467069Y-124713852D01*
X83328968Y-124628725D01*
X83328966Y-124628724D01*
X83322738Y-124624885D01*
X83177256Y-124576631D01*
X83161389Y-124571368D01*
X83161387Y-124571368D01*
X83154861Y-124569203D01*
X83148025Y-124568503D01*
X83148022Y-124568502D01*
X83104969Y-124564091D01*
X83050400Y-124558500D01*
X82049600Y-124558500D01*
X82046354Y-124558837D01*
X82046350Y-124558837D01*
X81950692Y-124568762D01*
X81950688Y-124568763D01*
X81943834Y-124569474D01*
X81937298Y-124571655D01*
X81937296Y-124571655D01*
X81805194Y-124615728D01*
X81776054Y-124625450D01*
X81625652Y-124718522D01*
X81500695Y-124843697D01*
X81496855Y-124849927D01*
X81496854Y-124849928D01*
X81463339Y-124904300D01*
X81407885Y-124994262D01*
X81405581Y-125001209D01*
X81361402Y-125134406D01*
X81352203Y-125162139D01*
X81351503Y-125168975D01*
X81351502Y-125168978D01*
X81350315Y-125180565D01*
X81341500Y-125266600D01*
X81341500Y-125892400D01*
X81341837Y-125895646D01*
X81341837Y-125895650D01*
X81345298Y-125929000D01*
X81352474Y-125998166D01*
X81408450Y-126165946D01*
X81501522Y-126316348D01*
X81506704Y-126321521D01*
X81588109Y-126402784D01*
X81622188Y-126465066D01*
X81617185Y-126535886D01*
X81588264Y-126580975D01*
X81570628Y-126598642D01*
X81500695Y-126668697D01*
X81496855Y-126674927D01*
X81496854Y-126674928D01*
X81442384Y-126763295D01*
X81407885Y-126819262D01*
X81381436Y-126899005D01*
X81360586Y-126961866D01*
X81352203Y-126987139D01*
X81341500Y-127091600D01*
X81341500Y-127717400D01*
X81341837Y-127720646D01*
X81341837Y-127720650D01*
X81350955Y-127808524D01*
X81352474Y-127823166D01*
X81354655Y-127829702D01*
X81354655Y-127829704D01*
X81359990Y-127845695D01*
X81408450Y-127990946D01*
X81501522Y-128141348D01*
X81626697Y-128266305D01*
X81632927Y-128270145D01*
X81632928Y-128270146D01*
X81770090Y-128354694D01*
X81777262Y-128359115D01*
X81830168Y-128376663D01*
X81888527Y-128417094D01*
X81915764Y-128482658D01*
X81916500Y-128496256D01*
X81916500Y-133281233D01*
X81915973Y-133292416D01*
X81914298Y-133299909D01*
X81914547Y-133307835D01*
X81914547Y-133307836D01*
X81916438Y-133367986D01*
X81916500Y-133371945D01*
X81916500Y-133399856D01*
X81916997Y-133403790D01*
X81916997Y-133403791D01*
X81917005Y-133403856D01*
X81917938Y-133415693D01*
X81919327Y-133459889D01*
X81924978Y-133479339D01*
X81928987Y-133498700D01*
X81931526Y-133518797D01*
X81934445Y-133526168D01*
X81934445Y-133526170D01*
X81947804Y-133559912D01*
X81951649Y-133571142D01*
X81963982Y-133613593D01*
X81968015Y-133620412D01*
X81968017Y-133620417D01*
X81974293Y-133631028D01*
X81982988Y-133648776D01*
X81990448Y-133667617D01*
X81995110Y-133674033D01*
X81995110Y-133674034D01*
X82016436Y-133703387D01*
X82022953Y-133713309D01*
X82026331Y-133719021D01*
X82043790Y-133787837D01*
X82043140Y-133796766D01*
X82041500Y-133811866D01*
X82041500Y-134626078D01*
X82021498Y-134694199D01*
X81967842Y-134740692D01*
X81897568Y-134750796D01*
X81832988Y-134721302D01*
X81798308Y-134672360D01*
X81773185Y-134608744D01*
X81773184Y-134608742D01*
X81771224Y-134603779D01*
X81760001Y-134585283D01*
X81654390Y-134411243D01*
X81651623Y-134406683D01*
X81564755Y-134306576D01*
X81504023Y-134236588D01*
X81504021Y-134236586D01*
X81500523Y-134232555D01*
X81418784Y-134165533D01*
X81326373Y-134089760D01*
X81326367Y-134089756D01*
X81322245Y-134086376D01*
X81317609Y-134083737D01*
X81317606Y-134083735D01*
X81126529Y-133974968D01*
X81121886Y-133972325D01*
X80905175Y-133893663D01*
X80899926Y-133892714D01*
X80899923Y-133892713D01*
X80682392Y-133853377D01*
X80682385Y-133853376D01*
X80678308Y-133852639D01*
X80660586Y-133851803D01*
X80655644Y-133851570D01*
X80655637Y-133851570D01*
X80654156Y-133851500D01*
X80492110Y-133851500D01*
X80425191Y-133857178D01*
X80325591Y-133865629D01*
X80325587Y-133865630D01*
X80320280Y-133866080D01*
X80315125Y-133867418D01*
X80315119Y-133867419D01*
X80102297Y-133922657D01*
X80102293Y-133922658D01*
X80097128Y-133923999D01*
X80092262Y-133926191D01*
X80092259Y-133926192D01*
X79983980Y-133974968D01*
X79886925Y-134018688D01*
X79695681Y-134147441D01*
X79691824Y-134151120D01*
X79691822Y-134151122D01*
X79639599Y-134200941D01*
X79528865Y-134306576D01*
X79391246Y-134491542D01*
X79388830Y-134496293D01*
X79388828Y-134496297D01*
X79371751Y-134529886D01*
X79286760Y-134697051D01*
X79285178Y-134702145D01*
X79285177Y-134702148D01*
X79264167Y-134769811D01*
X79218393Y-134917227D01*
X79217692Y-134922516D01*
X79189953Y-135131811D01*
X79188102Y-135145774D01*
X79196751Y-135376158D01*
X79244093Y-135601791D01*
X79246051Y-135606750D01*
X79246052Y-135606752D01*
X79322216Y-135799609D01*
X79328776Y-135816221D01*
X79331543Y-135820780D01*
X79331544Y-135820783D01*
X79393998Y-135923703D01*
X79448377Y-136013317D01*
X79451874Y-136017347D01*
X79587031Y-136173102D01*
X79599477Y-136187445D01*
X79624414Y-136207892D01*
X79773627Y-136330240D01*
X79773633Y-136330244D01*
X79777755Y-136333624D01*
X79782391Y-136336263D01*
X79782394Y-136336265D01*
X79891422Y-136398327D01*
X79978114Y-136447675D01*
X80194825Y-136526337D01*
X80200074Y-136527286D01*
X80200077Y-136527287D01*
X80417608Y-136566623D01*
X80417615Y-136566624D01*
X80421692Y-136567361D01*
X80439414Y-136568197D01*
X80444356Y-136568430D01*
X80444363Y-136568430D01*
X80445844Y-136568500D01*
X80607890Y-136568500D01*
X80674809Y-136562822D01*
X80774409Y-136554371D01*
X80774413Y-136554370D01*
X80779720Y-136553920D01*
X80784875Y-136552582D01*
X80784881Y-136552581D01*
X80997703Y-136497343D01*
X80997707Y-136497342D01*
X81002872Y-136496001D01*
X81007738Y-136493809D01*
X81007741Y-136493808D01*
X81208202Y-136403507D01*
X81213075Y-136401312D01*
X81404319Y-136272559D01*
X81411842Y-136265383D01*
X81499646Y-136181621D01*
X81571135Y-136113424D01*
X81576895Y-136105683D01*
X81649010Y-136008757D01*
X81708754Y-135928458D01*
X81712535Y-135921023D01*
X81809537Y-135730232D01*
X81810865Y-135727620D01*
X81859568Y-135675962D01*
X81928468Y-135658836D01*
X81995690Y-135681678D01*
X82039891Y-135737237D01*
X82045764Y-135755577D01*
X82047402Y-135762467D01*
X82048255Y-135770316D01*
X82099385Y-135906705D01*
X82186739Y-136023261D01*
X82303295Y-136110615D01*
X82439684Y-136161745D01*
X82501866Y-136168500D01*
X85398134Y-136168500D01*
X85460316Y-136161745D01*
X85596705Y-136110615D01*
X85713261Y-136023261D01*
X85800615Y-135906705D01*
X85851745Y-135770316D01*
X85858500Y-135708134D01*
X85858500Y-133811866D01*
X85851745Y-133749684D01*
X85800615Y-133613295D01*
X85713261Y-133496739D01*
X85596705Y-133409385D01*
X85460316Y-133358255D01*
X85398134Y-133351500D01*
X83489595Y-133351500D01*
X83421474Y-133331498D01*
X83400500Y-133314595D01*
X83220405Y-133134500D01*
X83186379Y-133072188D01*
X83183500Y-133045405D01*
X83183500Y-128496197D01*
X83203502Y-128428076D01*
X83257158Y-128381583D01*
X83269623Y-128376674D01*
X83317002Y-128360867D01*
X83317004Y-128360866D01*
X83323946Y-128358550D01*
X83474348Y-128265478D01*
X83599305Y-128140303D01*
X83692115Y-127989738D01*
X83720535Y-127904054D01*
X83760966Y-127845695D01*
X83826530Y-127818458D01*
X83896412Y-127830992D01*
X83929223Y-127854627D01*
X90411877Y-134337282D01*
X96856848Y-140782253D01*
X96864388Y-140790539D01*
X96868500Y-140797018D01*
X96874277Y-140802443D01*
X96918151Y-140843643D01*
X96920993Y-140846398D01*
X96940730Y-140866135D01*
X96943927Y-140868615D01*
X96952947Y-140876318D01*
X96985179Y-140906586D01*
X96992125Y-140910405D01*
X96992128Y-140910407D01*
X97002934Y-140916348D01*
X97019453Y-140927199D01*
X97035459Y-140939614D01*
X97042728Y-140942759D01*
X97042732Y-140942762D01*
X97076037Y-140957174D01*
X97086687Y-140962391D01*
X97125440Y-140983695D01*
X97133115Y-140985666D01*
X97133116Y-140985666D01*
X97145062Y-140988733D01*
X97163767Y-140995137D01*
X97182355Y-141003181D01*
X97190178Y-141004420D01*
X97190188Y-141004423D01*
X97226024Y-141010099D01*
X97237644Y-141012505D01*
X97269459Y-141020673D01*
X97280470Y-141023500D01*
X97300724Y-141023500D01*
X97320434Y-141025051D01*
X97340443Y-141028220D01*
X97348335Y-141027474D01*
X97367080Y-141025702D01*
X97384462Y-141024059D01*
X97396319Y-141023500D01*
X102031233Y-141023500D01*
X102042416Y-141024027D01*
X102049909Y-141025702D01*
X102057835Y-141025453D01*
X102057836Y-141025453D01*
X102117986Y-141023562D01*
X102121945Y-141023500D01*
X102149856Y-141023500D01*
X102153791Y-141023003D01*
X102153856Y-141022995D01*
X102165693Y-141022062D01*
X102197951Y-141021048D01*
X102201970Y-141020922D01*
X102209889Y-141020673D01*
X102229343Y-141015021D01*
X102248700Y-141011013D01*
X102260930Y-141009468D01*
X102260931Y-141009468D01*
X102268797Y-141008474D01*
X102276168Y-141005555D01*
X102276170Y-141005555D01*
X102309912Y-140992196D01*
X102321142Y-140988351D01*
X102355983Y-140978229D01*
X102355984Y-140978229D01*
X102363593Y-140976018D01*
X102370412Y-140971985D01*
X102370417Y-140971983D01*
X102381028Y-140965707D01*
X102398776Y-140957012D01*
X102417617Y-140949552D01*
X102443337Y-140930866D01*
X102453387Y-140923564D01*
X102463307Y-140917048D01*
X102494540Y-140898577D01*
X102494542Y-140898575D01*
X102501362Y-140894542D01*
X102505315Y-140890589D01*
X102570432Y-140865020D01*
X102640054Y-140878918D01*
X102691111Y-140928251D01*
X102707391Y-140997356D01*
X102706484Y-141007081D01*
X102694162Y-141100053D01*
X102688102Y-141145774D01*
X102696751Y-141376158D01*
X102744093Y-141601791D01*
X102746051Y-141606750D01*
X102746052Y-141606752D01*
X102824871Y-141806332D01*
X102828776Y-141816221D01*
X102831543Y-141820780D01*
X102831544Y-141820783D01*
X102848920Y-141849418D01*
X102948377Y-142013317D01*
X102951874Y-142017347D01*
X103038438Y-142117103D01*
X103099477Y-142187445D01*
X103103608Y-142190832D01*
X103273627Y-142330240D01*
X103273633Y-142330244D01*
X103277755Y-142333624D01*
X103282391Y-142336263D01*
X103282394Y-142336265D01*
X103391422Y-142398327D01*
X103478114Y-142447675D01*
X103694825Y-142526337D01*
X103700074Y-142527286D01*
X103700077Y-142527287D01*
X103917608Y-142566623D01*
X103917615Y-142566624D01*
X103921692Y-142567361D01*
X103939414Y-142568197D01*
X103944356Y-142568430D01*
X103944363Y-142568430D01*
X103945844Y-142568500D01*
X104107890Y-142568500D01*
X104174809Y-142562822D01*
X104274409Y-142554371D01*
X104274413Y-142554370D01*
X104279720Y-142553920D01*
X104284875Y-142552582D01*
X104284881Y-142552581D01*
X104497703Y-142497343D01*
X104497707Y-142497342D01*
X104502872Y-142496001D01*
X104507738Y-142493809D01*
X104507741Y-142493808D01*
X104708202Y-142403507D01*
X104713075Y-142401312D01*
X104904319Y-142272559D01*
X105071135Y-142113424D01*
X105208754Y-141928458D01*
X105215256Y-141915671D01*
X105303183Y-141742730D01*
X105351886Y-141691072D01*
X105420786Y-141673946D01*
X105488008Y-141696788D01*
X105532209Y-141752347D01*
X105541500Y-141799835D01*
X105541500Y-142608134D01*
X105548255Y-142670316D01*
X105599385Y-142806705D01*
X105686739Y-142923261D01*
X105803295Y-143010615D01*
X105939684Y-143061745D01*
X106001866Y-143068500D01*
X108898134Y-143068500D01*
X108960316Y-143061745D01*
X109096705Y-143010615D01*
X109213261Y-142923261D01*
X109300615Y-142806705D01*
X109351745Y-142670316D01*
X109358500Y-142608134D01*
X109358500Y-142419500D01*
X109378502Y-142351379D01*
X109432158Y-142304886D01*
X109484500Y-142293500D01*
X112415500Y-142293500D01*
X112483621Y-142313502D01*
X112530114Y-142367158D01*
X112541500Y-142419500D01*
X112541500Y-142525400D01*
X112541837Y-142528646D01*
X112541837Y-142528650D01*
X112551618Y-142622914D01*
X112552474Y-142631166D01*
X112554655Y-142637702D01*
X112554655Y-142637704D01*
X112598728Y-142769806D01*
X112608450Y-142798946D01*
X112701522Y-142949348D01*
X112826697Y-143074305D01*
X112832927Y-143078145D01*
X112832928Y-143078146D01*
X112970976Y-143163240D01*
X112977262Y-143167115D01*
X113045044Y-143189597D01*
X113138611Y-143220632D01*
X113138613Y-143220632D01*
X113145139Y-143222797D01*
X113151975Y-143223497D01*
X113151978Y-143223498D01*
X113188024Y-143227191D01*
X113249600Y-143233500D01*
X113850400Y-143233500D01*
X113853646Y-143233163D01*
X113853650Y-143233163D01*
X113949308Y-143223238D01*
X113949312Y-143223237D01*
X113956166Y-143222526D01*
X113962702Y-143220345D01*
X113962704Y-143220345D01*
X114113881Y-143169908D01*
X114123946Y-143166550D01*
X114274348Y-143073478D01*
X114399305Y-142948303D01*
X114402102Y-142943765D01*
X114459353Y-142903176D01*
X114530276Y-142899946D01*
X114591687Y-142935572D01*
X114599062Y-142944068D01*
X114607098Y-142954207D01*
X114721829Y-143068739D01*
X114733240Y-143077751D01*
X114871243Y-143162816D01*
X114884424Y-143168963D01*
X115038710Y-143220138D01*
X115052086Y-143223005D01*
X115146438Y-143232672D01*
X115152854Y-143233000D01*
X115177885Y-143233000D01*
X115193124Y-143228525D01*
X115194329Y-143227135D01*
X115196000Y-143219452D01*
X115196000Y-143214884D01*
X115704000Y-143214884D01*
X115708475Y-143230123D01*
X115709865Y-143231328D01*
X115717548Y-143232999D01*
X115747095Y-143232999D01*
X115753614Y-143232662D01*
X115849206Y-143222743D01*
X115862600Y-143219851D01*
X116016784Y-143168412D01*
X116029962Y-143162239D01*
X116167807Y-143076937D01*
X116179208Y-143067901D01*
X116293739Y-142953171D01*
X116302751Y-142941760D01*
X116387816Y-142803757D01*
X116393963Y-142790576D01*
X116445138Y-142636290D01*
X116448005Y-142622914D01*
X116457672Y-142528562D01*
X116458000Y-142522146D01*
X116458000Y-142272115D01*
X116453525Y-142256876D01*
X116452135Y-142255671D01*
X116444452Y-142254000D01*
X115722115Y-142254000D01*
X115706876Y-142258475D01*
X115705671Y-142259865D01*
X115704000Y-142267548D01*
X115704000Y-143214884D01*
X115196000Y-143214884D01*
X115196000Y-141727885D01*
X115704000Y-141727885D01*
X115708475Y-141743124D01*
X115709865Y-141744329D01*
X115717548Y-141746000D01*
X116439884Y-141746000D01*
X116455123Y-141741525D01*
X116456328Y-141740135D01*
X116457999Y-141732452D01*
X116457999Y-141477905D01*
X116457662Y-141471386D01*
X116447743Y-141375794D01*
X116444851Y-141362400D01*
X116393412Y-141208216D01*
X116387239Y-141195038D01*
X116301937Y-141057193D01*
X116292901Y-141045792D01*
X116178171Y-140931261D01*
X116166760Y-140922249D01*
X116028757Y-140837184D01*
X116015576Y-140831037D01*
X115861290Y-140779862D01*
X115847914Y-140776995D01*
X115753562Y-140767328D01*
X115747145Y-140767000D01*
X115722115Y-140767000D01*
X115706876Y-140771475D01*
X115705671Y-140772865D01*
X115704000Y-140780548D01*
X115704000Y-141727885D01*
X115196000Y-141727885D01*
X115196000Y-140785116D01*
X115191525Y-140769877D01*
X115190135Y-140768672D01*
X115182452Y-140767001D01*
X115152905Y-140767001D01*
X115146386Y-140767338D01*
X115050794Y-140777257D01*
X115037400Y-140780149D01*
X114883216Y-140831588D01*
X114870038Y-140837761D01*
X114732193Y-140923063D01*
X114720792Y-140932099D01*
X114606262Y-141046828D01*
X114599206Y-141055762D01*
X114541288Y-141096823D01*
X114470365Y-141100053D01*
X114408954Y-141064426D01*
X114402154Y-141056593D01*
X114398478Y-141050652D01*
X114273303Y-140925695D01*
X114265883Y-140921121D01*
X114128968Y-140836725D01*
X114128966Y-140836724D01*
X114122738Y-140832885D01*
X114014602Y-140797018D01*
X113961389Y-140779368D01*
X113961387Y-140779368D01*
X113954861Y-140777203D01*
X113948025Y-140776503D01*
X113948022Y-140776502D01*
X113904969Y-140772091D01*
X113850400Y-140766500D01*
X113249600Y-140766500D01*
X113246354Y-140766837D01*
X113246350Y-140766837D01*
X113150692Y-140776762D01*
X113150688Y-140776763D01*
X113143834Y-140777474D01*
X113137298Y-140779655D01*
X113137296Y-140779655D01*
X113030195Y-140815387D01*
X112976054Y-140833450D01*
X112825652Y-140926522D01*
X112763550Y-140988733D01*
X112762766Y-140989518D01*
X112700484Y-141023597D01*
X112673593Y-141026500D01*
X109484500Y-141026500D01*
X109416379Y-141006498D01*
X109369886Y-140952842D01*
X109358500Y-140900500D01*
X109358500Y-140711866D01*
X109351745Y-140649684D01*
X109300615Y-140513295D01*
X109213261Y-140396739D01*
X109096705Y-140309385D01*
X108960316Y-140258255D01*
X108898134Y-140251500D01*
X106001866Y-140251500D01*
X105939684Y-140258255D01*
X105803295Y-140309385D01*
X105686739Y-140396739D01*
X105599385Y-140513295D01*
X105548255Y-140649684D01*
X105547402Y-140657540D01*
X105545575Y-140665222D01*
X105544102Y-140664872D01*
X105520254Y-140722277D01*
X105461894Y-140762707D01*
X105390940Y-140765166D01*
X105329920Y-140728875D01*
X105305036Y-140689395D01*
X105273185Y-140608744D01*
X105273184Y-140608742D01*
X105271224Y-140603779D01*
X105221567Y-140521946D01*
X105154390Y-140411243D01*
X105151623Y-140406683D01*
X105142994Y-140396739D01*
X105004023Y-140236588D01*
X105004021Y-140236586D01*
X105000523Y-140232555D01*
X104958970Y-140198484D01*
X104826373Y-140089760D01*
X104826367Y-140089756D01*
X104822245Y-140086376D01*
X104783115Y-140064102D01*
X104733809Y-140013020D01*
X104719947Y-139943390D01*
X104745930Y-139877319D01*
X104803510Y-139835784D01*
X104845447Y-139828600D01*
X128225500Y-139828600D01*
X128293621Y-139848602D01*
X128340114Y-139902258D01*
X128351500Y-139954600D01*
X128351500Y-141458134D01*
X128358255Y-141520316D01*
X128409385Y-141656705D01*
X128474153Y-141743124D01*
X128482630Y-141754435D01*
X128507478Y-141820941D01*
X128492425Y-141890324D01*
X128482632Y-141905562D01*
X128409385Y-142003295D01*
X128358255Y-142139684D01*
X128351500Y-142201866D01*
X128351500Y-143865500D01*
X128331498Y-143933621D01*
X128277842Y-143980114D01*
X128225500Y-143991500D01*
X65134500Y-143991500D01*
X65066379Y-143971498D01*
X65019886Y-143917842D01*
X65008500Y-143865500D01*
X65008500Y-138478259D01*
X66136587Y-138478259D01*
X66136759Y-138481654D01*
X66136759Y-138481655D01*
X66137090Y-138488193D01*
X66154992Y-138841574D01*
X66155529Y-138844929D01*
X66155530Y-138844935D01*
X66195211Y-139092670D01*
X66212527Y-139200777D01*
X66308519Y-139551664D01*
X66441845Y-139890133D01*
X66458618Y-139922080D01*
X66609362Y-140209206D01*
X66609367Y-140209214D01*
X66610946Y-140212222D01*
X66612840Y-140215040D01*
X66612845Y-140215049D01*
X66731320Y-140391358D01*
X66813843Y-140514165D01*
X67048163Y-140792428D01*
X67135951Y-140876320D01*
X67308702Y-141041405D01*
X67308709Y-141041411D01*
X67311165Y-141043758D01*
X67599771Y-141265214D01*
X67668010Y-141306704D01*
X67907692Y-141452433D01*
X67907697Y-141452436D01*
X67910607Y-141454205D01*
X67913695Y-141455651D01*
X67913694Y-141455651D01*
X68236952Y-141607077D01*
X68236962Y-141607081D01*
X68240036Y-141608521D01*
X68243254Y-141609623D01*
X68243257Y-141609624D01*
X68580981Y-141725253D01*
X68580989Y-141725255D01*
X68584204Y-141726356D01*
X68939084Y-141806332D01*
X68992123Y-141812375D01*
X69297144Y-141847128D01*
X69297152Y-141847128D01*
X69300527Y-141847513D01*
X69303931Y-141847531D01*
X69303934Y-141847531D01*
X69502058Y-141848568D01*
X69664303Y-141849418D01*
X69667689Y-141849068D01*
X69667691Y-141849068D01*
X70022765Y-141812375D01*
X70022774Y-141812374D01*
X70026157Y-141812024D01*
X70029490Y-141811310D01*
X70029493Y-141811309D01*
X70206968Y-141773261D01*
X70381856Y-141735768D01*
X70727239Y-141621544D01*
X70730323Y-141620138D01*
X70730332Y-141620135D01*
X71055171Y-141472096D01*
X71058265Y-141470686D01*
X71167209Y-141406000D01*
X71368128Y-141286704D01*
X71368132Y-141286701D01*
X71371063Y-141284961D01*
X71556442Y-141145774D01*
X79188102Y-141145774D01*
X79196751Y-141376158D01*
X79244093Y-141601791D01*
X79246051Y-141606750D01*
X79246052Y-141606752D01*
X79324871Y-141806332D01*
X79328776Y-141816221D01*
X79331543Y-141820780D01*
X79331544Y-141820783D01*
X79348920Y-141849418D01*
X79448377Y-142013317D01*
X79451874Y-142017347D01*
X79538438Y-142117103D01*
X79599477Y-142187445D01*
X79603608Y-142190832D01*
X79773627Y-142330240D01*
X79773633Y-142330244D01*
X79777755Y-142333624D01*
X79782391Y-142336263D01*
X79782394Y-142336265D01*
X79891422Y-142398327D01*
X79978114Y-142447675D01*
X80194825Y-142526337D01*
X80200074Y-142527286D01*
X80200077Y-142527287D01*
X80417608Y-142566623D01*
X80417615Y-142566624D01*
X80421692Y-142567361D01*
X80439414Y-142568197D01*
X80444356Y-142568430D01*
X80444363Y-142568430D01*
X80445844Y-142568500D01*
X80607890Y-142568500D01*
X80674809Y-142562822D01*
X80774409Y-142554371D01*
X80774413Y-142554370D01*
X80779720Y-142553920D01*
X80784875Y-142552582D01*
X80784881Y-142552581D01*
X80997703Y-142497343D01*
X80997707Y-142497342D01*
X81002872Y-142496001D01*
X81007738Y-142493809D01*
X81007741Y-142493808D01*
X81208202Y-142403507D01*
X81213075Y-142401312D01*
X81404319Y-142272559D01*
X81571135Y-142113424D01*
X81708754Y-141928458D01*
X81715256Y-141915671D01*
X81803684Y-141741745D01*
X81852387Y-141690087D01*
X81921287Y-141672961D01*
X81988509Y-141695803D01*
X82032710Y-141751362D01*
X82042001Y-141798850D01*
X82042001Y-142604669D01*
X82042371Y-142611490D01*
X82047895Y-142662352D01*
X82051521Y-142677604D01*
X82096676Y-142798054D01*
X82105214Y-142813649D01*
X82181715Y-142915724D01*
X82194276Y-142928285D01*
X82296351Y-143004786D01*
X82311946Y-143013324D01*
X82432394Y-143058478D01*
X82447649Y-143062105D01*
X82498514Y-143067631D01*
X82505328Y-143068000D01*
X83677885Y-143068000D01*
X83693124Y-143063525D01*
X83694329Y-143062135D01*
X83696000Y-143054452D01*
X83696000Y-143049884D01*
X84204000Y-143049884D01*
X84208475Y-143065123D01*
X84209865Y-143066328D01*
X84217548Y-143067999D01*
X85394669Y-143067999D01*
X85401490Y-143067629D01*
X85452352Y-143062105D01*
X85467604Y-143058479D01*
X85588054Y-143013324D01*
X85603649Y-143004786D01*
X85705724Y-142928285D01*
X85718285Y-142915724D01*
X85794786Y-142813649D01*
X85803324Y-142798054D01*
X85848478Y-142677606D01*
X85852105Y-142662351D01*
X85857631Y-142611486D01*
X85858000Y-142604672D01*
X85858000Y-141932115D01*
X85853525Y-141916876D01*
X85852135Y-141915671D01*
X85844452Y-141914000D01*
X84222115Y-141914000D01*
X84206876Y-141918475D01*
X84205671Y-141919865D01*
X84204000Y-141927548D01*
X84204000Y-143049884D01*
X83696000Y-143049884D01*
X83696000Y-141387885D01*
X84204000Y-141387885D01*
X84208475Y-141403124D01*
X84209865Y-141404329D01*
X84217548Y-141406000D01*
X85839884Y-141406000D01*
X85855123Y-141401525D01*
X85856328Y-141400135D01*
X85857999Y-141392452D01*
X85857999Y-140715331D01*
X85857629Y-140708510D01*
X85852105Y-140657648D01*
X85848479Y-140642396D01*
X85803324Y-140521946D01*
X85794786Y-140506351D01*
X85718285Y-140404276D01*
X85705724Y-140391715D01*
X85603649Y-140315214D01*
X85588054Y-140306676D01*
X85467606Y-140261522D01*
X85452351Y-140257895D01*
X85401486Y-140252369D01*
X85394672Y-140252000D01*
X84222115Y-140252000D01*
X84206876Y-140256475D01*
X84205671Y-140257865D01*
X84204000Y-140265548D01*
X84204000Y-141387885D01*
X83696000Y-141387885D01*
X83696000Y-140270116D01*
X83691525Y-140254877D01*
X83690135Y-140253672D01*
X83682452Y-140252001D01*
X82505331Y-140252001D01*
X82498510Y-140252371D01*
X82447648Y-140257895D01*
X82432396Y-140261521D01*
X82311946Y-140306676D01*
X82296351Y-140315214D01*
X82194276Y-140391715D01*
X82181715Y-140404276D01*
X82105214Y-140506351D01*
X82096676Y-140521946D01*
X82051522Y-140642394D01*
X82047893Y-140657654D01*
X82047885Y-140657731D01*
X82047862Y-140657787D01*
X82046068Y-140665331D01*
X82044847Y-140665041D01*
X82020639Y-140723291D01*
X81962273Y-140763714D01*
X81891319Y-140766164D01*
X81830303Y-140729865D01*
X81805431Y-140690396D01*
X81773187Y-140608748D01*
X81773184Y-140608742D01*
X81771224Y-140603779D01*
X81721567Y-140521946D01*
X81654390Y-140411243D01*
X81651623Y-140406683D01*
X81642994Y-140396739D01*
X81504023Y-140236588D01*
X81504021Y-140236586D01*
X81500523Y-140232555D01*
X81458970Y-140198484D01*
X81326373Y-140089760D01*
X81326367Y-140089756D01*
X81322245Y-140086376D01*
X81317607Y-140083736D01*
X81317606Y-140083735D01*
X81126529Y-139974968D01*
X81121886Y-139972325D01*
X80905175Y-139893663D01*
X80899926Y-139892714D01*
X80899923Y-139892713D01*
X80682392Y-139853377D01*
X80682385Y-139853376D01*
X80678308Y-139852639D01*
X80660586Y-139851803D01*
X80655644Y-139851570D01*
X80655637Y-139851570D01*
X80654156Y-139851500D01*
X80492110Y-139851500D01*
X80425191Y-139857178D01*
X80325591Y-139865629D01*
X80325587Y-139865630D01*
X80320280Y-139866080D01*
X80315125Y-139867418D01*
X80315119Y-139867419D01*
X80102297Y-139922657D01*
X80102293Y-139922658D01*
X80097128Y-139923999D01*
X80092262Y-139926191D01*
X80092259Y-139926192D01*
X79983980Y-139974968D01*
X79886925Y-140018688D01*
X79695681Y-140147441D01*
X79528865Y-140306576D01*
X79391246Y-140491542D01*
X79388830Y-140496293D01*
X79388828Y-140496297D01*
X79339003Y-140594296D01*
X79286760Y-140697051D01*
X79285178Y-140702145D01*
X79285177Y-140702148D01*
X79245156Y-140831037D01*
X79218393Y-140917227D01*
X79217692Y-140922516D01*
X79194162Y-141100053D01*
X79188102Y-141145774D01*
X71556442Y-141145774D01*
X71661973Y-141066539D01*
X71927592Y-140817977D01*
X72164813Y-140542182D01*
X72318546Y-140318500D01*
X72368931Y-140245190D01*
X72368936Y-140245182D01*
X72370861Y-140242381D01*
X72372473Y-140239387D01*
X72372478Y-140239379D01*
X72541703Y-139925092D01*
X72543325Y-139922080D01*
X72680188Y-139585027D01*
X72779850Y-139235164D01*
X72792100Y-139163500D01*
X72840571Y-138879930D01*
X72840571Y-138879928D01*
X72841143Y-138876583D01*
X72841856Y-138864935D01*
X72863241Y-138515278D01*
X72863351Y-138513481D01*
X72863433Y-138490000D01*
X72843760Y-138126751D01*
X72784972Y-137767752D01*
X72687756Y-137417202D01*
X72686429Y-137413866D01*
X72554508Y-137082365D01*
X72553249Y-137079201D01*
X72522690Y-137021485D01*
X72384624Y-136760723D01*
X72384620Y-136760716D01*
X72383025Y-136757704D01*
X72381118Y-136754888D01*
X72381113Y-136754879D01*
X72180985Y-136459292D01*
X72179075Y-136456471D01*
X71943785Y-136179027D01*
X71704201Y-135951670D01*
X71682375Y-135930958D01*
X71682374Y-135930957D01*
X71679908Y-135928617D01*
X71416062Y-135727620D01*
X71393237Y-135710232D01*
X71393235Y-135710230D01*
X71390530Y-135708170D01*
X71387618Y-135706413D01*
X71387613Y-135706410D01*
X71081951Y-135522023D01*
X71081945Y-135522020D01*
X71079036Y-135520265D01*
X70785871Y-135384182D01*
X70752167Y-135368537D01*
X70752165Y-135368536D01*
X70749071Y-135367100D01*
X70404494Y-135250467D01*
X70395234Y-135248414D01*
X70320485Y-135231843D01*
X70049336Y-135171731D01*
X69872285Y-135152184D01*
X69691133Y-135132184D01*
X69691128Y-135132184D01*
X69687752Y-135131811D01*
X69684353Y-135131805D01*
X69684352Y-135131805D01*
X69512762Y-135131506D01*
X69323972Y-135131176D01*
X69188831Y-135145618D01*
X68965634Y-135169471D01*
X68965628Y-135169472D01*
X68962250Y-135169833D01*
X68606820Y-135247330D01*
X68261838Y-135362759D01*
X68258745Y-135364182D01*
X68258744Y-135364182D01*
X68130067Y-135423367D01*
X67931340Y-135514771D01*
X67928406Y-135516527D01*
X67928404Y-135516528D01*
X67919223Y-135522023D01*
X67619192Y-135701588D01*
X67329046Y-135921023D01*
X67064296Y-136170511D01*
X67062084Y-136173101D01*
X67062083Y-136173102D01*
X66958407Y-136294491D01*
X66828040Y-136447132D01*
X66623040Y-136747651D01*
X66612361Y-136767651D01*
X66460321Y-137052396D01*
X66451694Y-137068552D01*
X66450419Y-137071724D01*
X66450417Y-137071728D01*
X66327586Y-137377283D01*
X66316009Y-137406081D01*
X66315090Y-137409349D01*
X66315088Y-137409356D01*
X66218490Y-137753012D01*
X66217569Y-137756290D01*
X66217007Y-137759647D01*
X66217007Y-137759648D01*
X66164966Y-138070637D01*
X66157528Y-138115082D01*
X66136587Y-138478259D01*
X65008500Y-138478259D01*
X65008500Y-53041745D01*
X67313795Y-53041745D01*
X67313871Y-53042815D01*
X67317055Y-53047648D01*
X67597342Y-53262720D01*
X67602972Y-53266575D01*
X67907929Y-53451992D01*
X67913931Y-53455210D01*
X68237139Y-53606611D01*
X68243444Y-53609159D01*
X68581117Y-53724771D01*
X68587668Y-53726624D01*
X68935838Y-53805087D01*
X68942557Y-53806224D01*
X69297174Y-53846628D01*
X69303964Y-53847031D01*
X69660865Y-53848899D01*
X69667666Y-53848567D01*
X70022686Y-53811880D01*
X70029414Y-53810814D01*
X70378402Y-53735997D01*
X70384950Y-53734218D01*
X70723820Y-53622147D01*
X70730162Y-53619661D01*
X71054921Y-53471660D01*
X71060975Y-53468495D01*
X71367839Y-53286293D01*
X71373520Y-53282490D01*
X71658918Y-53068207D01*
X71664145Y-53063821D01*
X71676988Y-53051803D01*
X71685057Y-53038123D01*
X71685029Y-53037398D01*
X71679887Y-53029097D01*
X69512812Y-50862022D01*
X69498868Y-50854408D01*
X69497035Y-50854539D01*
X69490420Y-50858790D01*
X67321409Y-53027801D01*
X67313795Y-53041745D01*
X65008500Y-53041745D01*
X65008500Y-50481657D01*
X66137260Y-50481657D01*
X66155318Y-50838127D01*
X66156028Y-50844883D01*
X66212478Y-51197305D01*
X66213917Y-51203960D01*
X66308094Y-51548215D01*
X66310243Y-51554676D01*
X66441053Y-51886756D01*
X66443884Y-51892939D01*
X66609792Y-52208949D01*
X66613275Y-52214791D01*
X66812340Y-52511031D01*
X66816442Y-52516475D01*
X66940942Y-52664322D01*
X66953680Y-52672764D01*
X66964124Y-52666666D01*
X69127978Y-50502812D01*
X69134356Y-50491132D01*
X69864408Y-50491132D01*
X69864539Y-50492965D01*
X69868790Y-50499580D01*
X72034463Y-52665253D01*
X72048060Y-52672678D01*
X72057669Y-52665981D01*
X72162197Y-52544457D01*
X72166346Y-52539069D01*
X72368503Y-52244929D01*
X72372050Y-52239118D01*
X72541250Y-51924879D01*
X72544157Y-51918701D01*
X72678435Y-51588016D01*
X72680649Y-51581586D01*
X72733893Y-51394669D01*
X99142001Y-51394669D01*
X99142371Y-51401490D01*
X99147895Y-51452352D01*
X99151521Y-51467604D01*
X99196676Y-51588054D01*
X99205214Y-51603649D01*
X99281715Y-51705724D01*
X99294276Y-51718285D01*
X99396351Y-51794786D01*
X99411946Y-51803324D01*
X99532394Y-51848478D01*
X99547649Y-51852105D01*
X99598514Y-51857631D01*
X99605328Y-51858000D01*
X100227885Y-51858000D01*
X100243124Y-51853525D01*
X100244329Y-51852135D01*
X100246000Y-51844452D01*
X100246000Y-50772115D01*
X100241525Y-50756876D01*
X100240135Y-50755671D01*
X100232452Y-50754000D01*
X99160116Y-50754000D01*
X99144877Y-50758475D01*
X99143672Y-50759865D01*
X99142001Y-50767548D01*
X99142001Y-51394669D01*
X72733893Y-51394669D01*
X72778427Y-51238331D01*
X72779934Y-51231701D01*
X72840073Y-50879873D01*
X72840853Y-50873133D01*
X72862740Y-50515275D01*
X72862856Y-50511673D01*
X72862926Y-50491820D01*
X72862834Y-50488193D01*
X72848736Y-50227885D01*
X99142000Y-50227885D01*
X99146475Y-50243124D01*
X99147865Y-50244329D01*
X99155548Y-50246000D01*
X100227885Y-50246000D01*
X100243124Y-50241525D01*
X100244329Y-50240135D01*
X100246000Y-50232452D01*
X100246000Y-48232115D01*
X100241525Y-48216876D01*
X100240135Y-48215671D01*
X100232452Y-48214000D01*
X99183225Y-48214000D01*
X99169694Y-48217973D01*
X99168257Y-48227966D01*
X99198565Y-48362446D01*
X99201645Y-48372275D01*
X99281770Y-48569603D01*
X99286413Y-48578794D01*
X99397694Y-48760388D01*
X99403777Y-48768699D01*
X99543213Y-48929667D01*
X99550578Y-48936881D01*
X99555966Y-48941354D01*
X99595599Y-49000258D01*
X99597095Y-49071239D01*
X99559978Y-49131761D01*
X99519707Y-49156278D01*
X99411948Y-49196675D01*
X99396351Y-49205214D01*
X99294276Y-49281715D01*
X99281715Y-49294276D01*
X99205214Y-49396351D01*
X99196676Y-49411946D01*
X99151522Y-49532394D01*
X99147895Y-49547649D01*
X99142369Y-49598514D01*
X99142000Y-49605328D01*
X99142000Y-50227885D01*
X72848736Y-50227885D01*
X72843446Y-50130208D01*
X72842711Y-50123442D01*
X72785034Y-49771233D01*
X72783567Y-49764561D01*
X72688194Y-49420655D01*
X72686020Y-49414192D01*
X72554053Y-49082575D01*
X72551197Y-49076395D01*
X72384194Y-48760981D01*
X72380682Y-48755137D01*
X72180588Y-48459598D01*
X72176467Y-48454170D01*
X72059041Y-48315704D01*
X72046215Y-48307267D01*
X72035890Y-48313320D01*
X69872022Y-50477188D01*
X69864408Y-50491132D01*
X69134356Y-50491132D01*
X69135592Y-50488868D01*
X69135461Y-50487035D01*
X69131210Y-50480420D01*
X66965527Y-48314737D01*
X66951990Y-48307345D01*
X66942289Y-48314132D01*
X66830649Y-48444847D01*
X66826515Y-48450255D01*
X66625394Y-48745086D01*
X66621859Y-48750923D01*
X66453754Y-49065757D01*
X66450878Y-49071926D01*
X66317754Y-49403081D01*
X66315561Y-49409521D01*
X66218979Y-49753121D01*
X66217496Y-49759756D01*
X66158589Y-50111773D01*
X66157830Y-50118545D01*
X66137284Y-50474862D01*
X66137260Y-50481657D01*
X65008500Y-50481657D01*
X65008500Y-47941492D01*
X67314580Y-47941492D01*
X67314615Y-47942333D01*
X67319667Y-47950457D01*
X69487188Y-50117978D01*
X69501132Y-50125592D01*
X69502965Y-50125461D01*
X69509580Y-50121210D01*
X71678166Y-47952624D01*
X71685780Y-47938680D01*
X71685712Y-47937723D01*
X71680771Y-47930251D01*
X71676870Y-47926931D01*
X71392958Y-47710649D01*
X71387332Y-47706825D01*
X71366375Y-47694183D01*
X99164389Y-47694183D01*
X99165912Y-47702607D01*
X99178292Y-47706000D01*
X100227885Y-47706000D01*
X100243124Y-47701525D01*
X100244329Y-47700135D01*
X100246000Y-47692452D01*
X100246000Y-46643102D01*
X100242082Y-46629758D01*
X100227806Y-46627771D01*
X100189324Y-46633660D01*
X100179288Y-46636051D01*
X99976868Y-46702212D01*
X99967359Y-46706209D01*
X99778463Y-46804542D01*
X99769738Y-46810036D01*
X99599433Y-46937905D01*
X99591726Y-46944748D01*
X99444590Y-47098717D01*
X99438104Y-47106727D01*
X99318098Y-47282649D01*
X99313000Y-47291623D01*
X99223338Y-47484783D01*
X99219775Y-47494470D01*
X99164389Y-47694183D01*
X71366375Y-47694183D01*
X71081722Y-47522469D01*
X71075710Y-47519272D01*
X70751966Y-47368995D01*
X70745666Y-47366475D01*
X70407595Y-47252045D01*
X70401017Y-47250209D01*
X70052592Y-47172965D01*
X70045857Y-47171850D01*
X69691106Y-47132685D01*
X69684324Y-47132306D01*
X69327395Y-47131683D01*
X69320622Y-47132038D01*
X68965714Y-47169966D01*
X68959005Y-47171053D01*
X68610289Y-47247086D01*
X68603714Y-47248897D01*
X68265250Y-47362145D01*
X68258928Y-47364648D01*
X67934680Y-47513785D01*
X67928637Y-47516971D01*
X67622404Y-47700248D01*
X67616744Y-47704066D01*
X67332094Y-47919346D01*
X67326891Y-47923742D01*
X67322601Y-47927785D01*
X67314580Y-47941492D01*
X65008500Y-47941492D01*
X65008500Y-45134500D01*
X65028502Y-45066379D01*
X65082158Y-45019886D01*
X65134500Y-45008500D01*
X163865500Y-45008500D01*
X163933621Y-45028502D01*
G37*
%TD.AperFunction*%
%TA.AperFunction,Conductor*%
G36*
X102999014Y-110429186D02*
G01*
X103034320Y-110433396D01*
X103041323Y-110432660D01*
X103041324Y-110432660D01*
X103076240Y-110428990D01*
X103089411Y-110428300D01*
X104367618Y-110428300D01*
X104435739Y-110448302D01*
X104456713Y-110465205D01*
X105176252Y-111184744D01*
X105210278Y-111247056D01*
X105213156Y-111274288D01*
X105213134Y-111280464D01*
X105213105Y-111281336D01*
X105213000Y-111282169D01*
X105213000Y-111318819D01*
X105212999Y-111319259D01*
X105212680Y-111410741D01*
X105212643Y-111421270D01*
X105212911Y-111422470D01*
X105213000Y-111424107D01*
X105213000Y-121653172D01*
X105192998Y-121721293D01*
X105176174Y-121742189D01*
X105159695Y-121758697D01*
X105066885Y-121909262D01*
X105011203Y-122077139D01*
X105010503Y-122083975D01*
X105010502Y-122083978D01*
X105006146Y-122126498D01*
X105000500Y-122181600D01*
X105000500Y-123182400D01*
X105000837Y-123185646D01*
X105000837Y-123185650D01*
X105010554Y-123279295D01*
X105011474Y-123288166D01*
X105013655Y-123294702D01*
X105013655Y-123294704D01*
X105050527Y-123405223D01*
X105067450Y-123455946D01*
X105160522Y-123606348D01*
X105285697Y-123731305D01*
X105291927Y-123735145D01*
X105291928Y-123735146D01*
X105429090Y-123819694D01*
X105436262Y-123824115D01*
X105506947Y-123847560D01*
X105597611Y-123877632D01*
X105597613Y-123877632D01*
X105604139Y-123879797D01*
X105610975Y-123880497D01*
X105610978Y-123880498D01*
X105644096Y-123883891D01*
X105708600Y-123890500D01*
X105925318Y-123890500D01*
X105993439Y-123910502D01*
X106014413Y-123927405D01*
X115592166Y-133505158D01*
X115593094Y-133506095D01*
X115645796Y-133559912D01*
X115656171Y-133570507D01*
X115692621Y-133593998D01*
X115702946Y-133601417D01*
X115736843Y-133628476D01*
X115743184Y-133631541D01*
X115743185Y-133631542D01*
X115767037Y-133643072D01*
X115780454Y-133650601D01*
X115808638Y-133668765D01*
X115815255Y-133671173D01*
X115815260Y-133671176D01*
X115849373Y-133683592D01*
X115861116Y-133688553D01*
X115893803Y-133704354D01*
X115893808Y-133704356D01*
X115900149Y-133707421D01*
X115907007Y-133709004D01*
X115907009Y-133709005D01*
X115932826Y-133714965D01*
X115947569Y-133719332D01*
X115979085Y-133730803D01*
X115986075Y-133731686D01*
X115986083Y-133731688D01*
X116022101Y-133736238D01*
X116034653Y-133738474D01*
X116070014Y-133746638D01*
X116070017Y-133746638D01*
X116076885Y-133748224D01*
X116083931Y-133748249D01*
X116083934Y-133748249D01*
X116117456Y-133748366D01*
X116118338Y-133748395D01*
X116119169Y-133748500D01*
X116155819Y-133748500D01*
X116156259Y-133748501D01*
X116254743Y-133748845D01*
X116254748Y-133748845D01*
X116258270Y-133748857D01*
X116259470Y-133748589D01*
X116261107Y-133748500D01*
X128228709Y-133748500D01*
X128296830Y-133768502D01*
X128343323Y-133822158D01*
X128353972Y-133860892D01*
X128358255Y-133900316D01*
X128409385Y-134036705D01*
X128482630Y-134134435D01*
X128507478Y-134200941D01*
X128492425Y-134270324D01*
X128482632Y-134285562D01*
X128409385Y-134383295D01*
X128358255Y-134519684D01*
X128351500Y-134581866D01*
X128351500Y-136378134D01*
X128358255Y-136440316D01*
X128409385Y-136576705D01*
X128414771Y-136583891D01*
X128482942Y-136674852D01*
X128507790Y-136741358D01*
X128492737Y-136810741D01*
X128482942Y-136825982D01*
X128415214Y-136916351D01*
X128406676Y-136931946D01*
X128361522Y-137052394D01*
X128357895Y-137067649D01*
X128352369Y-137118514D01*
X128352000Y-137125328D01*
X128352000Y-137747885D01*
X128356475Y-137763124D01*
X128357865Y-137764329D01*
X128365548Y-137766000D01*
X132849884Y-137766000D01*
X132865123Y-137761525D01*
X132866328Y-137760135D01*
X132867999Y-137752452D01*
X132867999Y-137125331D01*
X132867629Y-137118510D01*
X132862105Y-137067648D01*
X132858479Y-137052396D01*
X132813324Y-136931946D01*
X132804786Y-136916351D01*
X132737058Y-136825982D01*
X132712210Y-136759475D01*
X132727263Y-136690093D01*
X132737058Y-136674852D01*
X132805229Y-136583891D01*
X132810615Y-136576705D01*
X132861745Y-136440316D01*
X132868500Y-136378134D01*
X132868500Y-135577856D01*
X132869578Y-135561409D01*
X132871092Y-135549908D01*
X132871529Y-135546590D01*
X132872264Y-135516528D01*
X132873074Y-135483365D01*
X132873074Y-135483361D01*
X132873156Y-135480000D01*
X132868924Y-135428524D01*
X132868500Y-135418200D01*
X132868500Y-134581866D01*
X132861745Y-134519684D01*
X132810615Y-134383295D01*
X132737370Y-134285564D01*
X132712522Y-134219059D01*
X132727575Y-134149676D01*
X132737370Y-134134435D01*
X132810615Y-134036705D01*
X132861745Y-133900316D01*
X132868500Y-133838134D01*
X132868500Y-133037856D01*
X132869578Y-133021409D01*
X132871092Y-133009908D01*
X132871529Y-133006590D01*
X132872101Y-132983170D01*
X132873074Y-132943365D01*
X132873074Y-132943361D01*
X132873156Y-132940000D01*
X132868924Y-132888524D01*
X132868500Y-132878200D01*
X132868500Y-132424300D01*
X132888502Y-132356179D01*
X132942158Y-132309686D01*
X132994500Y-132298300D01*
X134188506Y-132298300D01*
X134256627Y-132318302D01*
X134277601Y-132335205D01*
X139623800Y-137681405D01*
X139657826Y-137743717D01*
X139652761Y-137814532D01*
X139610214Y-137871368D01*
X139543694Y-137896179D01*
X139534705Y-137896500D01*
X135123963Y-137896500D01*
X135112779Y-137895973D01*
X135105291Y-137894299D01*
X135097368Y-137894548D01*
X135037233Y-137896438D01*
X135033275Y-137896500D01*
X135005344Y-137896500D01*
X135001429Y-137896995D01*
X135001425Y-137896995D01*
X135001367Y-137897003D01*
X135001338Y-137897006D01*
X134989496Y-137897939D01*
X134945310Y-137899327D01*
X134927944Y-137904372D01*
X134925858Y-137904978D01*
X134906506Y-137908986D01*
X134894268Y-137910532D01*
X134894266Y-137910533D01*
X134886403Y-137911526D01*
X134845286Y-137927806D01*
X134834085Y-137931641D01*
X134791606Y-137943982D01*
X134784787Y-137948015D01*
X134784782Y-137948017D01*
X134774171Y-137954293D01*
X134756421Y-137962990D01*
X134737583Y-137970448D01*
X134731167Y-137975109D01*
X134731166Y-137975110D01*
X134701825Y-137996428D01*
X134691901Y-138002947D01*
X134660660Y-138021422D01*
X134660655Y-138021426D01*
X134653837Y-138025458D01*
X134639513Y-138039782D01*
X134624481Y-138052621D01*
X134608093Y-138064528D01*
X134579912Y-138098593D01*
X134571922Y-138107373D01*
X134154600Y-138524695D01*
X134092288Y-138558721D01*
X134065505Y-138561600D01*
X132994000Y-138561600D01*
X132925879Y-138541598D01*
X132879386Y-138487942D01*
X132868000Y-138435600D01*
X132868000Y-138292115D01*
X132863525Y-138276876D01*
X132862135Y-138275671D01*
X132854452Y-138274000D01*
X128370116Y-138274000D01*
X128354877Y-138278475D01*
X128353672Y-138279865D01*
X128352001Y-138287548D01*
X128352001Y-138435600D01*
X128331999Y-138503721D01*
X128278343Y-138550214D01*
X128226001Y-138561600D01*
X103383668Y-138561600D01*
X103372485Y-138561073D01*
X103364992Y-138559398D01*
X103357066Y-138559647D01*
X103357065Y-138559647D01*
X103296902Y-138561538D01*
X103292944Y-138561600D01*
X103265044Y-138561600D01*
X103261054Y-138562104D01*
X103249220Y-138563036D01*
X103205011Y-138564426D01*
X103197397Y-138566638D01*
X103197392Y-138566639D01*
X103185559Y-138570077D01*
X103166196Y-138574088D01*
X103146103Y-138576626D01*
X103138736Y-138579543D01*
X103138731Y-138579544D01*
X103104992Y-138592902D01*
X103093765Y-138596746D01*
X103051307Y-138609082D01*
X103044481Y-138613119D01*
X103033872Y-138619393D01*
X103016124Y-138628088D01*
X102997283Y-138635548D01*
X102990867Y-138640210D01*
X102990866Y-138640210D01*
X102961513Y-138661536D01*
X102951593Y-138668052D01*
X102920365Y-138686520D01*
X102920362Y-138686522D01*
X102913538Y-138690558D01*
X102899217Y-138704879D01*
X102884184Y-138717719D01*
X102867793Y-138729628D01*
X102862742Y-138735734D01*
X102839602Y-138763705D01*
X102831612Y-138772484D01*
X102623595Y-138980501D01*
X102561283Y-139014527D01*
X102490468Y-139009462D01*
X102433632Y-138966915D01*
X102408821Y-138900395D01*
X102408500Y-138891406D01*
X102408500Y-137961866D01*
X102401745Y-137899684D01*
X102350615Y-137763295D01*
X102263261Y-137646739D01*
X102146705Y-137559385D01*
X102118680Y-137548879D01*
X102017709Y-137511026D01*
X102017705Y-137511025D01*
X102010316Y-137508255D01*
X102002469Y-137507403D01*
X101996456Y-137505973D01*
X101934810Y-137470756D01*
X101901990Y-137407800D01*
X101908416Y-137337095D01*
X101936508Y-137294296D01*
X102872147Y-136358657D01*
X102880437Y-136351113D01*
X102886918Y-136347000D01*
X102933559Y-136297332D01*
X102936313Y-136294491D01*
X102956034Y-136274770D01*
X102958512Y-136271575D01*
X102966219Y-136262552D01*
X102983395Y-136244262D01*
X103044609Y-136208297D01*
X103115548Y-136211136D01*
X103155135Y-136233082D01*
X103273627Y-136330240D01*
X103273633Y-136330244D01*
X103277755Y-136333624D01*
X103282391Y-136336263D01*
X103282394Y-136336265D01*
X103391422Y-136398327D01*
X103478114Y-136447675D01*
X103694825Y-136526337D01*
X103700074Y-136527286D01*
X103700077Y-136527287D01*
X103917608Y-136566623D01*
X103917615Y-136566624D01*
X103921692Y-136567361D01*
X103939414Y-136568197D01*
X103944356Y-136568430D01*
X103944363Y-136568430D01*
X103945844Y-136568500D01*
X104107890Y-136568500D01*
X104174809Y-136562822D01*
X104274409Y-136554371D01*
X104274413Y-136554370D01*
X104279720Y-136553920D01*
X104284875Y-136552582D01*
X104284881Y-136552581D01*
X104497703Y-136497343D01*
X104497707Y-136497342D01*
X104502872Y-136496001D01*
X104507738Y-136493809D01*
X104507741Y-136493808D01*
X104708202Y-136403507D01*
X104713075Y-136401312D01*
X104904319Y-136272559D01*
X104911842Y-136265383D01*
X104999646Y-136181621D01*
X105071135Y-136113424D01*
X105076895Y-136105683D01*
X105149010Y-136008757D01*
X105208754Y-135928458D01*
X105212535Y-135921023D01*
X105309537Y-135730232D01*
X105310865Y-135727620D01*
X105359568Y-135675962D01*
X105428468Y-135658836D01*
X105495690Y-135681678D01*
X105539891Y-135737237D01*
X105545764Y-135755577D01*
X105547402Y-135762467D01*
X105548255Y-135770316D01*
X105599385Y-135906705D01*
X105686739Y-136023261D01*
X105803295Y-136110615D01*
X105939684Y-136161745D01*
X106001866Y-136168500D01*
X108898134Y-136168500D01*
X108960316Y-136161745D01*
X109096705Y-136110615D01*
X109213261Y-136023261D01*
X109300615Y-135906705D01*
X109351745Y-135770316D01*
X109358500Y-135708134D01*
X109358500Y-133811866D01*
X109351745Y-133749684D01*
X109300615Y-133613295D01*
X109213261Y-133496739D01*
X109096705Y-133409385D01*
X108960316Y-133358255D01*
X108898134Y-133351500D01*
X106484400Y-133351500D01*
X106416279Y-133331498D01*
X106369786Y-133277842D01*
X106358400Y-133225500D01*
X106358400Y-125643868D01*
X106358927Y-125632685D01*
X106360602Y-125625192D01*
X106359563Y-125592115D01*
X106358462Y-125557102D01*
X106358400Y-125553144D01*
X106358400Y-125525244D01*
X106357896Y-125521253D01*
X106356963Y-125509411D01*
X106355823Y-125473136D01*
X106355574Y-125465211D01*
X106353362Y-125457597D01*
X106353361Y-125457592D01*
X106349923Y-125445759D01*
X106345912Y-125426395D01*
X106344367Y-125414164D01*
X106343374Y-125406303D01*
X106340457Y-125398936D01*
X106340456Y-125398931D01*
X106327098Y-125365192D01*
X106323254Y-125353965D01*
X106313130Y-125319122D01*
X106310918Y-125311507D01*
X106300607Y-125294072D01*
X106291912Y-125276324D01*
X106284452Y-125257483D01*
X106258464Y-125221713D01*
X106251948Y-125211793D01*
X106233480Y-125180565D01*
X106233478Y-125180562D01*
X106229442Y-125173738D01*
X106215121Y-125159417D01*
X106202280Y-125144383D01*
X106195031Y-125134406D01*
X106190372Y-125127993D01*
X106156295Y-125099802D01*
X106147516Y-125091812D01*
X100013452Y-118957747D01*
X100005912Y-118949461D01*
X100001800Y-118942982D01*
X99952148Y-118896356D01*
X99949307Y-118893602D01*
X99929570Y-118873865D01*
X99926373Y-118871385D01*
X99917351Y-118863680D01*
X99890900Y-118838841D01*
X99885121Y-118833414D01*
X99878175Y-118829595D01*
X99878172Y-118829593D01*
X99867366Y-118823652D01*
X99850847Y-118812801D01*
X99850383Y-118812441D01*
X99834841Y-118800386D01*
X99827572Y-118797241D01*
X99827568Y-118797238D01*
X99794263Y-118782826D01*
X99783613Y-118777609D01*
X99744860Y-118756305D01*
X99725237Y-118751267D01*
X99706534Y-118744863D01*
X99695220Y-118739967D01*
X99695219Y-118739967D01*
X99687945Y-118736819D01*
X99680122Y-118735580D01*
X99680112Y-118735577D01*
X99644276Y-118729901D01*
X99632656Y-118727495D01*
X99597511Y-118718472D01*
X99597510Y-118718472D01*
X99589830Y-118716500D01*
X99569576Y-118716500D01*
X99549865Y-118714949D01*
X99537686Y-118713020D01*
X99529857Y-118711780D01*
X99521965Y-118712526D01*
X99485839Y-118715941D01*
X99473981Y-118716500D01*
X98759500Y-118716500D01*
X98691379Y-118696498D01*
X98644886Y-118642842D01*
X98633500Y-118590500D01*
X98633500Y-117635148D01*
X98653502Y-117567027D01*
X98707158Y-117520534D01*
X98777432Y-117510430D01*
X98820008Y-117524628D01*
X98821116Y-117525234D01*
X98828295Y-117530615D01*
X98964684Y-117581745D01*
X99026866Y-117588500D01*
X100683134Y-117588500D01*
X100745316Y-117581745D01*
X100881705Y-117530615D01*
X100998261Y-117443261D01*
X101085615Y-117326705D01*
X101136745Y-117190316D01*
X101143500Y-117128134D01*
X101143500Y-115251866D01*
X101136745Y-115189684D01*
X101085615Y-115053295D01*
X101080230Y-115046110D01*
X101080229Y-115046108D01*
X101042349Y-114995565D01*
X101017501Y-114929058D01*
X101032554Y-114859676D01*
X101042349Y-114844435D01*
X101080229Y-114793892D01*
X101080230Y-114793890D01*
X101085615Y-114786705D01*
X101136745Y-114650316D01*
X101143500Y-114588134D01*
X101143500Y-112711866D01*
X101136745Y-112649684D01*
X101085615Y-112513295D01*
X101042349Y-112455565D01*
X101017501Y-112389058D01*
X101032554Y-112319676D01*
X101042349Y-112304435D01*
X101080229Y-112253892D01*
X101080230Y-112253890D01*
X101085615Y-112246705D01*
X101136745Y-112110316D01*
X101143500Y-112048134D01*
X101143500Y-110554300D01*
X101163502Y-110486179D01*
X101217158Y-110439686D01*
X101269500Y-110428300D01*
X102984095Y-110428300D01*
X102999014Y-110429186D01*
G37*
%TD.AperFunction*%
%TA.AperFunction,Conductor*%
G36*
X109472026Y-51175144D02*
G01*
X109499875Y-51206994D01*
X109559987Y-51305088D01*
X109706250Y-51473938D01*
X109878126Y-51616632D01*
X109964070Y-51666853D01*
X110012794Y-51718491D01*
X110026500Y-51775641D01*
X110026500Y-111089233D01*
X110025973Y-111100416D01*
X110024298Y-111107909D01*
X110024547Y-111115835D01*
X110024547Y-111115836D01*
X110026438Y-111175986D01*
X110026500Y-111179945D01*
X110026500Y-111207856D01*
X110026997Y-111211790D01*
X110026997Y-111211791D01*
X110027005Y-111211856D01*
X110027938Y-111223693D01*
X110029327Y-111267889D01*
X110034978Y-111287339D01*
X110038987Y-111306700D01*
X110041526Y-111326797D01*
X110044445Y-111334168D01*
X110044445Y-111334170D01*
X110057804Y-111367912D01*
X110061649Y-111379142D01*
X110073982Y-111421593D01*
X110078015Y-111428412D01*
X110078017Y-111428417D01*
X110084293Y-111439028D01*
X110092988Y-111456776D01*
X110100448Y-111475617D01*
X110105110Y-111482033D01*
X110105110Y-111482034D01*
X110126436Y-111511387D01*
X110132952Y-111521307D01*
X110155458Y-111559362D01*
X110169779Y-111573683D01*
X110182619Y-111588716D01*
X110194528Y-111605107D01*
X110200634Y-111610158D01*
X110228605Y-111633298D01*
X110237384Y-111641288D01*
X125673148Y-127077053D01*
X125680688Y-127085339D01*
X125684800Y-127091818D01*
X125690577Y-127097243D01*
X125734451Y-127138443D01*
X125737293Y-127141198D01*
X125757030Y-127160935D01*
X125760227Y-127163415D01*
X125769247Y-127171118D01*
X125801479Y-127201386D01*
X125808425Y-127205205D01*
X125808428Y-127205207D01*
X125819234Y-127211148D01*
X125835753Y-127221999D01*
X125851759Y-127234414D01*
X125859028Y-127237559D01*
X125859032Y-127237562D01*
X125892337Y-127251974D01*
X125902987Y-127257191D01*
X125941740Y-127278495D01*
X125949415Y-127280466D01*
X125949416Y-127280466D01*
X125961362Y-127283533D01*
X125980067Y-127289937D01*
X125998655Y-127297981D01*
X126006478Y-127299220D01*
X126006488Y-127299223D01*
X126042324Y-127304899D01*
X126053944Y-127307305D01*
X126089089Y-127316328D01*
X126096770Y-127318300D01*
X126117024Y-127318300D01*
X126136734Y-127319851D01*
X126156743Y-127323020D01*
X126164635Y-127322274D01*
X126200761Y-127318859D01*
X126212619Y-127318300D01*
X128225500Y-127318300D01*
X128293621Y-127338302D01*
X128340114Y-127391958D01*
X128351500Y-127444300D01*
X128351500Y-128758134D01*
X128358255Y-128820316D01*
X128409385Y-128956705D01*
X128414771Y-128963891D01*
X128482630Y-129054435D01*
X128507478Y-129120941D01*
X128492425Y-129190324D01*
X128482632Y-129205562D01*
X128409385Y-129303295D01*
X128358255Y-129439684D01*
X128351500Y-129501866D01*
X128351500Y-130905300D01*
X128331498Y-130973421D01*
X128277842Y-131019914D01*
X128225500Y-131031300D01*
X117143894Y-131031300D01*
X117075773Y-131011298D01*
X117054799Y-130994395D01*
X108904405Y-122844000D01*
X108870379Y-122781688D01*
X108867500Y-122754905D01*
X108867500Y-122181600D01*
X108856526Y-122075834D01*
X108841935Y-122032098D01*
X108802868Y-121915002D01*
X108800550Y-121908054D01*
X108707478Y-121757652D01*
X108582303Y-121632695D01*
X108558777Y-121618193D01*
X108539883Y-121606546D01*
X108492390Y-121553774D01*
X108480000Y-121499287D01*
X108480000Y-117725368D01*
X108480527Y-117714185D01*
X108482202Y-117706692D01*
X108481510Y-117684663D01*
X108481310Y-117678304D01*
X108499163Y-117609589D01*
X108551332Y-117561434D01*
X108563018Y-117556365D01*
X108623297Y-117533767D01*
X108631705Y-117530615D01*
X108748261Y-117443261D01*
X108835615Y-117326705D01*
X108886745Y-117190316D01*
X108893500Y-117128134D01*
X108893500Y-115251866D01*
X108886745Y-115189684D01*
X108835615Y-115053295D01*
X108792036Y-114995148D01*
X108767188Y-114928642D01*
X108782241Y-114859259D01*
X108792036Y-114844018D01*
X108829786Y-114793648D01*
X108838324Y-114778054D01*
X108883478Y-114657606D01*
X108887105Y-114642351D01*
X108892631Y-114591486D01*
X108893000Y-114584672D01*
X108893000Y-113922115D01*
X108888525Y-113906876D01*
X108887135Y-113905671D01*
X108879452Y-113904000D01*
X107477000Y-113904000D01*
X107408879Y-113883998D01*
X107362386Y-113830342D01*
X107351000Y-113778000D01*
X107351000Y-113522000D01*
X107371002Y-113453879D01*
X107424658Y-113407386D01*
X107477000Y-113396000D01*
X108874884Y-113396000D01*
X108890123Y-113391525D01*
X108891328Y-113390135D01*
X108892999Y-113382452D01*
X108892999Y-112715331D01*
X108892629Y-112708510D01*
X108887105Y-112657648D01*
X108883479Y-112642396D01*
X108838324Y-112521946D01*
X108829786Y-112506352D01*
X108782036Y-112442639D01*
X108757188Y-112376133D01*
X108772241Y-112306750D01*
X108782036Y-112291509D01*
X108815615Y-112246705D01*
X108866745Y-112110316D01*
X108873500Y-112048134D01*
X108873500Y-110171866D01*
X108866745Y-110109684D01*
X108815615Y-109973295D01*
X108728261Y-109856739D01*
X108611705Y-109769385D01*
X108475316Y-109718255D01*
X108413134Y-109711500D01*
X106796866Y-109711500D01*
X106734684Y-109718255D01*
X106598295Y-109769385D01*
X106481739Y-109856739D01*
X106421341Y-109937328D01*
X106420368Y-109938626D01*
X106363508Y-109981140D01*
X106292690Y-109986165D01*
X106230447Y-109952155D01*
X105332934Y-109054642D01*
X105332006Y-109053705D01*
X105273857Y-108994325D01*
X105273856Y-108994324D01*
X105268929Y-108989293D01*
X105232479Y-108965802D01*
X105222154Y-108958383D01*
X105188257Y-108931324D01*
X105158062Y-108916727D01*
X105144645Y-108909198D01*
X105116462Y-108891035D01*
X105109845Y-108888627D01*
X105109840Y-108888624D01*
X105075727Y-108876208D01*
X105063984Y-108871247D01*
X105031297Y-108855446D01*
X105031292Y-108855444D01*
X105024951Y-108852379D01*
X105018093Y-108850796D01*
X105018091Y-108850795D01*
X104992274Y-108844835D01*
X104977531Y-108840468D01*
X104946015Y-108828997D01*
X104939025Y-108828114D01*
X104939017Y-108828112D01*
X104902999Y-108823562D01*
X104890447Y-108821326D01*
X104855086Y-108813162D01*
X104855083Y-108813162D01*
X104848215Y-108811576D01*
X104841169Y-108811551D01*
X104841166Y-108811551D01*
X104807644Y-108811434D01*
X104806762Y-108811405D01*
X104805931Y-108811300D01*
X104769281Y-108811300D01*
X104768841Y-108811299D01*
X104670357Y-108810955D01*
X104670352Y-108810955D01*
X104666830Y-108810943D01*
X104665630Y-108811211D01*
X104663993Y-108811300D01*
X103974500Y-108811300D01*
X103906379Y-108791298D01*
X103859886Y-108737642D01*
X103848500Y-108685300D01*
X103848500Y-51656968D01*
X103868502Y-51588847D01*
X103901331Y-51554390D01*
X103915654Y-51544174D01*
X103915661Y-51544168D01*
X103919860Y-51541173D01*
X104078096Y-51383489D01*
X104208453Y-51202077D01*
X104209776Y-51203028D01*
X104256645Y-51159857D01*
X104326580Y-51147625D01*
X104392026Y-51175144D01*
X104419875Y-51206994D01*
X104479987Y-51305088D01*
X104626250Y-51473938D01*
X104798126Y-51616632D01*
X104991000Y-51729338D01*
X105199692Y-51809030D01*
X105204760Y-51810061D01*
X105204763Y-51810062D01*
X105286252Y-51826641D01*
X105418597Y-51853567D01*
X105423772Y-51853757D01*
X105423774Y-51853757D01*
X105636673Y-51861564D01*
X105636677Y-51861564D01*
X105641837Y-51861753D01*
X105646957Y-51861097D01*
X105646959Y-51861097D01*
X105858288Y-51834025D01*
X105858289Y-51834025D01*
X105863416Y-51833368D01*
X105868366Y-51831883D01*
X106072429Y-51770661D01*
X106072434Y-51770659D01*
X106077384Y-51769174D01*
X106277994Y-51670896D01*
X106459860Y-51541173D01*
X106618096Y-51383489D01*
X106748453Y-51202077D01*
X106749776Y-51203028D01*
X106796645Y-51159857D01*
X106866580Y-51147625D01*
X106932026Y-51175144D01*
X106959875Y-51206994D01*
X107019987Y-51305088D01*
X107166250Y-51473938D01*
X107338126Y-51616632D01*
X107531000Y-51729338D01*
X107739692Y-51809030D01*
X107744760Y-51810061D01*
X107744763Y-51810062D01*
X107826252Y-51826641D01*
X107958597Y-51853567D01*
X107963772Y-51853757D01*
X107963774Y-51853757D01*
X108176673Y-51861564D01*
X108176677Y-51861564D01*
X108181837Y-51861753D01*
X108186957Y-51861097D01*
X108186959Y-51861097D01*
X108398288Y-51834025D01*
X108398289Y-51834025D01*
X108403416Y-51833368D01*
X108408366Y-51831883D01*
X108612429Y-51770661D01*
X108612434Y-51770659D01*
X108617384Y-51769174D01*
X108817994Y-51670896D01*
X108999860Y-51541173D01*
X109158096Y-51383489D01*
X109288453Y-51202077D01*
X109289776Y-51203028D01*
X109336645Y-51159857D01*
X109406580Y-51147625D01*
X109472026Y-51175144D01*
G37*
%TD.AperFunction*%
%TA.AperFunction,Conductor*%
G36*
X128294121Y-124798302D02*
G01*
X128340614Y-124851958D01*
X128352000Y-124904300D01*
X128352000Y-125047885D01*
X128356475Y-125063124D01*
X128357865Y-125064329D01*
X128365548Y-125066000D01*
X132849884Y-125066000D01*
X132865123Y-125061525D01*
X132866328Y-125060135D01*
X132867999Y-125052452D01*
X132867999Y-124904300D01*
X132888001Y-124836179D01*
X132941657Y-124789686D01*
X132993999Y-124778300D01*
X139630206Y-124778300D01*
X139698327Y-124798302D01*
X139719301Y-124815205D01*
X140740301Y-125836205D01*
X140774327Y-125898517D01*
X140769262Y-125969332D01*
X140726715Y-126026168D01*
X140660195Y-126050979D01*
X140651206Y-126051300D01*
X132994000Y-126051300D01*
X132925879Y-126031298D01*
X132879386Y-125977642D01*
X132868000Y-125925300D01*
X132868000Y-125592115D01*
X132863525Y-125576876D01*
X132862135Y-125575671D01*
X132854452Y-125574000D01*
X128370116Y-125574000D01*
X128354877Y-125578475D01*
X128353672Y-125579865D01*
X128352001Y-125587548D01*
X128352001Y-125925300D01*
X128331999Y-125993421D01*
X128278343Y-126039914D01*
X128226001Y-126051300D01*
X126491394Y-126051300D01*
X126423273Y-126031298D01*
X126402299Y-126014395D01*
X125381300Y-124993395D01*
X125347274Y-124931083D01*
X125352339Y-124860267D01*
X125394886Y-124803432D01*
X125461406Y-124778621D01*
X125470395Y-124778300D01*
X128226000Y-124778300D01*
X128294121Y-124798302D01*
G37*
%TD.AperFunction*%
%TD*%
M02*
