%TF.GenerationSoftware,KiCad,Pcbnew,(6.0.7)*%
%TF.CreationDate,2022-08-05T22:04:18-07:00*%
%TF.ProjectId,d70-buddy-main-board,6437302d-6275-4646-9479-2d6d61696e2d,rev?*%
%TF.SameCoordinates,Original*%
%TF.FileFunction,Other,Comment*%
%FSLAX46Y46*%
G04 Gerber Fmt 4.6, Leading zero omitted, Abs format (unit mm)*
G04 Created by KiCad (PCBNEW (6.0.7)) date 2022-08-05 22:04:18*
%MOMM*%
%LPD*%
G01*
G04 APERTURE LIST*
%ADD10C,0.150000*%
G04 APERTURE END LIST*
D10*
%TO.C,U2*%
X126299999Y-149527142D02*
X126252380Y-149574761D01*
X126109523Y-149622380D01*
X126014285Y-149622380D01*
X125871428Y-149574761D01*
X125776190Y-149479523D01*
X125728571Y-149384285D01*
X125680952Y-149193809D01*
X125680952Y-149050952D01*
X125728571Y-148860476D01*
X125776190Y-148765238D01*
X125871428Y-148670000D01*
X126014285Y-148622380D01*
X126109523Y-148622380D01*
X126252380Y-148670000D01*
X126299999Y-148717619D01*
X126871428Y-149622380D02*
X126776190Y-149574761D01*
X126728571Y-149527142D01*
X126680952Y-149431904D01*
X126680952Y-149146190D01*
X126728571Y-149050952D01*
X126776190Y-149003333D01*
X126871428Y-148955714D01*
X127014285Y-148955714D01*
X127109523Y-149003333D01*
X127157142Y-149050952D01*
X127204761Y-149146190D01*
X127204761Y-149431904D01*
X127157142Y-149527142D01*
X127109523Y-149574761D01*
X127014285Y-149622380D01*
X126871428Y-149622380D01*
X127633333Y-148955714D02*
X127633333Y-149955714D01*
X127633333Y-149003333D02*
X127728571Y-148955714D01*
X127919047Y-148955714D01*
X128014285Y-149003333D01*
X128061904Y-149050952D01*
X128109523Y-149146190D01*
X128109523Y-149431904D01*
X128061904Y-149527142D01*
X128014285Y-149574761D01*
X127919047Y-149622380D01*
X127728571Y-149622380D01*
X127633333Y-149574761D01*
X128538095Y-148955714D02*
X128538095Y-149955714D01*
X128538095Y-149003333D02*
X128633333Y-148955714D01*
X128823809Y-148955714D01*
X128919047Y-149003333D01*
X128966666Y-149050952D01*
X129014285Y-149146190D01*
X129014285Y-149431904D01*
X128966666Y-149527142D01*
X128919047Y-149574761D01*
X128823809Y-149622380D01*
X128633333Y-149622380D01*
X128538095Y-149574761D01*
X129823809Y-149574761D02*
X129728571Y-149622380D01*
X129538095Y-149622380D01*
X129442857Y-149574761D01*
X129395238Y-149479523D01*
X129395238Y-149098571D01*
X129442857Y-149003333D01*
X129538095Y-148955714D01*
X129728571Y-148955714D01*
X129823809Y-149003333D01*
X129871428Y-149098571D01*
X129871428Y-149193809D01*
X129395238Y-149289047D01*
X130299999Y-149622380D02*
X130299999Y-148955714D01*
X130299999Y-149146190D02*
X130347619Y-149050952D01*
X130395238Y-149003333D01*
X130490476Y-148955714D01*
X130585714Y-148955714D01*
X131680952Y-149622380D02*
X131680952Y-148622380D01*
X132252380Y-149622380D02*
X131823809Y-149050952D01*
X132252380Y-148622380D02*
X131680952Y-149193809D01*
X133061904Y-149574761D02*
X132966666Y-149622380D01*
X132776190Y-149622380D01*
X132680952Y-149574761D01*
X132633333Y-149479523D01*
X132633333Y-149098571D01*
X132680952Y-149003333D01*
X132776190Y-148955714D01*
X132966666Y-148955714D01*
X133061904Y-149003333D01*
X133109523Y-149098571D01*
X133109523Y-149193809D01*
X132633333Y-149289047D01*
X133919047Y-149574761D02*
X133823809Y-149622380D01*
X133633333Y-149622380D01*
X133538095Y-149574761D01*
X133490476Y-149479523D01*
X133490476Y-149098571D01*
X133538095Y-149003333D01*
X133633333Y-148955714D01*
X133823809Y-148955714D01*
X133919047Y-149003333D01*
X133966666Y-149098571D01*
X133966666Y-149193809D01*
X133490476Y-149289047D01*
X134395238Y-148955714D02*
X134395238Y-149955714D01*
X134395238Y-149003333D02*
X134490476Y-148955714D01*
X134680952Y-148955714D01*
X134776190Y-149003333D01*
X134823809Y-149050952D01*
X134871428Y-149146190D01*
X134871428Y-149431904D01*
X134823809Y-149527142D01*
X134776190Y-149574761D01*
X134680952Y-149622380D01*
X134490476Y-149622380D01*
X134395238Y-149574761D01*
X135442857Y-149622380D02*
X135347619Y-149574761D01*
X135300000Y-149527142D01*
X135252380Y-149431904D01*
X135252380Y-149146190D01*
X135300000Y-149050952D01*
X135347619Y-149003333D01*
X135442857Y-148955714D01*
X135585714Y-148955714D01*
X135680952Y-149003333D01*
X135728571Y-149050952D01*
X135776190Y-149146190D01*
X135776190Y-149431904D01*
X135728571Y-149527142D01*
X135680952Y-149574761D01*
X135585714Y-149622380D01*
X135442857Y-149622380D01*
X136633333Y-148955714D02*
X136633333Y-149622380D01*
X136204761Y-148955714D02*
X136204761Y-149479523D01*
X136252380Y-149574761D01*
X136347619Y-149622380D01*
X136490476Y-149622380D01*
X136585714Y-149574761D01*
X136633333Y-149527142D01*
X136966666Y-148955714D02*
X137347619Y-148955714D01*
X137109523Y-148622380D02*
X137109523Y-149479523D01*
X137157142Y-149574761D01*
X137252380Y-149622380D01*
X137347619Y-149622380D01*
X137633333Y-149574761D02*
X137728571Y-149622380D01*
X137919047Y-149622380D01*
X138014285Y-149574761D01*
X138061904Y-149479523D01*
X138061904Y-149431904D01*
X138014285Y-149336666D01*
X137919047Y-149289047D01*
X137776190Y-149289047D01*
X137680952Y-149241428D01*
X137633333Y-149146190D01*
X137633333Y-149098571D01*
X137680952Y-149003333D01*
X137776190Y-148955714D01*
X137919047Y-148955714D01*
X138014285Y-149003333D01*
X139204761Y-149574761D02*
X139300000Y-149622380D01*
X139490476Y-149622380D01*
X139585714Y-149574761D01*
X139633333Y-149479523D01*
X139633333Y-149431904D01*
X139585714Y-149336666D01*
X139490476Y-149289047D01*
X139347619Y-149289047D01*
X139252380Y-149241428D01*
X139204761Y-149146190D01*
X139204761Y-149098571D01*
X139252380Y-149003333D01*
X139347619Y-148955714D01*
X139490476Y-148955714D01*
X139585714Y-149003333D01*
X140061904Y-149622380D02*
X140061904Y-148622380D01*
X140490476Y-149622380D02*
X140490476Y-149098571D01*
X140442857Y-149003333D01*
X140347619Y-148955714D01*
X140204761Y-148955714D01*
X140109523Y-149003333D01*
X140061904Y-149050952D01*
X141109523Y-149622380D02*
X141014285Y-149574761D01*
X140966666Y-149527142D01*
X140919047Y-149431904D01*
X140919047Y-149146190D01*
X140966666Y-149050952D01*
X141014285Y-149003333D01*
X141109523Y-148955714D01*
X141252380Y-148955714D01*
X141347619Y-149003333D01*
X141395238Y-149050952D01*
X141442857Y-149146190D01*
X141442857Y-149431904D01*
X141395238Y-149527142D01*
X141347619Y-149574761D01*
X141252380Y-149622380D01*
X141109523Y-149622380D01*
X141776190Y-148955714D02*
X141966666Y-149622380D01*
X142157142Y-149146190D01*
X142347619Y-149622380D01*
X142538095Y-148955714D01*
X142919047Y-148955714D02*
X142919047Y-149622380D01*
X142919047Y-149050952D02*
X142966666Y-149003333D01*
X143061904Y-148955714D01*
X143204761Y-148955714D01*
X143300000Y-149003333D01*
X143347619Y-149098571D01*
X143347619Y-149622380D01*
X144728571Y-149622380D02*
X144633333Y-149574761D01*
X144585714Y-149527142D01*
X144538095Y-149431904D01*
X144538095Y-149146190D01*
X144585714Y-149050952D01*
X144633333Y-149003333D01*
X144728571Y-148955714D01*
X144871428Y-148955714D01*
X144966666Y-149003333D01*
X145014285Y-149050952D01*
X145061904Y-149146190D01*
X145061904Y-149431904D01*
X145014285Y-149527142D01*
X144966666Y-149574761D01*
X144871428Y-149622380D01*
X144728571Y-149622380D01*
X145490476Y-148955714D02*
X145490476Y-149622380D01*
X145490476Y-149050952D02*
X145538095Y-149003333D01*
X145633333Y-148955714D01*
X145776190Y-148955714D01*
X145871428Y-149003333D01*
X145919047Y-149098571D01*
X145919047Y-149622380D01*
X147157142Y-149622380D02*
X147157142Y-148622380D01*
X147395238Y-148622380D01*
X147538095Y-148670000D01*
X147633333Y-148765238D01*
X147680952Y-148860476D01*
X147728571Y-149050952D01*
X147728571Y-149193809D01*
X147680952Y-149384285D01*
X147633333Y-149479523D01*
X147538095Y-149574761D01*
X147395238Y-149622380D01*
X147157142Y-149622380D01*
X148061904Y-148955714D02*
X148252380Y-149622380D01*
X148442857Y-149146190D01*
X148633333Y-149622380D01*
X148823809Y-148955714D01*
X149633333Y-148955714D02*
X149633333Y-149765238D01*
X149585714Y-149860476D01*
X149538095Y-149908095D01*
X149442857Y-149955714D01*
X149299999Y-149955714D01*
X149204761Y-149908095D01*
X149633333Y-149574761D02*
X149538095Y-149622380D01*
X149347619Y-149622380D01*
X149252380Y-149574761D01*
X149204761Y-149527142D01*
X149157142Y-149431904D01*
X149157142Y-149146190D01*
X149204761Y-149050952D01*
X149252380Y-149003333D01*
X149347619Y-148955714D01*
X149538095Y-148955714D01*
X149633333Y-149003333D01*
X150061904Y-149574761D02*
X150157142Y-149622380D01*
X150347619Y-149622380D01*
X150442857Y-149574761D01*
X150490476Y-149479523D01*
X150490476Y-149431904D01*
X150442857Y-149336666D01*
X150347619Y-149289047D01*
X150204761Y-149289047D01*
X150109523Y-149241428D01*
X150061904Y-149146190D01*
X150061904Y-149098571D01*
X150109523Y-149003333D01*
X150204761Y-148955714D01*
X150347619Y-148955714D01*
X150442857Y-149003333D01*
X151823809Y-149622380D02*
X151728571Y-149574761D01*
X151680952Y-149479523D01*
X151680952Y-148622380D01*
X152633333Y-149622380D02*
X152633333Y-149098571D01*
X152585714Y-149003333D01*
X152490476Y-148955714D01*
X152299999Y-148955714D01*
X152204761Y-149003333D01*
X152633333Y-149574761D02*
X152538095Y-149622380D01*
X152299999Y-149622380D01*
X152204761Y-149574761D01*
X152157142Y-149479523D01*
X152157142Y-149384285D01*
X152204761Y-149289047D01*
X152299999Y-149241428D01*
X152538095Y-149241428D01*
X152633333Y-149193809D01*
X153014285Y-148955714D02*
X153252380Y-149622380D01*
X153490476Y-148955714D02*
X153252380Y-149622380D01*
X153157142Y-149860476D01*
X153109523Y-149908095D01*
X153014285Y-149955714D01*
X154252380Y-149574761D02*
X154157142Y-149622380D01*
X153966666Y-149622380D01*
X153871428Y-149574761D01*
X153823809Y-149479523D01*
X153823809Y-149098571D01*
X153871428Y-149003333D01*
X153966666Y-148955714D01*
X154157142Y-148955714D01*
X154252380Y-149003333D01*
X154299999Y-149098571D01*
X154299999Y-149193809D01*
X153823809Y-149289047D01*
X154728571Y-149622380D02*
X154728571Y-148955714D01*
X154728571Y-149146190D02*
X154776190Y-149050952D01*
X154823809Y-149003333D01*
X154919047Y-148955714D01*
X155014285Y-148955714D01*
%TO.C,H1*%
X72350000Y-50490000D02*
G75*
G03*
X72350000Y-50490000I-2850000J0D01*
G01*
%TO.C,H2*%
X162350000Y-50510000D02*
G75*
G03*
X162350000Y-50510000I-2850000J0D01*
G01*
%TO.C,H4*%
X162350000Y-138510000D02*
G75*
G03*
X162350000Y-138510000I-2850000J0D01*
G01*
%TO.C,H3*%
X72350000Y-138490000D02*
G75*
G03*
X72350000Y-138490000I-2850000J0D01*
G01*
%TO.C,J1*%
G36*
X104700000Y-145600000D02*
G01*
X104400000Y-145600000D01*
X104400000Y-147500000D01*
X103600000Y-147500000D01*
X103600000Y-145600000D01*
X103300000Y-145600000D01*
X104000000Y-144900000D01*
X104700000Y-145600000D01*
G37*
%TO.C,J2*%
G36*
X81200000Y-145600000D02*
G01*
X80900000Y-145600000D01*
X80900000Y-147500000D01*
X80100000Y-147500000D01*
X80100000Y-145600000D01*
X79800000Y-145600000D01*
X80500000Y-144900000D01*
X81200000Y-145600000D01*
G37*
%TD*%
M02*
