M48
; DRILL file {KiCad (6.0.7)} date Fri Aug  5 22:04:18 2022
; FORMAT={-:-/ absolute / inch / decimal}
; #@! TF.CreationDate,2022-08-05T22:04:18-07:00
; #@! TF.GenerationSoftware,Kicad,Pcbnew,(6.0.7)
; #@! TF.FileFunction,Plated,1,2,PTH
FMAT,2
INCH
; #@! TA.AperFunction,Plated,PTH,ViaDrill
T1C0.0157
; #@! TA.AperFunction,Plated,PTH,ComponentDrill
T2C0.0394
; #@! TA.AperFunction,Plated,PTH,ComponentDrill
T3C0.0402
; #@! TA.AperFunction,Plated,PTH,ComponentDrill
T4C0.1260
%
G90
G05
T1
X3.4252Y-5.5906
X4.3268Y-4.489
X5.0012Y-5.4252
T2
X3.9567Y-1.8882
X3.9567Y-1.9882
X4.0567Y-1.8882
X4.0567Y-1.9882
X4.1567Y-1.8882
X4.1567Y-1.9882
X4.2567Y-1.8882
X4.2567Y-1.9882
X4.3567Y-1.8882
X4.3567Y-1.9882
X4.4567Y-1.8882
X4.4567Y-1.9882
X4.5567Y-1.8882
X4.5567Y-1.9882
X4.6567Y-1.8882
X4.6567Y-1.9882
X4.7567Y-1.8882
X4.7567Y-1.9882
X4.8567Y-1.8882
X4.8567Y-1.9882
X4.9567Y-1.8882
X4.9567Y-1.9882
X5.0567Y-1.8882
X5.0567Y-1.9882
T3
X5.1776Y-3.7339
X5.1776Y-3.8339
X5.1776Y-3.9339
X5.1776Y-4.0339
X5.1776Y-4.1339
X5.1776Y-4.2339
X5.1776Y-4.3339
X5.1776Y-4.4339
X5.1776Y-4.5339
X5.1776Y-4.6339
X5.1776Y-4.7339
X5.1776Y-4.8339
X5.1776Y-4.9339
X5.1776Y-5.0339
X5.1776Y-5.1339
X5.1776Y-5.2339
X5.1776Y-5.3339
X5.1776Y-5.4339
X5.1776Y-5.5339
X5.1776Y-5.6339
X5.4276Y-3.7429
X5.5276Y-3.7429
X5.6276Y-3.7429
X5.8776Y-3.7339
X5.8776Y-3.8339
X5.8776Y-3.9339
X5.8776Y-4.0339
X5.8776Y-4.1339
X5.8776Y-4.2339
X5.8776Y-4.3339
X5.8776Y-4.4339
X5.8776Y-4.5339
X5.8776Y-4.6339
X5.8776Y-4.7339
X5.8776Y-4.8339
X5.8776Y-4.9339
X5.8776Y-5.0339
X5.8776Y-5.1339
X5.8776Y-5.2339
X5.8776Y-5.3339
X5.8776Y-5.4339
X5.8776Y-5.5339
X5.8776Y-5.6339
T4
X2.7362Y-1.9878
X2.7362Y-5.4524
X6.2795Y-1.9886
X6.2795Y-5.4531
T0
M30
