%TF.GenerationSoftware,KiCad,Pcbnew,(6.0.7)*%
%TF.CreationDate,2022-08-05T22:04:18-07:00*%
%TF.ProjectId,d70-buddy-main-board,6437302d-6275-4646-9479-2d6d61696e2d,rev?*%
%TF.SameCoordinates,Original*%
%TF.FileFunction,Soldermask,Bot*%
%TF.FilePolarity,Negative*%
%FSLAX46Y46*%
G04 Gerber Fmt 4.6, Leading zero omitted, Abs format (unit mm)*
G04 Created by KiCad (PCBNEW (6.0.7)) date 2022-08-05 22:04:18*
%MOMM*%
%LPD*%
G01*
G04 APERTURE LIST*
%ADD10C,5.700000*%
%ADD11R,1.700000X1.700000*%
%ADD12O,1.700000X1.700000*%
%ADD13O,1.800000X1.800000*%
%ADD14O,1.500000X1.500000*%
%ADD15C,1.700000*%
%ADD16C,0.800000*%
G04 APERTURE END LIST*
D10*
%TO.C,H1*%
X69500000Y-50490000D03*
%TD*%
%TO.C,H2*%
X159500000Y-50510000D03*
%TD*%
%TO.C,H4*%
X159500000Y-138510000D03*
%TD*%
%TO.C,H3*%
X69500000Y-138490000D03*
%TD*%
D11*
%TO.C,J3*%
X100500000Y-50500000D03*
D12*
X100500000Y-47960000D03*
X103040000Y-50500000D03*
X103040000Y-47960000D03*
X105580000Y-50500000D03*
X105580000Y-47960000D03*
X108120000Y-50500000D03*
X108120000Y-47960000D03*
X110660000Y-50500000D03*
X110660000Y-47960000D03*
X113200000Y-50500000D03*
X113200000Y-47960000D03*
X115740000Y-50500000D03*
X115740000Y-47960000D03*
X118280000Y-50500000D03*
X118280000Y-47960000D03*
X120820000Y-50500000D03*
X120820000Y-47960000D03*
X123360000Y-50500000D03*
X123360000Y-47960000D03*
X125900000Y-50500000D03*
X125900000Y-47960000D03*
X128440000Y-50500000D03*
X128440000Y-47960000D03*
%TD*%
D13*
%TO.C,U2*%
X143125000Y-142970000D03*
D14*
X142825000Y-139940000D03*
X137975000Y-139940000D03*
D13*
X137675000Y-142970000D03*
D12*
X149290000Y-143100000D03*
X149290000Y-140560000D03*
D11*
X149290000Y-138020000D03*
D12*
X149290000Y-135480000D03*
X149290000Y-132940000D03*
X149290000Y-130400000D03*
X149290000Y-127860000D03*
D11*
X149290000Y-125320000D03*
D12*
X149290000Y-122780000D03*
X149290000Y-120240000D03*
X149290000Y-117700000D03*
X149290000Y-115160000D03*
D11*
X149290000Y-112620000D03*
D12*
X149290000Y-110080000D03*
X149290000Y-107540000D03*
X149290000Y-105000000D03*
X149290000Y-102460000D03*
D11*
X149290000Y-99920000D03*
D12*
X149290000Y-97380000D03*
X149290000Y-94840000D03*
X131510000Y-94840000D03*
X131510000Y-97380000D03*
D11*
X131510000Y-99920000D03*
D12*
X131510000Y-102460000D03*
X131510000Y-105000000D03*
X131510000Y-107540000D03*
X131510000Y-110080000D03*
D11*
X131510000Y-112620000D03*
D12*
X131510000Y-115160000D03*
X131510000Y-117700000D03*
X131510000Y-120240000D03*
X131510000Y-122780000D03*
D11*
X131510000Y-125320000D03*
D12*
X131510000Y-127860000D03*
X131510000Y-130400000D03*
X131510000Y-132940000D03*
X131510000Y-135480000D03*
D11*
X131510000Y-138020000D03*
D12*
X131510000Y-140560000D03*
X131510000Y-143100000D03*
X142940000Y-95070000D03*
D11*
X140400000Y-95070000D03*
D12*
X137860000Y-95070000D03*
%TD*%
D15*
%TO.C,J1*%
X104050000Y-135210000D03*
X104050000Y-141210000D03*
%TD*%
%TO.C,J2*%
X80550000Y-135210000D03*
X80550000Y-141210000D03*
%TD*%
D16*
X87000000Y-142000000D03*
X109900000Y-114020000D03*
X127030000Y-137800000D03*
M02*
